<svg width="24" height="24" viewBox="0 0 24 24" fill="none" xmlns="http://www.w3.org/2000/svg">
<path fill-rule="evenodd" clip-rule="evenodd" d="M12 24C18.6274 24 24 18.6274 24 12C24 5.37258 18.6274 0 12 0C5.37258 0 0 5.37258 0 12C0 18.6274 5.37258 24 12 24ZM14.5741 5.0005C15.8394 5.2084 17.071 5.57062 18.2382 6.07814C18.2432 6.07984 18.2478 6.08252 18.2517 6.08601C18.2555 6.0895 18.2586 6.09372 18.2607 6.0984C20.2935 8.93055 21.2981 12.1262 20.9224 15.8047C20.9218 15.8125 20.9194 15.8201 20.9153 15.827C20.9112 15.8338 20.9056 15.8397 20.8988 15.8441C19.5385 16.7991 18.0163 17.5272 16.3977 17.9973C16.3863 18.0007 16.374 18.0006 16.3627 17.9969C16.3513 17.9933 16.3415 17.9863 16.3347 17.977C15.9949 17.5293 15.6856 17.0561 15.4156 16.5604C15.4119 16.5537 15.4097 16.5464 15.4091 16.5389C15.4085 16.5314 15.4096 16.5238 15.4122 16.5167C15.415 16.5094 15.4195 16.5027 15.4253 16.4972C15.4311 16.4916 15.4382 16.4874 15.4459 16.4847C15.9322 16.3113 16.4022 16.0995 16.851 15.8516C16.8592 15.847 16.866 15.8405 16.8709 15.8328C16.8758 15.8251 16.8786 15.8164 16.879 15.8074C16.8795 15.7985 16.8775 15.7895 16.8734 15.7814C16.8694 15.7733 16.8632 15.7663 16.8555 15.761C16.761 15.6938 16.6665 15.6235 16.5765 15.5531C16.5683 15.5469 16.5583 15.5429 16.5478 15.5416C16.5373 15.5403 16.5266 15.5417 16.5169 15.5457C13.6066 16.8205 10.4172 16.8205 7.47089 15.5457C7.46151 15.5419 7.45122 15.5405 7.44111 15.5419C7.43101 15.5432 7.42147 15.5471 7.41352 15.5531C7.32352 15.6235 7.22902 15.6938 7.13452 15.761C7.12726 15.7664 7.12147 15.7733 7.11765 15.7812C7.11115 15.7935 7.10986 15.8076 7.11405 15.8207C7.11824 15.8338 7.12758 15.8448 7.14015 15.8516C7.59002 16.0973 8.05944 16.3093 8.54413 16.4858C8.55167 16.4883 8.55857 16.4923 8.56438 16.4975C8.57316 16.5055 8.57901 16.5159 8.58103 16.5272C8.58306 16.5385 8.58117 16.5502 8.57563 16.5604C8.31013 17.0571 8.00189 17.5293 7.65539 17.977C7.64853 17.9863 7.63872 17.9933 7.62739 17.9969C7.61606 18.0006 7.6038 18.0007 7.59239 17.9973C5.97645 17.5258 4.45674 16.7977 3.09806 15.8441C3.08569 15.8345 3.07556 15.8196 3.07444 15.8047C2.76057 12.6229 3.40069 9.40062 5.73391 6.09733C5.7392 6.08853 5.74755 6.08175 5.75754 6.07814C6.92415 5.5697 8.15601 5.20729 9.42162 5.0005C9.43307 4.99882 9.44479 5.00047 9.45523 5.00523C9.46567 5.00998 9.47435 5.01763 9.48012 5.02714C9.65209 5.31464 9.80683 5.61108 9.94362 5.91506C11.3075 5.71894 12.6949 5.71894 14.0588 5.91506C14.1814 5.64218 14.3569 5.29362 14.5156 5.02714C14.5212 5.01752 14.5299 5.00979 14.5404 5.00502C14.5508 5.00025 14.5626 4.99867 14.5741 5.0005ZM7.39777 12.1486C7.39777 13.0951 8.12789 13.8668 9.0155 13.8668C9.91662 13.8668 10.6332 13.0951 10.6332 12.1486C10.6467 11.2074 9.92337 10.4292 9.0155 10.4292C8.11439 10.4292 7.39777 11.201 7.39777 12.1486ZM13.3782 12.1486C13.3782 13.0951 14.1094 13.8668 14.9959 13.8668C15.9038 13.8668 16.6137 13.0951 16.6137 12.1486C16.6283 11.2074 15.9038 10.4292 14.9959 10.4292C14.0948 10.4292 13.3782 11.201 13.3782 12.1486Z" fill="#F8F8F8"/>
</svg>
