<svg width="24" height="24" viewBox="0 0 24 24" fill="none" xmlns="http://www.w3.org/2000/svg">
<path d="M9.25037 12C8.9203 12.0004 8.60386 12.1317 8.37046 12.3651C8.13707 12.5985 8.00577 12.9149 8.00537 13.245C8.00537 13.9335 8.56337 14.505 9.25037 14.4915C9.57328 14.4803 9.87923 14.3441 10.1037 14.1117C10.3282 13.8793 10.4536 13.5689 10.4536 13.2457C10.4536 12.9226 10.3282 12.6122 10.1037 12.3798C9.87923 12.1474 9.57328 12.0112 9.25037 12ZM12.0149 17.4705C12.4874 17.4705 14.1194 17.4135 14.9789 16.554C15.0346 16.4905 15.0653 16.409 15.0653 16.3245C15.0653 16.2401 15.0346 16.1585 14.9789 16.095C14.9491 16.0642 14.9134 16.0398 14.874 16.0231C14.8346 16.0064 14.7922 15.9978 14.7494 15.9978C14.7066 15.9978 14.6642 16.0064 14.6248 16.0231C14.5853 16.0398 14.5497 16.0642 14.5199 16.095C13.9904 16.6395 12.8309 16.8255 12.0149 16.8255C11.1974 16.8255 10.0529 16.6395 9.50837 16.095C9.47858 16.0642 9.44292 16.0398 9.40349 16.0231C9.36407 16.0064 9.32169 15.9978 9.27887 15.9978C9.23606 15.9978 9.19368 16.0064 9.15425 16.0231C9.11483 16.0398 9.07916 16.0642 9.04937 16.095C9.01862 16.1248 8.99416 16.1605 8.97746 16.1999C8.96076 16.2393 8.95216 16.2817 8.95216 16.3245C8.95216 16.3673 8.96076 16.4097 8.97746 16.4491C8.99416 16.4885 9.01862 16.5242 9.04937 16.554C9.89537 17.3985 11.5274 17.469 12.0149 17.469V17.4705ZM13.5029 13.26C13.5029 13.947 14.0624 14.505 14.7494 14.505C15.4364 14.505 15.9944 13.9335 15.9944 13.26C15.9787 12.9404 15.8407 12.639 15.6089 12.4184C15.3771 12.1977 15.0694 12.0746 14.7494 12.0746C14.4294 12.0746 14.1216 12.1977 13.8898 12.4184C13.6581 12.639 13.5201 12.9404 13.5044 13.26H13.5029Z" fill="#F8F8F8"/>
<path d="M24 12C24 15.1826 22.7357 18.2348 20.4853 20.4853C18.2348 22.7357 15.1826 24 12 24C8.8174 24 5.76516 22.7357 3.51472 20.4853C1.26428 18.2348 0 15.1826 0 12C0 8.8174 1.26428 5.76516 3.51472 3.51472C5.76516 1.26428 8.8174 0 12 0C15.1826 0 18.2348 1.26428 20.4853 3.51472C22.7357 5.76516 24 8.8174 24 12ZM18.258 10.2525C17.7855 10.2525 17.355 10.4385 17.04 10.74C15.8385 9.8805 14.19 9.3225 12.3585 9.2505L13.1595 5.499L15.7665 6.057C15.778 6.30042 15.8606 6.53513 16.0042 6.73203C16.1477 6.92893 16.3459 7.07936 16.5742 7.16469C16.8025 7.25001 17.0507 7.26647 17.2883 7.21203C17.5258 7.15759 17.7421 7.03464 17.9104 6.85841C18.0788 6.68219 18.1917 6.46045 18.2351 6.22067C18.2786 5.9809 18.2508 5.73363 18.1551 5.50952C18.0594 5.28542 17.9 5.09433 17.6967 4.95994C17.4934 4.82555 17.2552 4.75377 17.0115 4.7535C16.7784 4.75431 16.5502 4.82054 16.3529 4.94465C16.1557 5.06875 15.9972 5.24575 15.8955 5.4555L12.9885 4.8405C12.9494 4.83207 12.9089 4.83144 12.8696 4.83865C12.8302 4.84585 12.7926 4.86076 12.759 4.8825C12.724 4.90437 12.6942 4.93374 12.6719 4.9685C12.6496 5.00326 12.6353 5.04254 12.63 5.0835L11.742 9.2655C9.882 9.3225 8.205 9.8805 6.987 10.7535C6.672 10.4535 6.243 10.2675 5.772 10.2675C5.37256 10.2669 4.98501 10.4034 4.67412 10.6542C4.36322 10.905 4.14781 11.2549 4.06387 11.6454C3.97994 12.036 4.03256 12.4435 4.21296 12.7998C4.39335 13.1562 4.69059 13.4399 5.055 13.6035C5.025 13.776 5.0115 13.9485 5.0115 14.133C5.0115 16.8255 8.148 19.017 12.015 19.017C15.8805 19.017 19.017 16.8405 19.017 14.133C19.017 13.962 19.002 13.776 18.9735 13.6035C19.575 13.332 20.0055 12.7155 20.0055 12C20.0055 11.025 19.218 10.2525 18.258 10.2525Z" fill="#F8F8F8"/>
</svg>
