<svg width="18" height="18" viewBox="0 0 18 18" fill="none" xmlns="http://www.w3.org/2000/svg">
<path d="M7 0C5.89543 0 5 0.89543 5 2V4C5 4.55228 5.44772 5 6 5C6.55228 5 7 4.55228 7 4V2H16V16H7V14C7 13.4477 6.55228 13 6 13C5.44772 13 5 13.4477 5 14V16C5 17.1046 5.89543 18 7 18H16C17.1046 18 18 17.1046 18 16V2C18 0.895431 17.1046 0 16 0H7Z" fill="white"/>
<path d="M9.70711 5.29289C9.31658 4.90237 8.68342 4.90237 8.29289 5.29289C7.90237 5.68342 7.90237 6.31658 8.29289 6.70711L9.58579 8L1 8C0.447715 8 0 8.44772 0 9C0 9.55228 0.447715 10 1 10H9.58579L8.29289 11.2929C7.90237 11.6834 7.90237 12.3166 8.29289 12.7071C8.68342 13.0976 9.31658 13.0976 9.70711 12.7071L12.7071 9.70711C12.8946 9.51957 13 9.26522 13 9C13 8.73478 12.8946 8.48043 12.7071 8.29289L9.70711 5.29289Z" fill="white"/>
</svg>
