<svg width="22" height="24" viewBox="0 0 22 24" fill="none" xmlns="http://www.w3.org/2000/svg">
<path d="M19.6399 3.36047H17.4799V1.92047C17.4799 1.12655 16.8338 0.480469 16.0399 0.480469H5.95992C5.166 0.480469 4.51992 1.12655 4.51992 1.92047V3.36047H2.35992C1.566 3.36047 0.919922 4.00655 0.919922 4.80047V7.68047C0.919922 9.66551 2.53488 11.2805 4.51992 11.2805H4.68672C5.18208 13.452 6.76944 15.2071 8.83992 15.9425V17.0405C8.83992 18.2316 7.87104 19.2005 6.67992 19.2005H5.95992C5.166 19.2005 4.51992 19.8465 4.51992 20.6405V22.0805C4.51992 22.8744 5.166 23.5205 5.95992 23.5205H16.0399C16.8338 23.5205 17.4799 22.8744 17.4799 22.0805V20.6405C17.4799 19.8465 16.8338 19.2005 16.0399 19.2005H15.3199C14.1288 19.2005 13.1599 18.2316 13.1599 17.0405V15.9425C15.2304 15.2071 16.8178 13.452 17.3131 11.2805H17.4799C19.465 11.2805 21.0799 9.66551 21.0799 7.68047V4.80047C21.0799 4.00655 20.4338 3.36047 19.6399 3.36047ZM2.35992 7.68047V4.80047H4.51992V9.84047C3.3288 9.84047 2.35992 8.87159 2.35992 7.68047ZM16.0399 20.6405L16.0414 22.0805H5.95992V20.6405H16.0399ZM12.4584 19.2005H9.54144C9.9984 18.5969 10.2799 17.8541 10.2799 17.0405V16.278C10.5166 16.3044 10.7563 16.3205 10.9999 16.3205C11.2435 16.3205 11.4833 16.3044 11.7199 16.278V17.0405C11.7199 17.8541 12.0014 18.5969 12.4584 19.2005ZM16.0399 9.84047C16.0399 12.6192 13.7786 14.8805 10.9999 14.8805C8.2212 14.8805 5.95992 12.6192 5.95992 9.84047V1.92047H16.0399V9.84047ZM19.6399 7.68047C19.6399 8.87159 18.671 9.84047 17.4799 9.84047V4.80047H19.6399V7.68047Z" fill="url(#paint0_linear_704_1744)"/>
<defs>
<linearGradient id="paint0_linear_704_1744" x1="10.9999" y1="0.480469" x2="10.9999" y2="23.5205" gradientUnits="userSpaceOnUse">
<stop stop-color="#CB2734"/>
<stop offset="1" stop-color="#8F1010"/>
</linearGradient>
</defs>
</svg>
