<svg width="20" height="17" viewBox="0 0 20 17" fill="none" xmlns="http://www.w3.org/2000/svg">
<path d="M14 2C13.4871 2 13.0214 2.19174 12.6669 2.50903C12.2554 2.87735 11.6232 2.84233 11.2549 2.43081C10.8865 2.01928 10.9216 1.38708 11.3331 1.01876C12.0401 0.385966 12.9762 0 14 0C16.2091 0 18 1.79086 18 4C18 5.18476 17.4837 6.25024 16.6669 6.98124C16.2554 7.34957 15.6232 7.31455 15.2549 6.90302C14.8865 6.49149 14.9216 5.8593 15.3331 5.49097C15.7439 5.12333 16 4.59224 16 4C16 2.89543 15.1046 2 14 2Z" fill="white"/>
<path fill-rule="evenodd" clip-rule="evenodd" d="M10 3C7.79086 3 6 4.79086 6 7C6 9.20914 7.79086 11 10 11C12.2091 11 14 9.20914 14 7C14 4.79086 12.2091 3 10 3ZM8 7C8 5.89543 8.89543 5 10 5C11.1046 5 12 5.89543 12 7C12 8.10457 11.1046 9 10 9C8.89543 9 8 8.10457 8 7Z" fill="white"/>
<path d="M4.96731 9.99569C5.10736 10.5299 4.78782 11.0765 4.25358 11.2166C3.48611 11.4178 2.8906 11.7348 2.50645 12.0803C2.12503 12.4233 2 12.7432 2 12.9996C2 13.5519 1.55228 13.9996 1 13.9996C0.447715 13.9996 0 13.5519 0 12.9996C0 12.0259 0.492018 11.2021 1.16912 10.5932C1.8435 9.98672 2.74799 9.54369 3.74642 9.28195C4.28065 9.1419 4.82726 9.46145 4.96731 9.99569Z" fill="white"/>
<path d="M16.2536 9.28195C15.7193 9.1419 15.1727 9.46145 15.0327 9.99569C14.8926 10.5299 15.2122 11.0765 15.7464 11.2166C16.5139 11.4178 17.1094 11.7348 17.4935 12.0803C17.875 12.4233 18 12.7432 18 12.9996C18 13.5519 18.4477 13.9996 19 13.9996C19.5523 13.9996 20 13.5519 20 12.9996C20 12.0259 19.508 11.2021 18.8309 10.5932C18.1565 9.98672 17.252 9.54369 16.2536 9.28195Z" fill="white"/>
<path d="M6 16C6 15.6608 6.23436 15.1829 6.97896 14.7362C7.70366 14.3014 8.76937 14 10 14C11.2306 14 12.2963 14.3014 13.021 14.7362C13.7656 15.1829 14 15.6608 14 16C14 16.5523 14.4477 17 15 17C15.5523 17 16 16.5523 16 16C16 14.6823 15.1151 13.6602 14.05 13.0212C12.9651 12.3702 11.5308 12 10 12C8.46921 12 7.03492 12.3702 5.94997 13.0212C4.88493 13.6602 4 14.6823 4 16C4 16.5523 4.44772 17 5 17C5.55228 17 6 16.5523 6 16Z" fill="white"/>
<path d="M6 0C3.79086 0 2 1.79086 2 4C2 5.18476 2.51635 6.25024 3.33309 6.98124C3.74461 7.34957 4.37681 7.31455 4.74513 6.90302C5.11346 6.49149 5.07844 5.8593 4.66691 5.49097C4.25615 5.12333 4 4.59224 4 4C4 2.89543 4.89543 2 6 2C6.51288 2 6.97858 2.19174 7.33309 2.50903C7.74461 2.87735 8.37681 2.84233 8.74513 2.43081C9.11346 2.01928 9.07844 1.38708 8.66691 1.01876C7.9599 0.385966 7.02383 0 6 0Z" fill="white"/>
</svg>
