<svg width="18" height="20" viewBox="0 0 18 20" fill="none" xmlns="http://www.w3.org/2000/svg">
<path fill-rule="evenodd" clip-rule="evenodd" d="M3.87314 16.3125C2.59391 17.112 2 18.0885 2 19C2 19.5523 1.55228 20 1 20C0.447715 20 0 19.5523 0 19C0 17.1501 1.19695 15.6266 2.81315 14.6165C4.44343 13.5975 6.63342 13 9 13C11.3666 13 13.5566 13.5975 15.1869 14.6165C16.803 15.6266 18 17.1501 18 19C18 19.5523 17.5523 20 17 20C16.4477 20 16 19.5523 16 19C16 18.0885 15.4061 17.112 14.1269 16.3125C12.8617 15.5217 11.0517 15 9 15C6.9483 15 5.13829 15.5217 3.87314 16.3125Z" fill="white"/>
<path fill-rule="evenodd" clip-rule="evenodd" d="M9 2C6.79086 2 5 3.79086 5 6C5 8.20914 6.79086 10 9 10C11.2091 10 13 8.20914 13 6C13 3.79086 11.2091 2 9 2ZM3 6C3 2.68629 5.68629 0 9 0C12.3137 0 15 2.68629 15 6C15 9.31371 12.3137 12 9 12C5.68629 12 3 9.31371 3 6Z" fill="white"/>
</svg>
