<svg width="20" height="14" viewBox="0 0 20 14" fill="none" xmlns="http://www.w3.org/2000/svg">
<path d="M7.58 10.96C7.43333 11.5333 7.28 11.9733 7.12 12.28C6.97333 12.5733 6.76 12.78 6.48 12.9C6.2 13.0067 5.8 13.0533 5.28 13.04L3.1 13L0.16 0.299999H2.18L4.68 11.22H5.5C5.58 11.22 5.63333 11.2067 5.66 11.18C5.68667 11.14 5.70667 11.08 5.72 11L8.4 0.299999H10.32L7.58 10.96ZM13.4516 5.7H16.1916C17.1782 5.7 17.9316 5.92667 18.4516 6.38C18.9849 6.83333 19.2516 7.50667 19.2516 8.4V10.34C19.2516 11.26 18.9982 11.9533 18.4916 12.42C17.9849 12.8867 17.2316 13.1067 16.2316 13.08L11.3316 13V11.22H16.9116C17.0849 11.22 17.1716 11.1333 17.1716 10.96V7.8C17.1716 7.62667 17.0849 7.54 16.9116 7.54H14.1316C13.1316 7.54 12.3782 7.32 11.8716 6.88C11.3649 6.44 11.1116 5.76667 11.1116 4.86V2.98C11.1116 2.08667 11.3716 1.4 11.8916 0.919999C12.4249 0.426666 13.1849 0.193333 14.1716 0.219999L18.8516 0.299999V2.08H13.4516C13.2782 2.08 13.1916 2.16667 13.1916 2.34V5.44C13.1916 5.61333 13.2782 5.7 13.4516 5.7Z" fill="white"/>
</svg>
