<svg width="32" height="32" viewBox="0 0 32 32" fill="none" xmlns="http://www.w3.org/2000/svg">
<rect width="32" height="32" rx="16" fill="url(#paint0_linear_1085_4671)"/>
<path d="M13.7071 8.29289C13.3166 7.90237 12.6834 7.90237 12.2929 8.29289C11.9024 8.68342 11.9024 9.31658 12.2929 9.70711L13.7071 8.29289ZM20 16L20.7071 16.7071C21.0976 16.3166 21.0976 15.6834 20.7071 15.2929L20 16ZM12.2929 22.2929C11.9024 22.6834 11.9024 23.3166 12.2929 23.7071C12.6834 24.0976 13.3166 24.0976 13.7071 23.7071L12.2929 22.2929ZM12.2929 9.70711L19.2929 16.7071L20.7071 15.2929L13.7071 8.29289L12.2929 9.70711ZM19.2929 15.2929L12.2929 22.2929L13.7071 23.7071L20.7071 16.7071L19.2929 15.2929Z" fill="white"/>
<defs>
<linearGradient id="paint0_linear_1085_4671" x1="16" y1="0" x2="16" y2="32" gradientUnits="userSpaceOnUse">
<stop stop-color="#CB2734"/>
<stop offset="1" stop-color="#8F1010"/>
</linearGradient>
</defs>
</svg>
