<svg width="16" height="16" viewBox="0 0 16 16" fill="none" xmlns="http://www.w3.org/2000/svg">
<path d="M8.00028 7.17244C9.9809 7.17244 11.5865 5.56683 11.5865 3.58622C11.5865 1.6056 9.9809 0 8.00028 0C6.01967 0 4.41406 1.6056 4.41406 3.58622C4.41406 5.56683 6.01967 7.17244 8.00028 7.17244Z" fill="#F0C419"/>
<path d="M11.0348 14.3446C7.81738 11.7763 9.93132 7.38873 10.7037 6.03482C10.8522 5.77316 10.8463 5.45138 10.6883 5.19538C10.5862 5.02791 10.4181 4.91141 10.2254 4.87463C10.0328 4.83785 9.83357 4.88423 9.67698 5.00229C9.19082 5.35545 8.60085 5.53657 8.00029 5.51704C7.4002 5.53654 6.81066 5.35573 6.3247 5.0031C6.1681 4.88504 5.96888 4.83866 5.77623 4.87545C5.58357 4.91223 5.41548 5.02873 5.31338 5.1962C5.15538 5.4522 5.14945 5.77398 5.29795 6.03563C6.06926 7.38873 8.1832 11.7763 4.96582 14.3446H11.0348Z" fill="#F29C1F"/>
<path d="M7.99992 5.51742C8.60933 5.51742 9.10336 5.0234 9.10336 4.41398C9.10336 3.80457 8.60933 3.31055 7.99992 3.31055C7.39051 3.31055 6.89648 3.80457 6.89648 4.41398C6.89648 5.0234 7.39051 5.51742 7.99992 5.51742Z" fill="#F3D55B"/>
<path d="M11.5752 3.33205C9.44282 3.45342 10.1739 1.91964 9.37935 1.6548C8.63729 1.40652 8.56004 0.272734 8.55176 0.0410156C10.2035 0.299234 11.4577 1.66442 11.5752 3.33205Z" fill="#F9EAB0"/>
<path d="M6.42213 2.08522C6.29076 2.12022 6.16323 2.16828 6.04145 2.22866C5.9191 2.30128 5.81823 2.40503 5.74904 2.52934C5.70491 2.61487 5.67457 2.70866 5.62766 2.79416C5.49185 2.98562 5.26207 3.08728 5.02904 3.05897C4.83816 3.05572 4.64757 3.04281 4.45801 3.02034C4.65704 1.78003 5.48979 0.733875 6.65388 0.261719C6.75819 0.576844 6.83751 0.899656 6.89113 1.22725C6.98413 1.592 6.77935 1.96659 6.42213 2.08522Z" fill="#F9EAB0"/>
<path d="M8.00048 12.6901C7.84814 12.6901 7.72461 12.5666 7.72461 12.4142C7.72461 10.2603 8.98998 8.42276 9.37786 7.91101C9.43739 7.83244 9.5343 7.79163 9.63208 7.80391C9.72986 7.81619 9.81367 7.87969 9.85195 7.97054C9.89023 8.06138 9.87711 8.16569 9.81758 8.24426C9.45592 8.72123 8.27633 10.4324 8.27633 12.4142C8.27636 12.5666 8.15283 12.6901 8.00048 12.6901Z" fill="#E57E25"/>
<path d="M6.89697 14.6212C6.74463 14.6212 6.62109 14.4977 6.62109 14.3453V7.44873C6.62109 7.29638 6.74459 7.17285 6.89697 7.17285C7.04931 7.17285 7.17284 7.29635 7.17284 7.44873V14.3453C7.17281 14.4977 7.04931 14.6212 6.89697 14.6212Z" fill="#E57E25"/>
<path d="M5.00994 14.0693H10.9906C11.3197 14.0693 11.5865 14.3361 11.5865 14.6652V16.0004H4.41406V14.6652C4.41406 14.3361 4.68084 14.0693 5.00994 14.0693Z" fill="#71C285"/>
<path d="M7.44869 15.4482H6.89697C6.74463 15.4482 6.62109 15.3247 6.62109 15.1724C6.62109 15.02 6.74459 14.8965 6.89697 14.8965H7.44869C7.60103 14.8965 7.72456 15.02 7.72456 15.1724C7.72456 15.3247 7.60103 15.4482 7.44869 15.4482Z" fill="#F0C419"/>
<path d="M9.65568 15.4482H8.55224C8.3999 15.4482 8.27637 15.3247 8.27637 15.1724C8.27637 15.02 8.39987 14.8965 8.55224 14.8965H9.65568C9.80802 14.8965 9.93155 15.02 9.93155 15.1724C9.93155 15.3247 9.80802 15.4482 9.65568 15.4482Z" fill="#F0C419"/>
</svg>
