<svg width="100" height="44" viewBox="0 0 100 44" fill="none" xmlns="http://www.w3.org/2000/svg">
<path d="M0.0908208 13.0214V31.1049C0.0904803 31.7795 0.269517 32.4423 0.60992 33.0266C0.950323 33.6109 1.44009 34.0961 2.02994 34.4335L17.8428 43.4752C18.4321 43.8131 19.1009 43.9911 19.7819 43.9911C20.4628 43.9911 21.1317 43.8131 21.721 43.4752L37.5338 34.4335C38.1237 34.0961 38.6134 33.6109 38.9538 33.0266C39.2942 32.4423 39.4733 31.7795 39.4729 31.1049V13.0214C39.4733 12.3468 39.2942 11.684 38.9538 11.0997C38.6134 10.5154 38.1237 10.0302 37.5338 9.69286L21.721 0.651153C21.1317 0.31321 20.4628 0.135254 19.7819 0.135254C19.1009 0.135254 18.4321 0.31321 17.8428 0.651153L2.02994 9.69286C1.44009 10.0302 0.950323 10.5154 0.60992 11.0997C0.269517 11.684 0.0904803 12.3468 0.0908208 13.0214Z" fill="url(#paint0_linear_504_14336)"/>
<g style="mix-blend-mode:screen">
<path d="M17.8423 43.475C18.3488 43.7596 18.9134 43.9279 19.4944 43.9673C20.0753 44.0068 20.6578 43.9164 21.1988 43.7029C21.465 43.5868 21.7218 43.4508 21.9671 43.296L22.723 42.8606L24.2389 41.9979L30.2576 38.5066L36.2927 35.0396C36.7857 34.7466 37.3156 34.474 37.784 34.1647C38.2451 33.8457 38.6283 33.4286 38.9056 32.944C39.1772 32.4473 39.333 31.8967 39.3616 31.3326C39.3616 30.7711 39.3616 30.1851 39.3616 29.6113L39.3328 15.7965V13.1922C39.338 12.9127 39.316 12.6334 39.2671 12.358C39.1635 11.8118 38.9378 11.2956 38.6065 10.847C38.2752 10.3985 37.8468 10.0291 37.3526 9.76596L31.3052 6.31937L25.2701 2.84836L22.2546 1.11896C21.7793 0.810405 21.2619 0.570619 20.7181 0.406858C20.1806 0.271613 19.6196 0.254944 19.0748 0.358028C18.5148 0.474546 17.9814 0.692513 17.5013 1.00096L15.9895 1.85955L12.9658 3.58082L6.91837 7.02334L3.89467 8.7446L2.38281 9.60727C2.12596 9.74052 1.87886 9.89145 1.64332 10.0589C1.41994 10.232 1.21609 10.4285 1.03529 10.6449C0.677619 11.0812 0.423494 11.5916 0.291693 12.1383C0.184407 12.6972 0.147151 13.2672 0.180769 13.8351V17.2899L0.0903861 31.1047L3.64892e-06 17.2899V13.8351C-0.0379612 13.2525 -0.00207651 12.6674 0.106819 12.0935C0.2472 11.5179 0.516817 10.981 0.895612 10.5228C1.08489 10.2947 1.29838 10.0873 1.5324 9.90432C1.77065 9.73175 2.02046 9.5754 2.28011 9.43636L3.78785 8.56963L6.80334 6.83616L12.8425 3.36922L15.858 1.62761L17.3658 0.760876C17.6164 0.622524 17.8629 0.463827 18.1422 0.353959C18.4168 0.229504 18.7049 0.136662 19.0009 0.0772548C19.895 -0.105282 20.8254 0.0241067 21.6343 0.443481C21.9013 0.581833 22.1437 0.728323 22.3984 0.870744L25.4221 2.59201L31.4695 6.03453L37.5005 9.50147C38.033 9.78665 38.494 10.1866 38.8495 10.6719C39.2051 11.1571 39.446 11.7153 39.5547 12.3051C39.6069 12.5979 39.6289 12.8951 39.6204 13.1922V15.7843L39.5916 29.5991C39.5916 30.177 39.5916 30.7466 39.5916 31.3326C39.5569 31.9247 39.3873 32.5013 39.0956 33.0193C38.8039 33.5372 38.3976 33.9831 37.9072 34.3234C37.406 34.649 36.9007 34.9094 36.3954 35.2065L30.3274 38.6571L24.2677 42.0793L22.7517 42.9338L21.9917 43.3407C21.7433 43.495 21.4838 43.631 21.2152 43.7477C20.6683 43.9553 20.0813 44.0386 19.4975 43.9914C18.9137 43.9442 18.348 43.7677 17.8423 43.475Z" fill="url(#paint1_linear_504_14336)"/>
</g>
<path d="M19.5759 16.4678L14.8102 19.8981C14.7615 19.927 14.7236 19.9708 14.7021 20.0229C14.6807 20.075 14.6768 20.1325 14.6911 20.187L16.5111 25.7373C16.5264 25.7914 16.5592 25.839 16.6045 25.8729C16.6497 25.9067 16.705 25.9248 16.7617 25.9245H22.6489C22.7056 25.9248 22.7608 25.9067 22.8061 25.8729C22.8514 25.839 22.8842 25.7914 22.8995 25.7373L24.7194 20.187C24.7331 20.1325 24.7289 20.0752 24.7075 20.0233C24.6861 19.9713 24.6485 19.9275 24.6003 19.8981L19.8347 16.4678C19.5676 16.2765 19.3088 16.72 19.5759 16.9113L24.3415 20.3457L24.2388 20.0527L22.4024 25.6031L22.6489 25.4118H16.7617L17.0082 25.6031L15.2005 20.0527L15.0814 20.3416L19.847 16.9113C20.1017 16.72 19.8429 16.2765 19.5759 16.4678Z" fill="url(#paint2_linear_504_14336)"/>
<path d="M19.917 15.2146V10.3316C19.9163 10.2866 19.9039 10.2426 19.8809 10.2038C19.8579 10.165 19.8252 10.1328 19.7859 10.1102C19.7466 10.0877 19.7021 10.0756 19.6566 10.0752C19.6112 10.0748 19.5665 10.086 19.5268 10.1078C19.7239 9.96538 19.7774 10.1078 19.6418 10.0712C19.5662 10.0527 19.4893 10.0405 19.4117 10.0346L18.5284 9.90027L16.121 9.53404L14.3256 9.26141C14.204 9.23259 14.077 9.23464 13.9563 9.26736C13.8357 9.30008 13.7253 9.36241 13.6355 9.44859L10.1352 12C9.90923 12.1627 9.49019 12.3581 9.38337 12.6266C9.26594 13.073 9.19165 13.5295 9.16152 13.9898L8.72194 16.6836L8.5535 17.7334C8.52768 17.835 8.50983 17.9384 8.50009 18.0427C8.50009 18.1973 8.38506 18.1566 8.6028 18.002C8.56059 18.0286 8.52692 18.0666 8.50574 18.1115C8.48456 18.1563 8.47675 18.2063 8.48322 18.2554C8.48969 18.3045 8.51017 18.3508 8.54227 18.3888C8.57437 18.4268 8.61674 18.455 8.66442 18.47L8.48366 18.1526C8.45079 18.3438 8.66031 18.588 8.86573 18.4415C8.71372 18.5473 8.61101 18.4415 8.86573 18.531C9.03828 18.592 9.21493 18.6409 9.38748 18.6978L11.0308 19.2228L13.3849 19.9796C13.7053 20.0813 13.8409 19.5727 13.5245 19.4872L10.9774 18.6734L9.36283 18.1566C9.20261 18.1037 8.78356 17.884 8.61512 18.0061L8.99719 18.295C9.0119 18.2293 9.00158 18.1606 8.96821 18.102C8.93484 18.0434 8.88078 17.9991 8.81643 17.9776L8.87805 18.4496C9.12044 18.2706 9.09579 17.6683 9.14098 17.4079L9.50662 15.0559L9.82707 13.0946C9.86054 12.975 9.8812 12.8522 9.88869 12.7283C10.0325 12.8586 9.63809 12.9155 9.83939 12.8301C9.92473 12.7801 10.0046 12.7215 10.0777 12.6551L13.5985 10.0915C13.7299 9.99386 14.0093 9.86772 14.0956 9.72936C14.1819 9.59101 14.1531 9.96131 13.9682 9.70088C13.9682 9.72123 14.0874 9.72123 14.1079 9.72529C14.6543 9.85551 15.2377 9.8962 15.7923 9.98165L18.4709 10.3886L19.3665 10.5229C19.4816 10.5432 19.687 10.6042 19.7774 10.5229L19.3665 10.3031V15.2146C19.3665 15.2826 19.3938 15.3478 19.4423 15.3959C19.4909 15.444 19.5567 15.471 19.6253 15.471C19.694 15.471 19.7598 15.444 19.8084 15.3959C19.8569 15.3478 19.8842 15.2826 19.8842 15.2146H19.917Z" fill="url(#paint3_linear_504_14336)"/>
<path d="M13.5078 19.4792L8.79974 17.9614C8.75542 17.9501 8.70887 17.9504 8.6647 17.9623C8.62054 17.9742 8.58027 17.9973 8.5479 18.0294C8.51553 18.0615 8.49218 18.1013 8.48014 18.1451C8.46811 18.1888 8.46781 18.2349 8.47929 18.2788C8.39301 18.0184 8.56556 18.051 8.47929 18.1568C8.4364 18.2206 8.40059 18.2888 8.37247 18.3602L7.96164 19.1741L6.86884 21.3266L6.04718 22.9543C5.98537 23.0616 5.95116 23.1823 5.94758 23.3058C5.944 23.4293 5.97115 23.5517 6.02664 23.6624L7.3947 27.7112C7.48508 27.9757 7.5426 28.4233 7.77677 28.6023C8.16756 28.849 8.58007 29.0601 9.00926 29.2331L11.4742 30.4823L12.4315 30.9665C12.5202 31.022 12.6137 31.0697 12.7108 31.1089C12.8711 31.1578 12.7725 31.2432 12.7108 31.0072C12.7255 31.0547 12.7535 31.0971 12.7916 31.1293C12.8298 31.1615 12.8764 31.1823 12.9261 31.1891C12.9757 31.196 13.0263 31.1886 13.0719 31.1679C13.1175 31.1472 13.1561 31.1141 13.1833 31.0723L12.83 31.1659C12.8743 31.1909 12.9251 31.2023 12.976 31.1988C13.0269 31.1952 13.0756 31.1768 13.116 31.146C13.1564 31.1151 13.1866 31.0731 13.203 31.0253C13.2194 30.9774 13.2211 30.9258 13.2079 30.877C13.2696 31.0642 13.1381 31.1089 13.3024 30.9055C13.4175 30.7671 13.5202 30.6125 13.627 30.4701L14.6376 29.0906L16.092 27.1089C16.2686 26.8567 15.8208 26.58 15.6113 26.8567L14.0378 29.0011L13.0395 30.3602C12.9327 30.5067 12.6081 30.8119 12.678 31.0235L13.0559 30.7305C12.9963 30.6976 12.9261 30.689 12.8602 30.7065C12.7942 30.724 12.7377 30.7661 12.7026 30.8241L13.1792 30.8851C13.0888 30.6084 12.4767 30.4335 12.2507 30.3195L10.1226 29.2412L8.34782 28.3216C8.31907 28.3216 8.05203 28.1344 8.01916 28.1507C8.22047 28.0367 8.11776 28.4436 8.10954 28.2239C8.0905 28.1266 8.05874 28.0323 8.01505 27.9431L6.64288 23.8373C6.60473 23.6358 6.5398 23.4401 6.44979 23.2554C6.31422 23.0845 6.68807 23.3002 6.39638 23.3694C6.39638 23.3694 6.44979 23.2595 6.46212 23.2432C6.74212 22.7544 6.99716 22.2519 7.22626 21.7376L8.45875 19.3368L8.86958 18.523C8.92709 18.4091 9.03802 18.2544 8.99693 18.1161L8.67649 18.4335L13.3846 19.9472C13.705 20.0489 13.8406 19.5403 13.5243 19.4548L13.5078 19.4792Z" fill="url(#paint4_linear_504_14336)"/>
<path d="M26.0342 19.9391L30.7465 18.4253L30.426 18.1079C30.3438 18.3602 30.7506 18.8933 30.8368 19.0927L31.9009 21.1802L32.8088 22.9665C32.8088 22.9991 32.9526 23.3287 32.9937 23.3287C32.6897 23.3043 33.0759 23.0683 32.9526 23.1985C32.9111 23.2777 32.882 23.3628 32.8663 23.4508L31.5024 27.5199C31.4203 27.7232 31.3503 27.9311 31.2929 28.1425C31.2929 28.1425 31.2518 28.2402 31.26 28.2483C31.1409 28.11 31.5188 28.0774 31.26 28.1507C30.7438 28.3598 30.2463 28.6117 29.7728 28.9035L27.3078 30.1242L26.4862 30.5311C26.3629 30.5962 26.215 30.641 26.1657 30.7875L26.7039 30.7834C26.6681 30.7262 26.6116 30.6847 26.546 30.6673C26.4803 30.6499 26.4104 30.658 26.3506 30.6898L26.7285 30.9828C26.7984 30.7753 26.4903 30.4904 26.3876 30.348L25.3687 28.9604L23.7788 26.816C23.5857 26.5515 23.1338 26.816 23.331 27.0764L24.7853 29.0581L25.7754 30.405L26.1041 30.8567C26.1287 30.8892 26.1657 30.9665 26.2027 30.9869C26.3054 31.0479 26.1 31.1863 26.2027 30.8445C26.1896 30.8933 26.1913 30.9449 26.2076 30.9927C26.224 31.0406 26.2543 31.0826 26.2947 31.1134C26.335 31.1443 26.3837 31.1627 26.4346 31.1662C26.4855 31.1698 26.5363 31.1583 26.5807 31.1334L26.2232 31.0398C26.2489 31.0841 26.2872 31.12 26.3333 31.143C26.3794 31.166 26.4313 31.175 26.4826 31.1689C26.5339 31.1628 26.5822 31.1419 26.6215 31.1088C26.6609 31.0757 26.6895 31.0319 26.7039 30.9828C26.6053 31.2799 26.5314 31.113 26.6587 31.0967C26.7341 31.0716 26.8049 31.0345 26.8682 30.9869L27.6899 30.58L29.8837 29.465C30.4178 29.1964 30.956 28.936 31.4818 28.6512C31.753 28.5047 31.79 28.3378 31.8927 28.0489L33.2772 23.9431C33.3717 23.6583 33.5565 23.345 33.4579 23.052C33.2697 22.614 33.0528 22.1885 32.8088 21.7783L31.5763 19.3368L31.1039 18.405C31.0681 18.3091 31.0212 18.2176 30.9642 18.1323C30.8574 17.9981 31.0176 17.9981 30.9642 18.23C30.9757 18.1861 30.9754 18.14 30.9634 18.0963C30.9513 18.0525 30.928 18.0126 30.8956 17.9806C30.8632 17.9485 30.823 17.9254 30.7788 17.9135C30.7346 17.9015 30.6881 17.9012 30.6438 17.9126L25.8822 19.4508C25.5659 19.5484 25.7015 20.0449 26.0178 19.9431L26.0342 19.9391Z" fill="url(#paint5_linear_504_14336)"/>
<path d="M15.6119 26.8567L12.7361 30.812C12.7074 30.8511 12.6904 30.8974 12.6871 30.9457C12.6838 30.9939 12.6944 31.0421 12.7176 31.0846C12.7408 31.1272 12.7757 31.1624 12.8182 31.1861C12.8607 31.2099 12.9092 31.2212 12.9579 31.2189C12.6621 31.2189 12.7731 31.0846 12.8347 31.2189C12.8846 31.2791 12.9411 31.3337 13.0031 31.3817L13.6399 32.0042L15.3654 33.7011L16.6595 34.9707C16.7447 35.06 16.8506 35.1274 16.968 35.1671C17.0853 35.2068 17.2107 35.2176 17.3333 35.1985L21.6798 35.1741C21.9715 35.1741 22.4029 35.2555 22.6535 35.0805C23.0083 34.7834 23.338 34.4582 23.6395 34.108L25.5868 32.1467L26.3469 31.3979C26.4259 31.3285 26.5 31.2537 26.5687 31.1741C26.6714 31.0358 26.7043 31.1741 26.4701 31.1741C26.5207 31.1733 26.5698 31.1578 26.6116 31.1295C26.6533 31.1013 26.6858 31.0616 26.7051 31.0153C26.7243 30.969 26.7294 30.9181 26.7198 30.869C26.7101 30.8198 26.6862 30.7746 26.6509 30.7387V31.1009C26.6857 31.0645 26.7092 31.019 26.7185 30.9698C26.7279 30.9206 26.7227 30.8698 26.7036 30.8234C26.6845 30.777 26.6524 30.7371 26.611 30.7083C26.5695 30.6796 26.5206 30.6633 26.4701 30.6614L26.6961 30.7876L23.7874 26.8201C23.5902 26.5556 23.1424 26.8201 23.3396 27.0805L24.9418 29.2657L25.9278 30.6126C26.0429 30.7672 26.2442 31.1741 26.4742 31.1741L26.2935 30.7265C26.247 30.7756 26.2211 30.8403 26.2211 30.9076C26.2211 30.9749 26.247 31.0396 26.2935 31.0887L26.4783 30.6492C26.1949 30.6492 25.821 31.1904 25.6567 31.3572L23.9599 33.0297L22.5385 34.4335C22.5138 34.458 22.2673 34.6533 22.2755 34.6899C22.2262 34.4335 22.5837 34.6899 22.37 34.6167C22.2704 34.6046 22.1697 34.6046 22.0701 34.6167H17.703C17.4983 34.5922 17.2914 34.5922 17.0868 34.6167C16.8772 34.6858 17.2182 34.4254 17.1813 34.6899C17.1813 34.6899 17.0909 34.6044 17.0786 34.5922C16.6998 34.173 16.2965 33.7763 15.8707 33.404L13.9275 31.5485L13.2866 30.9259C13.1921 30.8323 13.0894 30.694 12.9415 30.694L13.1675 31.1009L16.0761 27.1334C16.2733 26.8649 15.8214 26.6085 15.6283 26.873L15.6119 26.8567Z" fill="url(#paint6_linear_504_14336)"/>
<path d="M19.9171 15.2145V10.3315L19.5268 10.5512C19.7281 10.6977 20.3977 10.478 20.6073 10.4454L22.9367 10.0914L24.9333 9.76589C25.0722 9.76136 25.21 9.74088 25.3441 9.70485C25.2003 9.99783 25.1223 9.55429 25.2044 9.70485C25.2291 9.76182 25.3688 9.82693 25.4222 9.86355L28.9224 12.4109C29.0915 12.5514 29.27 12.6806 29.4565 12.7974C29.4565 12.7974 29.5346 12.8707 29.5469 12.8666C29.3538 12.9317 29.4565 12.5818 29.4483 12.8259C29.4889 13.3752 29.5783 13.9198 29.7153 14.4536L30.1508 17.1352C30.2001 17.4363 30.1714 18.2135 30.4548 18.417L30.5165 17.9449C30.4516 17.9656 30.3969 18.0098 30.3634 18.0686C30.3299 18.1274 30.32 18.1966 30.3357 18.2623L30.7178 17.9734C30.5493 17.8554 30.1549 18.0629 29.9988 18.1118L28.3555 18.6408L25.8084 19.4546C25.492 19.5563 25.6276 20.0487 25.9439 19.947L28.298 19.1901L29.8961 18.7181L30.4302 18.5431C30.4846 18.5355 30.5373 18.519 30.5863 18.4943C30.6808 18.4129 30.726 18.6489 30.4507 18.4495C30.6561 18.596 30.8616 18.3559 30.8328 18.1606L30.652 18.478C30.6997 18.463 30.7421 18.4349 30.7742 18.3969C30.8063 18.3589 30.8268 18.3126 30.8332 18.2634C30.8397 18.2143 30.8319 18.1644 30.8107 18.1195C30.7895 18.0746 30.7559 18.0366 30.7137 18.01C30.9848 18.2054 30.7917 18.1972 30.8164 18.0792C30.8141 18.0007 30.8017 17.9227 30.7794 17.8473L30.6356 16.9521L30.2248 14.5431C30.1303 13.9612 30.0522 13.3712 29.9413 12.7893C29.8838 12.4922 29.7236 12.4027 29.4812 12.2277L25.9604 9.66823C25.7098 9.48512 25.4756 9.22062 25.1593 9.23283C24.682 9.28021 24.2075 9.35219 23.7378 9.4485L21.0304 9.85541L19.991 10.0141C19.8871 10.0187 19.7838 10.0337 19.6829 10.0589C19.5145 10.1158 19.5966 9.97342 19.7733 10.0996C19.7332 10.0725 19.6862 10.0569 19.6377 10.0547C19.5893 10.0524 19.5411 10.0634 19.4985 10.0866C19.456 10.1098 19.4208 10.1442 19.3967 10.186C19.3727 10.2277 19.3608 10.2753 19.3624 10.3234V15.2145C19.3624 15.2825 19.3897 15.3477 19.4383 15.3958C19.4868 15.4439 19.5526 15.4709 19.6213 15.4709C19.6899 15.4709 19.7557 15.4439 19.8043 15.3958C19.8528 15.3477 19.8801 15.2825 19.8801 15.2145H19.9171Z" fill="url(#paint7_linear_504_14336)"/>
<path d="M14.1367 10.4456C14.7062 10.4456 15.1678 9.98828 15.1678 9.4242C15.1678 8.86011 14.7062 8.40283 14.1367 8.40283C13.5671 8.40283 13.1055 8.86011 13.1055 9.4242C13.1055 9.98828 13.5671 10.4456 14.1367 10.4456Z" fill="url(#paint8_linear_504_14336)"/>
<path d="M9.67928 13.4078C10.1353 13.4078 10.5051 13.0416 10.5051 12.5899C10.5051 12.1382 10.1353 11.772 9.67928 11.772C9.22322 11.772 8.85352 12.1382 8.85352 12.5899C8.85352 13.0416 9.22322 13.4078 9.67928 13.4078Z" fill="url(#paint9_linear_504_14336)"/>
<path d="M19.7037 11.1046C20.1598 11.1046 20.5295 10.7384 20.5295 10.2867C20.5295 9.83494 20.1598 9.46875 19.7037 9.46875C19.2476 9.46875 18.8779 9.83494 18.8779 10.2867C18.8779 10.7384 19.2476 11.1046 19.7037 11.1046Z" fill="url(#paint10_linear_504_14336)"/>
<path d="M25.1676 10.2423C25.6236 10.2423 25.9933 9.87607 25.9933 9.42435C25.9933 8.97263 25.6236 8.60645 25.1676 8.60645C24.7115 8.60645 24.3418 8.97263 24.3418 9.42435C24.3418 9.87607 24.7115 10.2423 25.1676 10.2423Z" fill="url(#paint11_linear_504_14336)"/>
<path d="M29.7154 13.4078C30.1715 13.4078 30.5412 13.0416 30.5412 12.5899C30.5412 12.1382 30.1715 11.772 29.7154 11.772C29.2594 11.772 28.8896 12.1382 28.8896 12.5899C28.8896 13.0416 29.2594 13.4078 29.7154 13.4078Z" fill="url(#paint12_linear_504_14336)"/>
<path d="M30.6275 19.0113C31.0836 19.0113 31.4533 18.6451 31.4533 18.1934C31.4533 17.7417 31.0836 17.3755 30.6275 17.3755C30.1715 17.3755 29.8018 17.7417 29.8018 18.1934C29.8018 18.6451 30.1715 19.0113 30.6275 19.0113Z" fill="url(#paint13_linear_504_14336)"/>
<path d="M8.77987 19.0113C9.23593 19.0113 9.60564 18.6451 9.60564 18.1934C9.60564 17.7417 9.23593 17.3755 8.77987 17.3755C8.32381 17.3755 7.9541 17.7417 7.9541 18.1934C7.9541 18.6451 8.32381 19.0113 8.77987 19.0113Z" fill="url(#paint14_linear_504_14336)"/>
<path d="M33.318 24.1505C33.774 24.1505 34.1437 23.7843 34.1437 23.3326C34.1437 22.8808 33.774 22.5146 33.318 22.5146C32.8619 22.5146 32.4922 22.8808 32.4922 23.3326C32.4922 23.7843 32.8619 24.1505 33.318 24.1505Z" fill="url(#paint15_linear_504_14336)"/>
<path d="M6.24862 24.1505C6.70468 24.1505 7.07439 23.7843 7.07439 23.3326C7.07439 22.8808 6.70468 22.5146 6.24862 22.5146C5.79256 22.5146 5.42285 22.8808 5.42285 23.3326C5.42285 23.7843 5.79256 24.1505 6.24862 24.1505Z" fill="url(#paint16_linear_504_14336)"/>
<path d="M31.5973 29.2247C32.0533 29.2247 32.423 28.8585 32.423 28.4068C32.423 27.9551 32.0533 27.5889 31.5973 27.5889C31.1412 27.5889 30.7715 27.9551 30.7715 28.4068C30.7715 28.8585 31.1412 29.2247 31.5973 29.2247Z" fill="url(#paint17_linear_504_14336)"/>
<path d="M7.99862 29.2247C8.45468 29.2247 8.82439 28.8585 8.82439 28.4068C8.82439 27.9551 8.45468 27.5889 7.99862 27.5889C7.54256 27.5889 7.17285 27.9551 7.17285 28.4068C7.17285 28.8585 7.54256 29.2247 7.99862 29.2247Z" fill="url(#paint18_linear_504_14336)"/>
<path d="M19.7037 16.0001C20.1598 16.0001 20.5295 15.6339 20.5295 15.1822C20.5295 14.7304 20.1598 14.3643 19.7037 14.3643C19.2476 14.3643 18.8779 14.7304 18.8779 15.1822C18.8779 15.6339 19.2476 16.0001 19.7037 16.0001Z" fill="url(#paint19_linear_504_14336)"/>
<path d="M25.9195 20.5128C26.3756 20.5128 26.7453 20.1466 26.7453 19.6949C26.7453 19.2431 26.3756 18.877 25.9195 18.877C25.4635 18.877 25.0938 19.2431 25.0938 19.6949C25.0938 20.1466 25.4635 20.5128 25.9195 20.5128Z" fill="url(#paint20_linear_504_14336)"/>
<path d="M23.6392 27.7071C24.0953 27.7071 24.465 27.3409 24.465 26.8892C24.465 26.4375 24.0953 26.0713 23.6392 26.0713C23.1832 26.0713 22.8135 26.4375 22.8135 26.8892C22.8135 27.3409 23.1832 27.7071 23.6392 27.7071Z" fill="url(#paint21_linear_504_14336)"/>
<path d="M26.4039 31.7437C26.86 31.7437 27.2297 31.3775 27.2297 30.9258C27.2297 30.4741 26.86 30.1079 26.4039 30.1079C25.9478 30.1079 25.5781 30.4741 25.5781 30.9258C25.5781 31.3775 25.9478 31.7437 26.4039 31.7437Z" fill="url(#paint22_linear_504_14336)"/>
<path d="M22.4029 35.7232C22.859 35.7232 23.2287 35.357 23.2287 34.9053C23.2287 34.4536 22.859 34.0874 22.4029 34.0874C21.9469 34.0874 21.5771 34.4536 21.5771 34.9053C21.5771 35.357 21.9469 35.7232 22.4029 35.7232Z" fill="url(#paint23_linear_504_14336)"/>
<path d="M17.1646 35.7232C17.6207 35.7232 17.9904 35.357 17.9904 34.9053C17.9904 34.4536 17.6207 34.0874 17.1646 34.0874C16.7086 34.0874 16.3389 34.4536 16.3389 34.9053C16.3389 35.357 16.7086 35.7232 17.1646 35.7232Z" fill="url(#paint24_linear_504_14336)"/>
<path d="M15.9234 27.7071C16.3795 27.7071 16.7492 27.3409 16.7492 26.8892C16.7492 26.4375 16.3795 26.0713 15.9234 26.0713C15.4674 26.0713 15.0977 26.4375 15.0977 26.8892C15.0977 27.3409 15.4674 27.7071 15.9234 27.7071Z" fill="url(#paint25_linear_504_14336)"/>
<path d="M12.941 31.7437C13.3971 31.7437 13.7668 31.3775 13.7668 30.9258C13.7668 30.4741 13.3971 30.1079 12.941 30.1079C12.4849 30.1079 12.1152 30.4741 12.1152 30.9258C12.1152 31.3775 12.4849 31.7437 12.941 31.7437Z" fill="url(#paint26_linear_504_14336)"/>
<path d="M13.4918 20.5128C13.9478 20.5128 14.3175 20.1466 14.3175 19.6949C14.3175 19.2431 13.9478 18.877 13.4918 18.877C13.0357 18.877 12.666 19.2431 12.666 19.6949C12.666 20.1466 13.0357 20.5128 13.4918 20.5128Z" fill="url(#paint27_linear_504_14336)"/>
<path d="M56.9614 22.7261H52.9435C51.2755 22.7261 50.4785 22.0913 50.4785 20.5653V13.3507C50.4785 11.8247 51.2673 11.1899 52.9435 11.1899H56.9614V12.6426H52.3396C52.3147 12.6401 52.2895 12.6431 52.2659 12.6514C52.2423 12.6597 52.2208 12.6731 52.2031 12.6906C52.1854 12.7082 52.1719 12.7294 52.1635 12.7528C52.1551 12.7761 52.1521 12.8011 52.1547 12.8258V21.0902C52.1521 21.1149 52.1551 21.1399 52.1635 21.1632C52.1719 21.1866 52.1854 21.2078 52.2031 21.2254C52.2208 21.2429 52.2423 21.2563 52.2659 21.2646C52.2895 21.2729 52.3147 21.2759 52.3396 21.2734H56.9614V22.7261Z" fill="white"/>
<path d="M66.5547 17.5663H61.7644V22.7261H60.1211V11.1899H61.7644V16.1665H66.5547V11.1899H68.1692V22.7261H66.5547V17.5663Z" fill="white"/>
<path d="M72.5117 22.7261V11.1899H74.155V22.7261H72.5117Z" fill="white"/>
<path d="M84.4135 22.7261H78.4688V11.1899H80.1121V21.3263H84.4217L84.4135 22.7261Z" fill="white"/>
<path d="M87.3096 22.7261V11.1899H88.9529V22.7261H87.3096Z" fill="white"/>
<path d="M99.8313 22.7261H93.6895C92.7528 22.7261 92.2598 22.2907 92.2598 21.3629L98.0894 12.7362C98.1839 12.606 98.1264 12.4961 97.9621 12.4961H92.6993V11.1899H98.5126C99.5397 11.1899 99.9998 11.7515 99.9998 12.7159L94.2769 21.1594C94.1824 21.2856 94.2194 21.4321 94.3673 21.4321H99.8519L99.8313 22.7261Z" fill="white"/>
<path d="M56.9614 22.7261H52.9435C51.2755 22.7261 50.4785 22.0913 50.4785 20.5653V13.3507C50.4785 11.8247 51.2673 11.1899 52.9435 11.1899H56.9614V12.6426H52.3396C52.3147 12.6401 52.2895 12.6431 52.2659 12.6514C52.2423 12.6597 52.2208 12.6731 52.2031 12.6906C52.1854 12.7082 52.1719 12.7294 52.1635 12.7528C52.1551 12.7761 52.1521 12.8011 52.1547 12.8258V21.0902C52.1521 21.1149 52.1551 21.1399 52.1635 21.1632C52.1719 21.1866 52.1854 21.2078 52.2031 21.2254C52.2208 21.2429 52.2423 21.2563 52.2659 21.2646C52.2895 21.2729 52.3147 21.2759 52.3396 21.2734H56.9614V22.7261Z" fill="url(#paint28_linear_504_14336)"/>
<path d="M66.5547 17.5663H61.7644V22.7261H60.1211V11.1899H61.7644V16.1665H66.5547V11.1899H68.1692V22.7261H66.5547V17.5663Z" fill="url(#paint29_linear_504_14336)"/>
<path d="M72.5117 22.7261V11.1899H74.155V22.7261H72.5117Z" fill="url(#paint30_linear_504_14336)"/>
<path d="M84.4135 22.7261H78.4688V11.1899H80.1121V21.3263H84.4217L84.4135 22.7261Z" fill="url(#paint31_linear_504_14336)"/>
<path d="M87.3096 22.7261V11.1899H88.9529V22.7261H87.3096Z" fill="url(#paint32_linear_504_14336)"/>
<path d="M99.8313 22.7261H93.6895C92.7528 22.7261 92.2598 22.2907 92.2598 21.3629L98.0894 12.7362C98.1839 12.606 98.1264 12.4961 97.9621 12.4961H92.6993V11.1899H98.5126C99.5397 11.1899 99.9998 11.7515 99.9998 12.7159L94.2769 21.1594C94.1824 21.2856 94.2194 21.4321 94.3673 21.4321H99.8519L99.8313 22.7261Z" fill="url(#paint33_linear_504_14336)"/>
<path d="M55.8279 27.064V32.8829H54.9487V27.8534L53.3629 30.8768H52.8289L51.2924 27.8738V32.8829H50.4707V26.4495H50.9719C51.1017 26.4346 51.2326 26.4646 51.3427 26.5343C51.4527 26.604 51.5351 26.7091 51.5758 26.832L53.1411 29.8554L54.9405 26.4495H55.2158C55.6636 26.4495 55.8279 26.6245 55.8279 27.064Z" fill="white"/>
<path d="M58.0498 32.8831V26.4497H61.6733V27.2229H58.9577V29.2208H61.4967V29.994H58.9577V32.1018H61.7226V32.8831H58.0498Z" fill="white"/>
<path d="M64.4669 32.8831V27.2229H62.8564V26.4497H66.9935V27.2229H65.3748V32.8831H64.4669Z" fill="white"/>
<path d="M71.8668 32.8831L71.456 31.2188H68.8554L68.4158 32.8831H67.5654L69.0937 27.406C69.3073 26.6166 69.4593 26.4131 70.2687 26.4253H71.2095L72.7789 32.8628L71.8668 32.8831ZM69.0608 30.4416H71.304L70.5234 27.2147H70.014C69.94 27.2147 69.9195 27.2473 69.9113 27.3083L69.0608 30.4416Z" fill="white"/>
<path d="M81.1388 32.8828H77.7084C77.1866 32.8828 76.8867 32.6386 76.8867 32.1218L80.1446 27.3039C80.1939 27.2347 80.1651 27.1737 80.0706 27.1737H77.1538V26.4494H80.3993C80.5136 26.4368 80.6292 26.4504 80.7373 26.4892C80.8454 26.5281 80.943 26.5911 81.0225 26.6734C81.1019 26.7557 81.1612 26.855 81.1956 26.9636C81.2301 27.0723 81.2387 27.1873 81.221 27.2999L78.0576 31.9998C78.0042 32.073 78.0247 32.1544 78.1069 32.1544H81.1676L81.1388 32.8828Z" fill="white"/>
<path d="M82.918 27.5806C82.918 26.7261 83.3288 26.3599 84.2778 26.3599H86.0608C86.9893 26.3599 87.433 26.7139 87.433 27.5806V31.7393C87.433 32.5898 86.9893 32.9601 86.0608 32.9601H84.2778C83.3452 32.9601 82.918 32.606 82.918 31.7393V27.5806ZM83.9491 27.1737C83.9356 27.1718 83.9217 27.1729 83.9087 27.1771C83.8956 27.1813 83.8837 27.1883 83.8738 27.1977C83.8639 27.2072 83.8563 27.2187 83.8515 27.2314C83.8468 27.2442 83.8451 27.2578 83.8464 27.2714V32.0404C83.8444 32.0543 83.8456 32.0684 83.85 32.0817C83.8544 32.095 83.8619 32.107 83.8719 32.1169C83.8819 32.1268 83.8941 32.1342 83.9075 32.1386C83.9209 32.143 83.9352 32.1442 83.9491 32.1422H86.3854C86.3993 32.1442 86.4136 32.143 86.427 32.1386C86.4404 32.1342 86.4526 32.1268 86.4626 32.1169C86.4726 32.107 86.4801 32.095 86.4845 32.0817C86.4889 32.0684 86.4902 32.0543 86.4881 32.0404V27.2836C86.4895 27.27 86.4877 27.2564 86.483 27.2436C86.4783 27.2309 86.4706 27.2194 86.4607 27.2099C86.4508 27.2005 86.4389 27.1935 86.4259 27.1893C86.4128 27.1851 86.399 27.184 86.3854 27.1859L83.9491 27.1737Z" fill="white"/>
<path d="M90.3576 28.1262V32.8831H89.5605V26.4497H90.1973L93.2868 31.2147V26.4497H94.0797V32.8831H93.4429L90.3576 28.1262Z" fill="white"/>
<path d="M96.3232 32.8831V26.4497H99.9468V27.2229H97.2353V29.2208H99.7742V29.994H97.2353V32.1018H100V32.8831H96.3232Z" fill="white"/>
<path d="M55.8279 27.064V32.8829H54.9487V27.8534L53.3629 30.8768H52.8289L51.2924 27.8738V32.8829H50.4707V26.4495H50.9719C51.1017 26.4346 51.2326 26.4646 51.3427 26.5343C51.4527 26.604 51.5351 26.7091 51.5758 26.832L53.1411 29.8554L54.9405 26.4495H55.2158C55.6636 26.4495 55.8279 26.6245 55.8279 27.064Z" fill="url(#paint34_linear_504_14336)"/>
<path d="M58.0498 32.8831V26.4497H61.6733V27.2229H58.9577V29.2208H61.4967V29.994H58.9577V32.1018H61.7226V32.8831H58.0498Z" fill="url(#paint35_linear_504_14336)"/>
<path d="M64.4669 32.8831V27.2229H62.8564V26.4497H66.9935V27.2229H65.3748V32.8831H64.4669Z" fill="url(#paint36_linear_504_14336)"/>
<path d="M71.8668 32.8831L71.456 31.2188H68.8554L68.4158 32.8831H67.5654L69.0937 27.406C69.3073 26.6166 69.4593 26.4131 70.2687 26.4253H71.2095L72.7789 32.8628L71.8668 32.8831ZM69.0608 30.4416H71.304L70.5234 27.2147H70.014C69.94 27.2147 69.9195 27.2473 69.9113 27.3083L69.0608 30.4416Z" fill="url(#paint37_linear_504_14336)"/>
<path d="M81.1388 32.8828H77.7084C77.1866 32.8828 76.8867 32.6386 76.8867 32.1218L80.1446 27.3039C80.1939 27.2347 80.1651 27.1737 80.0706 27.1737H77.1538V26.4494H80.3993C80.5136 26.4368 80.6292 26.4504 80.7373 26.4892C80.8454 26.5281 80.943 26.5911 81.0225 26.6734C81.1019 26.7557 81.1612 26.855 81.1956 26.9636C81.2301 27.0723 81.2387 27.1873 81.221 27.2999L78.0576 31.9998C78.0042 32.073 78.0247 32.1544 78.1069 32.1544H81.1676L81.1388 32.8828Z" fill="url(#paint38_linear_504_14336)"/>
<path d="M82.918 27.5806C82.918 26.7261 83.3288 26.3599 84.2778 26.3599H86.0608C86.9893 26.3599 87.433 26.7139 87.433 27.5806V31.7393C87.433 32.5898 86.9893 32.9601 86.0608 32.9601H84.2778C83.3452 32.9601 82.918 32.606 82.918 31.7393V27.5806ZM83.9491 27.1737C83.9356 27.1718 83.9217 27.1729 83.9087 27.1771C83.8956 27.1813 83.8837 27.1883 83.8738 27.1977C83.8639 27.2072 83.8563 27.2187 83.8515 27.2314C83.8468 27.2442 83.8451 27.2578 83.8464 27.2714V32.0404C83.8444 32.0543 83.8456 32.0684 83.85 32.0817C83.8544 32.095 83.8619 32.107 83.8719 32.1169C83.8819 32.1268 83.8941 32.1342 83.9075 32.1386C83.9209 32.143 83.9352 32.1442 83.9491 32.1422H86.3854C86.3993 32.1442 86.4136 32.143 86.427 32.1386C86.4404 32.1342 86.4526 32.1268 86.4626 32.1169C86.4726 32.107 86.4801 32.095 86.4845 32.0817C86.4889 32.0684 86.4902 32.0543 86.4881 32.0404V27.2836C86.4895 27.27 86.4877 27.2564 86.483 27.2436C86.4783 27.2309 86.4706 27.2194 86.4607 27.2099C86.4508 27.2005 86.4389 27.1935 86.4259 27.1893C86.4128 27.1851 86.399 27.184 86.3854 27.1859L83.9491 27.1737Z" fill="url(#paint39_linear_504_14336)"/>
<path d="M90.3576 28.1262V32.8831H89.5605V26.4497H90.1973L93.2868 31.2147V26.4497H94.0797V32.8831H93.4429L90.3576 28.1262Z" fill="url(#paint40_linear_504_14336)"/>
<path d="M96.3232 32.8831V26.4497H99.9468V27.2229H97.2353V29.2208H99.7742V29.994H97.2353V32.1018H100V32.8831H96.3232Z" fill="url(#paint41_linear_504_14336)"/>
<defs>
<linearGradient id="paint0_linear_504_14336" x1="29.4199" y1="10.523" x2="9.80194" y2="34.4713" gradientUnits="userSpaceOnUse">
<stop stop-color="#CE2836"/>
<stop offset="1" stop-color="#8F1010"/>
</linearGradient>
<linearGradient id="paint1_linear_504_14336" x1="29.7153" y1="5.03351" x2="10.1394" y2="39.2588" gradientUnits="userSpaceOnUse">
<stop stop-color="#FF3641"/>
<stop offset="0.08" stop-color="#E02F39"/>
<stop offset="0.28" stop-color="#9D2128"/>
<stop offset="0.46" stop-color="#65151A"/>
<stop offset="0.63" stop-color="#390C0F"/>
<stop offset="0.78" stop-color="#1A0607"/>
<stop offset="0.91" stop-color="#070102"/>
<stop offset="1"/>
</linearGradient>
<linearGradient id="paint2_linear_504_14336" x1="14.8801" y1="21.1717" x2="24.5305" y2="21.1717" gradientUnits="userSpaceOnUse">
<stop stop-color="white"/>
<stop offset="1" stop-color="white"/>
</linearGradient>
<linearGradient id="paint3_linear_504_14336" x1="8.66031" y1="14.6042" x2="19.7075" y2="14.6042" gradientUnits="userSpaceOnUse">
<stop stop-color="white"/>
<stop offset="1" stop-color="white"/>
</linearGradient>
<linearGradient id="paint4_linear_504_14336" x1="6.11702" y1="24.5698" x2="15.903" y2="24.5698" gradientUnits="userSpaceOnUse">
<stop stop-color="white"/>
<stop offset="1" stop-color="white"/>
</linearGradient>
<linearGradient id="paint5_linear_504_14336" x1="23.5035" y1="24.5413" x2="33.2895" y2="24.5413" gradientUnits="userSpaceOnUse">
<stop stop-color="white"/>
<stop offset="1" stop-color="white"/>
</linearGradient>
<linearGradient id="paint6_linear_504_14336" x1="12.8388" y1="30.934" x2="26.5934" y2="30.934" gradientUnits="userSpaceOnUse">
<stop stop-color="white"/>
<stop offset="1" stop-color="white"/>
</linearGradient>
<linearGradient id="paint7_linear_504_14336" x1="19.6048" y1="14.6001" x2="30.652" y2="14.6001" gradientUnits="userSpaceOnUse">
<stop stop-color="white"/>
<stop offset="1" stop-color="white"/>
</linearGradient>
<linearGradient id="paint8_linear_504_14336" x1="13.1055" y1="9.4242" x2="15.1678" y2="9.4242" gradientUnits="userSpaceOnUse">
<stop stop-color="white"/>
<stop offset="1" stop-color="white"/>
</linearGradient>
<linearGradient id="paint9_linear_504_14336" x1="8.85352" y1="12.5899" x2="10.5051" y2="12.5899" gradientUnits="userSpaceOnUse">
<stop stop-color="white"/>
<stop offset="1" stop-color="white"/>
</linearGradient>
<linearGradient id="paint10_linear_504_14336" x1="18.882" y1="10.2867" x2="20.5295" y2="10.2867" gradientUnits="userSpaceOnUse">
<stop stop-color="white"/>
<stop offset="1" stop-color="white"/>
</linearGradient>
<linearGradient id="paint11_linear_504_14336" x1="24.3418" y1="9.42435" x2="25.9933" y2="9.42435" gradientUnits="userSpaceOnUse">
<stop stop-color="white"/>
<stop offset="1" stop-color="white"/>
</linearGradient>
<linearGradient id="paint12_linear_504_14336" x1="28.8938" y1="12.5899" x2="30.5412" y2="12.5899" gradientUnits="userSpaceOnUse">
<stop stop-color="white"/>
<stop offset="1" stop-color="white"/>
</linearGradient>
<linearGradient id="paint13_linear_504_14336" x1="29.8059" y1="18.1934" x2="31.4533" y2="18.1934" gradientUnits="userSpaceOnUse">
<stop stop-color="white"/>
<stop offset="1" stop-color="white"/>
</linearGradient>
<linearGradient id="paint14_linear_504_14336" x1="7.95821" y1="18.1934" x2="9.60564" y2="18.1934" gradientUnits="userSpaceOnUse">
<stop stop-color="white"/>
<stop offset="1" stop-color="white"/>
</linearGradient>
<linearGradient id="paint15_linear_504_14336" x1="32.4922" y1="23.3326" x2="34.1437" y2="23.3326" gradientUnits="userSpaceOnUse">
<stop stop-color="white"/>
<stop offset="1" stop-color="white"/>
</linearGradient>
<linearGradient id="paint16_linear_504_14336" x1="5.42285" y1="23.3326" x2="7.07028" y2="23.3326" gradientUnits="userSpaceOnUse">
<stop stop-color="white"/>
<stop offset="1" stop-color="white"/>
</linearGradient>
<linearGradient id="paint17_linear_504_14336" x1="30.7715" y1="28.4068" x2="32.423" y2="28.4068" gradientUnits="userSpaceOnUse">
<stop stop-color="white"/>
<stop offset="1" stop-color="white"/>
</linearGradient>
<linearGradient id="paint18_linear_504_14336" x1="7.17285" y1="28.4068" x2="8.82439" y2="28.4068" gradientUnits="userSpaceOnUse">
<stop stop-color="white"/>
<stop offset="1" stop-color="white"/>
</linearGradient>
<linearGradient id="paint19_linear_504_14336" x1="18.882" y1="15.1822" x2="20.5295" y2="15.1822" gradientUnits="userSpaceOnUse">
<stop stop-color="white"/>
<stop offset="1" stop-color="white"/>
</linearGradient>
<linearGradient id="paint20_linear_504_14336" x1="25.0937" y1="19.6949" x2="26.7453" y2="19.6949" gradientUnits="userSpaceOnUse">
<stop stop-color="white"/>
<stop offset="1" stop-color="white"/>
</linearGradient>
<linearGradient id="paint21_linear_504_14336" x1="22.8135" y1="26.8892" x2="24.465" y2="26.8892" gradientUnits="userSpaceOnUse">
<stop stop-color="white"/>
<stop offset="1" stop-color="white"/>
</linearGradient>
<linearGradient id="paint22_linear_504_14336" x1="25.5781" y1="30.9258" x2="27.2297" y2="30.9258" gradientUnits="userSpaceOnUse">
<stop stop-color="white"/>
<stop offset="1" stop-color="white"/>
</linearGradient>
<linearGradient id="paint23_linear_504_14336" x1="21.5771" y1="34.9053" x2="23.2287" y2="34.9053" gradientUnits="userSpaceOnUse">
<stop stop-color="white"/>
<stop offset="1" stop-color="white"/>
</linearGradient>
<linearGradient id="paint24_linear_504_14336" x1="16.3389" y1="34.9053" x2="17.9904" y2="34.9053" gradientUnits="userSpaceOnUse">
<stop stop-color="white"/>
<stop offset="1" stop-color="white"/>
</linearGradient>
<linearGradient id="paint25_linear_504_14336" x1="15.0977" y1="26.8892" x2="16.7492" y2="26.8892" gradientUnits="userSpaceOnUse">
<stop stop-color="white"/>
<stop offset="1" stop-color="white"/>
</linearGradient>
<linearGradient id="paint26_linear_504_14336" x1="12.1152" y1="30.9258" x2="13.7668" y2="30.9258" gradientUnits="userSpaceOnUse">
<stop stop-color="white"/>
<stop offset="1" stop-color="white"/>
</linearGradient>
<linearGradient id="paint27_linear_504_14336" x1="12.666" y1="19.6949" x2="14.3134" y2="19.6949" gradientUnits="userSpaceOnUse">
<stop stop-color="white"/>
<stop offset="1" stop-color="white"/>
</linearGradient>
<linearGradient id="paint28_linear_504_14336" x1="75.2433" y1="12.8339" x2="75.2433" y2="25.1269" gradientUnits="userSpaceOnUse">
<stop stop-color="white"/>
<stop offset="0.15" stop-color="#F2F2F2"/>
<stop offset="0.44" stop-color="#CECED2"/>
<stop offset="0.82" stop-color="#95969D"/>
<stop offset="1" stop-color="#777881"/>
</linearGradient>
<linearGradient id="paint29_linear_504_14336" x1="75.2437" y1="12.8339" x2="75.2437" y2="25.1269" gradientUnits="userSpaceOnUse">
<stop stop-color="white"/>
<stop offset="0.15" stop-color="#F2F2F2"/>
<stop offset="0.44" stop-color="#CECED2"/>
<stop offset="0.82" stop-color="#95969D"/>
<stop offset="1" stop-color="#777881"/>
</linearGradient>
<linearGradient id="paint30_linear_504_14336" x1="75.2437" y1="12.8339" x2="75.2437" y2="25.1269" gradientUnits="userSpaceOnUse">
<stop stop-color="white"/>
<stop offset="0.15" stop-color="#F2F2F2"/>
<stop offset="0.44" stop-color="#CECED2"/>
<stop offset="0.82" stop-color="#95969D"/>
<stop offset="1" stop-color="#777881"/>
</linearGradient>
<linearGradient id="paint31_linear_504_14336" x1="75.2437" y1="12.8339" x2="75.2437" y2="25.1269" gradientUnits="userSpaceOnUse">
<stop stop-color="white"/>
<stop offset="0.15" stop-color="#F2F2F2"/>
<stop offset="0.44" stop-color="#CECED2"/>
<stop offset="0.82" stop-color="#95969D"/>
<stop offset="1" stop-color="#777881"/>
</linearGradient>
<linearGradient id="paint32_linear_504_14336" x1="75.2435" y1="12.8339" x2="75.2435" y2="25.1269" gradientUnits="userSpaceOnUse">
<stop stop-color="white"/>
<stop offset="0.15" stop-color="#F2F2F2"/>
<stop offset="0.44" stop-color="#CECED2"/>
<stop offset="0.82" stop-color="#95969D"/>
<stop offset="1" stop-color="#777881"/>
</linearGradient>
<linearGradient id="paint33_linear_504_14336" x1="75.2432" y1="12.8339" x2="75.2432" y2="25.1269" gradientUnits="userSpaceOnUse">
<stop stop-color="white"/>
<stop offset="0.15" stop-color="#F2F2F2"/>
<stop offset="0.44" stop-color="#CECED2"/>
<stop offset="0.82" stop-color="#95969D"/>
<stop offset="1" stop-color="#777881"/>
</linearGradient>
<linearGradient id="paint34_linear_504_14336" x1="75.2437" y1="27.3163" x2="75.2437" y2="34.3193" gradientUnits="userSpaceOnUse">
<stop stop-color="white"/>
<stop offset="0.15" stop-color="#F2F2F2"/>
<stop offset="0.44" stop-color="#CECED2"/>
<stop offset="0.82" stop-color="#95969D"/>
<stop offset="1" stop-color="#777881"/>
</linearGradient>
<linearGradient id="paint35_linear_504_14336" x1="75.243" y1="27.3164" x2="75.243" y2="34.3195" gradientUnits="userSpaceOnUse">
<stop stop-color="white"/>
<stop offset="0.15" stop-color="#F2F2F2"/>
<stop offset="0.44" stop-color="#CECED2"/>
<stop offset="0.82" stop-color="#95969D"/>
<stop offset="1" stop-color="#777881"/>
</linearGradient>
<linearGradient id="paint36_linear_504_14336" x1="75.243" y1="27.3164" x2="75.243" y2="34.3195" gradientUnits="userSpaceOnUse">
<stop stop-color="white"/>
<stop offset="0.15" stop-color="#F2F2F2"/>
<stop offset="0.44" stop-color="#CECED2"/>
<stop offset="0.82" stop-color="#95969D"/>
<stop offset="1" stop-color="#777881"/>
</linearGradient>
<linearGradient id="paint37_linear_504_14336" x1="75.2438" y1="27.3165" x2="75.2438" y2="34.3195" gradientUnits="userSpaceOnUse">
<stop stop-color="white"/>
<stop offset="0.15" stop-color="#F2F2F2"/>
<stop offset="0.44" stop-color="#CECED2"/>
<stop offset="0.82" stop-color="#95969D"/>
<stop offset="1" stop-color="#777881"/>
</linearGradient>
<linearGradient id="paint38_linear_504_14336" x1="75.2434" y1="27.3161" x2="75.2434" y2="34.3192" gradientUnits="userSpaceOnUse">
<stop stop-color="white"/>
<stop offset="0.15" stop-color="#F2F2F2"/>
<stop offset="0.44" stop-color="#CECED2"/>
<stop offset="0.82" stop-color="#95969D"/>
<stop offset="1" stop-color="#777881"/>
</linearGradient>
<linearGradient id="paint39_linear_504_14336" x1="75.2437" y1="27.3161" x2="75.2437" y2="34.3192" gradientUnits="userSpaceOnUse">
<stop stop-color="white"/>
<stop offset="0.15" stop-color="#F2F2F2"/>
<stop offset="0.44" stop-color="#CECED2"/>
<stop offset="0.82" stop-color="#95969D"/>
<stop offset="1" stop-color="#777881"/>
</linearGradient>
<linearGradient id="paint40_linear_504_14336" x1="75.2431" y1="27.3164" x2="75.2431" y2="34.3195" gradientUnits="userSpaceOnUse">
<stop stop-color="white"/>
<stop offset="0.15" stop-color="#F2F2F2"/>
<stop offset="0.44" stop-color="#CECED2"/>
<stop offset="0.82" stop-color="#95969D"/>
<stop offset="1" stop-color="#777881"/>
</linearGradient>
<linearGradient id="paint41_linear_504_14336" x1="75.2436" y1="27.3164" x2="75.2436" y2="34.3195" gradientUnits="userSpaceOnUse">
<stop stop-color="white"/>
<stop offset="0.15" stop-color="#F2F2F2"/>
<stop offset="0.44" stop-color="#CECED2"/>
<stop offset="0.82" stop-color="#95969D"/>
<stop offset="1" stop-color="#777881"/>
</linearGradient>
</defs>
</svg>
