<svg width="36" height="36" viewBox="0 0 36 36" fill="none" xmlns="http://www.w3.org/2000/svg">
<rect width="36" height="36" rx="18" fill="white"/>
<path d="M9.70711 8.29289C9.31658 7.90237 8.68342 7.90237 8.29289 8.29289C7.90237 8.68342 7.90237 9.31658 8.29289 9.70711L16.5858 18L8.29289 26.2929C7.90237 26.6835 7.90237 27.3166 8.29289 27.7072C8.68342 28.0977 9.31658 28.0977 9.70711 27.7072L18 19.4142L26.2928 27.7071C26.6834 28.0976 27.3165 28.0976 27.7071 27.7071C28.0976 27.3165 28.0976 26.6834 27.7071 26.2928L19.4142 18L27.7072 9.70711C28.0977 9.31658 28.0977 8.68342 27.7072 8.29289C27.3166 7.90237 26.6835 7.90237 26.2929 8.29289L18 16.5858L9.70711 8.29289Z" fill="#CA0124"/>
</svg>
