<svg width="20" height="20" viewBox="0 0 20 20" fill="none" xmlns="http://www.w3.org/2000/svg">
<path fill-rule="evenodd" clip-rule="evenodd" d="M6 6L6 2C6 0.89543 6.89543 0 8 0H18C19.1046 0 20 0.895433 20 2V12C20 13.1046 19.1046 14 18 14H14V18C14 19.1046 13.1046 20 12 20L2 20C0.89543 20 0 19.1046 0 18V8C0 6.89543 0.89543 6 2 6H6ZM8 2H18L18 12H14V8C14 6.89543 13.1046 6 12 6H8V2ZM12 13.001C12 13.0013 12 13.0007 12 13.001C12 13.0007 12 12.9993 12 12.999V8H2V18L12 18V13.001Z" fill="#A0A3BD"/>
</svg>
