<svg width="48" height="53" viewBox="0 0 48 53" fill="none" xmlns="http://www.w3.org/2000/svg">
<path d="M0 15.5721V37.433C0.000248105 38.2479 0.214916 39.0485 0.622446 39.7542C1.02998 40.46 1.61602 41.0461 2.32173 41.4537L21.253 52.3787C21.9588 52.7857 22.7593 53 23.574 53C24.3888 53 25.1893 52.7857 25.8951 52.3787L44.8277 41.4537C45.5331 41.0458 46.1188 40.4596 46.5261 39.7539C46.9333 39.0482 47.1478 38.2478 47.1481 37.433V15.5721C47.148 14.7575 46.9336 13.9572 46.5263 13.2517C46.119 12.5461 45.5332 11.9602 44.8277 11.5528L25.8951 0.622345C25.1895 0.214649 24.389 0 23.574 0C22.7591 0 21.9586 0.214649 21.253 0.622345L2.32173 11.5528C1.61594 11.9599 1.0298 12.5458 0.62224 13.2513C0.21468 13.9569 7.42125e-05 14.7573 0 15.5721Z" fill="url(#paint0_linear_569_676)"/>
<path d="M23.3258 19.743L21.4007 21.1401L18.329 23.3725L17.6196 23.887C17.563 23.9237 17.5195 23.9774 17.4952 24.0404C17.4709 24.1033 17.467 24.1723 17.4842 24.2376L18.2193 26.4998L19.3917 30.1103L19.6624 30.9442C19.6814 31.0089 19.7205 31.0658 19.7741 31.1067C19.8277 31.1476 19.8929 31.1703 19.9603 31.1716H27.0135C27.081 31.1704 27.1464 31.1477 27.2002 31.1068C27.254 31.0659 27.2934 31.009 27.3126 30.9442L28.0423 28.6875L29.2161 25.0715L29.4868 24.2376C29.5038 24.1716 29.4991 24.102 29.4735 24.0388C29.4479 23.9757 29.4028 23.9225 29.3447 23.887L27.4196 22.4899L24.3424 20.2575L23.6331 19.743C23.5618 19.7019 23.4773 19.6905 23.3977 19.7113C23.3182 19.7321 23.25 19.7834 23.208 19.854C23.1685 19.9255 23.1581 20.0095 23.179 20.0885C23.2 20.1674 23.2506 20.2353 23.3203 20.2778L25.2441 21.6762L28.3158 23.9073L29.0252 24.4231L28.883 24.0724L28.1479 26.3359L26.9742 29.9451L26.7034 30.7804L27.0026 30.553H19.9494L20.2486 30.7804L19.5135 28.5169L18.3411 24.9064L18.0704 24.0724L17.9269 24.4231L19.852 23.0246L22.9237 20.7936L23.6331 20.2778C23.7023 20.2348 23.7525 20.1669 23.7731 20.0881C23.7938 20.0092 23.7834 19.9255 23.7441 19.854C23.7026 19.7846 23.6356 19.7342 23.5575 19.7135C23.4793 19.6927 23.3962 19.7033 23.3258 19.743Z" fill="url(#paint1_linear_569_676)"/>
<path d="M23.7341 18.2243V12.2961C23.7341 12.0795 23.4634 11.89 23.2671 12.0254L23.5067 11.9942L19.31 11.3498L17.0668 11.0046C16.9124 10.9816 16.6715 10.9112 16.5334 10.9924C16.4058 11.076 16.2829 11.1664 16.1652 11.2632L12.0036 14.32L11.3728 14.783C11.3112 14.8173 11.257 14.8634 11.2133 14.9187C11.1696 14.974 11.1373 15.0374 11.1183 15.1052C11.0045 15.705 10.9233 16.3128 10.8272 16.9139L10.0623 21.6521L10.0461 21.7536L10.1814 21.5682C10.1306 21.6001 10.0899 21.6459 10.0643 21.7002C10.0386 21.7545 10.0291 21.815 10.0368 21.8745C10.0445 21.9341 10.0691 21.9902 10.1077 22.0362C10.1463 22.0822 10.1972 22.1161 10.2546 22.1341L10.0379 21.7523C10.023 21.8116 10.0255 21.8739 10.0452 21.9318C10.0649 21.9897 10.1009 22.0407 10.149 22.0786C10.1973 22.1165 10.2559 22.1391 10.3171 22.1435C10.3784 22.1478 10.4396 22.1337 10.4928 22.1029L10.2546 22.1354L12.1498 22.7527L15.1837 23.7383L15.8849 23.9657C16.2653 24.0889 16.4264 23.4905 16.0487 23.3687L14.102 22.7351L11.0506 21.7442L10.5632 21.5858C10.4387 21.5452 10.2925 21.4815 10.1733 21.5695L10.6282 21.9202C10.648 21.8411 10.6365 21.7574 10.5962 21.6865C10.5558 21.6157 10.4897 21.5631 10.4116 21.5397L10.486 22.107C10.7027 21.9499 10.6878 21.5546 10.727 21.315L10.9829 19.727L11.5731 16.0637L11.7085 15.2081L11.5664 15.3922L13.3412 14.0885L16.1746 12.0064L16.8299 11.5245L16.5916 11.557L18.9187 11.9144L22.5523 12.4721L23.1344 12.5615C23.2603 12.5818 23.4553 12.6346 23.5609 12.5615L23.0952 12.2907V18.2189C23.0952 18.6251 23.7152 18.6251 23.7152 18.2189L23.7341 18.2243Z" fill="url(#paint2_linear_569_676)"/>
<path d="M16.0625 23.378L14.1673 22.7593L11.1334 21.7737L10.4322 21.5463C10.3794 21.5321 10.3239 21.5321 10.2712 21.5462C10.2184 21.5602 10.1703 21.5879 10.1316 21.6265C10.0929 21.665 10.0651 21.713 10.0508 21.7657C10.0366 21.8184 10.0364 21.8739 10.0504 21.9267L10.0815 21.6884L8.17271 25.479L7.15196 27.5097C7.0775 27.6586 6.94754 27.8454 6.98816 28.016C7.02335 28.1622 7.08427 28.3071 7.13166 28.4492L8.75619 33.3526L9.00123 34.0945C9.01623 34.1635 9.04509 34.2287 9.08604 34.2861C9.127 34.3436 9.17921 34.3922 9.23949 34.4289C9.781 34.7199 10.3225 34.9866 10.864 35.2655L15.1366 37.4532L15.2273 37.5006L15.0851 37.3151C15.1027 37.3729 15.1365 37.4243 15.1825 37.4634C15.2286 37.5024 15.2849 37.5273 15.3447 37.5352C15.4046 37.543 15.4654 37.5335 15.52 37.5077C15.5745 37.4818 15.6205 37.4408 15.6523 37.3896L15.2286 37.5006C15.4547 37.6157 15.7701 37.4221 15.6835 37.15L15.6523 37.3896L16.8274 35.7732L18.7011 33.1929L19.1343 32.5959C19.1757 32.5249 19.1872 32.4405 19.1664 32.361C19.1456 32.2816 19.0941 32.2136 19.0233 32.1721C18.952 32.1321 18.868 32.1214 18.789 32.1421C18.7099 32.1628 18.642 32.2134 18.5995 32.2831L17.396 33.9388L15.5102 36.5394L15.2083 36.9455C15.1284 37.0566 15.0364 37.1594 15.0865 37.3138L15.5413 36.9631C15.47 36.9235 15.3861 36.9129 15.3072 36.9336C15.2283 36.9543 15.1603 37.0046 15.1176 37.0742L15.6848 37.1486C15.6375 37.0011 15.5346 36.9591 15.4141 36.8968L14.9944 36.6816L13.5621 35.9478L10.2629 34.2569L9.49129 33.8616L9.63344 34.0471L8.94166 31.9555L7.83833 28.6171L7.58247 27.8441L7.55133 28.0837L8.60728 25.9799L10.2629 22.697L10.5337 22.1717C10.5946 22.0499 10.6935 21.901 10.6488 21.7656L10.2629 22.1433L12.1582 22.7606L15.1934 23.7476L15.8947 23.975C16.2751 24.0982 16.4362 23.4998 16.0598 23.378H16.0625Z" fill="url(#paint3_linear_569_676)"/>
<path d="M31.0598 23.9411L32.9619 23.3225L35.9957 22.3369L36.6983 22.1095L36.3166 21.7277C36.2733 21.8631 36.3545 21.9836 36.4113 22.0973L36.6239 22.5197L37.3482 23.9574L39.0187 27.2741L39.41 28.0499L39.3788 27.8102L38.6925 29.9059L37.5878 33.243L37.3319 34.016L37.4673 33.8305L35.3757 34.9041L32.1077 36.5814L31.5838 36.8521C31.4484 36.9198 31.3265 36.9645 31.2737 37.1229L31.841 37.0498C31.798 36.9806 31.7302 36.9304 31.6514 36.9095C31.5727 36.8886 31.4889 36.8986 31.4172 36.9374L31.8735 37.2881C31.9452 37.066 31.6515 36.7845 31.5364 36.6261L30.7146 35.4943L28.8099 32.8625L28.3618 32.2466C28.3184 32.1778 28.2505 32.1281 28.1718 32.1075C28.0931 32.0869 28.0096 32.0969 27.938 32.1356C27.8674 32.1776 27.8161 32.2458 27.7953 32.3253C27.7745 32.4049 27.7859 32.4894 27.827 32.5607L29.0021 34.1771L30.8757 36.7574L31.3103 37.3544L31.2792 37.1148C31.1898 37.3855 31.508 37.5805 31.734 37.464L31.3089 37.353C31.3409 37.4039 31.3869 37.4445 31.4412 37.47C31.4956 37.4956 31.5562 37.505 31.6157 37.4972C31.6753 37.4893 31.7314 37.4646 31.7773 37.4258C31.8232 37.3871 31.8571 37.336 31.8748 37.2786L31.7327 37.464L35.503 35.5295L37.5201 34.4952C37.6812 34.4126 37.8585 34.3598 37.9262 34.173C37.979 34.0295 38.0223 33.8833 38.0697 33.7384L39.6943 28.8351L39.9406 28.0932C39.9672 28.0265 39.9791 27.9549 39.9756 27.8832C39.9721 27.8115 39.9532 27.7414 39.9203 27.6776C39.6496 27.1293 39.3707 26.5864 39.0959 26.0395L36.9298 21.7467L36.8838 21.6546L36.9149 21.8929C36.9291 21.8401 36.9292 21.7846 36.9151 21.7319C36.901 21.6791 36.8733 21.631 36.8348 21.5923C36.7963 21.5537 36.7482 21.5258 36.6955 21.5115C36.6428 21.4973 36.5873 21.4971 36.5345 21.5111L34.6311 22.1298L31.5973 23.1153L30.896 23.3428C30.5183 23.466 30.6794 24.0643 31.0598 23.9411Z" fill="url(#paint4_linear_569_676)"/>
<path d="M18.6008 32.2832L17.4257 33.901L15.5494 36.4826L15.1162 37.0796C14.974 37.2746 15.1663 37.5467 15.3869 37.5453L15.1676 37.4546L18.1811 40.4397L19.7935 42.0385C19.9153 42.159 20.0399 42.3269 20.2253 42.3377C20.3756 42.3458 20.5299 42.3377 20.6816 42.3377L25.8462 42.3106H26.6287C26.6996 42.3165 26.7709 42.3076 26.838 42.2842C26.9052 42.2609 26.9667 42.2238 27.0186 42.1753C27.4572 41.7515 27.885 41.3143 28.3169 40.8838L31.723 37.4993L31.7961 37.4276L31.5768 37.5183C31.8719 37.5183 31.9531 37.1893 31.7961 36.9889V37.4262C31.8382 37.3824 31.8666 37.3272 31.8779 37.2675C31.8892 37.2077 31.8828 37.146 31.8595 37.0898C31.8362 37.0337 31.7971 36.9855 31.7469 36.9512C31.6967 36.917 31.6376 36.8981 31.5768 36.8969L31.8475 37.0512L30.6725 35.4334L28.7988 32.8545L28.3656 32.2575C28.3224 32.1881 28.2543 32.1379 28.1752 32.1173C28.0961 32.0967 28.0121 32.1071 27.9405 32.1465C27.8702 32.1885 27.8192 32.2564 27.7984 32.3356C27.7777 32.4149 27.7888 32.4991 27.8295 32.5702L29.0479 34.2394L30.9432 36.84L31.2343 37.2461C31.3263 37.3734 31.4143 37.5169 31.593 37.5169L31.3737 36.9876C31.3181 37.0468 31.2872 37.125 31.2872 37.2062C31.2872 37.2874 31.3181 37.3656 31.3737 37.4248L31.5917 36.8955C31.4468 36.8955 31.3629 36.9943 31.2708 37.0864L30.9364 37.4194L29.7966 38.5539L27.1662 41.1694L26.5502 41.7813L26.7695 41.6906L24.5669 41.7028L21.0471 41.7204H20.2348L20.4541 41.8111L18.7822 40.1541L16.1694 37.5656L15.7525 37.1514C15.6509 37.0512 15.5534 36.928 15.3964 36.928L15.6672 37.3951L16.8422 35.7773L18.7172 33.1956L19.1504 32.5986C19.1915 32.5276 19.2028 32.4433 19.182 32.3639C19.1613 32.2846 19.11 32.2167 19.0394 32.1749C18.9681 32.1353 18.8842 32.1247 18.8053 32.1454C18.7263 32.166 18.6584 32.2164 18.6157 32.2859L18.6008 32.2832Z" fill="url(#paint5_linear_569_676)"/>
<path d="M23.7345 18.2244V12.2962L23.2675 12.567C23.369 12.6415 23.5314 12.5968 23.6506 12.5792L24.1176 12.5061L25.7083 12.2624L29.3798 11.6979L30.2381 11.5625L29.9984 11.53L31.7733 12.835L34.6067 14.9158L35.2633 15.3978L35.1212 15.2136L35.4948 17.5354L36.0796 21.1608L36.173 21.7416C36.1974 21.8973 36.1988 22.0056 36.3463 22.1125L36.4194 21.5453C36.3415 21.5689 36.2756 21.6215 36.2353 21.6923C36.195 21.7631 36.1834 21.8466 36.2028 21.9257L36.6618 21.5805C36.4858 21.4519 36.0972 21.6522 35.9253 21.7091L34.5959 22.1409L31.5093 23.1441L30.785 23.3796C30.4073 23.5015 30.5684 24.1012 30.9502 23.9767L32.8454 23.3593L35.8779 22.3738L36.5792 22.1463L36.3409 22.1139C36.3942 22.1443 36.4553 22.1582 36.5165 22.1539C36.5778 22.1495 36.6363 22.1271 36.6848 22.0895C36.7321 22.0511 36.7677 22.0001 36.7873 21.9424C36.807 21.8846 36.8099 21.8225 36.7958 21.7632L36.5792 22.145C36.6366 22.1272 36.6877 22.0934 36.7264 22.0475C36.7652 22.0016 36.7899 21.9455 36.7978 21.8859C36.8056 21.8263 36.7962 21.7658 36.7706 21.7114C36.7451 21.657 36.7045 21.6111 36.6536 21.5791L36.7971 21.7646L36.1202 17.5868L35.7601 15.349C35.7304 15.1608 35.7358 14.9957 35.5693 14.8698C35.4474 14.7777 35.3229 14.6897 35.201 14.599L31.0436 11.5354L30.4141 11.0724C30.3802 11.0481 30.3477 11.0183 30.3125 10.9966C30.2178 10.9531 30.1106 10.9454 30.0106 10.975L28.1979 11.2538L23.4462 11.9835L23.3446 11.9998L23.5829 12.0309C23.3879 11.8874 23.1172 12.081 23.1172 12.3017V18.2299C23.1172 18.636 23.7372 18.636 23.7372 18.2299L23.7345 18.2244Z" fill="url(#paint6_linear_569_676)"/>
<path d="M16.8138 12.4598C17.4956 12.4598 18.0484 11.907 18.0484 11.2251C18.0484 10.5432 17.4956 9.99048 16.8138 9.99048C16.1319 9.99048 15.5791 10.5432 15.5791 11.2251C15.5791 11.907 16.1319 12.4598 16.8138 12.4598Z" fill="url(#paint7_linear_569_676)"/>
<path d="M11.4785 16.0417C12.0243 16.0417 12.4668 15.5992 12.4668 15.0534C12.4668 14.5076 12.0243 14.0652 11.4785 14.0652C10.9327 14.0652 10.4902 14.5076 10.4902 15.0534C10.4902 15.5992 10.9327 16.0417 11.4785 16.0417Z" fill="url(#paint8_linear_569_676)"/>
<path d="M23.4814 13.257C24.0272 13.257 24.4697 12.8146 24.4697 12.2688C24.4697 11.723 24.0272 11.2805 23.4814 11.2805C22.9356 11.2805 22.4932 11.723 22.4932 12.2688C22.4932 12.8146 22.9356 13.257 23.4814 13.257Z" fill="url(#paint9_linear_569_676)"/>
<path d="M30.0205 12.2133C30.5663 12.2133 31.0087 11.7709 31.0087 11.2251C31.0087 10.6793 30.5663 10.2368 30.0205 10.2368C29.4747 10.2368 29.0322 10.6793 29.0322 11.2251C29.0322 11.7709 29.4747 12.2133 30.0205 12.2133Z" fill="url(#paint10_linear_569_676)"/>
<path d="M35.4677 16.0417C36.0136 16.0417 36.456 15.5992 36.456 15.0534C36.456 14.5076 36.0136 14.0652 35.4677 14.0652C34.9219 14.0652 34.4795 14.5076 34.4795 15.0534C34.4795 15.5992 34.9219 16.0417 35.4677 16.0417Z" fill="url(#paint11_linear_569_676)"/>
<path d="M36.5586 22.8134C37.1044 22.8134 37.5468 22.371 37.5468 21.8252C37.5468 21.2794 37.1044 20.8369 36.5586 20.8369C36.0128 20.8369 35.5703 21.2794 35.5703 21.8252C35.5703 22.371 36.0128 22.8134 36.5586 22.8134Z" fill="url(#paint12_linear_569_676)"/>
<path d="M10.4043 22.8134C10.9501 22.8134 11.3925 22.371 11.3925 21.8252C11.3925 21.2794 10.9501 20.8369 10.4043 20.8369C9.85848 20.8369 9.41602 21.2794 9.41602 21.8252C9.41602 22.371 9.85848 22.8134 10.4043 22.8134Z" fill="url(#paint13_linear_569_676)"/>
<path d="M39.7793 29.0258C40.3251 29.0258 40.7675 28.5834 40.7675 28.0376C40.7675 27.4918 40.3251 27.0493 39.7793 27.0493C39.2335 27.0493 38.791 27.4918 38.791 28.0376C38.791 28.5834 39.2335 29.0258 39.7793 29.0258Z" fill="url(#paint14_linear_569_676)"/>
<path d="M7.3701 29.0258C7.9159 29.0258 8.35836 28.5834 8.35836 28.0376C8.35836 27.4918 7.9159 27.0493 7.3701 27.0493C6.8243 27.0493 6.38184 27.4918 6.38184 28.0376C6.38184 28.5834 6.8243 29.0258 7.3701 29.0258Z" fill="url(#paint15_linear_569_676)"/>
<path d="M37.7158 35.1601C38.2616 35.1601 38.7041 34.7177 38.7041 34.1719C38.7041 33.6261 38.2616 33.1836 37.7158 33.1836C37.17 33.1836 36.7275 33.6261 36.7275 34.1719C36.7275 34.7177 37.17 35.1601 37.7158 35.1601Z" fill="url(#paint16_linear_569_676)"/>
<path d="M9.46873 35.1601C10.0145 35.1601 10.457 34.7177 10.457 34.1719C10.457 33.6261 10.0145 33.1836 9.46873 33.1836C8.92293 33.1836 8.48047 33.6261 8.48047 34.1719C8.48047 34.7177 8.92293 35.1601 9.46873 35.1601Z" fill="url(#paint17_linear_569_676)"/>
<path d="M23.4814 19.1731C24.0272 19.1731 24.4697 18.7306 24.4697 18.1848C24.4697 17.639 24.0272 17.1965 23.4814 17.1965C22.9356 17.1965 22.4932 17.639 22.4932 18.1848C22.4932 18.7306 22.9356 19.1731 23.4814 19.1731Z" fill="url(#paint18_linear_569_676)"/>
<path d="M30.9219 24.6279C31.4677 24.6279 31.9101 24.1854 31.9101 23.6396C31.9101 23.0938 31.4677 22.6514 30.9219 22.6514C30.3761 22.6514 29.9336 23.0938 29.9336 23.6396C29.9336 24.1854 30.3761 24.6279 30.9219 24.6279Z" fill="url(#paint19_linear_569_676)"/>
<path d="M28.1924 33.3271C28.7382 33.3271 29.1806 32.8846 29.1806 32.3388C29.1806 31.793 28.7382 31.3506 28.1924 31.3506C27.6466 31.3506 27.2041 31.793 27.2041 32.3388C27.2041 32.8846 27.6466 33.3271 28.1924 33.3271Z" fill="url(#paint20_linear_569_676)"/>
<path d="M31.5029 38.2033C32.0487 38.2033 32.4912 37.7609 32.4912 37.2151C32.4912 36.6693 32.0487 36.2268 31.5029 36.2268C30.9571 36.2268 30.5146 36.6693 30.5146 37.2151C30.5146 37.7609 30.9571 38.2033 31.5029 38.2033Z" fill="url(#paint21_linear_569_676)"/>
<path d="M26.7099 43.0158C27.2557 43.0158 27.6982 42.5734 27.6982 42.0276C27.6982 41.4818 27.2557 41.0393 26.7099 41.0393C26.1641 41.0393 25.7217 41.4818 25.7217 42.0276C25.7217 42.5734 26.1641 43.0158 26.7099 43.0158Z" fill="url(#paint22_linear_569_676)"/>
<path d="M20.4385 43.0158C20.9843 43.0158 21.4267 42.5734 21.4267 42.0276C21.4267 41.4818 20.9843 41.0393 20.4385 41.0393C19.8927 41.0393 19.4502 41.4818 19.4502 42.0276C19.4502 42.5734 19.8927 43.0158 20.4385 43.0158Z" fill="url(#paint23_linear_569_676)"/>
<path d="M18.956 33.3271C19.5018 33.3271 19.9443 32.8846 19.9443 32.3388C19.9443 31.793 19.5018 31.3506 18.956 31.3506C18.4102 31.3506 17.9678 31.793 17.9678 32.3388C17.9678 32.8846 18.4102 33.3271 18.956 33.3271Z" fill="url(#paint24_linear_569_676)"/>
<path d="M15.3847 38.2033C15.9305 38.2033 16.373 37.7609 16.373 37.2151C16.373 36.6693 15.9305 36.2268 15.3847 36.2268C14.8389 36.2268 14.3965 36.6693 14.3965 37.2151C14.3965 37.7609 14.8389 38.2033 15.3847 38.2033Z" fill="url(#paint25_linear_569_676)"/>
<path d="M16.041 24.6279C16.5868 24.6279 17.0293 24.1854 17.0293 23.6396C17.0293 23.0938 16.5868 22.6514 16.041 22.6514C15.4952 22.6514 15.0527 23.0938 15.0527 23.6396C15.0527 24.1854 15.4952 24.6279 16.041 24.6279Z" fill="url(#paint26_linear_569_676)"/>
<defs>
<linearGradient id="paint0_linear_569_676" x1="35.1089" y1="12.5559" x2="11.3542" y2="41.2777" gradientUnits="userSpaceOnUse">
<stop stop-color="#CE2836"/>
<stop offset="1" stop-color="#8F1010"/>
</linearGradient>
<linearGradient id="paint1_linear_569_676" x1="17.7035" y1="25.4343" x2="29.2594" y2="25.4343" gradientUnits="userSpaceOnUse">
<stop stop-color="white"/>
<stop offset="1" stop-color="white"/>
</linearGradient>
<linearGradient id="paint2_linear_569_676" x1="10.2613" y1="17.4771" x2="23.4864" y2="17.4771" gradientUnits="userSpaceOnUse">
<stop stop-color="white"/>
<stop offset="1" stop-color="white"/>
</linearGradient>
<linearGradient id="paint3_linear_569_676" x1="7.21424" y1="29.535" x2="18.9298" y2="29.535" gradientUnits="userSpaceOnUse">
<stop stop-color="white"/>
<stop offset="1" stop-color="white"/>
</linearGradient>
<linearGradient id="paint4_linear_569_676" x1="28.0287" y1="29.4998" x2="39.7443" y2="29.4998" gradientUnits="userSpaceOnUse">
<stop stop-color="white"/>
<stop offset="1" stop-color="white"/>
</linearGradient>
<linearGradient id="paint5_linear_569_676" x1="15.2624" y1="37.2164" x2="31.7284" y2="37.2164" gradientUnits="userSpaceOnUse">
<stop stop-color="white"/>
<stop offset="1" stop-color="white"/>
</linearGradient>
<linearGradient id="paint6_linear_569_676" x1="23.3622" y1="17.4758" x2="36.5873" y2="17.4758" gradientUnits="userSpaceOnUse">
<stop stop-color="white"/>
<stop offset="1" stop-color="white"/>
</linearGradient>
<linearGradient id="paint7_linear_569_676" x1="15.5777" y1="11.2251" x2="18.0484" y2="11.2251" gradientUnits="userSpaceOnUse">
<stop stop-color="white"/>
<stop offset="1" stop-color="white"/>
</linearGradient>
<linearGradient id="paint8_linear_569_676" x1="10.4902" y1="15.0534" x2="12.4668" y2="15.0534" gradientUnits="userSpaceOnUse">
<stop stop-color="white"/>
<stop offset="1" stop-color="white"/>
</linearGradient>
<linearGradient id="paint9_linear_569_676" x1="22.4932" y1="12.2688" x2="24.4697" y2="12.2688" gradientUnits="userSpaceOnUse">
<stop stop-color="white"/>
<stop offset="1" stop-color="white"/>
</linearGradient>
<linearGradient id="paint10_linear_569_676" x1="29.0322" y1="11.2251" x2="31.0087" y2="11.2251" gradientUnits="userSpaceOnUse">
<stop stop-color="white"/>
<stop offset="1" stop-color="white"/>
</linearGradient>
<linearGradient id="paint11_linear_569_676" x1="34.4795" y1="15.0534" x2="36.456" y2="15.0534" gradientUnits="userSpaceOnUse">
<stop stop-color="white"/>
<stop offset="1" stop-color="white"/>
</linearGradient>
<linearGradient id="paint12_linear_569_676" x1="35.5717" y1="21.8252" x2="37.5468" y2="21.8252" gradientUnits="userSpaceOnUse">
<stop stop-color="white"/>
<stop offset="1" stop-color="white"/>
</linearGradient>
<linearGradient id="paint13_linear_569_676" x1="9.41602" y1="21.8252" x2="11.3925" y2="21.8252" gradientUnits="userSpaceOnUse">
<stop stop-color="white"/>
<stop offset="1" stop-color="white"/>
</linearGradient>
<linearGradient id="paint14_linear_569_676" x1="38.791" y1="28.0376" x2="40.7662" y2="28.0376" gradientUnits="userSpaceOnUse">
<stop stop-color="white"/>
<stop offset="1" stop-color="white"/>
</linearGradient>
<linearGradient id="paint15_linear_569_676" x1="6.38184" y1="28.0376" x2="8.357" y2="28.0376" gradientUnits="userSpaceOnUse">
<stop stop-color="white"/>
<stop offset="1" stop-color="white"/>
</linearGradient>
<linearGradient id="paint16_linear_569_676" x1="36.7289" y1="34.1719" x2="38.7041" y2="34.1719" gradientUnits="userSpaceOnUse">
<stop stop-color="white"/>
<stop offset="1" stop-color="white"/>
</linearGradient>
<linearGradient id="paint17_linear_569_676" x1="8.48047" y1="34.1719" x2="10.457" y2="34.1719" gradientUnits="userSpaceOnUse">
<stop stop-color="white"/>
<stop offset="1" stop-color="white"/>
</linearGradient>
<linearGradient id="paint18_linear_569_676" x1="22.4932" y1="18.1848" x2="24.4697" y2="18.1848" gradientUnits="userSpaceOnUse">
<stop stop-color="white"/>
<stop offset="1" stop-color="white"/>
</linearGradient>
<linearGradient id="paint19_linear_569_676" x1="29.9336" y1="23.6396" x2="31.9101" y2="23.6396" gradientUnits="userSpaceOnUse">
<stop stop-color="white"/>
<stop offset="1" stop-color="white"/>
</linearGradient>
<linearGradient id="paint20_linear_569_676" x1="27.2041" y1="32.3388" x2="29.1806" y2="32.3388" gradientUnits="userSpaceOnUse">
<stop stop-color="white"/>
<stop offset="1" stop-color="white"/>
</linearGradient>
<linearGradient id="paint21_linear_569_676" x1="30.5146" y1="37.2151" x2="32.4912" y2="37.2151" gradientUnits="userSpaceOnUse">
<stop stop-color="white"/>
<stop offset="1" stop-color="white"/>
</linearGradient>
<linearGradient id="paint22_linear_569_676" x1="25.7217" y1="42.0276" x2="27.6982" y2="42.0276" gradientUnits="userSpaceOnUse">
<stop stop-color="white"/>
<stop offset="1" stop-color="white"/>
</linearGradient>
<linearGradient id="paint23_linear_569_676" x1="19.4502" y1="42.0276" x2="21.4267" y2="42.0276" gradientUnits="userSpaceOnUse">
<stop stop-color="white"/>
<stop offset="1" stop-color="white"/>
</linearGradient>
<linearGradient id="paint24_linear_569_676" x1="17.9691" y1="32.3388" x2="19.9443" y2="32.3388" gradientUnits="userSpaceOnUse">
<stop stop-color="white"/>
<stop offset="1" stop-color="white"/>
</linearGradient>
<linearGradient id="paint25_linear_569_676" x1="14.3965" y1="37.2151" x2="16.373" y2="37.2151" gradientUnits="userSpaceOnUse">
<stop stop-color="white"/>
<stop offset="1" stop-color="white"/>
</linearGradient>
<linearGradient id="paint26_linear_569_676" x1="15.0527" y1="23.6396" x2="17.0293" y2="23.6396" gradientUnits="userSpaceOnUse">
<stop stop-color="white"/>
<stop offset="1" stop-color="white"/>
</linearGradient>
</defs>
</svg>
