<svg width="234" height="197" viewBox="0 0 234 197" fill="none" xmlns="http://www.w3.org/2000/svg">
<g filter="url(#filter0_di_703_6915)">
<path d="M132.644 114.705L25.4156 77.0232L39.4076 74.9983L116.337 90.1261L200.936 118.28L206.875 127.089L204.573 128.204L154.27 120.499L132.644 114.705Z" fill="white"/>
<path d="M154.373 120.009L132.792 114.227L27.5021 77.2265L39.3948 75.5054L116.209 90.6106L200.617 118.7L206.138 126.89L204.495 127.686L154.373 120.009Z" stroke="#7A142E" stroke-opacity="0.4"/>
</g>
<path d="M60.2912 143.568L35.474 145.233L34.2324 139.166L51.9843 138.188L60.2912 143.568Z" fill="#3F0614"/>
<path d="M50.3935 140.916L61.2939 95.9551L91.2886 105.999L80.6557 151.032L50.3935 140.916Z" fill="#986F6F"/>
<path d="M85.9137 126.062L77.2137 136.06L80.2959 124.557L85.9137 126.062Z" fill="#B2383D"/>
<path d="M55.6881 129.719L58.627 118.751L80.2955 124.557L77.1416 136.328L55.6881 129.719Z" fill="#DB3B45"/>
<g filter="url(#filter1_ii_703_6915)">
<path d="M59.6154 127.904L60.834 123.356L76.0822 127.442L74.8637 131.989L59.6154 127.904Z" fill="#760A0E"/>
</g>
<path d="M41.9189 141.512L19.5888 107.144L19.3213 107.072L15.3302 132.668L41.9189 141.512Z" fill="#B0373B"/>
<path d="M57.2101 95.1466L23.2744 83.7598L15.8657 132.811L45.7887 143.122L57.2101 95.1466Z" fill="url(#paint0_linear_703_6915)"/>
<path d="M79.1177 154.634L91.2176 106.266L92.2352 105.679L130.575 118.819L122.201 169.332L79.1177 154.634Z" fill="url(#paint1_linear_703_6915)"/>
<path d="M23.2744 83.7601L130.093 119.55L133.203 114.362L25.1381 76.8048L17.8576 78.2946L17.5709 79.3647L23.2744 83.7601Z" fill="#FB5C5C"/>
<path d="M16.8396 138.806L12.7988 131.416L34.2331 139.166L35.4746 145.233L16.8396 138.806Z" fill="#841F39"/>
<path d="M90.6297 165.173L120.533 176.626L121.934 169.26L94.1509 159.522L90.6297 165.173Z" fill="#841F39"/>
<path d="M153.366 125.786L138.52 173.704L121.862 169.527L130.093 119.55L153.366 125.786Z" fill="url(#paint2_linear_703_6915)"/>
<path d="M120.533 176.626L121.862 169.527L138.519 173.704L136.46 180.32L120.533 176.626Z" fill="#D45B5B"/>
<path d="M153.366 125.786L209.927 134.06L207.472 128.241L154.408 119.757L153.366 125.786Z" fill="#CC383E"/>
<path d="M153.367 125.786L205.112 132.77L189.645 177.655L136.533 180.053L153.367 125.786Z" fill="url(#paint3_linear_703_6915)"/>
<path d="M136.461 180.32L189.234 178.117L190.146 175.781L138.52 173.704L136.461 180.32Z" fill="#68181D"/>
<g filter="url(#filter2_ii_703_6915)">
<path d="M157.433 171.604L155.621 179.433L178.814 178.48L181.07 172.203L157.433 171.604Z" fill="#760A0E"/>
</g>
<g filter="url(#filter3_d_703_6915)">
<path d="M158.406 177.599L159.553 173.319L177.553 173.554L176.55 177.3L158.406 177.599Z" fill="#C7F6FF"/>
</g>
<path d="M210.82 132.866L205.905 125.528L204.457 127.72L204.844 132.698L210.82 132.866Z" fill="#9A2D31"/>
<path d="M189.233 178.118L204.844 132.698L210.82 132.866L194.393 174.913L189.233 178.118Z" fill="#7D201F"/>
<path d="M50.3222 141.184L45.8602 142.855L57.21 95.147L61.2227 96.2222L50.3222 141.184Z" fill="#841F39"/>
<path d="M12.7993 131.416L17.5713 79.3647L23.2748 83.7602L15.866 132.811L12.7993 131.416Z" fill="#993334"/>
<path d="M179.703 156.189L203.372 135.131L182.322 133.799L163.443 153.447L179.703 156.189Z" fill="url(#paint4_linear_703_6915)"/>
<path d="M196.11 126.779L171.77 122.973L182.322 133.799L203.372 135.131L196.11 126.779Z" fill="#80C6EA"/>
<path d="M173.361 128.109L171.77 122.973L182.669 133.617L163.443 153.447L173.361 128.109Z" fill="url(#paint5_linear_703_6915)"/>
<g opacity="0.7" filter="url(#filter4_f_703_6915)">
<path d="M181.542 129.785L171.77 122.973L182.669 133.617L203.372 135.131L197.103 128.248L200.346 132.739L189.11 131.561C185.74 131.208 182.66 130.23 181.542 129.785Z" fill="white"/>
</g>
<g opacity="0.3" filter="url(#filter5_f_703_6915)">
<path d="M182.24 134.064L171.952 123.32L181.547 134.428L163.444 153.448L181.911 135.122L203.026 135.313L182.24 134.064Z" fill="#0072AC"/>
</g>
<g filter="url(#filter6_ii_703_6915)">
<path d="M196.306 157.075L146.61 152.074L144.818 158.762L194.676 162.086L196.306 157.075Z" fill="#760A0E"/>
</g>
<g filter="url(#filter7_ii_703_6915)">
<path d="M193.959 164.762L144.244 160.902L142.739 166.52L192.206 169.166L193.959 164.762Z" fill="#760A0E"/>
</g>
<path d="M133.203 114.362L130.093 119.55L153.367 125.786L154.409 119.757L133.203 114.362Z" fill="#FCB7B3"/>
<g filter="url(#filter8_d_703_6915)">
<rect x="118.434" y="138.79" width="4.43119" height="33.4296" rx="2.2156" transform="rotate(73.8633 118.434 138.79)" fill="#40D8F4"/>
<rect x="118.086" y="139.712" width="3.64199" height="32.8387" rx="1.821" transform="rotate(73.8633 118.086 139.712)" fill="#98EFFF"/>
</g>
<g filter="url(#filter9_d_703_6915)">
<rect x="44.6719" y="133.57" width="4.43119" height="33.4296" rx="2.2156" transform="rotate(146.722 44.6719 133.57)" fill="#40D8F4"/>
<rect x="43.752" y="133.811" width="3.64199" height="32.8387" rx="1.821" transform="rotate(146.722 43.752 133.811)" fill="#98EFFF"/>
</g>
<path d="M80.0284 124.485L58.6273 118.751L61.145 116.845L86.0237 123.511L85.9136 126.062L80.0284 124.485Z" fill="#841F39"/>
<g opacity="0.9" filter="url(#filter10_df_703_6915)">
<path d="M23.6851 83.2966L17.8574 78.2944L17.499 79.632L23.3984 84.3666L57.0665 95.6817L60.8834 96.4178L91.4131 106.605L91.2698 107.14L129.949 120.085L153.223 126.321L172.933 128.735L173.344 128.272L172.88 127.861L153.242 125.179L130.236 119.015L23.6851 83.2966Z" fill="white"/>
</g>
<g opacity="0.9" filter="url(#filter11_b_703_6915)">
<path d="M23.6851 83.2966L17.8574 78.2944L17.499 79.632L23.3984 84.3666L57.0665 95.6817L60.8834 96.4178L91.1456 106.534L91.0023 107.069L129.949 120.085L153.223 126.321L172.933 128.735L173.344 128.272L172.88 127.861L153.242 125.179L130.236 119.015L23.6851 83.2966Z" fill="white"/>
</g>
<path d="M24.7127 74.1103L39.1574 34.1127L40.0508 32.9185L148.035 63.2863L134.369 108.94L25.8877 76.1454L24.7127 74.1103Z" fill="#DC3B45"/>
<path d="M60.2865 87.9434L72.042 44.0713L106.819 53.3897L95.0632 97.2617L60.2865 87.9434Z" fill="#993334"/>
<path d="M157.519 114.57L165.548 68.5523L165.587 66.2688L214.527 76.2285L211.084 121.181L209.278 124.711L157.519 114.57Z" fill="#AE242A"/>
<path d="M172.362 98.763L177.461 71.1708L205.928 76.2179L200.451 106.289L172.767 102.599L172.362 98.763Z" fill="#6B1B1D"/>
<path d="M202.914 75.6967L198.225 102.826L200.451 106.289L205.928 76.2177L202.914 75.6967Z" fill="url(#paint6_linear_703_6915)"/>
<path d="M145.466 64.3178L150.865 54.8691L165.043 58.6682L165.672 69.1588L145.466 64.3178Z" fill="#FF9B9A"/>
<path d="M145.537 64.0504L133.122 107.172L158.608 113.714L165.744 68.8913L145.537 64.0504Z" fill="#FB5C5C"/>
<path d="M214.542 123.254L217.574 78.7653L214.097 77.8335L209.029 123.498L214.542 123.254Z" fill="#912125"/>
<path d="M214.542 123.254L209.029 123.497L204.634 129.201L207.648 129.722L214.542 123.254Z" fill="#6E2422"/>
<path d="M209.029 123.497L158.608 113.714L154.265 120.292L204.634 129.201L209.029 123.497Z" fill="#7D201F"/>
<path d="M134.201 114.916L133.193 106.904L158.607 113.714L154.264 120.292L134.201 114.916Z" fill="#D45B5B"/>
<path d="M133.194 106.905L25.8545 74.1294L26.0784 80.7839L134.201 114.916L133.194 106.905Z" fill="#9A3434"/>
<path d="M99.9575 34.0608L48.2302 25.9349C47.6302 26.4622 48.8016 26.6614 49.4257 26.8287L151.133 54.9412L165.044 58.6686C166.114 58.9553 209.9 67.8206 210.435 67.964C210.863 68.0786 211.649 67.7157 211.988 67.5198L99.9575 34.0608Z" fill="#FF736A"/>
<g filter="url(#filter12_f_703_6915)">
<path d="M170.698 57.8901L76.534 32.6588L102.612 35.9191L184.308 59.5298L170.698 57.8901Z" fill="#851B21"/>
</g>
<path d="M37.1086 32.1297C37.9534 29.833 44.8511 27.1319 48.2303 25.9348L49.4245 26.8282C49.0958 27.1989 42.752 32.1127 39.6212 34.5233C39.1931 34.4086 37.7678 32.8798 37.1086 32.1297Z" fill="#BA4040"/>
<path d="M20.184 71.7497L37.1079 32.1297L39.6205 34.5232L25.8542 74.1292L20.184 71.7497Z" fill="#9A3334"/>
<path d="M23.6711 80.1384L20.1846 71.7495L25.8548 74.129L26.0788 80.7836L23.6711 80.1384Z" fill="#6C2522"/>
<path d="M211.987 67.5194L217.575 78.7653L214.098 77.8334L210.167 67.8919L211.987 67.5194Z" fill="#702422"/>
<path d="M172.768 102.599L172.291 99.0305L198.225 102.826L200.451 106.289L172.768 102.599Z" fill="url(#paint7_linear_703_6915)"/>
<path d="M165.743 68.8914L165.042 58.6683L210.166 67.892L214.097 77.8335L165.743 68.8914Z" fill="#C9383D"/>
<path d="M145.537 64.0504L39.6213 34.5235L49.4963 26.5608L151.132 54.9409L145.537 64.0504Z" fill="#F55866"/>
<path d="M102.398 36.721L88.7877 35.0813L98.4144 25.9053L110.452 29.1309L102.398 36.721Z" fill="#AF232A"/>
<path d="M98.8062 26.5836L103.086 27.7305L104.592 22.1127L95.4963 19.6756L79.96 32.7158L88.7879 35.0812L98.8062 26.5836Z" fill="#DB3B45"/>
<g filter="url(#filter13_f_703_6915)">
<path d="M103.015 27.9981L104.592 22.1128L103.388 21.7902L101.41 27.568L103.015 27.9981Z" fill="#9A3434"/>
</g>
<g filter="url(#filter14_f_703_6915)">
<path d="M95.4962 19.6759L99.2413 20.6794L90.3174 24.0226L95.4962 19.6759Z" fill="#FF7B83"/>
</g>
<path d="M163.377 33.85L151.071 30.5527L149.112 43.2167L167.57 48.1626L163.377 33.85Z" fill="url(#paint8_linear_703_6915)"/>
<path d="M101.762 30.5292L106.13 18.5104L151.072 30.5526L149.112 43.2165L101.762 30.5292Z" fill="url(#paint9_linear_703_6915)"/>
<g filter="url(#filter15_f_703_6915)">
<path d="M103.946 24.52L106.058 18.7781L106.13 18.5105L151.072 30.5528L150.766 32.7645L108.766 21.5108L103.946 24.52Z" fill="#989898"/>
</g>
<g filter="url(#filter16_f_703_6915)">
<path d="M164.141 36.3485L150.765 32.7645L151.071 30.5527L163.377 33.85L164.141 36.3485Z" fill="url(#paint10_linear_703_6915)"/>
</g>
<path d="M154.521 41.2253L155.954 35.875L166.12 38.5988L165.474 41.0064L170.771 57.6217L162.745 55.4713L157.998 42.1571L154.521 41.2253Z" fill="#DB3B45"/>
<g filter="url(#filter17_f_703_6915)">
<path d="M154.521 41.2253L155.954 35.875L157.158 36.1976L156.126 41.6553L154.521 41.2253Z" fill="#9A3434"/>
</g>
<path d="M175.75 41.1795L164.515 38.1689L169.968 57.4069L184.094 60.3317L175.75 41.1795Z" fill="#AF232A"/>
<g filter="url(#filter18_f_703_6915)">
<path d="M169.74 57.3457L164.763 39.3823L171.306 57.7653L169.74 57.3457Z" fill="#FF7B83"/>
</g>
<g filter="url(#filter19_f_703_6915)">
<path d="M170.843 57.3542L183.703 59.6531L184.095 60.3315L170.771 57.6217L170.843 57.3542Z" fill="#490F0B"/>
</g>
<path d="M118.089 102.284L110.433 74.1414L100.439 77.1979L107.631 104.93L118.089 102.284Z" fill="#AE242A"/>
<path d="M63.8864 61.669L53.7875 62.9771L100.707 77.2695L110.434 74.1413L63.8864 61.669Z" fill="url(#paint11_linear_703_6915)"/>
<g filter="url(#filter20_f_703_6915)">
<path d="M76.3824 69.6049L85.2872 67.4034L93.3125 69.5538L83.9969 72.2187L76.3824 69.6049Z" fill="#FFB6B6"/>
</g>
<g filter="url(#filter21_f_703_6915)">
<path d="M87.2068 73.0789L95.9874 70.2707L104.013 72.4211L94.6972 75.0859L87.2068 73.0789Z" fill="#FFB6B6"/>
</g>
<path d="M37.2283 80.9041L53.7874 62.977L100.779 77.0018L108.238 104.805L81.0016 130.48L49.0434 121.343L37.2283 80.9041Z" fill="url(#paint12_linear_703_6915)"/>
<g filter="url(#filter22_ii_703_6915)">
<path d="M45.3461 84.8491L58.1086 71.0165L94.309 81.8222L100.049 103.267L79.0577 123.078L54.4383 116.039L45.3461 84.8491Z" fill="url(#paint13_linear_703_6915)"/>
</g>
<g filter="url(#filter23_d_703_6915)">
<path fill-rule="evenodd" clip-rule="evenodd" d="M73.0392 91.9651L73.0289 91.9518C72.978 91.8981 72.9084 91.8684 72.8352 91.869C72.7837 91.8695 72.7333 91.8849 72.6895 91.9131L67.6076 94.0283L66.8755 94.3323C66.8181 94.3528 66.7678 94.3915 66.7317 94.443C66.6956 94.4945 66.6755 94.5563 66.6744 94.6194L66.9081 101.203C66.9086 101.266 66.9283 101.327 66.9642 101.376C67.0001 101.426 67.0503 101.461 67.1077 101.478L73.1435 103.095C73.2016 103.11 73.2631 103.104 73.3191 103.079C73.3751 103.055 73.4226 103.012 73.4548 102.958L74.6279 101.077L76.9457 97.3716C76.9763 97.3157 76.9892 97.2514 76.9827 97.1883C76.9761 97.1251 76.9504 97.0665 76.9093 97.0209L73.055 91.9858C73.05 91.9786 73.0447 91.9717 73.0392 91.9651ZM72.7375 92.5042L67.2231 94.7997L67.4416 100.966L73.0917 102.48L76.365 97.2499L72.7375 92.5042Z" fill="url(#paint14_linear_703_6915)"/>
<path fill-rule="evenodd" clip-rule="evenodd" d="M61.8808 106.816C61.7523 106.845 61.6166 106.844 61.4824 106.808C61.0154 106.683 60.7443 106.18 60.877 105.685C60.8882 105.643 60.902 105.602 60.9181 105.563L58.3283 103.106C58.1964 102.98 58.0642 102.856 57.932 102.731L57.7987 102.606C57.6081 102.714 57.3818 102.75 57.1599 102.691C56.6929 102.565 56.4218 102.063 56.5544 101.567C56.6232 101.311 56.7868 101.107 56.9935 100.987L56.8145 96.6326C56.3725 96.49 56.1208 96.0021 56.2496 95.5214C56.3823 95.0262 56.8685 94.7263 57.3355 94.8514L57.3466 94.8545L60.4159 91.2474C60.3203 91.0506 60.2928 90.815 60.3555 90.5811C60.4704 90.1523 60.8504 89.8699 61.2535 89.8832L62.7579 86.4492C62.8308 86.2822 62.9025 86.1143 62.9743 85.9462L62.9751 85.9443L62.9755 85.9434C63.0284 85.8195 63.0814 85.6955 63.1349 85.5717C62.9251 85.349 62.8335 85.0148 62.9222 84.684C63.0548 84.1888 63.541 83.8889 64.0081 84.014C64.2004 84.0655 64.3595 84.1811 64.4708 84.3337L68.1678 82.7714C68.1597 82.6428 68.172 82.51 68.2075 82.3775C68.3733 81.7589 68.9807 81.3842 69.5642 81.5405C70.1278 81.6916 70.463 82.2828 70.3359 82.8803L74.0498 84.5535C74.2663 84.2828 74.6164 84.1488 74.9563 84.2398C75.2921 84.3298 75.5265 84.6149 75.5826 84.9521L79.7489 85.3717C79.9132 84.931 80.368 84.6745 80.806 84.7919C81.2731 84.917 81.5442 85.4199 81.4115 85.915C81.3897 85.9963 81.3584 86.0723 81.3192 86.1421L83.9169 89.5889C84.1034 89.4893 84.3219 89.4571 84.5365 89.5146C85.0035 89.6397 85.2746 90.1426 85.1419 90.6377C85.0431 91.0067 84.748 91.2672 84.4108 91.3243L84.2396 92.8584L83.8996 95.9326C84.3204 96.0888 84.5558 96.5638 84.4303 97.0319C84.3693 97.2596 84.2336 97.446 84.0594 97.5687L84.7311 101.21C84.7679 101.411 84.8053 101.612 84.8428 101.814C84.8703 101.962 84.8978 102.11 84.9251 102.258C84.9735 102.262 85.0221 102.27 85.0705 102.283C85.5376 102.408 85.8087 102.911 85.676 103.406C85.5433 103.901 85.0571 104.201 84.59 104.076C84.5478 104.065 84.5072 104.05 84.4684 104.033L82.204 107.608C82.4153 107.83 82.5079 108.166 82.4189 108.498C82.2862 108.993 81.8 109.293 81.333 109.168C81.0661 109.096 80.8632 108.901 80.7631 108.655L76.3864 109.709C76.3809 109.751 76.3726 109.792 76.3614 109.834C76.2287 110.329 75.7425 110.629 75.2755 110.504C75.1529 110.471 75.0439 110.412 74.9521 110.335L71.898 112.205C71.7531 112.294 71.6084 112.384 71.4636 112.474L71.4605 112.476C71.3443 112.548 71.228 112.62 71.1116 112.692C71.1333 112.823 71.1278 112.962 71.0906 113.101C70.9579 113.596 70.4717 113.896 70.0046 113.771C69.6219 113.669 69.3708 113.312 69.3656 112.915L65.6081 111.93C65.4015 112.26 65.0136 112.434 64.6381 112.333C64.171 112.208 63.9 111.705 64.0326 111.21C64.0569 111.119 64.093 111.035 64.1386 110.959L61.8808 106.816ZM68.9639 83.7808C69.3827 83.893 69.8139 83.7316 70.0852 83.4029L73.8392 85.0935C73.8169 85.4005 73.9421 85.6918 74.1644 85.8734L73.1687 89.5891C72.8293 89.6444 72.5317 89.9058 72.4323 90.2766C72.2996 90.7718 72.5707 91.2747 73.0378 91.3998C73.5049 91.525 73.9911 91.225 74.1238 90.7298C74.2351 90.3141 74.062 89.893 73.7272 89.6945L74.7007 86.0614C75.0361 86.0575 75.3503 85.8503 75.502 85.527L79.7158 85.9514C79.7929 86.2536 80.0162 86.5021 80.3255 86.585C80.5247 86.6384 80.7274 86.6144 80.9046 86.531L83.523 89.9946C83.493 90.054 83.4685 90.1175 83.4505 90.1845C83.3359 90.6123 83.5226 91.0458 83.8767 91.2366L83.3551 95.9199C83.0679 96.0107 82.8273 96.2514 82.7394 96.5767L79.1494 96.8284C79.0581 96.5569 78.8456 96.3385 78.5595 96.2619C78.0924 96.1367 77.6062 96.4367 77.4736 96.9318C77.3409 97.427 77.612 97.9299 78.079 98.055C78.5391 98.1783 79.0176 97.8892 79.1587 97.4073L82.7612 97.1548C82.856 97.4173 83.0652 97.6271 83.3444 97.7019C83.4038 97.7178 83.4635 97.7269 83.5227 97.7295L84.3809 102.399C84.1945 102.521 84.0485 102.714 83.9846 102.953C83.9187 103.199 83.9523 103.446 84.0599 103.649L83.4459 104.625L81.7174 107.355C81.2815 107.291 80.8511 107.583 80.7275 108.045C80.7244 108.056 80.7215 108.068 80.7189 108.079L76.2903 109.146C76.1817 108.937 75.9943 108.775 75.7559 108.711C75.6872 108.692 75.618 108.683 75.5496 108.682L75.0412 107.24L74.3258 105.2C74.5086 105.077 74.6516 104.886 74.7147 104.651C74.8474 104.156 74.5763 103.653 74.1092 103.528C73.6422 103.402 73.156 103.702 73.0233 104.197C72.8906 104.693 73.1617 105.196 73.6288 105.321C73.6806 105.335 73.7327 105.343 73.7845 105.347L74.115 106.278L74.1388 106.345L75.0236 108.857C74.8577 108.979 74.7289 109.161 74.67 109.381C74.6263 109.544 74.6264 109.708 74.6629 109.859L70.8574 112.192C70.7563 112.092 70.6302 112.017 70.4851 111.978C70.1176 111.879 69.7381 112.044 69.5285 112.36L65.757 111.372C65.742 110.984 65.4934 110.64 65.1186 110.54C64.9345 110.491 64.7474 110.507 64.5802 110.576L62.3689 106.519C62.4597 106.413 62.5293 106.284 62.5684 106.138C62.6185 105.951 62.611 105.763 62.5572 105.595L65.479 103.092C65.5527 103.141 65.6351 103.179 65.7248 103.203C66.1918 103.328 66.678 103.028 66.8107 102.533C66.9434 102.038 66.6723 101.535 66.2052 101.41C65.7382 101.284 65.252 101.584 65.1193 102.08C65.068 102.271 65.077 102.464 65.1345 102.635L64.2406 103.4L62.9689 104.491L62.2192 105.133C62.1428 105.081 62.0568 105.04 61.9629 105.015C61.7274 104.952 61.487 104.997 61.2896 105.12L58.1895 102.177C58.2123 102.128 58.2312 102.075 58.2459 102.021C58.3786 101.525 58.1075 101.023 57.6404 100.897C57.606 100.888 57.5716 100.881 57.5372 100.877L57.3648 96.6197C57.6348 96.5197 57.8577 96.2857 57.941 95.9746C58.019 95.6837 57.9575 95.39 57.7988 95.172L58.6543 94.1645L60.8025 91.644C60.8523 91.6691 60.9053 91.6894 60.961 91.7043C61.229 91.7761 61.5034 91.7079 61.7136 91.5432L64.7254 93.5767C64.6273 94.0529 64.8952 94.5224 65.3444 94.6428C65.8114 94.7679 66.2976 94.468 66.4303 93.9728C66.563 93.4776 66.2919 92.9748 65.8248 92.8496C65.5291 92.7704 65.2257 92.8616 65.0092 93.0648L62.0394 91.061C62.042 91.0522 62.0445 91.0433 62.0469 91.0343C62.1461 90.6641 62.0196 90.2896 61.7543 90.0719L63.6029 85.8489L63.6132 85.8254C64.0526 85.895 64.489 85.6022 64.6136 85.1372C64.6382 85.0454 64.6489 84.9533 64.6471 84.8634L68.3346 83.3045C68.4739 83.5331 68.6924 83.708 68.9639 83.7808Z" fill="url(#paint15_linear_703_6915)"/>
</g>
<g filter="url(#filter24_f_703_6915)">
<path fill-rule="evenodd" clip-rule="evenodd" d="M73.0392 91.9651L73.0289 91.9518C72.978 91.8981 72.9084 91.8684 72.8352 91.869C72.7837 91.8695 72.7333 91.8849 72.6895 91.9131L67.6076 94.0283L66.8755 94.3323C66.8181 94.3528 66.7678 94.3915 66.7317 94.443C66.6956 94.4945 66.6755 94.5563 66.6744 94.6194L66.9081 101.203C66.9086 101.266 66.9283 101.327 66.9642 101.376C67.0001 101.426 67.0503 101.461 67.1077 101.478L73.1435 103.095C73.2016 103.11 73.2631 103.104 73.3191 103.079C73.3751 103.055 73.4226 103.012 73.4548 102.958L74.6279 101.077L76.9457 97.3716C76.9763 97.3157 76.9892 97.2514 76.9827 97.1883C76.9761 97.1251 76.9504 97.0665 76.9093 97.0209L73.055 91.9858C73.05 91.9786 73.0447 91.9717 73.0392 91.9651ZM72.7375 92.5042L67.2231 94.7997L67.4416 100.966L73.0917 102.48L76.365 97.2499L72.7375 92.5042Z" fill="url(#paint16_linear_703_6915)"/>
<path fill-rule="evenodd" clip-rule="evenodd" d="M61.8808 106.816C61.7523 106.845 61.6166 106.844 61.4824 106.808C61.0154 106.683 60.7443 106.18 60.877 105.685C60.8882 105.643 60.902 105.602 60.9181 105.563L58.3283 103.106C58.1964 102.98 58.0642 102.856 57.932 102.731L57.7987 102.606C57.6081 102.714 57.3818 102.75 57.1599 102.691C56.6929 102.565 56.4218 102.063 56.5544 101.567C56.6232 101.311 56.7868 101.107 56.9935 100.987L56.8145 96.6326C56.3725 96.49 56.1208 96.0021 56.2496 95.5214C56.3823 95.0262 56.8685 94.7263 57.3355 94.8514L57.3466 94.8545L60.4159 91.2474C60.3203 91.0506 60.2928 90.815 60.3555 90.5811C60.4704 90.1523 60.8504 89.8699 61.2535 89.8832L62.7579 86.4492C62.8308 86.2822 62.9025 86.1143 62.9743 85.9462L62.9751 85.9443L62.9755 85.9434C63.0284 85.8195 63.0814 85.6955 63.1349 85.5717C62.9251 85.349 62.8335 85.0148 62.9222 84.684C63.0548 84.1888 63.541 83.8889 64.0081 84.014C64.2004 84.0655 64.3595 84.1811 64.4708 84.3337L68.1678 82.7714C68.1597 82.6428 68.172 82.51 68.2075 82.3775C68.3733 81.7589 68.9807 81.3842 69.5642 81.5405C70.1278 81.6916 70.463 82.2828 70.3359 82.8803L74.0498 84.5535C74.2663 84.2828 74.6164 84.1488 74.9563 84.2398C75.2921 84.3298 75.5265 84.6149 75.5826 84.9521L79.7489 85.3717C79.9132 84.931 80.368 84.6745 80.806 84.7919C81.2731 84.917 81.5442 85.4199 81.4115 85.915C81.3897 85.9963 81.3584 86.0723 81.3192 86.1421L83.9169 89.5889C84.1034 89.4893 84.3219 89.4571 84.5365 89.5146C85.0035 89.6397 85.2746 90.1426 85.1419 90.6377C85.0431 91.0067 84.748 91.2672 84.4108 91.3243L84.2396 92.8584L83.8996 95.9326C84.3204 96.0888 84.5558 96.5638 84.4303 97.0319C84.3693 97.2596 84.2336 97.446 84.0594 97.5687L84.7311 101.21C84.7679 101.411 84.8053 101.612 84.8428 101.814C84.8703 101.962 84.8978 102.11 84.9251 102.258C84.9735 102.262 85.0221 102.27 85.0705 102.283C85.5376 102.408 85.8087 102.911 85.676 103.406C85.5433 103.901 85.0571 104.201 84.59 104.076C84.5478 104.065 84.5072 104.05 84.4684 104.033L82.204 107.608C82.4153 107.83 82.5079 108.166 82.4189 108.498C82.2862 108.993 81.8 109.293 81.333 109.168C81.0661 109.096 80.8632 108.901 80.7631 108.655L76.3864 109.709C76.3809 109.751 76.3726 109.792 76.3614 109.834C76.2287 110.329 75.7425 110.629 75.2755 110.504C75.1529 110.471 75.0439 110.412 74.9521 110.335L71.898 112.205C71.7531 112.294 71.6084 112.384 71.4636 112.474L71.4605 112.476C71.3443 112.548 71.228 112.62 71.1116 112.692C71.1333 112.823 71.1278 112.962 71.0906 113.101C70.9579 113.596 70.4717 113.896 70.0046 113.771C69.6219 113.669 69.3708 113.312 69.3656 112.915L65.6081 111.93C65.4015 112.26 65.0136 112.434 64.6381 112.333C64.171 112.208 63.9 111.705 64.0326 111.21C64.0569 111.119 64.093 111.035 64.1386 110.959L61.8808 106.816ZM68.9639 83.7808C69.3827 83.893 69.8139 83.7316 70.0852 83.4029L73.8392 85.0935C73.8169 85.4005 73.9421 85.6918 74.1644 85.8734L73.1687 89.5891C72.8293 89.6444 72.5317 89.9058 72.4323 90.2766C72.2996 90.7718 72.5707 91.2747 73.0378 91.3998C73.5049 91.525 73.9911 91.225 74.1238 90.7298C74.2351 90.3141 74.062 89.893 73.7272 89.6945L74.7007 86.0614C75.0361 86.0575 75.3503 85.8503 75.502 85.527L79.7158 85.9514C79.7929 86.2536 80.0162 86.5021 80.3255 86.585C80.5247 86.6384 80.7274 86.6144 80.9046 86.531L83.523 89.9946C83.493 90.054 83.4685 90.1175 83.4505 90.1845C83.3359 90.6123 83.5226 91.0458 83.8767 91.2366L83.3551 95.9199C83.0679 96.0107 82.8273 96.2514 82.7394 96.5767L79.1494 96.8284C79.0581 96.5569 78.8456 96.3385 78.5595 96.2619C78.0924 96.1367 77.6062 96.4367 77.4736 96.9318C77.3409 97.427 77.612 97.9299 78.079 98.055C78.5391 98.1783 79.0176 97.8892 79.1587 97.4073L82.7612 97.1548C82.856 97.4173 83.0652 97.6271 83.3444 97.7019C83.4038 97.7178 83.4635 97.7269 83.5227 97.7295L84.3809 102.399C84.1945 102.521 84.0485 102.714 83.9846 102.953C83.9187 103.199 83.9523 103.446 84.0599 103.649L83.4459 104.625L81.7174 107.355C81.2815 107.291 80.8511 107.583 80.7275 108.045C80.7244 108.056 80.7215 108.068 80.7189 108.079L76.2903 109.146C76.1817 108.937 75.9943 108.775 75.7559 108.711C75.6872 108.692 75.618 108.683 75.5496 108.682L75.0412 107.24L74.3258 105.2C74.5086 105.077 74.6516 104.886 74.7147 104.651C74.8474 104.156 74.5763 103.653 74.1092 103.528C73.6422 103.402 73.156 103.702 73.0233 104.197C72.8906 104.693 73.1617 105.196 73.6288 105.321C73.6806 105.335 73.7327 105.343 73.7845 105.347L74.115 106.278L74.1388 106.345L75.0236 108.857C74.8577 108.979 74.7289 109.161 74.67 109.381C74.6263 109.544 74.6264 109.708 74.6629 109.859L70.8574 112.192C70.7563 112.092 70.6302 112.017 70.4851 111.978C70.1176 111.879 69.7381 112.044 69.5285 112.36L65.757 111.372C65.742 110.984 65.4934 110.64 65.1186 110.54C64.9345 110.491 64.7474 110.507 64.5802 110.576L62.3689 106.519C62.4597 106.413 62.5293 106.284 62.5684 106.138C62.6185 105.951 62.611 105.763 62.5572 105.595L65.479 103.092C65.5527 103.141 65.6351 103.179 65.7248 103.203C66.1918 103.328 66.678 103.028 66.8107 102.533C66.9434 102.038 66.6723 101.535 66.2052 101.41C65.7382 101.284 65.252 101.584 65.1193 102.08C65.068 102.271 65.077 102.464 65.1345 102.635L64.2406 103.4L62.9689 104.491L62.2192 105.133C62.1428 105.081 62.0568 105.04 61.9629 105.015C61.7274 104.952 61.487 104.997 61.2896 105.12L58.1895 102.177C58.2123 102.128 58.2312 102.075 58.2459 102.021C58.3786 101.525 58.1075 101.023 57.6404 100.897C57.606 100.888 57.5716 100.881 57.5372 100.877L57.3648 96.6197C57.6348 96.5197 57.8577 96.2857 57.941 95.9746C58.019 95.6837 57.9575 95.39 57.7988 95.172L58.6543 94.1645L60.8025 91.644C60.8523 91.6691 60.9053 91.6894 60.961 91.7043C61.229 91.7761 61.5034 91.7079 61.7136 91.5432L64.7254 93.5767C64.6273 94.0529 64.8952 94.5224 65.3444 94.6428C65.8114 94.7679 66.2976 94.468 66.4303 93.9728C66.563 93.4776 66.2919 92.9748 65.8248 92.8496C65.5291 92.7704 65.2257 92.8616 65.0092 93.0648L62.0394 91.061C62.042 91.0522 62.0445 91.0433 62.0469 91.0343C62.1461 90.6641 62.0196 90.2896 61.7543 90.0719L63.6029 85.8489L63.6132 85.8254C64.0526 85.895 64.489 85.6022 64.6136 85.1372C64.6382 85.0454 64.6489 84.9533 64.6471 84.8634L68.3346 83.3045C68.4739 83.5331 68.6924 83.708 68.9639 83.7808Z" fill="url(#paint17_linear_703_6915)"/>
</g>
<path d="M91.1915 127.763L118.089 102.284L107.507 104.323L80.7342 130.409L91.1915 127.763Z" fill="#7D201F"/>
<g filter="url(#filter25_f_703_6915)">
<path d="M56.9595 66.1211L49.3398 67.8068L53.5202 62.9058L100.779 77.0024L107.491 73.3532L110.166 74.07C111.179 74.5708 111.015 75.5398 110.806 75.9618C109.809 74.5477 105.024 77.5664 102.757 79.2525C104.135 85.1651 107.059 97.4365 107.728 99.2213C108.397 101.006 110.199 101.413 111.115 101.562L117.521 100.125L118.285 102.624L108.363 105.413L81.3412 130.285L79.4686 129.783L106.314 103.43L100.277 78.8749L56.9595 66.1211Z" fill="url(#paint18_linear_703_6915)"/>
</g>
<defs>
<filter id="filter0_di_703_6915" x="21.416" y="74.9985" width="189.459" height="61.2056" filterUnits="userSpaceOnUse" color-interpolation-filters="sRGB">
<feFlood flood-opacity="0" result="BackgroundImageFix"/>
<feColorMatrix in="SourceAlpha" type="matrix" values="0 0 0 0 0 0 0 0 0 0 0 0 0 0 0 0 0 0 127 0" result="hardAlpha"/>
<feOffset dy="4"/>
<feGaussianBlur stdDeviation="2"/>
<feComposite in2="hardAlpha" operator="out"/>
<feColorMatrix type="matrix" values="0 0 0 0 0 0 0 0 0 0 0 0 0 0 0 0 0 0 0.25 0"/>
<feBlend mode="normal" in2="BackgroundImageFix" result="effect1_dropShadow_703_6915"/>
<feBlend mode="normal" in="SourceGraphic" in2="effect1_dropShadow_703_6915" result="shape"/>
<feColorMatrix in="SourceAlpha" type="matrix" values="0 0 0 0 0 0 0 0 0 0 0 0 0 0 0 0 0 0 127 0" result="hardAlpha"/>
<feOffset/>
<feGaussianBlur stdDeviation="7.5"/>
<feComposite in2="hardAlpha" operator="arithmetic" k2="-1" k3="1"/>
<feColorMatrix type="matrix" values="0 0 0 0 0.196399 0 0 0 0 0.832383 0 0 0 0 0.954167 0 0 0 1 0"/>
<feBlend mode="normal" in2="shape" result="effect2_innerShadow_703_6915"/>
</filter>
<filter id="filter1_ii_703_6915" x="59.6152" y="121.356" width="16.4668" height="12.6333" filterUnits="userSpaceOnUse" color-interpolation-filters="sRGB">
<feFlood flood-opacity="0" result="BackgroundImageFix"/>
<feBlend mode="normal" in="SourceGraphic" in2="BackgroundImageFix" result="shape"/>
<feColorMatrix in="SourceAlpha" type="matrix" values="0 0 0 0 0 0 0 0 0 0 0 0 0 0 0 0 0 0 127 0" result="hardAlpha"/>
<feOffset dy="4"/>
<feGaussianBlur stdDeviation="1"/>
<feComposite in2="hardAlpha" operator="arithmetic" k2="-1" k3="1"/>
<feColorMatrix type="matrix" values="0 0 0 0 0 0 0 0 0 0 0 0 0 0 0 0 0 0 0.5 0"/>
<feBlend mode="normal" in2="shape" result="effect1_innerShadow_703_6915"/>
<feColorMatrix in="SourceAlpha" type="matrix" values="0 0 0 0 0 0 0 0 0 0 0 0 0 0 0 0 0 0 127 0" result="hardAlpha"/>
<feOffset dy="-2"/>
<feGaussianBlur stdDeviation="1"/>
<feComposite in2="hardAlpha" operator="arithmetic" k2="-1" k3="1"/>
<feColorMatrix type="matrix" values="0 0 0 0 1 0 0 0 0 0.518333 0 0 0 0 0.518333 0 0 0 0.25 0"/>
<feBlend mode="normal" in2="effect1_innerShadow_703_6915" result="effect2_innerShadow_703_6915"/>
</filter>
<filter id="filter2_ii_703_6915" x="155.621" y="169.604" width="25.4482" height="11.8296" filterUnits="userSpaceOnUse" color-interpolation-filters="sRGB">
<feFlood flood-opacity="0" result="BackgroundImageFix"/>
<feBlend mode="normal" in="SourceGraphic" in2="BackgroundImageFix" result="shape"/>
<feColorMatrix in="SourceAlpha" type="matrix" values="0 0 0 0 0 0 0 0 0 0 0 0 0 0 0 0 0 0 127 0" result="hardAlpha"/>
<feOffset dy="4"/>
<feGaussianBlur stdDeviation="1"/>
<feComposite in2="hardAlpha" operator="arithmetic" k2="-1" k3="1"/>
<feColorMatrix type="matrix" values="0 0 0 0 0 0 0 0 0 0 0 0 0 0 0 0 0 0 0.5 0"/>
<feBlend mode="normal" in2="shape" result="effect1_innerShadow_703_6915"/>
<feColorMatrix in="SourceAlpha" type="matrix" values="0 0 0 0 0 0 0 0 0 0 0 0 0 0 0 0 0 0 127 0" result="hardAlpha"/>
<feOffset dy="-2"/>
<feGaussianBlur stdDeviation="1"/>
<feComposite in2="hardAlpha" operator="arithmetic" k2="-1" k3="1"/>
<feColorMatrix type="matrix" values="0 0 0 0 1 0 0 0 0 0.518333 0 0 0 0 0.518333 0 0 0 0.25 0"/>
<feBlend mode="normal" in2="effect1_innerShadow_703_6915" result="effect2_innerShadow_703_6915"/>
</filter>
<filter id="filter3_d_703_6915" x="150.406" y="165.319" width="35.1475" height="20.2803" filterUnits="userSpaceOnUse" color-interpolation-filters="sRGB">
<feFlood flood-opacity="0" result="BackgroundImageFix"/>
<feColorMatrix in="SourceAlpha" type="matrix" values="0 0 0 0 0 0 0 0 0 0 0 0 0 0 0 0 0 0 127 0" result="hardAlpha"/>
<feOffset/>
<feGaussianBlur stdDeviation="4"/>
<feComposite in2="hardAlpha" operator="out"/>
<feColorMatrix type="matrix" values="0 0 0 0 0.780392 0 0 0 0 0.964706 0 0 0 0 1 0 0 0 1 0"/>
<feBlend mode="normal" in2="BackgroundImageFix" result="effect1_dropShadow_703_6915"/>
<feBlend mode="normal" in="SourceGraphic" in2="effect1_dropShadow_703_6915" result="shape"/>
</filter>
<filter id="filter4_f_703_6915" x="167.77" y="118.973" width="39.6025" height="20.1582" filterUnits="userSpaceOnUse" color-interpolation-filters="sRGB">
<feFlood flood-opacity="0" result="BackgroundImageFix"/>
<feBlend mode="normal" in="SourceGraphic" in2="BackgroundImageFix" result="shape"/>
<feGaussianBlur stdDeviation="2" result="effect1_foregroundBlur_703_6915"/>
</filter>
<filter id="filter5_f_703_6915" x="162.443" y="122.32" width="41.582" height="32.1279" filterUnits="userSpaceOnUse" color-interpolation-filters="sRGB">
<feFlood flood-opacity="0" result="BackgroundImageFix"/>
<feBlend mode="normal" in="SourceGraphic" in2="BackgroundImageFix" result="shape"/>
<feGaussianBlur stdDeviation="0.5" result="effect1_foregroundBlur_703_6915"/>
</filter>
<filter id="filter6_ii_703_6915" x="144.817" y="150.074" width="51.4883" height="14.0122" filterUnits="userSpaceOnUse" color-interpolation-filters="sRGB">
<feFlood flood-opacity="0" result="BackgroundImageFix"/>
<feBlend mode="normal" in="SourceGraphic" in2="BackgroundImageFix" result="shape"/>
<feColorMatrix in="SourceAlpha" type="matrix" values="0 0 0 0 0 0 0 0 0 0 0 0 0 0 0 0 0 0 127 0" result="hardAlpha"/>
<feOffset dy="4"/>
<feGaussianBlur stdDeviation="1"/>
<feComposite in2="hardAlpha" operator="arithmetic" k2="-1" k3="1"/>
<feColorMatrix type="matrix" values="0 0 0 0 0 0 0 0 0 0 0 0 0 0 0 0 0 0 0.5 0"/>
<feBlend mode="normal" in2="shape" result="effect1_innerShadow_703_6915"/>
<feColorMatrix in="SourceAlpha" type="matrix" values="0 0 0 0 0 0 0 0 0 0 0 0 0 0 0 0 0 0 127 0" result="hardAlpha"/>
<feOffset dy="-2"/>
<feGaussianBlur stdDeviation="1"/>
<feComposite in2="hardAlpha" operator="arithmetic" k2="-1" k3="1"/>
<feColorMatrix type="matrix" values="0 0 0 0 1 0 0 0 0 0.518333 0 0 0 0 0.518333 0 0 0 0.25 0"/>
<feBlend mode="normal" in2="effect1_innerShadow_703_6915" result="effect2_innerShadow_703_6915"/>
</filter>
<filter id="filter7_ii_703_6915" x="142.738" y="158.902" width="51.2207" height="12.2637" filterUnits="userSpaceOnUse" color-interpolation-filters="sRGB">
<feFlood flood-opacity="0" result="BackgroundImageFix"/>
<feBlend mode="normal" in="SourceGraphic" in2="BackgroundImageFix" result="shape"/>
<feColorMatrix in="SourceAlpha" type="matrix" values="0 0 0 0 0 0 0 0 0 0 0 0 0 0 0 0 0 0 127 0" result="hardAlpha"/>
<feOffset dy="4"/>
<feGaussianBlur stdDeviation="1"/>
<feComposite in2="hardAlpha" operator="arithmetic" k2="-1" k3="1"/>
<feColorMatrix type="matrix" values="0 0 0 0 0 0 0 0 0 0 0 0 0 0 0 0 0 0 0.5 0"/>
<feBlend mode="normal" in2="shape" result="effect1_innerShadow_703_6915"/>
<feColorMatrix in="SourceAlpha" type="matrix" values="0 0 0 0 0 0 0 0 0 0 0 0 0 0 0 0 0 0 127 0" result="hardAlpha"/>
<feOffset dy="-2"/>
<feGaussianBlur stdDeviation="1"/>
<feComposite in2="hardAlpha" operator="arithmetic" k2="-1" k3="1"/>
<feColorMatrix type="matrix" values="0 0 0 0 1 0 0 0 0 0.518333 0 0 0 0 0.518333 0 0 0 0.25 0"/>
<feBlend mode="normal" in2="effect1_innerShadow_703_6915" result="effect2_innerShadow_703_6915"/>
</filter>
<filter id="filter8_d_703_6915" x="79.8486" y="132.318" width="46.2891" height="26.5859" filterUnits="userSpaceOnUse" color-interpolation-filters="sRGB">
<feFlood flood-opacity="0" result="BackgroundImageFix"/>
<feColorMatrix in="SourceAlpha" type="matrix" values="0 0 0 0 0 0 0 0 0 0 0 0 0 0 0 0 0 0 127 0" result="hardAlpha"/>
<feOffset/>
<feGaussianBlur stdDeviation="3.5"/>
<feComposite in2="hardAlpha" operator="out"/>
<feColorMatrix type="matrix" values="0 0 0 0 0.25098 0 0 0 0 0.847059 0 0 0 0 0.956863 0 0 0 1 0"/>
<feBlend mode="normal" in2="BackgroundImageFix" result="effect1_dropShadow_703_6915"/>
<feBlend mode="normal" in="SourceGraphic" in2="effect1_dropShadow_703_6915" result="shape"/>
</filter>
<filter id="filter9_d_703_6915" x="16.3887" y="99.4746" width="34.4307" height="42.6743" filterUnits="userSpaceOnUse" color-interpolation-filters="sRGB">
<feFlood flood-opacity="0" result="BackgroundImageFix"/>
<feColorMatrix in="SourceAlpha" type="matrix" values="0 0 0 0 0 0 0 0 0 0 0 0 0 0 0 0 0 0 127 0" result="hardAlpha"/>
<feOffset/>
<feGaussianBlur stdDeviation="3.5"/>
<feComposite in2="hardAlpha" operator="out"/>
<feColorMatrix type="matrix" values="0 0 0 0 0.25098 0 0 0 0 0.847059 0 0 0 0 0.956863 0 0 0 1 0"/>
<feBlend mode="normal" in2="BackgroundImageFix" result="effect1_dropShadow_703_6915"/>
<feBlend mode="normal" in="SourceGraphic" in2="effect1_dropShadow_703_6915" result="shape"/>
</filter>
<filter id="filter10_df_703_6915" x="7.49902" y="68.2944" width="175.845" height="70.4404" filterUnits="userSpaceOnUse" color-interpolation-filters="sRGB">
<feFlood flood-opacity="0" result="BackgroundImageFix"/>
<feColorMatrix in="SourceAlpha" type="matrix" values="0 0 0 0 0 0 0 0 0 0 0 0 0 0 0 0 0 0 127 0" result="hardAlpha"/>
<feOffset dy="4"/>
<feGaussianBlur stdDeviation="2"/>
<feComposite in2="hardAlpha" operator="out"/>
<feColorMatrix type="matrix" values="0 0 0 0 0 0 0 0 0 0 0 0 0 0 0 0 0 0 0.25 0"/>
<feBlend mode="normal" in2="BackgroundImageFix" result="effect1_dropShadow_703_6915"/>
<feBlend mode="normal" in="SourceGraphic" in2="effect1_dropShadow_703_6915" result="shape"/>
<feGaussianBlur stdDeviation="5" result="effect2_foregroundBlur_703_6915"/>
</filter>
<filter id="filter11_b_703_6915" x="9.49902" y="70.2944" width="171.845" height="66.4404" filterUnits="userSpaceOnUse" color-interpolation-filters="sRGB">
<feFlood flood-opacity="0" result="BackgroundImageFix"/>
<feGaussianBlur in="BackgroundImageFix" stdDeviation="4"/>
<feComposite in2="SourceAlpha" operator="in" result="effect1_backgroundBlur_703_6915"/>
<feBlend mode="normal" in="SourceGraphic" in2="effect1_backgroundBlur_703_6915" result="shape"/>
</filter>
<filter id="filter12_f_703_6915" x="73.5342" y="29.6587" width="113.774" height="32.8711" filterUnits="userSpaceOnUse" color-interpolation-filters="sRGB">
<feFlood flood-opacity="0" result="BackgroundImageFix"/>
<feBlend mode="normal" in="SourceGraphic" in2="BackgroundImageFix" result="shape"/>
<feGaussianBlur stdDeviation="1.5" result="effect1_foregroundBlur_703_6915"/>
</filter>
<filter id="filter13_f_703_6915" x="100.41" y="20.79" width="5.18164" height="8.20801" filterUnits="userSpaceOnUse" color-interpolation-filters="sRGB">
<feFlood flood-opacity="0" result="BackgroundImageFix"/>
<feBlend mode="normal" in="SourceGraphic" in2="BackgroundImageFix" result="shape"/>
<feGaussianBlur stdDeviation="0.5" result="effect1_foregroundBlur_703_6915"/>
</filter>
<filter id="filter14_f_703_6915" x="88.3174" y="17.6758" width="12.9238" height="8.34668" filterUnits="userSpaceOnUse" color-interpolation-filters="sRGB">
<feFlood flood-opacity="0" result="BackgroundImageFix"/>
<feBlend mode="normal" in="SourceGraphic" in2="BackgroundImageFix" result="shape"/>
<feGaussianBlur stdDeviation="1" result="effect1_foregroundBlur_703_6915"/>
</filter>
<filter id="filter15_f_703_6915" x="101.946" y="16.5107" width="51.126" height="18.2539" filterUnits="userSpaceOnUse" color-interpolation-filters="sRGB">
<feFlood flood-opacity="0" result="BackgroundImageFix"/>
<feBlend mode="normal" in="SourceGraphic" in2="BackgroundImageFix" result="shape"/>
<feGaussianBlur stdDeviation="1" result="effect1_foregroundBlur_703_6915"/>
</filter>
<filter id="filter16_f_703_6915" x="148.766" y="28.5527" width="17.375" height="9.7959" filterUnits="userSpaceOnUse" color-interpolation-filters="sRGB">
<feFlood flood-opacity="0" result="BackgroundImageFix"/>
<feBlend mode="normal" in="SourceGraphic" in2="BackgroundImageFix" result="shape"/>
<feGaussianBlur stdDeviation="1" result="effect1_foregroundBlur_703_6915"/>
</filter>
<filter id="filter17_f_703_6915" x="153.521" y="34.875" width="4.6377" height="7.78027" filterUnits="userSpaceOnUse" color-interpolation-filters="sRGB">
<feFlood flood-opacity="0" result="BackgroundImageFix"/>
<feBlend mode="normal" in="SourceGraphic" in2="BackgroundImageFix" result="shape"/>
<feGaussianBlur stdDeviation="0.5" result="effect1_foregroundBlur_703_6915"/>
</filter>
<filter id="filter18_f_703_6915" x="163.763" y="38.3823" width="8.54297" height="20.3828" filterUnits="userSpaceOnUse" color-interpolation-filters="sRGB">
<feFlood flood-opacity="0" result="BackgroundImageFix"/>
<feBlend mode="normal" in="SourceGraphic" in2="BackgroundImageFix" result="shape"/>
<feGaussianBlur stdDeviation="0.5" result="effect1_foregroundBlur_703_6915"/>
</filter>
<filter id="filter19_f_703_6915" x="169.771" y="56.354" width="15.3232" height="4.97754" filterUnits="userSpaceOnUse" color-interpolation-filters="sRGB">
<feFlood flood-opacity="0" result="BackgroundImageFix"/>
<feBlend mode="normal" in="SourceGraphic" in2="BackgroundImageFix" result="shape"/>
<feGaussianBlur stdDeviation="0.5" result="effect1_foregroundBlur_703_6915"/>
</filter>
<filter id="filter20_f_703_6915" x="75.3828" y="66.4033" width="18.9297" height="6.81543" filterUnits="userSpaceOnUse" color-interpolation-filters="sRGB">
<feFlood flood-opacity="0" result="BackgroundImageFix"/>
<feBlend mode="normal" in="SourceGraphic" in2="BackgroundImageFix" result="shape"/>
<feGaussianBlur stdDeviation="0.5" result="effect1_foregroundBlur_703_6915"/>
</filter>
<filter id="filter21_f_703_6915" x="86.207" y="69.2705" width="18.8057" height="6.81543" filterUnits="userSpaceOnUse" color-interpolation-filters="sRGB">
<feFlood flood-opacity="0" result="BackgroundImageFix"/>
<feBlend mode="normal" in="SourceGraphic" in2="BackgroundImageFix" result="shape"/>
<feGaussianBlur stdDeviation="0.5" result="effect1_foregroundBlur_703_6915"/>
</filter>
<filter id="filter22_ii_703_6915" x="45.3457" y="69.0166" width="58.7031" height="56.0615" filterUnits="userSpaceOnUse" color-interpolation-filters="sRGB">
<feFlood flood-opacity="0" result="BackgroundImageFix"/>
<feBlend mode="normal" in="SourceGraphic" in2="BackgroundImageFix" result="shape"/>
<feColorMatrix in="SourceAlpha" type="matrix" values="0 0 0 0 0 0 0 0 0 0 0 0 0 0 0 0 0 0 127 0" result="hardAlpha"/>
<feOffset dx="6" dy="2"/>
<feGaussianBlur stdDeviation="2"/>
<feComposite in2="hardAlpha" operator="arithmetic" k2="-1" k3="1"/>
<feColorMatrix type="matrix" values="0 0 0 0 0.325 0 0 0 0 0 0 0 0 0 0 0 0 0 1 0"/>
<feBlend mode="normal" in2="shape" result="effect1_innerShadow_703_6915"/>
<feColorMatrix in="SourceAlpha" type="matrix" values="0 0 0 0 0 0 0 0 0 0 0 0 0 0 0 0 0 0 127 0" result="hardAlpha"/>
<feOffset dy="-2"/>
<feGaussianBlur stdDeviation="2"/>
<feComposite in2="hardAlpha" operator="arithmetic" k2="-1" k3="1"/>
<feColorMatrix type="matrix" values="0 0 0 0 1 0 0 0 0 0.285 0 0 0 0 0.285 0 0 0 0.22 0"/>
<feBlend mode="normal" in2="effect1_innerShadow_703_6915" result="effect2_innerShadow_703_6915"/>
</filter>
<filter id="filter23_d_703_6915" x="50.2158" y="75.5049" width="41.4941" height="44.2944" filterUnits="userSpaceOnUse" color-interpolation-filters="sRGB">
<feFlood flood-opacity="0" result="BackgroundImageFix"/>
<feColorMatrix in="SourceAlpha" type="matrix" values="0 0 0 0 0 0 0 0 0 0 0 0 0 0 0 0 0 0 127 0" result="hardAlpha"/>
<feOffset/>
<feGaussianBlur stdDeviation="3"/>
<feComposite in2="hardAlpha" operator="out"/>
<feColorMatrix type="matrix" values="0 0 0 0 1 0 0 0 0 1 0 0 0 0 1 0 0 0 1 0"/>
<feBlend mode="normal" in2="BackgroundImageFix" result="effect1_dropShadow_703_6915"/>
<feBlend mode="normal" in="SourceGraphic" in2="effect1_dropShadow_703_6915" result="shape"/>
</filter>
<filter id="filter24_f_703_6915" x="45.2158" y="70.5049" width="51.4941" height="54.2944" filterUnits="userSpaceOnUse" color-interpolation-filters="sRGB">
<feFlood flood-opacity="0" result="BackgroundImageFix"/>
<feBlend mode="normal" in="SourceGraphic" in2="BackgroundImageFix" result="shape"/>
<feGaussianBlur stdDeviation="5.5" result="effect1_foregroundBlur_703_6915"/>
</filter>
<filter id="filter25_f_703_6915" x="48.3398" y="61.9058" width="70.9453" height="69.3789" filterUnits="userSpaceOnUse" color-interpolation-filters="sRGB">
<feFlood flood-opacity="0" result="BackgroundImageFix"/>
<feBlend mode="normal" in="SourceGraphic" in2="BackgroundImageFix" result="shape"/>
<feGaussianBlur stdDeviation="0.5" result="effect1_foregroundBlur_703_6915"/>
</filter>
<linearGradient id="paint0_linear_703_6915" x1="41.1978" y1="88.5623" x2="27.8653" y2="138.32" gradientUnits="userSpaceOnUse">
<stop stop-color="#FD5257"/>
<stop offset="1" stop-color="#AE3034"/>
</linearGradient>
<linearGradient id="paint1_linear_703_6915" x1="113.77" y1="111.449" x2="99.864" y2="163.347" gradientUnits="userSpaceOnUse">
<stop stop-color="#FD5257"/>
<stop offset="1" stop-color="#AE3034"/>
</linearGradient>
<linearGradient id="paint2_linear_703_6915" x1="141.73" y1="122.668" x2="128.684" y2="171.355" gradientUnits="userSpaceOnUse">
<stop stop-color="#FB5C5C"/>
<stop offset="1" stop-color="#E03333"/>
</linearGradient>
<linearGradient id="paint3_linear_703_6915" x1="179.164" y1="125.817" x2="162.677" y2="187.345" gradientUnits="userSpaceOnUse">
<stop stop-color="#A23034"/>
<stop offset="1" stop-color="#7A2024"/>
</linearGradient>
<linearGradient id="paint4_linear_703_6915" x1="187.77" y1="130.274" x2="179.045" y2="158.304" gradientUnits="userSpaceOnUse">
<stop stop-color="#67A2C1"/>
<stop offset="1" stop-color="#838383"/>
</linearGradient>
<linearGradient id="paint5_linear_703_6915" x1="178.248" y1="124.989" x2="168.864" y2="155.135" gradientUnits="userSpaceOnUse">
<stop stop-color="#75C6EC"/>
<stop offset="1" stop-color="#C5C5DC"/>
</linearGradient>
<linearGradient id="paint6_linear_703_6915" x1="205.66" y1="76.146" x2="197.776" y2="105.572" gradientUnits="userSpaceOnUse">
<stop stop-color="#C94D52"/>
<stop offset="1" stop-color="#BD4A4E"/>
</linearGradient>
<linearGradient id="paint7_linear_703_6915" x1="199.348" y1="103.987" x2="171.861" y2="100.636" gradientUnits="userSpaceOnUse">
<stop stop-color="#A24E51"/>
<stop offset="0.523958" stop-color="#C64C51"/>
<stop offset="1" stop-color="#BD3B3F"/>
</linearGradient>
<linearGradient id="paint8_linear_703_6915" x1="160.969" y1="33.2049" x2="157.672" y2="45.5105" gradientUnits="userSpaceOnUse">
<stop stop-color="#656565"/>
<stop offset="1"/>
</linearGradient>
<linearGradient id="paint9_linear_703_6915" x1="128.734" y1="24.5673" x2="125.437" y2="36.8729" gradientUnits="userSpaceOnUse">
<stop stop-color="#7D7D7D"/>
<stop offset="1" stop-color="#040404"/>
</linearGradient>
<linearGradient id="paint10_linear_703_6915" x1="157.893" y1="32.3806" x2="157.319" y2="34.5207" gradientUnits="userSpaceOnUse">
<stop stop-color="#7B7B7B"/>
<stop offset="1" stop-color="#5E5E5E"/>
</linearGradient>
<linearGradient id="paint11_linear_703_6915" x1="59.157" y1="63.269" x2="105.15" y2="76.7396" gradientUnits="userSpaceOnUse">
<stop stop-color="#F55866"/>
<stop offset="1" stop-color="#CC4248"/>
</linearGradient>
<linearGradient id="paint12_linear_703_6915" x1="98.156" y1="77.1593" x2="48.6326" y2="121.807" gradientUnits="userSpaceOnUse">
<stop stop-color="#DC3B45"/>
<stop offset="1" stop-color="#9A3434"/>
</linearGradient>
<linearGradient id="paint13_linear_703_6915" x1="59.5571" y1="71.4046" x2="77.8488" y2="126.195" gradientUnits="userSpaceOnUse">
<stop stop-color="#8F1010"/>
<stop offset="1" stop-color="#CE2836"/>
</linearGradient>
<linearGradient id="paint14_linear_703_6915" x1="64.7389" y1="93.5196" x2="66.4303" y2="93.9728" gradientUnits="userSpaceOnUse">
<stop stop-color="white"/>
<stop offset="1" stop-color="white"/>
</linearGradient>
<linearGradient id="paint15_linear_703_6915" x1="64.7389" y1="93.5196" x2="66.4303" y2="93.9728" gradientUnits="userSpaceOnUse">
<stop stop-color="white"/>
<stop offset="1" stop-color="white"/>
</linearGradient>
<linearGradient id="paint16_linear_703_6915" x1="64.7389" y1="93.5196" x2="66.4303" y2="93.9728" gradientUnits="userSpaceOnUse">
<stop stop-color="white"/>
<stop offset="1" stop-color="white"/>
</linearGradient>
<linearGradient id="paint17_linear_703_6915" x1="64.7389" y1="93.5196" x2="66.4303" y2="93.9728" gradientUnits="userSpaceOnUse">
<stop stop-color="white"/>
<stop offset="1" stop-color="white"/>
</linearGradient>
<linearGradient id="paint18_linear_703_6915" x1="91.2306" y1="65.5556" x2="78.6493" y2="158.522" gradientUnits="userSpaceOnUse">
<stop stop-color="#FFF9F9"/>
<stop offset="1" stop-color="#FFC4C4" stop-opacity="0"/>
</linearGradient>
</defs>
</svg>
