<svg width="310" height="182" viewBox="0 0 310 182" fill="none" xmlns="http://www.w3.org/2000/svg">
<path d="M11.3928 94.4211L29.572 34.9598L30.7897 33.1508L190.693 69.629L174.062 137.293L13.2569 97.3074L11.3928 94.4211Z" fill="#DC3B45"/>
<path d="M64.3504 112.029L78.3203 47.1055L129.784 58.1792L115.814 123.102L64.3504 112.029Z" fill="#993334"/>
<path d="M208.277 143.827L216.65 76.0425L216.54 72.7052L288.734 83.6834L286.981 149.579L284.601 154.865L208.277 143.827Z" fill="#AE242A"/>
<path d="M228.801 119.663L234.237 78.9984L276.175 84.2945L270.368 128.607L229.673 125.235L228.801 119.663Z" fill="#6B1B1D"/>
<path d="M271.735 83.7533L266.865 123.711L270.368 128.607L276.175 84.2944L271.735 83.7533Z" fill="url(#paint0_linear_919_5994)"/>
<path d="M187.017 71.3225L194.213 57.1311L215.194 61.6458L216.878 76.9194L187.017 71.3225Z" fill="#FF9B9A"/>
<path d="M187.099 70.9262L172.112 134.802L209.805 142.499L216.96 76.5231L187.099 70.9262Z" fill="#FB5C5C"/>
<path d="M292.182 152.355L293.369 87.166L288.223 86.0586L284.15 153.111L292.182 152.355Z" fill="#912125"/>
<path d="M292.183 152.354L284.151 153.111L278.148 161.76L282.587 162.301L292.183 152.354Z" fill="#6E2422"/>
<path d="M284.151 153.111L209.807 142.499L203.944 152.421L278.148 161.76L284.151 153.111Z" fill="#7D201F"/>
<path d="M174.254 146.032L172.199 134.406L209.807 142.499L203.944 152.421L174.254 146.032Z" fill="#D45B5B"/>
<path d="M172.199 134.406L13.0625 94.3652L13.8744 104.067L174.253 146.032L172.199 134.406Z" fill="#9A3434"/>
<path d="M118.354 30.4536L42.2238 22.3564C41.386 23.1702 43.111 23.3757 44.0347 23.5745L194.607 57.2166L215.192 61.6461C216.776 61.9868 281.363 71.7424 282.155 71.9128C282.789 72.0491 283.909 71.4617 284.39 71.1511L118.354 30.4536Z" fill="#FF736A"/>
<g filter="url(#filter0_f_919_5994)">
<path d="M223.396 60.0973L84.0489 30.1132L122.368 32.9739L243.39 61.5001L223.396 60.0973Z" fill="#851B21"/>
</g>
<path d="M26.4382 32.2129C27.5045 28.7973 37.3806 24.3504 42.2279 22.3559L44.0369 23.5736C43.5839 24.1388 34.678 31.7768 30.2817 35.5251C29.6483 35.3888 27.4555 33.2602 26.4382 32.2129Z" fill="#BA4040"/>
<path d="M4.60849 91.3044L26.4358 32.2139L30.2793 35.5261L13.0622 94.366L4.60849 91.3044Z" fill="#9A3334"/>
<path d="M10.3121 103.3L4.60938 91.3037L13.063 94.3653L13.875 104.067L10.3121 103.3Z" fill="#6C2522"/>
<path d="M284.391 71.1507L293.371 87.1659L288.225 86.0585L281.76 71.8273L284.391 71.1507Z" fill="#702422"/>
<path d="M229.676 125.235L228.719 120.059L266.868 123.711L270.371 128.607L229.676 125.235Z" fill="url(#paint1_linear_919_5994)"/>
<path d="M216.96 76.524L215.191 61.6462L281.758 71.8278L288.222 86.059L216.96 76.524Z" fill="#C9383D"/>
<path d="M187.099 70.9261L30.2779 35.5253L44.1183 23.1779L194.605 57.2158L187.099 70.9261Z" fill="#F55866"/>
<path d="M122.111 34.161L102.117 32.7582L115.506 18.6569L133.321 22.4901L122.111 34.161Z" fill="#AF232A"/>
<path d="M116.128 19.6186L122.462 20.9815L124.25 12.6682L110.791 9.77199L89.0531 29.9467L102.117 32.7578L116.128 19.6186Z" fill="#DB3B45"/>
<g filter="url(#filter1_f_919_5994)">
<path d="M122.376 21.3772L124.25 12.668L122.469 12.2846L120.001 20.8661L122.376 21.3772Z" fill="#9A3434"/>
</g>
<g filter="url(#filter2_f_919_5994)">
<path d="M110.792 9.77165L116.334 10.9642L103.546 16.4966L110.792 9.77165Z" fill="#FF7B83"/>
</g>
<path d="M210.948 25.5248L192.738 21.6064L190.799 40.2425L218.115 46.1201L210.948 25.5248Z" fill="url(#paint2_linear_919_5994)"/>
<path d="M120.73 25.1653L126.232 7.29581L192.739 21.6064L190.8 40.2425L120.73 25.1653Z" fill="url(#paint3_linear_919_5994)"/>
<g filter="url(#filter3_f_919_5994)">
<path d="M123.482 16.2311L126.148 7.69221L126.233 7.29634L192.74 21.607L192.454 24.8591L130.302 11.4855L123.482 16.2311Z" fill="#989898"/>
</g>
<g filter="url(#filter4_f_919_5994)">
<path d="M212.246 29.1177L192.453 24.8586L192.738 21.6064L210.948 25.5248L212.246 29.1177Z" fill="url(#paint4_linear_919_5994)"/>
</g>
<path d="M198.554 36.9409L200.258 29.0234L215.301 32.2604L214.534 35.8232L223.479 59.7007L211.603 57.1453L203.701 38.0483L198.554 36.9409Z" fill="#DB3B45"/>
<g filter="url(#filter5_f_919_5994)">
<path d="M198.554 36.9409L200.258 29.0234L202.039 29.4068L200.929 37.452L198.554 36.9409Z" fill="#9A3434"/>
</g>
<path d="M229.552 35.3277L212.926 31.75L222.292 59.4459L243.133 62.6878L229.552 35.3277Z" fill="#AF232A"/>
<g filter="url(#filter6_f_919_5994)">
<path d="M221.952 59.3723L213.375 33.5029L224.269 59.8709L221.952 59.3723Z" fill="#FF7B83"/>
</g>
<g filter="url(#filter7_f_919_5994)">
<path d="M223.566 59.3042L242.512 61.7243L243.134 62.6864L223.48 59.7001L223.566 59.3042Z" fill="#490F0B"/>
</g>
<path d="M149.8 128.759L136.57 88.22L122.199 93.4116L134.722 133.385L149.8 128.759Z" fill="#AE242A"/>
<path d="M67.6902 73.3982L53.0379 76.0442L122.596 93.4967L136.572 88.2199L67.6902 73.3982Z" fill="url(#paint5_linear_919_5994)"/>
<g filter="url(#filter8_f_919_5994)">
<path d="M86.516 84.0762L99.3592 80.2125L111.235 82.7679L97.826 87.3382L86.516 84.0762Z" fill="#FFB6B6"/>
</g>
<g filter="url(#filter9_f_919_5994)">
<path d="M102.58 88.3611L115.198 83.6205L127.074 86.1759L113.664 90.7462L102.58 88.3611Z" fill="#FFB6B6"/>
</g>
<path d="M30.1644 103.43L53.0394 76.0442L122.683 93.1009L135.602 133.159L97.6991 172.636L50.3647 161.623L30.1644 103.43Z" fill="url(#paint6_linear_919_5994)"/>
<g filter="url(#filter10_ii_919_5994)">
<path d="M42.3081 108.6L59.9373 87.4698L113.588 100.612L123.533 131.509L94.3229 161.97L57.8581 153.484L42.3081 108.6Z" fill="url(#paint7_linear_919_5994)"/>
</g>
<g filter="url(#filter11_d_919_5994)">
<path fill-rule="evenodd" clip-rule="evenodd" d="M86.2994 117.625L86.2828 117.606C86.2011 117.531 86.0933 117.492 85.9828 117.497C85.9049 117.501 85.8301 117.527 85.7662 117.57L78.2664 120.98L77.1859 121.47C77.1009 121.503 77.0282 121.563 76.9781 121.64C76.928 121.718 76.903 121.81 76.9067 121.902L77.8308 131.522C77.8371 131.614 77.872 131.701 77.9306 131.772C77.9891 131.842 78.0682 131.891 78.1564 131.911L87.422 133.905C87.5111 133.923 87.6036 133.911 87.6861 133.871C87.7686 133.831 87.8367 133.766 87.8807 133.684L89.4913 130.861L92.6743 125.295C92.7157 125.211 92.7297 125.116 92.7143 125.024C92.6989 124.932 92.655 124.848 92.5889 124.784L86.3251 117.654C86.317 117.644 86.3084 117.634 86.2994 117.625ZM85.8901 118.432L77.752 122.132L78.6169 131.141L87.2903 133.008L91.7857 125.153L85.8901 118.432Z" fill="url(#paint8_linear_919_5994)"/>
<path fill-rule="evenodd" clip-rule="evenodd" d="M70.7168 140.046C70.525 140.096 70.3197 140.103 70.1137 140.058C69.3967 139.904 68.9433 139.185 69.101 138.452C69.1143 138.39 69.1317 138.33 69.1527 138.272L65.0241 134.836C64.8139 134.66 64.6032 134.486 64.3926 134.312L64.18 134.137C63.9012 134.306 63.5624 134.374 63.2217 134.3C62.5047 134.146 62.0513 133.427 62.2089 132.694C62.2906 132.315 62.5203 132.006 62.8224 131.818L62.1744 125.457C61.4937 125.276 61.0709 124.577 61.224 123.866C61.3816 123.133 62.0907 122.664 62.8077 122.818L62.8247 122.822L67.1524 117.354C66.9908 117.073 66.9289 116.729 67.0034 116.383C67.1399 115.749 67.6899 115.312 68.3005 115.307L70.2773 110.189C70.373 109.94 70.4669 109.69 70.5608 109.439L70.5619 109.436L70.5625 109.435C70.6317 109.251 70.701 109.066 70.7712 108.881C70.4347 108.568 70.2673 108.085 70.3726 107.596C70.5303 106.863 71.2394 106.394 71.9564 106.548C72.2516 106.612 72.5021 106.771 72.6837 106.987L78.1377 104.473C78.1141 104.285 78.1213 104.09 78.1635 103.894C78.3605 102.979 79.2463 102.393 80.1421 102.586C81.0073 102.772 81.5653 103.616 81.4249 104.498L87.1849 106.717C87.4888 106.308 88.0065 106.09 88.5283 106.202C89.0437 106.313 89.4229 106.716 89.5368 107.206L95.8721 107.563C96.0824 106.907 96.7478 106.504 97.4202 106.649C98.1372 106.803 98.5906 107.522 98.4329 108.255C98.407 108.375 98.3663 108.488 98.3131 108.593L102.539 113.476C102.813 113.319 103.14 113.258 103.47 113.329C104.187 113.483 104.64 114.202 104.482 114.935C104.365 115.481 103.941 115.881 103.436 115.985L103.311 118.24L103.063 122.76C103.713 122.962 104.11 123.643 103.961 124.336C103.888 124.672 103.699 124.954 103.446 125.144L104.777 130.43C104.851 130.723 104.925 131.015 104.999 131.307C105.053 131.522 105.108 131.737 105.162 131.952C105.235 131.955 105.309 131.964 105.384 131.98C106.101 132.134 106.554 132.853 106.397 133.586C106.239 134.319 105.53 134.788 104.813 134.633C104.748 134.619 104.685 134.601 104.625 134.578L101.511 139.948C101.85 140.261 102.019 140.746 101.914 141.238C101.756 141.97 101.047 142.439 100.33 142.285C99.9202 142.197 99.5965 141.924 99.4238 141.57L92.8982 143.383C92.8934 143.444 92.8844 143.505 92.8712 143.567C92.7135 144.3 92.0044 144.769 91.2874 144.614C91.0994 144.574 90.9294 144.495 90.7839 144.386L86.3287 147.313C86.1173 147.452 85.9063 147.592 85.6951 147.733L85.6906 147.736C85.5211 147.848 85.3516 147.961 85.1819 148.073C85.226 148.264 85.2297 148.468 85.1856 148.673C85.0279 149.406 84.3188 149.875 83.6018 149.721C83.0143 149.594 82.6037 149.089 82.5614 148.507L76.7952 147.298C76.5114 147.793 75.9401 148.072 75.3637 147.948C74.6467 147.794 74.1932 147.075 74.3509 146.342C74.3797 146.208 74.427 146.083 74.4894 145.969L70.7168 140.046ZM79.4288 105.901C80.0717 106.039 80.7095 105.776 81.0911 105.279L86.9134 107.521C86.9062 107.971 87.1209 108.39 87.4726 108.642L86.2894 114.14C85.781 114.242 85.3537 114.643 85.2356 115.192C85.0779 115.925 85.5314 116.644 86.2484 116.798C86.9654 116.952 87.6745 116.483 87.8321 115.75C87.9645 115.135 87.6662 114.53 87.1428 114.26L88.2997 108.884C88.8065 108.857 89.2635 108.535 89.4648 108.052L95.8724 108.413C96.0152 108.85 96.3744 109.2 96.8492 109.302C97.1549 109.368 97.4593 109.321 97.72 109.188L101.979 114.094C101.939 114.183 101.907 114.277 101.886 114.376C101.75 115.009 102.069 115.632 102.621 115.89L102.239 122.775C101.812 122.925 101.469 123.293 101.365 123.774L95.959 124.364C95.7974 123.972 95.4571 123.666 95.018 123.571C94.301 123.417 93.5919 123.886 93.4342 124.619C93.2766 125.352 93.73 126.071 94.447 126.225C95.1532 126.377 95.8517 125.924 96.0232 125.211L101.448 124.619C101.614 124.997 101.948 125.291 102.377 125.383C102.468 125.403 102.559 125.412 102.649 125.412L104.351 132.192C104.08 132.382 103.876 132.674 103.8 133.027C103.722 133.391 103.794 133.751 103.974 134.041L103.131 135.507L100.754 139.608C100.089 139.543 99.4639 139.996 99.317 140.679C99.3134 140.696 99.3101 140.713 99.307 140.73L92.7042 142.565C92.5217 142.266 92.2244 142.04 91.8584 141.961C91.7529 141.938 91.6475 141.929 91.544 141.932L90.6504 139.853L89.3918 136.912C89.6577 136.721 89.8573 136.432 89.9323 136.084C90.09 135.351 89.6365 134.632 88.9195 134.478C88.2025 134.324 87.4935 134.793 87.3358 135.525C87.1781 136.258 87.6315 136.977 88.3486 137.132C88.4281 137.149 88.5076 137.158 88.5862 137.16L89.1667 138.502L89.2085 138.599L90.7639 142.219C90.5237 142.409 90.3447 142.683 90.2747 143.008C90.2227 143.25 90.2371 143.49 90.3053 143.708L84.7542 147.358C84.5928 147.218 84.3955 147.115 84.1728 147.067C83.6086 146.946 83.0492 147.21 82.7596 147.686L76.972 146.472C76.9156 145.906 76.51 145.418 75.9346 145.295C75.652 145.234 75.3707 145.27 75.1238 145.381L71.4288 139.58C71.5569 139.419 71.6511 139.227 71.6975 139.011C71.757 138.734 71.7294 138.46 71.6334 138.216L75.8339 134.373C75.9496 134.441 76.0775 134.491 76.2151 134.521C76.9321 134.675 77.6412 134.206 77.7988 133.473C77.9565 132.74 77.5031 132.021 76.7861 131.867C76.0691 131.713 75.36 132.182 75.2023 132.915C75.1413 133.198 75.1718 133.479 75.2734 133.727L73.9884 134.901L72.1602 136.576L71.0824 137.562C70.9624 137.49 70.8289 137.436 70.6847 137.405C70.3232 137.327 69.9637 137.408 69.6759 137.601L64.7338 133.485C64.7639 133.411 64.7881 133.334 64.8055 133.253C64.9631 132.52 64.5097 131.801 63.7927 131.647C63.74 131.635 63.6873 131.627 63.6348 131.623L63.0053 125.404C63.4048 125.241 63.7214 124.885 63.8205 124.425C63.9131 123.994 63.7948 123.568 63.5359 123.259L64.7419 121.732L67.7713 117.911C67.8488 117.945 67.9306 117.971 68.0161 117.989C68.4276 118.078 68.8365 117.961 69.1401 117.707L73.8697 120.497C73.7628 121.2 74.2085 121.87 74.8979 122.019C75.615 122.173 76.324 121.704 76.4817 120.971C76.6394 120.238 76.1859 119.519 75.4689 119.365C75.015 119.267 74.5642 119.419 74.2545 119.73L69.5908 116.981C69.594 116.968 69.597 116.955 69.5999 116.942C69.7178 116.394 69.494 115.854 69.074 115.552L71.5028 109.258L71.5163 109.223C72.1868 109.298 72.8211 108.842 72.9691 108.154C72.9984 108.018 73.0066 107.883 72.996 107.752L78.436 105.243C78.6664 105.569 79.0119 105.811 79.4288 105.901Z" fill="url(#paint9_linear_919_5994)"/>
</g>
<g filter="url(#filter12_f_919_5994)">
<path fill-rule="evenodd" clip-rule="evenodd" d="M86.2994 117.625L86.2828 117.606C86.2011 117.531 86.0933 117.492 85.9828 117.497C85.9049 117.501 85.8301 117.527 85.7662 117.57L78.2664 120.98L77.1859 121.47C77.1009 121.503 77.0282 121.563 76.9781 121.64C76.928 121.718 76.903 121.81 76.9067 121.902L77.8308 131.522C77.8371 131.614 77.872 131.701 77.9306 131.772C77.9891 131.842 78.0682 131.891 78.1564 131.911L87.422 133.905C87.5111 133.923 87.6036 133.911 87.6861 133.871C87.7686 133.831 87.8367 133.766 87.8807 133.684L89.4913 130.861L92.6743 125.295C92.7157 125.211 92.7297 125.116 92.7143 125.024C92.6989 124.932 92.655 124.848 92.5889 124.784L86.3251 117.654C86.317 117.644 86.3084 117.634 86.2994 117.625ZM85.8901 118.432L77.752 122.132L78.6169 131.141L87.2903 133.008L91.7857 125.153L85.8901 118.432Z" fill="url(#paint10_linear_919_5994)"/>
<path fill-rule="evenodd" clip-rule="evenodd" d="M70.7168 140.046C70.525 140.096 70.3197 140.103 70.1137 140.058C69.3967 139.904 68.9433 139.185 69.101 138.452C69.1143 138.39 69.1317 138.33 69.1527 138.272L65.0241 134.836C64.8139 134.66 64.6032 134.486 64.3926 134.312L64.18 134.137C63.9012 134.306 63.5624 134.374 63.2217 134.3C62.5047 134.146 62.0513 133.427 62.2089 132.694C62.2906 132.315 62.5203 132.006 62.8224 131.818L62.1744 125.457C61.4937 125.276 61.0709 124.577 61.224 123.866C61.3816 123.133 62.0907 122.664 62.8077 122.818L62.8247 122.822L67.1524 117.354C66.9908 117.073 66.9289 116.729 67.0034 116.383C67.1399 115.749 67.6899 115.312 68.3005 115.307L70.2773 110.189C70.373 109.94 70.4669 109.69 70.5608 109.439L70.5619 109.436L70.5625 109.435C70.6317 109.251 70.701 109.066 70.7712 108.881C70.4347 108.568 70.2673 108.085 70.3726 107.596C70.5303 106.863 71.2394 106.394 71.9564 106.548C72.2516 106.612 72.5021 106.771 72.6837 106.987L78.1377 104.473C78.1141 104.285 78.1213 104.09 78.1635 103.894C78.3605 102.979 79.2463 102.393 80.1421 102.586C81.0073 102.772 81.5653 103.616 81.4249 104.498L87.1849 106.717C87.4888 106.308 88.0065 106.09 88.5283 106.202C89.0437 106.313 89.4229 106.716 89.5368 107.206L95.8721 107.563C96.0824 106.907 96.7478 106.504 97.4202 106.649C98.1372 106.803 98.5906 107.522 98.4329 108.255C98.407 108.375 98.3663 108.488 98.3131 108.593L102.539 113.476C102.813 113.319 103.14 113.258 103.47 113.329C104.187 113.483 104.64 114.202 104.482 114.935C104.365 115.481 103.941 115.881 103.436 115.985L103.311 118.24L103.063 122.76C103.713 122.962 104.11 123.643 103.961 124.336C103.888 124.672 103.699 124.954 103.446 125.144L104.777 130.43C104.851 130.723 104.925 131.015 104.999 131.307C105.053 131.522 105.108 131.737 105.162 131.952C105.235 131.955 105.309 131.964 105.384 131.98C106.101 132.134 106.554 132.853 106.397 133.586C106.239 134.319 105.53 134.788 104.813 134.633C104.748 134.619 104.685 134.601 104.625 134.578L101.511 139.948C101.85 140.261 102.019 140.746 101.914 141.238C101.756 141.97 101.047 142.439 100.33 142.285C99.9202 142.197 99.5965 141.924 99.4238 141.57L92.8982 143.383C92.8934 143.444 92.8844 143.505 92.8712 143.567C92.7135 144.3 92.0044 144.769 91.2874 144.614C91.0994 144.574 90.9294 144.495 90.7839 144.386L86.3287 147.313C86.1173 147.452 85.9063 147.592 85.6951 147.733L85.6906 147.736C85.5211 147.848 85.3516 147.961 85.1819 148.073C85.226 148.264 85.2297 148.468 85.1856 148.673C85.0279 149.406 84.3188 149.875 83.6018 149.721C83.0143 149.594 82.6037 149.089 82.5614 148.507L76.7952 147.298C76.5114 147.793 75.9401 148.072 75.3637 147.948C74.6467 147.794 74.1932 147.075 74.3509 146.342C74.3797 146.208 74.427 146.083 74.4894 145.969L70.7168 140.046ZM79.4288 105.901C80.0717 106.039 80.7095 105.776 81.0911 105.279L86.9134 107.521C86.9062 107.971 87.1209 108.39 87.4726 108.642L86.2894 114.14C85.781 114.242 85.3537 114.643 85.2356 115.192C85.0779 115.925 85.5314 116.644 86.2484 116.798C86.9654 116.952 87.6745 116.483 87.8321 115.75C87.9645 115.135 87.6662 114.53 87.1428 114.26L88.2997 108.884C88.8065 108.857 89.2635 108.535 89.4648 108.052L95.8724 108.413C96.0152 108.85 96.3744 109.2 96.8492 109.302C97.1549 109.368 97.4593 109.321 97.72 109.188L101.979 114.094C101.939 114.183 101.907 114.277 101.886 114.376C101.75 115.009 102.069 115.632 102.621 115.89L102.239 122.775C101.812 122.925 101.469 123.293 101.365 123.774L95.959 124.364C95.7974 123.972 95.4571 123.666 95.018 123.571C94.301 123.417 93.5919 123.886 93.4342 124.619C93.2766 125.352 93.73 126.071 94.447 126.225C95.1532 126.377 95.8517 125.924 96.0232 125.211L101.448 124.619C101.614 124.997 101.948 125.291 102.377 125.383C102.468 125.403 102.559 125.412 102.649 125.412L104.351 132.192C104.08 132.382 103.876 132.674 103.8 133.027C103.722 133.391 103.794 133.751 103.974 134.041L103.131 135.507L100.754 139.608C100.089 139.543 99.4639 139.996 99.317 140.679C99.3134 140.696 99.3101 140.713 99.307 140.73L92.7042 142.565C92.5217 142.266 92.2244 142.04 91.8584 141.961C91.7529 141.938 91.6475 141.929 91.544 141.932L90.6504 139.853L89.3918 136.912C89.6577 136.721 89.8573 136.432 89.9323 136.084C90.09 135.351 89.6365 134.632 88.9195 134.478C88.2025 134.324 87.4935 134.793 87.3358 135.525C87.1781 136.258 87.6315 136.977 88.3486 137.132C88.4281 137.149 88.5076 137.158 88.5862 137.16L89.1667 138.502L89.2085 138.599L90.7639 142.219C90.5237 142.409 90.3447 142.683 90.2747 143.008C90.2227 143.25 90.2371 143.49 90.3053 143.708L84.7542 147.358C84.5928 147.218 84.3955 147.115 84.1728 147.067C83.6086 146.946 83.0492 147.21 82.7596 147.686L76.972 146.472C76.9156 145.906 76.51 145.418 75.9346 145.295C75.652 145.234 75.3707 145.27 75.1238 145.381L71.4288 139.58C71.5569 139.419 71.6511 139.227 71.6975 139.011C71.757 138.734 71.7294 138.46 71.6334 138.216L75.8339 134.373C75.9496 134.441 76.0775 134.491 76.2151 134.521C76.9321 134.675 77.6412 134.206 77.7988 133.473C77.9565 132.74 77.5031 132.021 76.7861 131.867C76.0691 131.713 75.36 132.182 75.2023 132.915C75.1413 133.198 75.1718 133.479 75.2734 133.727L73.9884 134.901L72.1602 136.576L71.0824 137.562C70.9624 137.49 70.8289 137.436 70.6847 137.405C70.3232 137.327 69.9637 137.408 69.6759 137.601L64.7338 133.485C64.7639 133.411 64.7881 133.334 64.8055 133.253C64.9631 132.52 64.5097 131.801 63.7927 131.647C63.74 131.635 63.6873 131.627 63.6348 131.623L63.0053 125.404C63.4048 125.241 63.7214 124.885 63.8205 124.425C63.9131 123.994 63.7948 123.568 63.5359 123.259L64.7419 121.732L67.7713 117.911C67.8488 117.945 67.9306 117.971 68.0161 117.989C68.4276 118.078 68.8365 117.961 69.1401 117.707L73.8697 120.497C73.7628 121.2 74.2085 121.87 74.8979 122.019C75.615 122.173 76.324 121.704 76.4817 120.971C76.6394 120.238 76.1859 119.519 75.4689 119.365C75.015 119.267 74.5642 119.419 74.2545 119.73L69.5908 116.981C69.594 116.968 69.597 116.955 69.5999 116.942C69.7178 116.394 69.494 115.854 69.074 115.552L71.5028 109.258L71.5163 109.223C72.1868 109.298 72.8211 108.842 72.9691 108.154C72.9984 108.018 73.0066 107.883 72.996 107.752L78.436 105.243C78.6664 105.569 79.0119 105.811 79.4288 105.901Z" fill="url(#paint11_linear_919_5994)"/>
</g>
<path d="M112.382 167.926L149.804 128.759L134.5 132.508L97.3036 172.552L112.382 167.926Z" fill="#7D201F"/>
<g filter="url(#filter13_f_919_5994)">
<path d="M57.8979 80.4041L46.8936 83.421L52.6412 75.9595L122.681 93.1013L132.217 87.2833L136.175 88.1352C137.691 88.7926 137.522 90.2197 137.248 90.851C135.688 88.8587 128.921 93.6156 125.733 96.2431C128.176 104.777 133.341 122.484 134.447 125.041C135.554 127.599 138.215 128.061 139.563 128.213L148.814 125.648L150.112 129.241L135.825 134.036L98.1779 172.326L95.4068 171.73L132.688 131.29L122.085 95.8723L57.8979 80.4041Z" fill="url(#paint12_linear_919_5994)"/>
</g>
<defs>
<filter id="filter0_f_919_5994" x="81.0508" y="27.1133" width="165.34" height="37.3867" filterUnits="userSpaceOnUse" color-interpolation-filters="sRGB">
<feFlood flood-opacity="0" result="BackgroundImageFix"/>
<feBlend mode="normal" in="SourceGraphic" in2="BackgroundImageFix" result="shape"/>
<feGaussianBlur stdDeviation="1.5" result="effect1_foregroundBlur_919_5994"/>
</filter>
<filter id="filter1_f_919_5994" x="119" y="11.2842" width="6.25" height="11.0928" filterUnits="userSpaceOnUse" color-interpolation-filters="sRGB">
<feFlood flood-opacity="0" result="BackgroundImageFix"/>
<feBlend mode="normal" in="SourceGraphic" in2="BackgroundImageFix" result="shape"/>
<feGaussianBlur stdDeviation="0.5" result="effect1_foregroundBlur_919_5994"/>
</filter>
<filter id="filter2_f_919_5994" x="101.547" y="7.77148" width="16.7891" height="10.7246" filterUnits="userSpaceOnUse" color-interpolation-filters="sRGB">
<feFlood flood-opacity="0" result="BackgroundImageFix"/>
<feBlend mode="normal" in="SourceGraphic" in2="BackgroundImageFix" result="shape"/>
<feGaussianBlur stdDeviation="1" result="effect1_foregroundBlur_919_5994"/>
</filter>
<filter id="filter3_f_919_5994" x="121.48" y="5.2959" width="73.2578" height="21.5635" filterUnits="userSpaceOnUse" color-interpolation-filters="sRGB">
<feFlood flood-opacity="0" result="BackgroundImageFix"/>
<feBlend mode="normal" in="SourceGraphic" in2="BackgroundImageFix" result="shape"/>
<feGaussianBlur stdDeviation="1" result="effect1_foregroundBlur_919_5994"/>
</filter>
<filter id="filter4_f_919_5994" x="190.453" y="19.6064" width="23.793" height="11.5117" filterUnits="userSpaceOnUse" color-interpolation-filters="sRGB">
<feFlood flood-opacity="0" result="BackgroundImageFix"/>
<feBlend mode="normal" in="SourceGraphic" in2="BackgroundImageFix" result="shape"/>
<feGaussianBlur stdDeviation="1" result="effect1_foregroundBlur_919_5994"/>
</filter>
<filter id="filter5_f_919_5994" x="197.555" y="28.0234" width="5.48438" height="10.4287" filterUnits="userSpaceOnUse" color-interpolation-filters="sRGB">
<feFlood flood-opacity="0" result="BackgroundImageFix"/>
<feBlend mode="normal" in="SourceGraphic" in2="BackgroundImageFix" result="shape"/>
<feGaussianBlur stdDeviation="0.5" result="effect1_foregroundBlur_919_5994"/>
</filter>
<filter id="filter6_f_919_5994" x="212.375" y="32.5029" width="12.8945" height="28.3682" filterUnits="userSpaceOnUse" color-interpolation-filters="sRGB">
<feFlood flood-opacity="0" result="BackgroundImageFix"/>
<feBlend mode="normal" in="SourceGraphic" in2="BackgroundImageFix" result="shape"/>
<feGaussianBlur stdDeviation="0.5" result="effect1_foregroundBlur_919_5994"/>
</filter>
<filter id="filter7_f_919_5994" x="222.48" y="58.3037" width="21.6523" height="5.38281" filterUnits="userSpaceOnUse" color-interpolation-filters="sRGB">
<feFlood flood-opacity="0" result="BackgroundImageFix"/>
<feBlend mode="normal" in="SourceGraphic" in2="BackgroundImageFix" result="shape"/>
<feGaussianBlur stdDeviation="0.5" result="effect1_foregroundBlur_919_5994"/>
</filter>
<filter id="filter8_f_919_5994" x="85.5156" y="79.2129" width="26.7188" height="9.125" filterUnits="userSpaceOnUse" color-interpolation-filters="sRGB">
<feFlood flood-opacity="0" result="BackgroundImageFix"/>
<feBlend mode="normal" in="SourceGraphic" in2="BackgroundImageFix" result="shape"/>
<feGaussianBlur stdDeviation="0.5" result="effect1_foregroundBlur_919_5994"/>
</filter>
<filter id="filter9_f_919_5994" x="101.578" y="82.6201" width="26.4961" height="9.12598" filterUnits="userSpaceOnUse" color-interpolation-filters="sRGB">
<feFlood flood-opacity="0" result="BackgroundImageFix"/>
<feBlend mode="normal" in="SourceGraphic" in2="BackgroundImageFix" result="shape"/>
<feGaussianBlur stdDeviation="0.5" result="effect1_foregroundBlur_919_5994"/>
</filter>
<filter id="filter10_ii_919_5994" x="42.3086" y="85.4697" width="85.2227" height="78.5" filterUnits="userSpaceOnUse" color-interpolation-filters="sRGB">
<feFlood flood-opacity="0" result="BackgroundImageFix"/>
<feBlend mode="normal" in="SourceGraphic" in2="BackgroundImageFix" result="shape"/>
<feColorMatrix in="SourceAlpha" type="matrix" values="0 0 0 0 0 0 0 0 0 0 0 0 0 0 0 0 0 0 127 0" result="hardAlpha"/>
<feOffset dx="6" dy="2"/>
<feGaussianBlur stdDeviation="2"/>
<feComposite in2="hardAlpha" operator="arithmetic" k2="-1" k3="1"/>
<feColorMatrix type="matrix" values="0 0 0 0 0.325 0 0 0 0 0 0 0 0 0 0 0 0 0 1 0"/>
<feBlend mode="normal" in2="shape" result="effect1_innerShadow_919_5994"/>
<feColorMatrix in="SourceAlpha" type="matrix" values="0 0 0 0 0 0 0 0 0 0 0 0 0 0 0 0 0 0 127 0" result="hardAlpha"/>
<feOffset dy="-2"/>
<feGaussianBlur stdDeviation="2"/>
<feComposite in2="hardAlpha" operator="arithmetic" k2="-1" k3="1"/>
<feColorMatrix type="matrix" values="0 0 0 0 1 0 0 0 0 0.285 0 0 0 0 0.285 0 0 0 0.22 0"/>
<feBlend mode="normal" in2="effect1_innerShadow_919_5994" result="effect2_innerShadow_919_5994"/>
</filter>
<filter id="filter11_d_919_5994" x="55.1914" y="96.5488" width="57.2383" height="59.2012" filterUnits="userSpaceOnUse" color-interpolation-filters="sRGB">
<feFlood flood-opacity="0" result="BackgroundImageFix"/>
<feColorMatrix in="SourceAlpha" type="matrix" values="0 0 0 0 0 0 0 0 0 0 0 0 0 0 0 0 0 0 127 0" result="hardAlpha"/>
<feOffset/>
<feGaussianBlur stdDeviation="3"/>
<feComposite in2="hardAlpha" operator="out"/>
<feColorMatrix type="matrix" values="0 0 0 0 1 0 0 0 0 1 0 0 0 0 1 0 0 0 1 0"/>
<feBlend mode="normal" in2="BackgroundImageFix" result="effect1_dropShadow_919_5994"/>
<feBlend mode="normal" in="SourceGraphic" in2="effect1_dropShadow_919_5994" result="shape"/>
</filter>
<filter id="filter12_f_919_5994" x="50.1914" y="91.5488" width="67.2383" height="69.2012" filterUnits="userSpaceOnUse" color-interpolation-filters="sRGB">
<feFlood flood-opacity="0" result="BackgroundImageFix"/>
<feBlend mode="normal" in="SourceGraphic" in2="BackgroundImageFix" result="shape"/>
<feGaussianBlur stdDeviation="5.5" result="effect1_foregroundBlur_919_5994"/>
</filter>
<filter id="filter13_f_919_5994" x="45.8945" y="74.96" width="105.219" height="98.3662" filterUnits="userSpaceOnUse" color-interpolation-filters="sRGB">
<feFlood flood-opacity="0" result="BackgroundImageFix"/>
<feBlend mode="normal" in="SourceGraphic" in2="BackgroundImageFix" result="shape"/>
<feGaussianBlur stdDeviation="0.5" result="effect1_foregroundBlur_919_5994"/>
</filter>
<linearGradient id="paint0_linear_919_5994" x1="275.779" y1="84.2092" x2="266.409" y2="127.755" gradientUnits="userSpaceOnUse">
<stop stop-color="#C94D52"/>
<stop offset="1" stop-color="#BD4A4E"/>
</linearGradient>
<linearGradient id="paint1_linear_919_5994" x1="268.592" y1="125.325" x2="228.208" y2="122.434" gradientUnits="userSpaceOnUse">
<stop stop-color="#A24E51"/>
<stop offset="0.523958" stop-color="#C64C51"/>
<stop offset="1" stop-color="#BD3B3F"/>
</linearGradient>
<linearGradient id="paint2_linear_919_5994" x1="207.386" y1="24.7582" x2="203.467" y2="42.9684" gradientUnits="userSpaceOnUse">
<stop stop-color="#656565"/>
<stop offset="1"/>
</linearGradient>
<linearGradient id="paint3_linear_919_5994" x1="159.683" y1="14.4937" x2="155.765" y2="32.7039" gradientUnits="userSpaceOnUse">
<stop stop-color="#7D7D7D"/>
<stop offset="1" stop-color="#040404"/>
</linearGradient>
<linearGradient id="paint4_linear_919_5994" x1="202.833" y1="23.7786" x2="202.152" y2="26.9456" gradientUnits="userSpaceOnUse">
<stop stop-color="#7B7B7B"/>
<stop offset="1" stop-color="#5E5E5E"/>
</linearGradient>
<linearGradient id="paint5_linear_919_5994" x1="60.9002" y1="76.0791" x2="129.046" y2="92.3992" gradientUnits="userSpaceOnUse">
<stop stop-color="#F55866"/>
<stop offset="1" stop-color="#CC4248"/>
</linearGradient>
<linearGradient id="paint6_linear_919_5994" x1="118.865" y1="93.5218" x2="49.7984" y2="162.329" gradientUnits="userSpaceOnUse">
<stop stop-color="#DC3B45"/>
<stop offset="1" stop-color="#9A3434"/>
</linearGradient>
<linearGradient id="paint7_linear_919_5994" x1="62.0809" y1="87.931" x2="92.7846" y2="166.609" gradientUnits="userSpaceOnUse">
<stop stop-color="#8F1010"/>
<stop offset="1" stop-color="#CE2836"/>
</linearGradient>
<linearGradient id="paint8_linear_919_5994" x1="73.8852" y1="120.412" x2="76.4817" y2="120.971" gradientUnits="userSpaceOnUse">
<stop stop-color="white"/>
<stop offset="1" stop-color="white"/>
</linearGradient>
<linearGradient id="paint9_linear_919_5994" x1="73.8852" y1="120.412" x2="76.4817" y2="120.971" gradientUnits="userSpaceOnUse">
<stop stop-color="white"/>
<stop offset="1" stop-color="white"/>
</linearGradient>
<linearGradient id="paint10_linear_919_5994" x1="73.8852" y1="120.412" x2="76.4817" y2="120.971" gradientUnits="userSpaceOnUse">
<stop stop-color="white"/>
<stop offset="1" stop-color="white"/>
</linearGradient>
<linearGradient id="paint11_linear_919_5994" x1="73.8852" y1="120.412" x2="76.4817" y2="120.971" gradientUnits="userSpaceOnUse">
<stop stop-color="white"/>
<stop offset="1" stop-color="white"/>
</linearGradient>
<linearGradient id="paint12_linear_919_5994" x1="107.903" y1="77.0812" x2="96.3043" y2="213.758" gradientUnits="userSpaceOnUse">
<stop stop-color="#FFF9F9"/>
<stop offset="1" stop-color="#FFC4C4" stop-opacity="0"/>
</linearGradient>
</defs>
</svg>
