<svg width="289" height="168" viewBox="0 0 289 168" fill="none" xmlns="http://www.w3.org/2000/svg">
<path d="M7.15039 109.258L12.3147 48.4785L13.1092 46.4922L173.997 48.4785L172.01 116.806L9.53391 111.642L7.15039 109.258Z" fill="#DC3B45"/>
<path d="M61.5742 115.217V50.0674H113.217V115.217H61.5742Z" fill="#993334"/>
<path d="M206.175 116.012L200.216 49.2734L199.422 46.0954L270.927 41.7256L282.845 105.286L281.653 110.848L206.175 116.012Z" fill="#AE242A"/>
<path d="M220.871 88.6011L217.693 48.4786L259.008 44.9033L262.583 88.6011L222.858 93.7654L220.871 88.6011Z" fill="#6B1B1D"/>
<path d="M254.639 45.3006L258.214 84.6286L262.584 88.6011L259.008 44.9033L254.639 45.3006Z" fill="url(#paint0_linear_724_12438)"/>
<path d="M170.818 50.8622L174.791 35.7666H195.845L200.612 50.0677L170.818 50.8622Z" fill="#FF9B9A"/>
<path d="M170.819 50.4644L169.627 114.819L207.366 114.422L200.613 49.6699L170.819 50.4644Z" fill="#FB5C5C"/>
<path d="M288.405 106.874L276.09 44.1084H270.926L280.857 109.258L288.405 106.874Z" fill="#912125"/>
<path d="M288.405 106.874L280.857 109.258L276.885 118.792L281.255 118.394L288.405 106.874Z" fill="#6E2422"/>
<path d="M280.858 109.258L207.366 114.422L203.791 125.148L276.886 118.792L280.858 109.258Z" fill="#7D201F"/>
<path d="M173.997 125.148L169.627 114.422H207.366L203.791 125.148H173.997Z" fill="#D45B5B"/>
<path d="M169.628 114.423L8.74023 108.861L11.521 117.998L173.997 125.149L169.628 114.423Z" fill="#9A3434"/>
<path d="M96.5333 25.835L21.8479 33.78C21.2123 34.7334 22.9091 34.5745 23.8361 34.5745L175.189 35.7663H195.847C197.436 35.7663 261.393 31.7938 262.188 31.7938C262.823 31.7938 263.777 30.9992 264.174 30.602L96.5333 25.835Z" fill="#FF736A"/>
<g filter="url(#filter0_f_724_12438)">
<path d="M203.394 32.5881H63.5605L100.902 27.4238L222.859 29.8073L203.394 32.5881Z" fill="#851B21"/>
</g>
<path d="M8.74023 46.4914C9.05804 42.9956 17.6122 36.6925 21.8496 33.7793L23.8358 34.5738C23.518 35.2094 16.5529 44.3727 13.11 48.8749C12.4744 48.8749 9.93199 47.2859 8.74023 46.4914Z" fill="#BA4040"/>
<path d="M0 107.669L8.73956 46.4922L13.1093 48.8757L8.73956 108.861L0 107.669Z" fill="#9A3334"/>
<path d="M7.94506 117.998L0 107.669L8.73956 108.861L11.5203 117.998H7.94506Z" fill="#6C2522"/>
<path d="M264.173 30.6025L276.09 44.1091H270.926L261.789 31.7943L264.173 30.6025Z" fill="#702422"/>
<path d="M222.859 93.7647L220.873 88.9977L258.215 84.6279L262.585 88.6005L222.859 93.7647Z" fill="url(#paint1_linear_724_12438)"/>
<path d="M200.613 49.6703L195.846 35.7665L261.79 31.7939L270.926 44.1088L200.613 49.6703Z" fill="#C9383D"/>
<path d="M170.819 50.4651L13.1094 48.8761L23.8352 34.1777L175.188 35.7667L170.819 50.4651Z" fill="#F55866"/>
<path d="M100.903 28.615L81.4375 31.3958L91.3688 15.1084H109.245L100.903 28.615Z" fill="#AF232A"/>
<path d="M92.1633 15.9029H98.5193V7.56055H85.0127L68.3281 31.3957H81.4375L92.1633 15.9029Z" fill="#DB3B45"/>
<g filter="url(#filter1_f_724_12438)">
<path d="M98.5195 16.3001V7.56055H96.7319L96.136 16.3001H98.5195Z" fill="#9A3434"/>
</g>
<g filter="url(#filter2_f_724_12438)">
<path d="M85.0127 7.56055H90.5742L79.4512 15.5056L85.0127 7.56055Z" fill="#FF7B83"/>
</g>
<path d="M184.326 2H166.053L168.039 20.2736H195.449L184.326 2Z" fill="url(#paint2_linear_724_12438)"/>
<path d="M97.7246 20.2736L99.3136 2H166.052L168.038 20.2736H97.7246Z" fill="url(#paint3_linear_724_12438)"/>
<g filter="url(#filter3_f_724_12438)">
<path d="M98.5195 11.1368L99.314 2.39725V2H166.052L166.45 5.17802H104.081L98.5195 11.1368Z" fill="#989898"/>
</g>
<g filter="url(#filter4_f_724_12438)">
<path d="M186.313 5.17802H166.45L166.053 2H184.326L186.313 5.17802Z" fill="url(#paint4_linear_724_12438)"/>
</g>
<path d="M174.791 15.5056V7.56055H189.887V11.1358L203.393 32.1902H191.476L179.955 15.5056H174.791Z" fill="#DB3B45"/>
<g filter="url(#filter5_f_724_12438)">
<path d="M174.791 15.5056V7.56055H176.579L177.175 15.5056H174.791Z" fill="#9A3434"/>
</g>
<path d="M204.189 7.56055H187.504L202.202 32.1902L222.859 30.9985L204.189 7.56055Z" fill="#AF232A"/>
<g filter="url(#filter6_f_724_12438)">
<path d="M201.862 32.1901L188.297 9.14941L204.187 32.1901H201.862Z" fill="#FF7B83"/>
</g>
<g filter="url(#filter7_f_724_12438)">
<path d="M203.393 31.7931L222.063 30.2041L222.858 30.9986L203.393 32.1904V31.7931Z" fill="#490F0B"/>
</g>
<path d="M146.983 113.628L125.929 77.4775L113.217 85.4226L133.477 121.175L146.983 113.628Z" fill="#AE242A"/>
<path d="M56.8074 77.4775L43.3008 83.0391L113.615 85.4226L125.929 77.4775H56.8074Z" fill="url(#paint5_linear_724_12438)"/>
<g filter="url(#filter8_f_724_12438)">
<path d="M77.0664 83.8336L88.5867 77.4775H100.504L88.5867 84.6281L77.0664 83.8336Z" fill="#FFB6B6"/>
</g>
<g filter="url(#filter9_f_724_12438)">
<path d="M93.3555 84.6281L104.479 77.4775H116.396L104.479 84.6281H93.3555Z" fill="#FFB6B6"/>
</g>
<path d="M27.0137 114.025L43.301 83.0391L113.615 85.0253L134.272 120.778L106.067 166.462L58.3966 165.668L27.0137 114.025Z" fill="url(#paint6_linear_724_12438)"/>
<g filter="url(#filter10_ii_724_12438)">
<path d="M39.7266 116.477L52.2739 92.5732L106.441 94.1055L122.355 121.686L100.627 156.928L63.9031 156.315L39.7266 116.477Z" fill="url(#paint7_linear_724_12438)"/>
</g>
<g filter="url(#filter11_d_724_12438)">
<path fill-rule="evenodd" clip-rule="evenodd" d="M80.7368 116.055L80.7176 116.04C80.6271 115.985 80.5197 115.969 80.4186 115.997C80.3473 116.017 80.2833 116.057 80.233 116.112L73.9772 120.93L73.0757 121.623C73.0038 121.672 72.9485 121.745 72.9176 121.829C72.8868 121.914 72.8819 122.007 72.9037 122.095L75.6718 131.13C75.6959 131.218 75.7456 131.294 75.8137 131.349C75.8818 131.404 75.9646 131.435 76.0503 131.437H85.0134C85.0993 131.435 85.1824 131.405 85.2508 131.35C85.3191 131.294 85.3692 131.218 85.3936 131.13L86.3209 128.09L88.1565 122.095C88.1781 122.006 88.1722 121.912 88.1397 121.827C88.1071 121.742 88.0497 121.671 87.9759 121.623L80.7664 116.077C80.7568 116.069 80.747 116.062 80.7368 116.055ZM80.519 116.914L73.7309 122.141L76.3228 130.603H84.7131L87.3067 122.142L80.519 116.914Z" fill="url(#paint8_linear_724_12438)"/>
<path fill-rule="evenodd" clip-rule="evenodd" d="M70.7902 140.774C70.6229 140.861 70.4345 140.91 70.2353 140.91C69.5417 140.91 68.9794 140.314 68.9794 139.579C68.9794 139.516 68.9834 139.455 68.9913 139.395L64.4908 136.952C64.2614 136.827 64.032 136.703 63.8027 136.58L63.5712 136.455C63.3472 136.676 63.0473 136.81 62.7177 136.81C62.0241 136.81 61.4619 136.214 61.4619 135.479C61.4619 135.098 61.6128 134.754 61.8547 134.511L59.9902 128.545C59.3247 128.511 58.7949 127.929 58.7949 127.215C58.7949 126.48 59.3572 125.884 60.0508 125.884L60.0672 125.884L62.9806 119.747C62.7751 119.509 62.6496 119.193 62.6496 118.846C62.6496 118.209 63.0713 117.677 63.6347 117.545L64.4442 112.229C64.4832 111.971 64.5202 111.712 64.5573 111.452L64.5577 111.449L64.5579 111.448C64.5853 111.256 64.6126 111.065 64.6408 110.873C64.2674 110.643 64.0165 110.214 64.0165 109.722C64.0165 108.987 64.5787 108.391 65.2723 108.391C65.5579 108.391 65.8212 108.492 66.0321 108.662L70.5744 105.125C70.5153 104.95 70.4831 104.761 70.4831 104.565C70.4831 103.646 71.1856 102.901 72.0521 102.901C72.889 102.901 73.5729 103.596 73.6187 104.471L79.3855 105.411C79.585 104.955 80.0203 104.639 80.525 104.639C81.0236 104.639 81.4544 104.947 81.6572 105.394L87.5854 104.428C87.6495 103.757 88.1844 103.233 88.8348 103.233C89.5284 103.233 90.0907 103.829 90.0907 104.564C90.0907 104.685 90.0755 104.802 90.0471 104.913L94.9258 108.724C95.1473 108.517 95.4381 108.391 95.7567 108.391C96.4503 108.391 97.0126 108.987 97.0126 109.722C97.0126 110.27 96.7005 110.741 96.2545 110.945L96.5868 113.134L97.257 117.52C97.8979 117.58 98.4004 118.151 98.4004 118.846C98.4004 119.184 98.2816 119.493 98.0858 119.727L100.368 124.522C100.494 124.788 100.621 125.053 100.747 125.318C100.84 125.513 100.933 125.707 101.026 125.902C101.094 125.89 101.165 125.884 101.237 125.884C101.93 125.884 102.493 126.48 102.493 127.215C102.493 127.95 101.93 128.546 101.237 128.546C101.174 128.546 101.113 128.542 101.052 128.532L99.242 134.325C99.6175 134.555 99.8703 134.986 99.8703 135.479C99.8703 136.214 99.308 136.81 98.6144 136.81C98.2181 136.81 97.8647 136.615 97.6345 136.312L91.9619 139.397C91.9696 139.456 91.9736 139.517 91.9736 139.579C91.9736 140.314 91.4113 140.91 90.7177 140.91C90.5358 140.91 90.3629 140.869 90.2068 140.795L86.6699 144.521C86.5022 144.699 86.3349 144.877 86.1677 145.055L86.164 145.059C86.0298 145.202 85.8955 145.345 85.7609 145.487C85.8396 145.661 85.8837 145.856 85.8837 146.062C85.8837 146.798 85.3215 147.394 84.6278 147.394C84.0595 147.394 83.5793 146.993 83.4244 146.444L77.8529 146.475C77.689 147.008 77.2163 147.394 76.6586 147.394C75.965 147.394 75.4027 146.798 75.4027 146.062C75.4027 145.928 75.4216 145.798 75.4565 145.676L70.7902 140.774ZM72.0521 106.228C72.674 106.228 73.2114 105.844 73.4653 105.288L79.2942 106.237C79.3772 106.671 79.6589 107.028 80.0343 107.197V112.715C79.5845 112.917 79.2692 113.39 79.2692 113.941C79.2692 114.676 79.8314 115.272 80.525 115.272C81.2186 115.272 81.7809 114.676 81.7809 113.941C81.7809 113.323 81.3846 112.804 80.8471 112.653V107.258C81.3104 107.128 81.6688 106.725 81.7589 106.22L87.7548 105.244C87.9738 105.634 88.3755 105.895 88.8348 105.895C89.1306 105.895 89.4025 105.787 89.6171 105.606L94.5307 109.432C94.5111 109.526 94.5008 109.623 94.5008 109.722C94.5008 110.358 94.9204 110.889 95.4818 111.022L96.4979 117.704C96.1336 117.937 95.8897 118.36 95.8887 118.843L91.0081 120.524C90.7808 120.182 90.4053 119.958 89.9805 119.958C89.2869 119.958 88.7246 120.555 88.7246 121.29C88.7246 122.025 89.2869 122.621 89.9805 122.621C90.6636 122.621 91.2193 122.043 91.236 121.323L96.1335 119.636C96.3622 119.964 96.7299 120.177 97.1446 120.177C97.2328 120.177 97.3189 120.168 97.4019 120.149L100.324 126.3C100.112 126.539 99.981 126.861 99.981 127.215C99.981 127.58 100.119 127.91 100.344 128.151L99.8554 129.731L98.4739 134.155C97.8464 134.23 97.3585 134.794 97.3585 135.479C97.3585 135.496 97.3588 135.513 97.3594 135.53L91.6199 138.653C91.3916 138.403 91.0718 138.247 90.7177 138.247C90.6156 138.247 90.5163 138.26 90.4213 138.285L89.1816 136.476L87.4327 133.914C87.6407 133.676 87.7678 133.358 87.7678 133.009C87.7678 132.273 87.2055 131.677 86.5119 131.677C85.8183 131.677 85.256 132.273 85.256 133.009C85.256 133.744 85.8183 134.34 86.5119 134.34C86.5889 134.34 86.6642 134.333 86.7374 134.319L87.5409 135.486L87.5989 135.57L89.7571 138.721C89.5729 138.953 89.4618 139.252 89.4618 139.579C89.4618 139.821 89.5228 140.048 89.6294 140.244L85.2232 144.89C85.046 144.788 84.8433 144.731 84.6278 144.731C84.082 144.731 83.6175 145.1 83.4444 145.616L77.852 145.646C77.6872 145.115 77.2152 144.731 76.6586 144.731C76.3852 144.731 76.1323 144.823 75.9261 144.981L71.356 140.18C71.4424 140 71.4911 139.795 71.4911 139.579C71.4911 139.301 71.411 139.043 71.2738 138.83L74.3928 134.277C74.5132 134.318 74.6415 134.34 74.7746 134.34C75.4682 134.34 76.0304 133.744 76.0304 133.009C76.0304 132.273 75.4682 131.677 74.7746 131.677C74.081 131.677 73.5187 132.273 73.5187 133.009C73.5187 133.293 73.6028 133.556 73.746 133.773L72.7916 135.165L71.4346 137.149L70.6342 138.316C70.5089 138.272 70.3747 138.247 70.2353 138.247C69.8855 138.247 69.5692 138.399 69.3415 138.644L63.9536 135.716C63.9668 135.639 63.9736 135.56 63.9736 135.479C63.9736 134.743 63.4113 134.147 62.7177 134.147C62.6667 134.147 62.6164 134.15 62.567 134.157L60.7478 128.323C61.0848 128.084 61.3067 127.677 61.3067 127.215C61.3067 126.783 61.1125 126.399 60.8117 126.156L61.6229 124.442L63.6636 120.153C63.7419 120.169 63.8228 120.177 63.9055 120.177C64.3036 120.177 64.6584 119.981 64.8885 119.675L69.8162 121.374C69.8572 122.07 70.4027 122.621 71.0696 122.621C71.7632 122.621 72.3255 122.025 72.3255 121.29C72.3255 120.555 71.7632 119.958 71.0696 119.958C70.6305 119.958 70.244 120.197 70.0195 120.559L65.1608 118.886C65.1612 118.872 65.1614 118.859 65.1614 118.846C65.1614 118.296 64.8471 117.824 64.3986 117.621L65.3921 111.084L65.3976 111.047C66.0324 110.981 66.5282 110.413 66.5282 109.722C66.5282 109.586 66.5089 109.455 66.473 109.331L71.0033 105.802C71.2812 106.067 71.6489 106.228 72.0521 106.228Z" fill="url(#paint9_linear_724_12438)"/>
</g>
<g filter="url(#filter12_f_724_12438)">
<path fill-rule="evenodd" clip-rule="evenodd" d="M80.7368 116.055L80.7176 116.04C80.6271 115.985 80.5197 115.969 80.4186 115.997C80.3473 116.017 80.2833 116.057 80.233 116.112L73.9772 120.93L73.0757 121.623C73.0038 121.672 72.9485 121.745 72.9176 121.829C72.8868 121.914 72.8819 122.007 72.9037 122.095L75.6718 131.13C75.6959 131.218 75.7456 131.294 75.8137 131.349C75.8818 131.404 75.9646 131.435 76.0503 131.437H85.0134C85.0993 131.435 85.1824 131.405 85.2508 131.35C85.3191 131.294 85.3692 131.218 85.3936 131.13L86.3209 128.09L88.1565 122.095C88.1781 122.006 88.1722 121.912 88.1397 121.827C88.1071 121.742 88.0497 121.671 87.9759 121.623L80.7664 116.077C80.7568 116.069 80.747 116.062 80.7368 116.055ZM80.519 116.914L73.7309 122.141L76.3228 130.603H84.7131L87.3067 122.142L80.519 116.914Z" fill="url(#paint10_linear_724_12438)"/>
<path fill-rule="evenodd" clip-rule="evenodd" d="M70.7902 140.774C70.6229 140.861 70.4345 140.91 70.2353 140.91C69.5417 140.91 68.9794 140.314 68.9794 139.579C68.9794 139.516 68.9834 139.455 68.9913 139.395L64.4908 136.952C64.2614 136.827 64.032 136.703 63.8027 136.58L63.5712 136.455C63.3472 136.676 63.0473 136.81 62.7177 136.81C62.0241 136.81 61.4619 136.214 61.4619 135.479C61.4619 135.098 61.6128 134.754 61.8547 134.511L59.9902 128.545C59.3247 128.511 58.7949 127.929 58.7949 127.215C58.7949 126.48 59.3572 125.884 60.0508 125.884L60.0672 125.884L62.9806 119.747C62.7751 119.509 62.6496 119.193 62.6496 118.846C62.6496 118.209 63.0713 117.677 63.6347 117.545L64.4442 112.229C64.4832 111.971 64.5202 111.712 64.5573 111.452L64.5577 111.449L64.5579 111.448C64.5853 111.256 64.6126 111.065 64.6408 110.873C64.2674 110.643 64.0165 110.214 64.0165 109.722C64.0165 108.987 64.5787 108.391 65.2723 108.391C65.5579 108.391 65.8212 108.492 66.0321 108.662L70.5744 105.125C70.5153 104.95 70.4831 104.761 70.4831 104.565C70.4831 103.646 71.1856 102.901 72.0521 102.901C72.889 102.901 73.5729 103.596 73.6187 104.471L79.3855 105.411C79.585 104.955 80.0203 104.639 80.525 104.639C81.0236 104.639 81.4544 104.947 81.6572 105.394L87.5854 104.428C87.6495 103.757 88.1844 103.233 88.8348 103.233C89.5284 103.233 90.0907 103.829 90.0907 104.564C90.0907 104.685 90.0755 104.802 90.0471 104.913L94.9258 108.724C95.1473 108.517 95.4381 108.391 95.7567 108.391C96.4503 108.391 97.0126 108.987 97.0126 109.722C97.0126 110.27 96.7005 110.741 96.2545 110.945L96.5868 113.134L97.257 117.52C97.8979 117.58 98.4004 118.151 98.4004 118.846C98.4004 119.184 98.2816 119.493 98.0858 119.727L100.368 124.522C100.494 124.788 100.621 125.053 100.747 125.318C100.84 125.513 100.933 125.707 101.026 125.902C101.094 125.89 101.165 125.884 101.237 125.884C101.93 125.884 102.493 126.48 102.493 127.215C102.493 127.95 101.93 128.546 101.237 128.546C101.174 128.546 101.113 128.542 101.052 128.532L99.242 134.325C99.6175 134.555 99.8703 134.986 99.8703 135.479C99.8703 136.214 99.308 136.81 98.6144 136.81C98.2181 136.81 97.8647 136.615 97.6345 136.312L91.9619 139.397C91.9696 139.456 91.9736 139.517 91.9736 139.579C91.9736 140.314 91.4113 140.91 90.7177 140.91C90.5358 140.91 90.3629 140.869 90.2068 140.795L86.6699 144.521C86.5022 144.699 86.3349 144.877 86.1677 145.055L86.164 145.059C86.0298 145.202 85.8955 145.345 85.7609 145.487C85.8396 145.661 85.8837 145.856 85.8837 146.062C85.8837 146.798 85.3215 147.394 84.6278 147.394C84.0595 147.394 83.5793 146.993 83.4244 146.444L77.8529 146.475C77.689 147.008 77.2163 147.394 76.6586 147.394C75.965 147.394 75.4027 146.798 75.4027 146.062C75.4027 145.928 75.4216 145.798 75.4565 145.676L70.7902 140.774ZM72.0521 106.228C72.674 106.228 73.2114 105.844 73.4653 105.288L79.2942 106.237C79.3772 106.671 79.6589 107.028 80.0343 107.197V112.715C79.5845 112.917 79.2692 113.39 79.2692 113.941C79.2692 114.676 79.8314 115.272 80.525 115.272C81.2186 115.272 81.7809 114.676 81.7809 113.941C81.7809 113.323 81.3846 112.804 80.8471 112.653V107.258C81.3104 107.128 81.6688 106.725 81.7589 106.22L87.7548 105.244C87.9738 105.634 88.3755 105.895 88.8348 105.895C89.1306 105.895 89.4025 105.787 89.6171 105.606L94.5307 109.432C94.5111 109.526 94.5008 109.623 94.5008 109.722C94.5008 110.358 94.9204 110.889 95.4818 111.022L96.4979 117.704C96.1336 117.937 95.8897 118.36 95.8887 118.843L91.0081 120.524C90.7808 120.182 90.4053 119.958 89.9805 119.958C89.2869 119.958 88.7246 120.555 88.7246 121.29C88.7246 122.025 89.2869 122.621 89.9805 122.621C90.6636 122.621 91.2193 122.043 91.236 121.323L96.1335 119.636C96.3622 119.964 96.7299 120.177 97.1446 120.177C97.2328 120.177 97.3189 120.168 97.4019 120.149L100.324 126.3C100.112 126.539 99.981 126.861 99.981 127.215C99.981 127.58 100.119 127.91 100.344 128.151L99.8554 129.731L98.4739 134.155C97.8464 134.23 97.3585 134.794 97.3585 135.479C97.3585 135.496 97.3588 135.513 97.3594 135.53L91.6199 138.653C91.3916 138.403 91.0718 138.247 90.7177 138.247C90.6156 138.247 90.5163 138.26 90.4213 138.285L89.1816 136.476L87.4327 133.914C87.6407 133.676 87.7678 133.358 87.7678 133.009C87.7678 132.273 87.2055 131.677 86.5119 131.677C85.8183 131.677 85.256 132.273 85.256 133.009C85.256 133.744 85.8183 134.34 86.5119 134.34C86.5889 134.34 86.6642 134.333 86.7374 134.319L87.5409 135.486L87.5989 135.57L89.7571 138.721C89.5729 138.953 89.4618 139.252 89.4618 139.579C89.4618 139.821 89.5228 140.048 89.6294 140.244L85.2232 144.89C85.046 144.788 84.8433 144.731 84.6278 144.731C84.082 144.731 83.6175 145.1 83.4444 145.616L77.852 145.646C77.6872 145.115 77.2152 144.731 76.6586 144.731C76.3852 144.731 76.1323 144.823 75.9261 144.981L71.356 140.18C71.4424 140 71.4911 139.795 71.4911 139.579C71.4911 139.301 71.411 139.043 71.2738 138.83L74.3928 134.277C74.5132 134.318 74.6415 134.34 74.7746 134.34C75.4682 134.34 76.0304 133.744 76.0304 133.009C76.0304 132.273 75.4682 131.677 74.7746 131.677C74.081 131.677 73.5187 132.273 73.5187 133.009C73.5187 133.293 73.6028 133.556 73.746 133.773L72.7916 135.165L71.4346 137.149L70.6342 138.316C70.5089 138.272 70.3747 138.247 70.2353 138.247C69.8855 138.247 69.5692 138.399 69.3415 138.644L63.9536 135.716C63.9668 135.639 63.9736 135.56 63.9736 135.479C63.9736 134.743 63.4113 134.147 62.7177 134.147C62.6667 134.147 62.6164 134.15 62.567 134.157L60.7478 128.323C61.0848 128.084 61.3067 127.677 61.3067 127.215C61.3067 126.783 61.1125 126.399 60.8117 126.156L61.6229 124.442L63.6636 120.153C63.7419 120.169 63.8228 120.177 63.9055 120.177C64.3036 120.177 64.6584 119.981 64.8885 119.675L69.8162 121.374C69.8572 122.07 70.4027 122.621 71.0696 122.621C71.7632 122.621 72.3255 122.025 72.3255 121.29C72.3255 120.555 71.7632 119.958 71.0696 119.958C70.6305 119.958 70.244 120.197 70.0195 120.559L65.1608 118.886C65.1612 118.872 65.1614 118.859 65.1614 118.846C65.1614 118.296 64.8471 117.824 64.3986 117.621L65.3921 111.084L65.3976 111.047C66.0324 110.981 66.5282 110.413 66.5282 109.722C66.5282 109.586 66.5089 109.455 66.473 109.331L71.0033 105.802C71.2812 106.067 71.6489 106.228 72.0521 106.228Z" fill="url(#paint11_linear_724_12438)"/>
</g>
<path d="M119.177 158.915L146.984 113.628L133.08 120.381L105.67 166.463L119.177 158.915Z" fill="#7D201F"/>
<g filter="url(#filter13_f_724_12438)">
<path d="M48.863 86.217L38.9316 91.3814L42.9042 83.0391L113.615 85.0253L121.56 77.4775H125.533C127.122 77.7953 127.254 79.1989 127.122 79.8609C125.215 78.2719 119.706 84.2307 117.19 87.4088C121.295 95.089 129.903 111.006 131.492 113.23C133.081 115.455 135.729 115.349 137.053 115.217L145.395 110.847L147.382 114.025L134.67 121.573L106.465 166.065H103.684L131.094 119.586L113.615 87.806L48.863 86.217Z" fill="url(#paint12_linear_724_12438)"/>
</g>
<defs>
<filter id="filter0_f_724_12438" x="60.5605" y="24.4238" width="165.299" height="11.1641" filterUnits="userSpaceOnUse" color-interpolation-filters="sRGB">
<feFlood flood-opacity="0" result="BackgroundImageFix"/>
<feBlend mode="normal" in="SourceGraphic" in2="BackgroundImageFix" result="shape"/>
<feGaussianBlur stdDeviation="1.5" result="effect1_foregroundBlur_724_12438"/>
</filter>
<filter id="filter1_f_724_12438" x="95.1367" y="6.56055" width="4.38281" height="10.7393" filterUnits="userSpaceOnUse" color-interpolation-filters="sRGB">
<feFlood flood-opacity="0" result="BackgroundImageFix"/>
<feBlend mode="normal" in="SourceGraphic" in2="BackgroundImageFix" result="shape"/>
<feGaussianBlur stdDeviation="0.5" result="effect1_foregroundBlur_724_12438"/>
</filter>
<filter id="filter2_f_724_12438" x="77.4512" y="5.56055" width="15.123" height="11.9453" filterUnits="userSpaceOnUse" color-interpolation-filters="sRGB">
<feFlood flood-opacity="0" result="BackgroundImageFix"/>
<feBlend mode="normal" in="SourceGraphic" in2="BackgroundImageFix" result="shape"/>
<feGaussianBlur stdDeviation="1" result="effect1_foregroundBlur_724_12438"/>
</filter>
<filter id="filter3_f_724_12438" x="96.5195" y="0" width="71.9297" height="13.1367" filterUnits="userSpaceOnUse" color-interpolation-filters="sRGB">
<feFlood flood-opacity="0" result="BackgroundImageFix"/>
<feBlend mode="normal" in="SourceGraphic" in2="BackgroundImageFix" result="shape"/>
<feGaussianBlur stdDeviation="1" result="effect1_foregroundBlur_724_12438"/>
</filter>
<filter id="filter4_f_724_12438" x="164.053" y="0" width="24.2598" height="7.17773" filterUnits="userSpaceOnUse" color-interpolation-filters="sRGB">
<feFlood flood-opacity="0" result="BackgroundImageFix"/>
<feBlend mode="normal" in="SourceGraphic" in2="BackgroundImageFix" result="shape"/>
<feGaussianBlur stdDeviation="1" result="effect1_foregroundBlur_724_12438"/>
</filter>
<filter id="filter5_f_724_12438" x="173.791" y="6.56055" width="4.38281" height="9.94531" filterUnits="userSpaceOnUse" color-interpolation-filters="sRGB">
<feFlood flood-opacity="0" result="BackgroundImageFix"/>
<feBlend mode="normal" in="SourceGraphic" in2="BackgroundImageFix" result="shape"/>
<feGaussianBlur stdDeviation="0.5" result="effect1_foregroundBlur_724_12438"/>
</filter>
<filter id="filter6_f_724_12438" x="187.297" y="8.14941" width="17.8906" height="25.041" filterUnits="userSpaceOnUse" color-interpolation-filters="sRGB">
<feFlood flood-opacity="0" result="BackgroundImageFix"/>
<feBlend mode="normal" in="SourceGraphic" in2="BackgroundImageFix" result="shape"/>
<feGaussianBlur stdDeviation="0.5" result="effect1_foregroundBlur_724_12438"/>
</filter>
<filter id="filter7_f_724_12438" x="202.393" y="29.2041" width="21.4648" height="3.98633" filterUnits="userSpaceOnUse" color-interpolation-filters="sRGB">
<feFlood flood-opacity="0" result="BackgroundImageFix"/>
<feBlend mode="normal" in="SourceGraphic" in2="BackgroundImageFix" result="shape"/>
<feGaussianBlur stdDeviation="0.5" result="effect1_foregroundBlur_724_12438"/>
</filter>
<filter id="filter8_f_724_12438" x="76.0664" y="76.4775" width="25.4375" height="9.15039" filterUnits="userSpaceOnUse" color-interpolation-filters="sRGB">
<feFlood flood-opacity="0" result="BackgroundImageFix"/>
<feBlend mode="normal" in="SourceGraphic" in2="BackgroundImageFix" result="shape"/>
<feGaussianBlur stdDeviation="0.5" result="effect1_foregroundBlur_724_12438"/>
</filter>
<filter id="filter9_f_724_12438" x="92.3555" y="76.4775" width="25.041" height="9.15039" filterUnits="userSpaceOnUse" color-interpolation-filters="sRGB">
<feFlood flood-opacity="0" result="BackgroundImageFix"/>
<feBlend mode="normal" in="SourceGraphic" in2="BackgroundImageFix" result="shape"/>
<feGaussianBlur stdDeviation="0.5" result="effect1_foregroundBlur_724_12438"/>
</filter>
<filter id="filter10_ii_724_12438" x="39.7266" y="90.5732" width="86.6289" height="68.3545" filterUnits="userSpaceOnUse" color-interpolation-filters="sRGB">
<feFlood flood-opacity="0" result="BackgroundImageFix"/>
<feBlend mode="normal" in="SourceGraphic" in2="BackgroundImageFix" result="shape"/>
<feColorMatrix in="SourceAlpha" type="matrix" values="0 0 0 0 0 0 0 0 0 0 0 0 0 0 0 0 0 0 127 0" result="hardAlpha"/>
<feOffset dx="6" dy="2"/>
<feGaussianBlur stdDeviation="2"/>
<feComposite in2="hardAlpha" operator="arithmetic" k2="-1" k3="1"/>
<feColorMatrix type="matrix" values="0 0 0 0 0.325 0 0 0 0 0 0 0 0 0 0 0 0 0 1 0"/>
<feBlend mode="normal" in2="shape" result="effect1_innerShadow_724_12438"/>
<feColorMatrix in="SourceAlpha" type="matrix" values="0 0 0 0 0 0 0 0 0 0 0 0 0 0 0 0 0 0 127 0" result="hardAlpha"/>
<feOffset dy="-2"/>
<feGaussianBlur stdDeviation="2"/>
<feComposite in2="hardAlpha" operator="arithmetic" k2="-1" k3="1"/>
<feColorMatrix type="matrix" values="0 0 0 0 1 0 0 0 0 0.285 0 0 0 0 0.285 0 0 0 0.22 0"/>
<feBlend mode="normal" in2="effect1_innerShadow_724_12438" result="effect2_innerShadow_724_12438"/>
</filter>
<filter id="filter11_d_724_12438" x="52.7949" y="96.9014" width="55.6973" height="56.4922" filterUnits="userSpaceOnUse" color-interpolation-filters="sRGB">
<feFlood flood-opacity="0" result="BackgroundImageFix"/>
<feColorMatrix in="SourceAlpha" type="matrix" values="0 0 0 0 0 0 0 0 0 0 0 0 0 0 0 0 0 0 127 0" result="hardAlpha"/>
<feOffset/>
<feGaussianBlur stdDeviation="3"/>
<feComposite in2="hardAlpha" operator="out"/>
<feColorMatrix type="matrix" values="0 0 0 0 1 0 0 0 0 1 0 0 0 0 1 0 0 0 1 0"/>
<feBlend mode="normal" in2="BackgroundImageFix" result="effect1_dropShadow_724_12438"/>
<feBlend mode="normal" in="SourceGraphic" in2="effect1_dropShadow_724_12438" result="shape"/>
</filter>
<filter id="filter12_f_724_12438" x="47.7949" y="91.9014" width="65.6973" height="66.4922" filterUnits="userSpaceOnUse" color-interpolation-filters="sRGB">
<feFlood flood-opacity="0" result="BackgroundImageFix"/>
<feBlend mode="normal" in="SourceGraphic" in2="BackgroundImageFix" result="shape"/>
<feGaussianBlur stdDeviation="5.5" result="effect1_foregroundBlur_724_12438"/>
</filter>
<filter id="filter13_f_724_12438" x="37.9316" y="76.4775" width="110.449" height="90.5869" filterUnits="userSpaceOnUse" color-interpolation-filters="sRGB">
<feFlood flood-opacity="0" result="BackgroundImageFix"/>
<feBlend mode="normal" in="SourceGraphic" in2="BackgroundImageFix" result="shape"/>
<feGaussianBlur stdDeviation="0.5" result="effect1_foregroundBlur_724_12438"/>
</filter>
<linearGradient id="paint0_linear_724_12438" x1="258.611" y1="44.9033" x2="258.611" y2="88.6011" gradientUnits="userSpaceOnUse">
<stop stop-color="#C94D52"/>
<stop offset="1" stop-color="#BD4A4E"/>
</linearGradient>
<linearGradient id="paint1_linear_724_12438" x1="260.201" y1="85.8197" x2="220.873" y2="91.3812" gradientUnits="userSpaceOnUse">
<stop stop-color="#A24E51"/>
<stop offset="0.523958" stop-color="#C64C51"/>
<stop offset="1" stop-color="#BD3B3F"/>
</linearGradient>
<linearGradient id="paint2_linear_724_12438" x1="180.751" y1="2" x2="180.751" y2="20.2736" gradientUnits="userSpaceOnUse">
<stop stop-color="#656565"/>
<stop offset="1"/>
</linearGradient>
<linearGradient id="paint3_linear_724_12438" x1="132.881" y1="2" x2="132.881" y2="20.2736" gradientUnits="userSpaceOnUse">
<stop stop-color="#7D7D7D"/>
<stop offset="1" stop-color="#040404"/>
</linearGradient>
<linearGradient id="paint4_linear_724_12438" x1="176.183" y1="2" x2="176.183" y2="5.17802" gradientUnits="userSpaceOnUse">
<stop stop-color="#7B7B7B"/>
<stop offset="1" stop-color="#5E5E5E"/>
</linearGradient>
<linearGradient id="paint5_linear_724_12438" x1="50.8486" y1="81.4501" x2="119.573" y2="83.0391" gradientUnits="userSpaceOnUse">
<stop stop-color="#F55866"/>
<stop offset="1" stop-color="#CC4248"/>
</linearGradient>
<linearGradient id="paint6_linear_724_12438" x1="110.039" y1="86.2171" x2="57.9994" y2="166.462" gradientUnits="userSpaceOnUse">
<stop stop-color="#DC3B45"/>
<stop offset="1" stop-color="#9A3434"/>
</linearGradient>
<linearGradient id="paint7_linear_724_12438" x1="54.4249" y1="92.5732" x2="100.109" y2="161.695" gradientUnits="userSpaceOnUse">
<stop stop-color="#8F1010"/>
<stop offset="1" stop-color="#CE2836"/>
</linearGradient>
<linearGradient id="paint8_linear_724_12438" x1="69.8138" y1="121.29" x2="72.3255" y2="121.29" gradientUnits="userSpaceOnUse">
<stop stop-color="white"/>
<stop offset="1" stop-color="white"/>
</linearGradient>
<linearGradient id="paint9_linear_724_12438" x1="69.8138" y1="121.29" x2="72.3255" y2="121.29" gradientUnits="userSpaceOnUse">
<stop stop-color="white"/>
<stop offset="1" stop-color="white"/>
</linearGradient>
<linearGradient id="paint10_linear_724_12438" x1="69.8138" y1="121.29" x2="72.3255" y2="121.29" gradientUnits="userSpaceOnUse">
<stop stop-color="white"/>
<stop offset="1" stop-color="white"/>
</linearGradient>
<linearGradient id="paint11_linear_724_12438" x1="69.8138" y1="121.29" x2="72.3255" y2="121.29" gradientUnits="userSpaceOnUse">
<stop stop-color="white"/>
<stop offset="1" stop-color="white"/>
</linearGradient>
<linearGradient id="paint12_linear_724_12438" x1="96.136" y1="72.7105" x2="113.218" y2="206.187" gradientUnits="userSpaceOnUse">
<stop stop-color="#FFF9F9"/>
<stop offset="1" stop-color="#FFC4C4" stop-opacity="0"/>
</linearGradient>
</defs>
</svg>
