<svg width="614" height="397" viewBox="0 0 614 397" fill="none" xmlns="http://www.w3.org/2000/svg">
<g filter="url(#filter0_i_745_3294)">
<ellipse cx="305.251" cy="337" rx="227.299" ry="60" fill="url(#paint0_linear_745_3294)"/>
</g>
<ellipse cx="305.751" cy="334" rx="198.824" ry="52" fill="white"/>
<ellipse cx="306.25" cy="305" rx="176.344" ry="36" fill="url(#paint1_radial_745_3294)"/>
<path d="M130.482 302L111.498 331.5C110.166 334.667 110.299 342.2 121.489 347C135.477 353 174.443 368.5 255.871 373L262.865 360H349.288L356.282 373C437.71 368.5 476.676 353 490.664 347C501.854 342.2 501.987 334.667 500.655 331.5L481.672 302C461.357 330.306 356.646 335.797 306.326 335.008V335C306.243 335.001 306.16 335.003 306.077 335.004C305.993 335.003 305.91 335.001 305.827 335V335.008C255.507 335.797 150.796 330.306 130.482 302Z" fill="url(#paint2_linear_745_3294)"/>
<path d="M277.776 360L255.795 373L261.29 360H277.776Z" fill="url(#paint3_linear_745_3294)"/>
<path d="M334.725 360L356.706 373L351.211 360H334.725Z" fill="url(#paint4_linear_745_3294)"/>
<g filter="url(#filter1_f_745_3294)">
<path fill-rule="evenodd" clip-rule="evenodd" d="M469.378 302C468.19 301.022 466.344 299.779 463.618 298.369C456.051 294.457 444.252 290.549 428.586 287.123C397.467 280.318 353.855 276 305.252 276C256.649 276 213.036 280.318 181.917 287.123C166.251 290.549 154.452 294.457 146.885 298.369C144.159 299.779 142.314 301.022 141.125 302C142.314 302.978 144.159 304.221 146.885 305.631C154.452 309.543 166.251 313.451 181.917 316.877C213.036 323.682 256.649 328 305.252 328C353.855 328 397.467 323.682 428.586 316.877C444.252 313.451 456.051 309.543 463.618 305.631C466.344 304.221 468.19 302.978 469.378 302ZM305.252 341C403.747 341 483.594 323.539 483.594 302C483.594 280.461 403.747 263 305.252 263C206.756 263 126.909 280.461 126.909 302C126.909 323.539 206.756 341 305.252 341Z" fill="url(#paint5_radial_745_3294)"/>
<path d="M470.934 300.454V300.936C470.858 300.936 470.765 300.918 470.674 300.863C470.584 300.808 470.525 300.734 470.49 300.667C470.429 300.549 470.433 300.443 470.434 300.414C470.438 300.342 470.456 300.287 470.459 300.281C470.469 300.25 470.48 300.226 470.481 300.223C470.488 300.209 470.494 300.198 470.495 300.196C470.499 300.189 470.502 300.184 470.503 300.182C470.505 300.179 470.506 300.177 470.506 300.178L470.934 300.454ZM470.934 300.454L471.346 300.72C471.351 300.712 471.356 300.704 471.361 300.696C471.363 300.692 471.367 300.686 471.372 300.677C471.372 300.676 471.374 300.673 471.376 300.669C471.379 300.664 471.382 300.657 471.386 300.649L471.386 300.649C471.389 300.644 471.399 300.621 471.409 300.591C471.411 300.585 471.43 300.53 471.433 300.458C471.435 300.429 471.438 300.322 471.377 300.205C471.343 300.138 471.284 300.064 471.193 300.009C471.103 299.954 471.01 299.936 470.934 299.936V300.454ZM139.568 300.454L139.533 300.935C139.414 300.926 139.331 300.876 139.308 300.862C139.275 300.842 139.251 300.822 139.24 300.812C139.216 300.791 139.199 300.772 139.194 300.766C139.18 300.75 139.17 300.737 139.168 300.733C139.16 300.723 139.155 300.716 139.154 300.713C139.151 300.71 139.15 300.707 139.148 300.705C139.147 300.703 139.146 300.702 139.146 300.702C139.144 300.698 139.143 300.696 139.143 300.697L139.568 300.454ZM139.568 300.454L140.011 300.2C140.009 300.197 140.007 300.193 140.005 300.19C140.002 300.185 140 300.181 139.997 300.177C139.995 300.173 139.991 300.167 139.987 300.16C139.985 300.157 139.979 300.149 139.972 300.139C139.969 300.135 139.959 300.122 139.945 300.106C139.939 300.099 139.923 300.081 139.899 300.06C139.887 300.05 139.864 300.03 139.83 300.009C139.808 299.995 139.725 299.946 139.606 299.937L139.568 300.454ZM139.568 303.545L139.533 303.065C139.601 303.06 139.691 303.068 139.785 303.113C139.882 303.159 139.951 303.23 139.995 303.302C140.072 303.427 140.07 303.546 140.069 303.576C140.067 303.651 140.048 303.708 140.045 303.718L140.045 303.719C140.035 303.749 140.024 303.773 140.022 303.777L140.022 303.778C140.015 303.792 140.009 303.802 140.008 303.804C140.004 303.812 140.001 303.817 140 303.818L140 303.818C139.998 303.821 139.997 303.823 139.998 303.822L139.568 303.545ZM139.568 303.545L139.157 303.281C139.154 303.285 139.151 303.29 139.148 303.295C139.146 303.298 139.144 303.301 139.142 303.304C139.14 303.307 139.136 303.314 139.132 303.322L139.132 303.322C139.13 303.325 139.124 303.336 139.117 303.35C139.116 303.353 139.104 303.377 139.094 303.409L139.094 303.41C139.09 303.42 139.071 303.477 139.07 303.552C139.069 303.583 139.067 303.701 139.144 303.826C139.188 303.898 139.257 303.969 139.354 304.015C139.448 304.06 139.538 304.068 139.606 304.063L139.568 303.545ZM470.936 303.544L470.506 303.822C470.506 303.823 470.505 303.822 470.503 303.818C470.503 303.817 470.5 303.812 470.496 303.805C470.495 303.803 470.49 303.794 470.483 303.781C470.483 303.779 470.479 303.773 470.475 303.763C470.471 303.754 470.466 303.741 470.461 303.727L470.461 303.726C470.458 303.718 470.44 303.666 470.435 303.597C470.433 303.573 470.425 303.455 470.494 303.327C470.534 303.251 470.604 303.17 470.71 303.117C470.813 303.065 470.913 303.059 470.984 303.067L470.936 303.544ZM470.936 303.544L470.884 304.062C470.955 304.069 471.055 304.063 471.158 304.011C471.264 303.958 471.333 303.877 471.374 303.801C471.443 303.673 471.434 303.555 471.433 303.531C471.428 303.46 471.408 303.406 471.406 303.401C471.404 303.393 471.401 303.386 471.398 303.379C471.391 303.362 471.385 303.349 471.384 303.347C471.378 303.334 471.372 303.324 471.371 303.321L471.368 303.316C471.365 303.31 471.362 303.306 471.361 303.303C471.356 303.295 471.351 303.287 471.346 303.279L470.936 303.544ZM470.934 300.436C470.934 300.436 470.933 300.438 470.931 300.441L470.926 300.449M139.569 303.564C139.569 303.564 139.572 303.56 139.577 303.551M470.926 303.551C470.928 303.555 470.93 303.558 470.931 303.56C470.933 303.563 470.934 303.564 470.934 303.564M469.696 302.386L470.165 302L469.696 301.614C468.474 300.608 466.597 299.347 463.848 297.925C456.225 293.984 444.377 290.064 428.693 286.635C397.529 279.82 353.88 275.5 305.252 275.5C256.624 275.5 212.974 279.82 181.81 286.635C166.126 290.064 154.279 293.984 146.656 297.925C143.906 299.347 142.03 300.608 140.807 301.614L140.338 302L140.807 302.386C142.03 303.392 143.906 304.653 146.656 306.075C154.279 310.016 166.126 313.936 181.81 317.365C212.974 324.18 256.624 328.5 305.252 328.5C353.88 328.5 397.529 324.18 428.693 317.365C444.377 313.936 456.225 310.016 463.848 306.075C466.597 304.653 468.474 303.392 469.696 302.386ZM483.094 302C483.094 304.527 481.926 307.039 479.606 309.518C477.284 312 473.834 314.418 469.349 316.736C460.381 321.373 447.371 325.564 431.252 329.089C399.023 336.137 354.475 340.5 305.252 340.5C256.029 340.5 211.48 336.137 179.251 329.089C163.133 325.564 150.122 321.373 141.154 316.736C136.669 314.418 133.22 312 130.898 309.518C128.578 307.039 127.409 304.527 127.409 302C127.409 299.473 128.578 296.961 130.898 294.482C133.22 292 136.669 289.582 141.154 287.264C150.122 282.627 163.133 278.436 179.251 274.911C211.48 267.863 256.029 263.5 305.252 263.5C354.475 263.5 399.023 267.863 431.252 274.911C447.371 278.436 460.381 282.627 469.349 287.264C473.834 289.582 477.284 292 479.606 294.482C481.926 296.961 483.094 299.473 483.094 302Z" stroke="#28DBFA" stroke-opacity="0.7"/>
</g>
<g filter="url(#filter2_f_745_3294)">
<path d="M119.915 310L24 28H590L494.584 315C325.534 371.8 174.367 335.333 119.915 310Z" fill="url(#paint6_linear_745_3294)"/>
</g>
<g filter="url(#filter3_f_745_3294)">
<path d="M164.745 305.919L91.9404 24H521.561L449.136 310.917C320.819 367.701 206.076 331.245 164.745 305.919Z" fill="url(#paint7_linear_745_3294)"/>
</g>
<g filter="url(#filter4_f_745_3294)">
<path d="M185.372 290.452L123.912 53H486.592L425.452 294.662C317.128 342.489 220.264 311.783 185.372 290.452Z" fill="url(#paint8_linear_745_3294)"/>
</g>
<g filter="url(#filter5_di_745_3294)">
<path d="M335.555 227.435L173 215.035L191.634 207.035L303.837 199.435L431.502 207.035L443 217.035L440.225 219.435L367.67 227.435H335.555Z" fill="white"/>
<path d="M335.574 226.935L175.068 214.691L191.753 207.528L303.839 199.936L431.303 207.524L442.237 217.033L440.015 218.955L367.642 226.935H335.574Z" stroke="#7A142E" stroke-opacity="0.4"/>
</g>
<path d="M246.025 294.285L212.259 305.805L208.286 297.86L232.519 289.915L246.025 294.285Z" fill="#3F0614"/>
<path d="M231.327 294.286L229.738 227.944L275.025 230.725L277.011 297.066L231.327 294.286Z" fill="#986F6F"/>
<path d="M275.026 260.52L266.684 277.601V260.52H275.026Z" fill="#B2383D"/>
<path d="M234.506 276.807V260.52H266.683V277.999L234.506 276.807Z" fill="#DB3B45"/>
<g filter="url(#filter6_ii_745_3294)">
<path d="M239.272 272.833V266.08H261.916V272.833H239.272Z" fill="#760A0E"/>
</g>
<path d="M219.807 298.259L176.109 258.931H175.712L179.684 295.875L219.807 298.259Z" fill="#B0373B"/>
<path d="M223.78 228.341L172.534 225.163L180.479 295.874L225.766 299.052L223.78 228.341Z" fill="url(#paint9_linear_745_3294)"/>
<path d="M276.217 302.628L275.025 231.122L276.217 229.931L334.216 233.903L341.367 306.998L276.217 302.628Z" fill="url(#paint10_linear_745_3294)"/>
<path d="M172.534 225.164L333.819 235.095L336.202 226.753L172.534 214.835L163 219.602V221.191L172.534 225.164Z" fill="#FB5C5C"/>
<path d="M184.054 303.82L175.712 295.08L208.287 297.861L212.259 305.806L184.054 303.82Z" fill="#841F39"/>
<path d="M296.079 312.956L341.763 317.723L340.969 306.997L298.86 303.819L296.079 312.956Z" fill="#841F39"/>
<path d="M368.38 235.095L365.6 306.997L340.97 307.395L333.819 235.095H368.38Z" fill="url(#paint11_linear_745_3294)"/>
<path d="M341.763 317.723L340.969 307.394L365.598 306.997L365.201 316.928L341.763 317.723Z" fill="#D45B5B"/>
<path d="M368.379 235.095L449.816 225.561L444.255 218.41L367.585 226.355L368.379 235.095Z" fill="#CC383E"/>
<path d="M368.38 235.095L442.666 225.561L437.899 293.491L365.202 316.531L368.38 235.095Z" fill="url(#paint12_linear_745_3294)"/>
<path d="M365.202 316.929L437.502 294.285L437.899 290.71L365.599 306.997L365.202 316.929Z" fill="#68181D"/>
<g filter="url(#filter7_ii_745_3294)">
<path d="M391.023 297.066L391.421 308.586L423.201 298.655L423.995 289.121L391.023 297.066Z" fill="#760A0E"/>
</g>
<g filter="url(#filter8_d_745_3294)">
<path d="M394.599 305.011V298.655L419.626 292.299V297.86L394.599 305.011Z" fill="#C7F6FF"/>
</g>
<path d="M450.611 223.575L441.077 215.232L439.885 218.808L442.268 225.561L450.611 223.575Z" fill="#9A2D31"/>
<path d="M437.502 294.285L442.269 225.56L450.611 223.574L443.461 287.929L437.502 294.285Z" fill="#7D201F"/>
<path d="M231.327 294.683L225.766 298.656L223.779 228.342H229.738L231.327 294.683Z" fill="#841F39"/>
<path d="M175.712 295.08L163 221.191L172.534 225.164L180.479 295.875L175.712 295.08Z" fill="#993334"/>
<path d="M416.158 267.44L441.133 229.478L411.474 235.447L392.611 269.679L416.158 267.44Z" fill="url(#paint13_linear_745_3294)"/>
<path d="M427.97 220.603L392.834 224.365L411.474 235.448L441.133 229.478L427.97 220.603Z" fill="#80C6EA"/>
<path d="M396.946 230.891L392.834 224.365L411.887 235.067L392.611 269.679L396.946 230.891Z" fill="url(#paint14_linear_745_3294)"/>
<g opacity="0.7" filter="url(#filter9_f_745_3294)">
<path d="M408.902 230.177L392.834 224.365L411.886 235.067L441.133 229.478L429.892 222.27L436.052 227.287L420.047 229.828C415.246 230.59 410.616 230.378 408.902 230.177Z" fill="white"/>
</g>
<g opacity="0.3" filter="url(#filter10_f_745_3294)">
<path d="M411.458 235.845L393.215 224.778L410.632 236.607L392.611 269.68L411.394 237.433L440.72 229.86L411.458 235.845Z" fill="#0072AC"/>
</g>
<g filter="url(#filter11_ii_745_3294)">
<path d="M439.488 262.505L368.777 274.025V283.957L439.091 270.053L439.488 262.505Z" fill="#760A0E"/>
</g>
<g filter="url(#filter12_ii_745_3294)">
<path d="M439.091 274.025L368.777 287.135V295.477L438.297 280.779L439.091 274.025Z" fill="#760A0E"/>
</g>
<path d="M336.203 226.753L333.819 235.095H368.38L367.586 226.355L336.203 226.753Z" fill="#FCB7B3"/>
<g filter="url(#filter13_d_745_3294)">
<rect x="324.808" y="266.08" width="6.35604" height="47.9509" rx="3.17802" transform="rotate(58.8633 324.808 266.08)" fill="#40D8F4"/>
<rect x="324.669" y="267.487" width="5.22402" height="47.1035" rx="2.61201" transform="rotate(58.8633 324.669 267.487)" fill="#98EFFF"/>
</g>
<g filter="url(#filter14_d_745_3294)">
<rect x="220.672" y="286.231" width="6.35604" height="47.9509" rx="3.17802" transform="rotate(131.722 220.672 286.231)" fill="#40D8F4"/>
<rect x="219.487" y="286.906" width="5.22402" height="47.1035" rx="2.61201" transform="rotate(131.722 219.487 286.906)" fill="#98EFFF"/>
</g>
<path d="M266.286 260.519H234.506L237.287 256.943H274.231L275.026 260.519H266.286Z" fill="#841F39"/>
<g opacity="0.9" filter="url(#filter15_df_745_3294)">
<path d="M172.931 224.37L163 219.603V221.589L172.931 225.959L223.78 229.137L229.341 228.739L275.423 231.52V232.315L333.819 235.89H368.38L396.585 231.917L396.982 231.123L396.187 230.726L367.982 234.301H333.819L172.931 224.37Z" fill="white"/>
</g>
<g opacity="0.9" filter="url(#filter16_b_745_3294)">
<path d="M172.931 224.37L163 219.603V221.589L172.931 225.959L223.78 229.137L229.341 228.739L275.025 231.52V232.315L333.819 235.89H368.38L396.585 231.917L396.982 231.123L396.187 230.726L367.982 234.301H333.819L172.931 224.37Z" fill="white"/>
</g>
<defs>
<filter id="filter0_i_745_3294" x="77.9521" y="273" width="454.599" height="124" filterUnits="userSpaceOnUse" color-interpolation-filters="sRGB">
<feFlood flood-opacity="0" result="BackgroundImageFix"/>
<feBlend mode="normal" in="SourceGraphic" in2="BackgroundImageFix" result="shape"/>
<feColorMatrix in="SourceAlpha" type="matrix" values="0 0 0 0 0 0 0 0 0 0 0 0 0 0 0 0 0 0 127 0" result="hardAlpha"/>
<feOffset dy="-4"/>
<feGaussianBlur stdDeviation="6.5"/>
<feComposite in2="hardAlpha" operator="arithmetic" k2="-1" k3="1"/>
<feColorMatrix type="matrix" values="0 0 0 0 1 0 0 0 0 1 0 0 0 0 1 0 0 0 0.64 0"/>
<feBlend mode="normal" in2="shape" result="effect1_innerShadow_745_3294"/>
</filter>
<filter id="filter1_f_745_3294" x="124.909" y="261" width="360.685" height="82" filterUnits="userSpaceOnUse" color-interpolation-filters="sRGB">
<feFlood flood-opacity="0" result="BackgroundImageFix"/>
<feBlend mode="normal" in="SourceGraphic" in2="BackgroundImageFix" result="shape"/>
<feGaussianBlur stdDeviation="1" result="effect1_foregroundBlur_745_3294"/>
</filter>
<filter id="filter2_f_745_3294" x="0" y="4" width="614" height="365.092" filterUnits="userSpaceOnUse" color-interpolation-filters="sRGB">
<feFlood flood-opacity="0" result="BackgroundImageFix"/>
<feBlend mode="normal" in="SourceGraphic" in2="BackgroundImageFix" result="shape"/>
<feGaussianBlur stdDeviation="12" result="effect1_foregroundBlur_745_3294"/>
</filter>
<filter id="filter3_f_745_3294" x="67.9404" y="0" width="477.62" height="365" filterUnits="userSpaceOnUse" color-interpolation-filters="sRGB">
<feFlood flood-opacity="0" result="BackgroundImageFix"/>
<feBlend mode="normal" in="SourceGraphic" in2="BackgroundImageFix" result="shape"/>
<feGaussianBlur stdDeviation="12" result="effect1_foregroundBlur_745_3294"/>
</filter>
<filter id="filter4_f_745_3294" x="99.9121" y="29" width="410.68" height="315" filterUnits="userSpaceOnUse" color-interpolation-filters="sRGB">
<feFlood flood-opacity="0" result="BackgroundImageFix"/>
<feBlend mode="normal" in="SourceGraphic" in2="BackgroundImageFix" result="shape"/>
<feGaussianBlur stdDeviation="12" result="effect1_foregroundBlur_745_3294"/>
</filter>
<filter id="filter5_di_745_3294" x="169" y="199.435" width="278" height="36" filterUnits="userSpaceOnUse" color-interpolation-filters="sRGB">
<feFlood flood-opacity="0" result="BackgroundImageFix"/>
<feColorMatrix in="SourceAlpha" type="matrix" values="0 0 0 0 0 0 0 0 0 0 0 0 0 0 0 0 0 0 127 0" result="hardAlpha"/>
<feOffset dy="4"/>
<feGaussianBlur stdDeviation="2"/>
<feComposite in2="hardAlpha" operator="out"/>
<feColorMatrix type="matrix" values="0 0 0 0 0 0 0 0 0 0 0 0 0 0 0 0 0 0 0.25 0"/>
<feBlend mode="normal" in2="BackgroundImageFix" result="effect1_dropShadow_745_3294"/>
<feBlend mode="normal" in="SourceGraphic" in2="effect1_dropShadow_745_3294" result="shape"/>
<feColorMatrix in="SourceAlpha" type="matrix" values="0 0 0 0 0 0 0 0 0 0 0 0 0 0 0 0 0 0 127 0" result="hardAlpha"/>
<feOffset/>
<feGaussianBlur stdDeviation="7.5"/>
<feComposite in2="hardAlpha" operator="arithmetic" k2="-1" k3="1"/>
<feColorMatrix type="matrix" values="0 0 0 0 0.196399 0 0 0 0 0.832383 0 0 0 0 0.954167 0 0 0 1 0"/>
<feBlend mode="normal" in2="shape" result="effect2_innerShadow_745_3294"/>
</filter>
<filter id="filter6_ii_745_3294" x="239.272" y="264.08" width="22.6436" height="10.7529" filterUnits="userSpaceOnUse" color-interpolation-filters="sRGB">
<feFlood flood-opacity="0" result="BackgroundImageFix"/>
<feBlend mode="normal" in="SourceGraphic" in2="BackgroundImageFix" result="shape"/>
<feColorMatrix in="SourceAlpha" type="matrix" values="0 0 0 0 0 0 0 0 0 0 0 0 0 0 0 0 0 0 127 0" result="hardAlpha"/>
<feOffset dy="4"/>
<feGaussianBlur stdDeviation="1"/>
<feComposite in2="hardAlpha" operator="arithmetic" k2="-1" k3="1"/>
<feColorMatrix type="matrix" values="0 0 0 0 0 0 0 0 0 0 0 0 0 0 0 0 0 0 0.5 0"/>
<feBlend mode="normal" in2="shape" result="effect1_innerShadow_745_3294"/>
<feColorMatrix in="SourceAlpha" type="matrix" values="0 0 0 0 0 0 0 0 0 0 0 0 0 0 0 0 0 0 127 0" result="hardAlpha"/>
<feOffset dy="-2"/>
<feGaussianBlur stdDeviation="1"/>
<feComposite in2="hardAlpha" operator="arithmetic" k2="-1" k3="1"/>
<feColorMatrix type="matrix" values="0 0 0 0 1 0 0 0 0 0.518333 0 0 0 0 0.518333 0 0 0 0.25 0"/>
<feBlend mode="normal" in2="effect1_innerShadow_745_3294" result="effect2_innerShadow_745_3294"/>
</filter>
<filter id="filter7_ii_745_3294" x="391.023" y="287.121" width="32.9717" height="23.4658" filterUnits="userSpaceOnUse" color-interpolation-filters="sRGB">
<feFlood flood-opacity="0" result="BackgroundImageFix"/>
<feBlend mode="normal" in="SourceGraphic" in2="BackgroundImageFix" result="shape"/>
<feColorMatrix in="SourceAlpha" type="matrix" values="0 0 0 0 0 0 0 0 0 0 0 0 0 0 0 0 0 0 127 0" result="hardAlpha"/>
<feOffset dy="4"/>
<feGaussianBlur stdDeviation="1"/>
<feComposite in2="hardAlpha" operator="arithmetic" k2="-1" k3="1"/>
<feColorMatrix type="matrix" values="0 0 0 0 0 0 0 0 0 0 0 0 0 0 0 0 0 0 0.5 0"/>
<feBlend mode="normal" in2="shape" result="effect1_innerShadow_745_3294"/>
<feColorMatrix in="SourceAlpha" type="matrix" values="0 0 0 0 0 0 0 0 0 0 0 0 0 0 0 0 0 0 127 0" result="hardAlpha"/>
<feOffset dy="-2"/>
<feGaussianBlur stdDeviation="1"/>
<feComposite in2="hardAlpha" operator="arithmetic" k2="-1" k3="1"/>
<feColorMatrix type="matrix" values="0 0 0 0 1 0 0 0 0 0.518333 0 0 0 0 0.518333 0 0 0 0.25 0"/>
<feBlend mode="normal" in2="effect1_innerShadow_745_3294" result="effect2_innerShadow_745_3294"/>
</filter>
<filter id="filter8_d_745_3294" x="386.599" y="284.299" width="41.0273" height="28.7119" filterUnits="userSpaceOnUse" color-interpolation-filters="sRGB">
<feFlood flood-opacity="0" result="BackgroundImageFix"/>
<feColorMatrix in="SourceAlpha" type="matrix" values="0 0 0 0 0 0 0 0 0 0 0 0 0 0 0 0 0 0 127 0" result="hardAlpha"/>
<feOffset/>
<feGaussianBlur stdDeviation="4"/>
<feComposite in2="hardAlpha" operator="out"/>
<feColorMatrix type="matrix" values="0 0 0 0 0.780392 0 0 0 0 0.964706 0 0 0 0 1 0 0 0 1 0"/>
<feBlend mode="normal" in2="BackgroundImageFix" result="effect1_dropShadow_745_3294"/>
<feBlend mode="normal" in="SourceGraphic" in2="effect1_dropShadow_745_3294" result="shape"/>
</filter>
<filter id="filter9_f_745_3294" x="388.834" y="218.27" width="56.2988" height="20.7979" filterUnits="userSpaceOnUse" color-interpolation-filters="sRGB">
<feFlood flood-opacity="0" result="BackgroundImageFix"/>
<feBlend mode="normal" in="SourceGraphic" in2="BackgroundImageFix" result="shape"/>
<feGaussianBlur stdDeviation="2" result="effect1_foregroundBlur_745_3294"/>
</filter>
<filter id="filter10_f_745_3294" x="391.611" y="223.778" width="50.1084" height="46.9014" filterUnits="userSpaceOnUse" color-interpolation-filters="sRGB">
<feFlood flood-opacity="0" result="BackgroundImageFix"/>
<feBlend mode="normal" in="SourceGraphic" in2="BackgroundImageFix" result="shape"/>
<feGaussianBlur stdDeviation="0.5" result="effect1_foregroundBlur_745_3294"/>
</filter>
<filter id="filter11_ii_745_3294" x="368.777" y="260.505" width="70.7109" height="25.4512" filterUnits="userSpaceOnUse" color-interpolation-filters="sRGB">
<feFlood flood-opacity="0" result="BackgroundImageFix"/>
<feBlend mode="normal" in="SourceGraphic" in2="BackgroundImageFix" result="shape"/>
<feColorMatrix in="SourceAlpha" type="matrix" values="0 0 0 0 0 0 0 0 0 0 0 0 0 0 0 0 0 0 127 0" result="hardAlpha"/>
<feOffset dy="4"/>
<feGaussianBlur stdDeviation="1"/>
<feComposite in2="hardAlpha" operator="arithmetic" k2="-1" k3="1"/>
<feColorMatrix type="matrix" values="0 0 0 0 0 0 0 0 0 0 0 0 0 0 0 0 0 0 0.5 0"/>
<feBlend mode="normal" in2="shape" result="effect1_innerShadow_745_3294"/>
<feColorMatrix in="SourceAlpha" type="matrix" values="0 0 0 0 0 0 0 0 0 0 0 0 0 0 0 0 0 0 127 0" result="hardAlpha"/>
<feOffset dy="-2"/>
<feGaussianBlur stdDeviation="1"/>
<feComposite in2="hardAlpha" operator="arithmetic" k2="-1" k3="1"/>
<feColorMatrix type="matrix" values="0 0 0 0 1 0 0 0 0 0.518333 0 0 0 0 0.518333 0 0 0 0.25 0"/>
<feBlend mode="normal" in2="effect1_innerShadow_745_3294" result="effect2_innerShadow_745_3294"/>
</filter>
<filter id="filter12_ii_745_3294" x="368.777" y="272.025" width="70.3135" height="25.4512" filterUnits="userSpaceOnUse" color-interpolation-filters="sRGB">
<feFlood flood-opacity="0" result="BackgroundImageFix"/>
<feBlend mode="normal" in="SourceGraphic" in2="BackgroundImageFix" result="shape"/>
<feColorMatrix in="SourceAlpha" type="matrix" values="0 0 0 0 0 0 0 0 0 0 0 0 0 0 0 0 0 0 127 0" result="hardAlpha"/>
<feOffset dy="4"/>
<feGaussianBlur stdDeviation="1"/>
<feComposite in2="hardAlpha" operator="arithmetic" k2="-1" k3="1"/>
<feColorMatrix type="matrix" values="0 0 0 0 0 0 0 0 0 0 0 0 0 0 0 0 0 0 0.5 0"/>
<feBlend mode="normal" in2="shape" result="effect1_innerShadow_745_3294"/>
<feColorMatrix in="SourceAlpha" type="matrix" values="0 0 0 0 0 0 0 0 0 0 0 0 0 0 0 0 0 0 127 0" result="hardAlpha"/>
<feOffset dy="-2"/>
<feGaussianBlur stdDeviation="1"/>
<feComposite in2="hardAlpha" operator="arithmetic" k2="-1" k3="1"/>
<feColorMatrix type="matrix" values="0 0 0 0 1 0 0 0 0 0.518333 0 0 0 0 0.518333 0 0 0 0.25 0"/>
<feBlend mode="normal" in2="effect1_innerShadow_745_3294" result="effect2_innerShadow_745_3294"/>
</filter>
<filter id="filter13_d_745_3294" x="277.949" y="260.265" width="55.96" height="42.0762" filterUnits="userSpaceOnUse" color-interpolation-filters="sRGB">
<feFlood flood-opacity="0" result="BackgroundImageFix"/>
<feColorMatrix in="SourceAlpha" type="matrix" values="0 0 0 0 0 0 0 0 0 0 0 0 0 0 0 0 0 0 127 0" result="hardAlpha"/>
<feOffset/>
<feGaussianBlur stdDeviation="3.5"/>
<feComposite in2="hardAlpha" operator="out"/>
<feColorMatrix type="matrix" values="0 0 0 0 0.25098 0 0 0 0 0.847059 0 0 0 0 0.956863 0 0 0 1 0"/>
<feBlend mode="normal" in2="BackgroundImageFix" result="effect1_dropShadow_745_3294"/>
<feBlend mode="normal" in="SourceGraphic" in2="effect1_dropShadow_745_3294" result="shape"/>
</filter>
<filter id="filter14_d_745_3294" x="174.929" y="248.629" width="51.4346" height="48.1006" filterUnits="userSpaceOnUse" color-interpolation-filters="sRGB">
<feFlood flood-opacity="0" result="BackgroundImageFix"/>
<feColorMatrix in="SourceAlpha" type="matrix" values="0 0 0 0 0 0 0 0 0 0 0 0 0 0 0 0 0 0 127 0" result="hardAlpha"/>
<feOffset/>
<feGaussianBlur stdDeviation="3.5"/>
<feComposite in2="hardAlpha" operator="out"/>
<feColorMatrix type="matrix" values="0 0 0 0 0.25098 0 0 0 0 0.847059 0 0 0 0 0.956863 0 0 0 1 0"/>
<feBlend mode="normal" in2="BackgroundImageFix" result="effect1_dropShadow_745_3294"/>
<feBlend mode="normal" in="SourceGraphic" in2="effect1_dropShadow_745_3294" result="shape"/>
</filter>
<filter id="filter15_df_745_3294" x="153" y="209.603" width="253.981" height="36.2871" filterUnits="userSpaceOnUse" color-interpolation-filters="sRGB">
<feFlood flood-opacity="0" result="BackgroundImageFix"/>
<feColorMatrix in="SourceAlpha" type="matrix" values="0 0 0 0 0 0 0 0 0 0 0 0 0 0 0 0 0 0 127 0" result="hardAlpha"/>
<feOffset dy="4"/>
<feGaussianBlur stdDeviation="2"/>
<feComposite in2="hardAlpha" operator="out"/>
<feColorMatrix type="matrix" values="0 0 0 0 0 0 0 0 0 0 0 0 0 0 0 0 0 0 0.25 0"/>
<feBlend mode="normal" in2="BackgroundImageFix" result="effect1_dropShadow_745_3294"/>
<feBlend mode="normal" in="SourceGraphic" in2="effect1_dropShadow_745_3294" result="shape"/>
<feGaussianBlur stdDeviation="5" result="effect2_foregroundBlur_745_3294"/>
</filter>
<filter id="filter16_b_745_3294" x="155" y="211.603" width="249.981" height="32.2871" filterUnits="userSpaceOnUse" color-interpolation-filters="sRGB">
<feFlood flood-opacity="0" result="BackgroundImageFix"/>
<feGaussianBlur in="BackgroundImageFix" stdDeviation="4"/>
<feComposite in2="SourceAlpha" operator="in" result="effect1_backgroundBlur_745_3294"/>
<feBlend mode="normal" in="SourceGraphic" in2="effect1_backgroundBlur_745_3294" result="shape"/>
</filter>
<linearGradient id="paint0_linear_745_3294" x1="77.9521" y1="337" x2="516.07" y2="373.436" gradientUnits="userSpaceOnUse">
<stop stop-color="#B61F27"/>
<stop offset="0.0001" stop-color="#BE92FF"/>
<stop offset="0.274409" stop-color="#90D0FF"/>
<stop offset="0.560417" stop-color="#E5D0FF"/>
<stop offset="0.758333" stop-color="#8AF0FC"/>
<stop offset="1" stop-color="#B2A1FF"/>
</linearGradient>
<radialGradient id="paint1_radial_745_3294" cx="0" cy="0" r="1" gradientUnits="userSpaceOnUse" gradientTransform="translate(306.25 305) rotate(90) scale(36 176.344)">
<stop stop-color="white"/>
<stop offset="1" stop-color="#5FE8FF"/>
</radialGradient>
<linearGradient id="paint2_linear_745_3294" x1="498.979" y1="326" x2="118.441" y2="327.734" gradientUnits="userSpaceOnUse">
<stop offset="0.00833321" stop-color="#4F3297"/>
<stop offset="0.494581" stop-color="#432AC0"/>
<stop offset="1" stop-color="#51319B"/>
</linearGradient>
<linearGradient id="paint3_linear_745_3294" x1="266.785" y1="360" x2="266.785" y2="373" gradientUnits="userSpaceOnUse">
<stop/>
<stop offset="1" stop-color="#5317B3"/>
</linearGradient>
<linearGradient id="paint4_linear_745_3294" x1="345.716" y1="360" x2="345.716" y2="373" gradientUnits="userSpaceOnUse">
<stop/>
<stop offset="1" stop-color="#5317B3"/>
</linearGradient>
<radialGradient id="paint5_radial_745_3294" cx="0" cy="0" r="1" gradientUnits="userSpaceOnUse" gradientTransform="translate(305.252 302) rotate(90) scale(62 283.519)">
<stop offset="0.279546" stop-color="#97F1FF"/>
<stop offset="0.482292" stop-color="white"/>
<stop offset="0.734697" stop-color="#3BE8FD"/>
</radialGradient>
<linearGradient id="paint6_linear_745_3294" x1="307" y1="28" x2="307" y2="345.091" gradientUnits="userSpaceOnUse">
<stop stop-color="white" stop-opacity="0"/>
<stop offset="1" stop-color="#8EEFFF"/>
</linearGradient>
<linearGradient id="paint7_linear_745_3294" x1="306.751" y1="117.5" x2="306.751" y2="341" gradientUnits="userSpaceOnUse">
<stop stop-color="white" stop-opacity="0"/>
<stop offset="1" stop-color="#5A9CFF" stop-opacity="0.72"/>
</linearGradient>
<linearGradient id="paint8_linear_745_3294" x1="305.252" y1="131.752" x2="305.252" y2="320" gradientUnits="userSpaceOnUse">
<stop stop-color="white" stop-opacity="0"/>
<stop offset="1" stop-color="#7B5AFF" stop-opacity="0.57"/>
</linearGradient>
<linearGradient id="paint9_linear_745_3294" x1="199.15" y1="225.163" x2="199.15" y2="299.052" gradientUnits="userSpaceOnUse">
<stop stop-color="#FD5257"/>
<stop offset="1" stop-color="#AE3034"/>
</linearGradient>
<linearGradient id="paint10_linear_745_3294" x1="308.196" y1="229.931" x2="308.196" y2="306.998" gradientUnits="userSpaceOnUse">
<stop stop-color="#FD5257"/>
<stop offset="1" stop-color="#AE3034"/>
</linearGradient>
<linearGradient id="paint11_linear_745_3294" x1="351.1" y1="235.095" x2="351.1" y2="307.395" gradientUnits="userSpaceOnUse">
<stop stop-color="#FB5C5C"/>
<stop offset="1" stop-color="#E03333"/>
</linearGradient>
<linearGradient id="paint12_linear_745_3294" x1="404.133" y1="225.561" x2="404.133" y2="316.929" gradientUnits="userSpaceOnUse">
<stop stop-color="#A23034"/>
<stop offset="1" stop-color="#7A2024"/>
</linearGradient>
<linearGradient id="paint13_linear_745_3294" x1="417.714" y1="228.541" x2="416.031" y2="270.616" gradientUnits="userSpaceOnUse">
<stop stop-color="#67A2C1"/>
<stop offset="1" stop-color="#838383"/>
</linearGradient>
<linearGradient id="paint14_linear_745_3294" x1="402.559" y1="224.754" x2="400.748" y2="270.005" gradientUnits="userSpaceOnUse">
<stop stop-color="#75C6EC"/>
<stop offset="1" stop-color="#C5C5DC"/>
</linearGradient>
</defs>
</svg>
