<svg width="120" height="53" viewBox="0 0 120 53" fill="none" xmlns="http://www.w3.org/2000/svg">
<g clip-path="url(#clip0_546_937)">
<path d="M0.108399 15.6255V37.3256C0.10799 38.1352 0.322835 38.9305 0.731318 39.6317C1.1398 40.3329 1.72752 40.9152 2.43534 41.3199L21.4107 52.17C22.1179 52.5755 22.9205 52.7891 23.7377 52.7891C24.5548 52.7891 25.3575 52.5755 26.0646 52.17L45.04 41.3199C45.7478 40.9152 46.3355 40.3329 46.744 39.6317C47.1525 38.9305 47.3673 38.1352 47.3669 37.3256V15.6255C47.3673 14.816 47.1525 14.0206 46.744 13.3195C46.3355 12.6183 45.7478 12.036 45.04 11.6312L26.0646 0.781188C25.3575 0.375656 24.5548 0.162109 23.7377 0.162109C22.9205 0.162109 22.1179 0.375656 21.4107 0.781188L2.43534 11.6312C1.72752 12.036 1.1398 12.6183 0.731318 13.3195C0.322835 14.0206 0.10799 14.816 0.108399 15.6255Z" fill="url(#paint0_linear_546_937)"/>
<g style="mix-blend-mode:screen">
<path d="M21.4108 52.17C22.0186 52.5115 22.6961 52.7134 23.3933 52.7608C24.0904 52.8081 24.7894 52.6996 25.4386 52.4434C25.758 52.3042 26.0662 52.1409 26.3605 51.9551L27.2676 51.4326L29.0867 50.3974L36.3091 46.2078L43.5512 42.0475C44.1428 41.6959 44.7788 41.3688 45.3408 40.9976C45.8941 40.6148 46.3539 40.1143 46.6867 39.5327C47.0126 38.9368 47.1996 38.276 47.2339 37.5991C47.2339 36.9252 47.2339 36.2221 47.2339 35.5336L47.1994 18.9557V15.8306C47.2056 15.4952 47.1791 15.16 47.1205 14.8296C46.9962 14.1742 46.7254 13.5546 46.3278 13.0164C45.9303 12.4782 45.4162 12.0349 44.8231 11.7191L37.5662 7.5832L30.3241 3.41799L26.7056 1.34271C26.1351 0.972437 25.5143 0.684694 24.8618 0.488181C24.2167 0.325887 23.5435 0.305884 22.8898 0.429585C22.2178 0.569407 21.5777 0.830966 21.0016 1.2011L19.1874 2.23142L15.5589 4.29693L8.30205 8.42796L4.6736 10.4935L2.85938 11.5287C2.55116 11.6886 2.25463 11.8697 1.97199 12.0707C1.70393 12.2784 1.4593 12.5141 1.24235 12.7738C0.813143 13.2974 0.508192 13.9099 0.350031 14.5659C0.221288 15.2366 0.176581 15.9205 0.216922 16.6021V20.7478L0.108463 37.3256L4.37908e-06 20.7478V16.6021C-0.0455534 15.9029 -0.00249182 15.2008 0.128183 14.5122C0.29664 13.8214 0.62018 13.1772 1.07473 12.6273C1.30187 12.3535 1.55806 12.1047 1.83888 11.8851C2.12478 11.678 2.42456 11.4904 2.73613 11.3236L4.54542 10.2835L8.16401 8.20334L15.411 4.04301L19.0296 1.95308L20.8389 0.913003C21.1396 0.74698 21.4354 0.556543 21.7707 0.424702C22.1002 0.275356 22.4459 0.163946 22.801 0.0926569C23.874 -0.126387 24.9905 0.0288792 25.9611 0.532128C26.2816 0.69815 26.5725 0.873939 26.8781 1.04484L30.5066 3.11036L37.7635 7.24139L45.0006 11.4017C45.6396 11.7439 46.1928 12.2239 46.6195 12.8062C47.0461 13.3885 47.3353 14.0583 47.4656 14.7661C47.5282 15.1174 47.5547 15.474 47.5445 15.8306V18.9411L47.51 35.5189C47.51 36.2123 47.51 36.8959 47.51 37.5991C47.4682 38.3096 47.2647 39.0015 46.9147 39.6231C46.5646 40.2446 46.0771 40.7796 45.4887 41.1881C44.8872 41.5787 44.2808 41.8912 43.6745 42.2477L36.3929 46.3885L29.1212 50.4951L27.3021 51.5205L26.39 52.0088C26.0919 52.194 25.7805 52.3572 25.4583 52.4971C24.802 52.7463 24.0975 52.8462 23.397 52.7896C22.6964 52.733 22.0177 52.5212 21.4108 52.17Z" fill="url(#paint1_linear_546_937)"/>
</g>
<path d="M23.491 19.7613L17.7723 23.8777C17.7138 23.9124 17.6683 23.965 17.6426 24.0275C17.6168 24.09 17.6121 24.1591 17.6293 24.2244L19.8133 30.8848C19.8317 30.9497 19.871 31.0068 19.9254 31.0474C19.9797 31.088 20.046 31.1098 20.114 31.1094H27.1786C27.2467 31.1098 27.313 31.088 27.3673 31.0474C27.4216 31.0068 27.461 30.9497 27.4794 30.8848L29.6633 24.2244C29.6797 24.159 29.6747 24.0902 29.649 24.0279C29.6233 23.9656 29.5782 23.913 29.5204 23.8777L23.8016 19.7613C23.4812 19.5318 23.1706 20.0641 23.491 20.2936L29.2098 24.4148L29.0865 24.0632L26.8828 30.7237L27.1786 30.4942H20.114L20.4098 30.7237L18.2406 24.0632L18.0977 24.4099L23.8164 20.2936C24.1221 20.0641 23.8115 19.5318 23.491 19.7613Z" fill="url(#paint2_linear_546_937)"/>
<path d="M23.9008 18.2574V12.3978C23.9 12.3439 23.8851 12.291 23.8575 12.2445C23.8299 12.1979 23.7906 12.1592 23.7434 12.1322C23.6963 12.1051 23.6429 12.0907 23.5884 12.0901C23.5339 12.0896 23.4802 12.1031 23.4325 12.1293C23.6691 11.9584 23.7332 12.1293 23.5705 12.0853C23.4799 12.0632 23.3875 12.0485 23.2945 12.0414L22.2345 11.8802L19.3456 11.4408L17.1912 11.1136C17.0452 11.079 16.8928 11.0815 16.748 11.1207C16.6032 11.16 16.4708 11.2348 16.3629 11.3382L12.1626 14.3999C11.8915 14.5952 11.3886 14.8296 11.2604 15.1518C11.1195 15.6875 11.0304 16.2353 10.9942 16.7877L10.4667 20.0202L10.2646 21.28C10.2336 21.4019 10.2122 21.526 10.2005 21.6511C10.2005 21.8367 10.0625 21.7879 10.3237 21.6023C10.2731 21.6342 10.2327 21.6798 10.2073 21.7336C10.1819 21.7875 10.1725 21.8474 10.1803 21.9064C10.188 21.9653 10.2126 22.0209 10.2511 22.0665C10.2896 22.1121 10.3405 22.1459 10.3977 22.1638L10.1808 21.783C10.1413 22.0125 10.3928 22.3055 10.6393 22.1297C10.4569 22.2566 10.3336 22.1297 10.6393 22.2371C10.8463 22.3103 11.0583 22.3689 11.2654 22.4373L13.2373 23.0672L16.0622 23.9754C16.4467 24.0975 16.6094 23.4871 16.2298 23.3846L13.1733 22.408L11.2358 21.7879C11.0435 21.7244 10.5407 21.4607 10.3385 21.6072L10.797 21.9539C10.8147 21.8751 10.8023 21.7926 10.7622 21.7223C10.7222 21.652 10.6573 21.5988 10.5801 21.573L10.6541 22.1394C10.9449 21.9246 10.9153 21.2019 10.9696 20.8894L11.4083 18.067L11.7929 15.7134C11.833 15.5699 11.8578 15.4226 11.8668 15.2739C12.0394 15.4302 11.5661 15.4985 11.8077 15.396C11.9101 15.336 12.0059 15.2656 12.0936 15.186L16.3186 12.1097C16.4763 11.9925 16.8116 11.8412 16.9151 11.6751C17.0186 11.5091 16.9841 11.9535 16.7623 11.641C16.7623 11.6654 16.9052 11.6654 16.9299 11.6703C17.5856 11.8265 18.2856 11.8753 18.9512 11.9779L22.1655 12.4662L23.2402 12.6273C23.3783 12.6517 23.6248 12.725 23.7332 12.6273L23.2402 12.3636V18.2574C23.2402 18.339 23.2729 18.4173 23.3312 18.475C23.3894 18.5327 23.4684 18.5651 23.5508 18.5651C23.6332 18.5651 23.7122 18.5327 23.7704 18.475C23.8287 18.4173 23.8614 18.339 23.8614 18.2574H23.9008Z" fill="url(#paint3_linear_546_937)"/>
<path d="M16.2094 23.3748L10.5597 21.5534C10.5065 21.5398 10.4506 21.5401 10.3976 21.5544C10.3446 21.5688 10.2963 21.5965 10.2575 21.635C10.2186 21.6735 10.1906 21.7213 10.1762 21.7738C10.1617 21.8263 10.1614 21.8816 10.1751 21.9343C10.0716 21.6218 10.2787 21.6609 10.1751 21.7878C10.1237 21.8644 10.0807 21.9463 10.047 22.032L9.55397 23.0086L8.2426 25.5917L7.25661 27.5449C7.18244 27.6736 7.14139 27.8185 7.1371 27.9667C7.1328 28.1148 7.16538 28.2618 7.23196 28.3945L8.87364 33.2531C8.9821 33.5705 9.05112 34.1077 9.33213 34.3225C9.80107 34.6185 10.2961 34.8718 10.8111 35.0794L13.7691 36.5785L14.9178 37.1595C15.0243 37.2261 15.1364 37.2833 15.253 37.3304C15.4453 37.389 15.3269 37.4916 15.253 37.2084C15.2706 37.2654 15.3042 37.3162 15.35 37.3549C15.3957 37.3935 15.4517 37.4185 15.5113 37.4267C15.5709 37.4349 15.6316 37.4261 15.6863 37.4012C15.741 37.3764 15.7873 37.3366 15.8199 37.2865L15.396 37.3988C15.4492 37.4288 15.5102 37.4425 15.5712 37.4382C15.6323 37.434 15.6907 37.4119 15.7392 37.3749C15.7876 37.3378 15.824 37.2874 15.8436 37.23C15.8632 37.1726 15.8653 37.1107 15.8495 37.0521C15.9235 37.2767 15.7657 37.3304 15.9629 37.0863C16.101 36.9203 16.2242 36.7347 16.3524 36.5638L17.5651 34.9085L19.3104 32.5304C19.5223 32.2277 18.985 31.8957 18.7335 32.2277L16.8454 34.801L15.6474 36.432C15.5192 36.6078 15.1298 36.974 15.2136 37.2279L15.6671 36.8763C15.5955 36.8369 15.5113 36.8265 15.4322 36.8475C15.3531 36.8685 15.2853 36.9191 15.2431 36.9886L15.815 37.0619C15.7066 36.7298 14.972 36.5199 14.7008 36.3831L12.1471 35.0891L10.0174 33.9856C9.98288 33.9856 9.66243 33.761 9.62299 33.7805C9.86456 33.6438 9.74131 34.1321 9.73145 33.8684C9.70861 33.7517 9.67049 33.6384 9.61806 33.5315L7.97146 28.6045C7.92567 28.3626 7.84776 28.1278 7.73975 27.9062C7.57706 27.7011 8.02569 27.9599 7.67566 28.043C7.67566 28.043 7.73975 27.9111 7.75454 27.8916C8.09054 27.3049 8.39659 26.7019 8.67151 26.0849L10.1505 23.2039L10.6435 22.2273C10.7125 22.0906 10.8456 21.905 10.7963 21.739L10.4118 22.1199L16.0615 23.9363C16.446 24.0584 16.6087 23.448 16.2291 23.3455L16.2094 23.3748Z" fill="url(#paint4_linear_546_937)"/>
<path d="M31.2409 23.9266L36.8956 22.1101L36.511 21.7292C36.4124 22.032 36.9005 22.6716 37.004 22.9109L38.2809 25.4159L39.3704 27.5595C39.3704 27.5986 39.5429 27.9941 39.5922 27.9941C39.2274 27.9648 39.6908 27.6816 39.5429 27.8379C39.4931 27.933 39.4582 28.0351 39.4394 28.1406L37.8027 33.0236C37.7041 33.2676 37.6202 33.517 37.5512 33.7707C37.5512 33.7707 37.5019 33.8879 37.5118 33.8977C37.3688 33.7317 37.8224 33.6926 37.5118 33.7805C36.8924 34.0315 36.2954 34.3337 35.7272 34.6839L32.7692 36.1488L31.7832 36.6371C31.6353 36.7152 31.4578 36.7689 31.3987 36.9447L32.0445 36.9398C32.0015 36.8712 31.9337 36.8213 31.855 36.8005C31.7762 36.7796 31.6923 36.7893 31.6205 36.8275L32.0741 37.1791C32.1579 36.93 31.7881 36.5882 31.6649 36.4173L30.4423 34.7522L28.5344 32.1789C28.3027 31.8615 27.7604 32.1789 27.997 32.4914L29.7422 34.8694L30.9303 36.4857L31.3247 37.0277C31.3543 37.0668 31.3987 37.1595 31.443 37.184C31.5663 37.2572 31.3198 37.4232 31.443 37.0131C31.4273 37.0716 31.4293 37.1335 31.449 37.191C31.4686 37.2484 31.5049 37.2988 31.5534 37.3358C31.6018 37.3729 31.6603 37.3949 31.7213 37.3992C31.7824 37.4034 31.8434 37.3897 31.8966 37.3597L31.4677 37.2474C31.4985 37.3007 31.5444 37.3438 31.5998 37.3713C31.6551 37.3989 31.7174 37.4097 31.7789 37.4024C31.8404 37.3951 31.8984 37.37 31.9456 37.3303C31.9929 37.2906 32.0272 37.238 32.0445 37.1791C31.9262 37.5355 31.8374 37.3353 31.9903 37.3158C32.0807 37.2856 32.1656 37.2411 32.2417 37.184L33.2277 36.6957L35.8603 35.3577C36.5012 35.0354 37.147 34.7229 37.778 34.3811C38.1034 34.2053 38.1478 34.0051 38.271 33.6584L39.9324 28.7315C40.0458 28.3897 40.2676 28.0137 40.1493 27.6621C39.9234 27.1364 39.6632 26.6259 39.3704 26.1337L37.8914 23.2039L37.3245 22.0857C37.2815 21.9706 37.2253 21.8608 37.1568 21.7585C37.0287 21.5974 37.2209 21.5974 37.1568 21.8757C37.1706 21.823 37.1703 21.7677 37.1558 21.7152C37.1414 21.6627 37.1134 21.6149 37.0745 21.5764C37.0357 21.5379 36.9874 21.5102 36.9343 21.4959C36.8813 21.4816 36.8255 21.4812 36.7723 21.4948L31.0585 23.3406C30.6789 23.4578 30.8416 24.0535 31.2212 23.9315L31.2409 23.9266Z" fill="url(#paint5_linear_546_937)"/>
<path d="M18.7341 32.2278L15.2831 36.9741C15.2486 37.021 15.2283 37.0766 15.2243 37.1345C15.2204 37.1924 15.2331 37.2502 15.2609 37.3013C15.2888 37.3523 15.3306 37.3946 15.3816 37.4231C15.4327 37.4516 15.4908 37.4652 15.5493 37.4624C15.1944 37.4624 15.3275 37.3012 15.4014 37.4624C15.4613 37.5347 15.5291 37.6002 15.6036 37.6577L16.3677 38.4048L18.4383 40.441L19.9912 41.9645C20.0935 42.0717 20.2205 42.1526 20.3614 42.2002C20.5022 42.2478 20.6527 42.2608 20.7997 42.238L26.0156 42.2087C26.3656 42.2087 26.8833 42.3063 27.184 42.0963C27.6097 41.7398 28.0054 41.3495 28.3672 40.9293L30.704 38.5757L31.616 37.6772C31.7109 37.5939 31.7999 37.5041 31.8823 37.4087C32.0055 37.2426 32.045 37.4087 31.7639 37.4087C31.8246 37.4076 31.8836 37.389 31.9337 37.3552C31.9838 37.3213 32.0228 37.2736 32.0459 37.2181C32.0689 37.1625 32.0751 37.1015 32.0635 37.0425C32.052 36.9835 32.0232 36.9292 31.9809 36.8862V37.3208C32.0226 37.2772 32.0508 37.2226 32.062 37.1635C32.0732 37.1044 32.067 37.0434 32.0442 36.9878C32.0213 36.9321 31.9826 36.8842 31.933 36.8497C31.8833 36.8152 31.8246 36.7957 31.7639 36.7934L32.0351 36.9448L28.5447 32.1838C28.308 31.8664 27.7707 32.1838 28.0073 32.4964L29.93 35.1185L31.1132 36.7348C31.2512 36.9204 31.4928 37.4087 31.7689 37.4087L31.552 36.8715C31.4961 36.9304 31.4651 37.0081 31.4651 37.0888C31.4651 37.1696 31.4961 37.2473 31.552 37.3061L31.7738 36.7788C31.4336 36.7788 30.985 37.4282 30.7878 37.6284L28.7517 39.6353L27.046 41.32C27.0164 41.3493 26.7206 41.5836 26.7305 41.6276C26.6713 41.32 27.1002 41.6276 26.8438 41.5397C26.7243 41.5252 26.6035 41.5252 26.484 41.5397H21.2434C20.9978 41.5104 20.7495 41.5104 20.5039 41.5397C20.2525 41.6227 20.6617 41.3102 20.6173 41.6276C20.6173 41.6276 20.5089 41.525 20.4941 41.5104C20.0396 41.0074 19.5556 40.5313 19.0447 40.0845L16.7128 37.8579L15.9437 37.1108C15.8303 36.9985 15.7071 36.8325 15.5296 36.8325L15.8008 37.3208L19.2912 32.5598C19.5278 32.2376 18.9855 31.9299 18.7538 32.2473L18.7341 32.2278Z" fill="url(#paint6_linear_546_937)"/>
<path d="M23.9001 18.2574V12.3978L23.4317 12.6614C23.6733 12.8372 24.4769 12.5735 24.7283 12.5345L27.5236 12.1097L29.9196 11.719C30.0862 11.7136 30.2516 11.689 30.4126 11.6458C30.24 11.9974 30.1463 11.4651 30.2449 11.6458C30.2745 11.7141 30.4421 11.7923 30.5062 11.8362L34.7065 14.893C34.9095 15.0616 35.1236 15.2166 35.3474 15.3569C35.3474 15.3569 35.4411 15.4448 35.4559 15.4399C35.2242 15.518 35.3474 15.0981 35.3376 15.391C35.3863 16.0502 35.4936 16.7038 35.658 17.3443L36.1806 20.5622C36.2398 20.9235 36.2053 21.8562 36.5454 22.1003L36.6194 21.5339C36.5415 21.5587 36.4759 21.6117 36.4357 21.6823C36.3955 21.7529 36.3836 21.8359 36.4024 21.9147L36.8609 21.5681C36.6588 21.4264 36.1855 21.6755 35.9982 21.7341L34.0262 22.3689L30.9696 23.3455C30.59 23.4675 30.7527 24.0584 31.1323 23.9363L33.9572 23.0281L35.8749 22.4616L36.5158 22.2517C36.5811 22.2425 36.6444 22.2227 36.7032 22.1931C36.8166 22.0954 36.8708 22.3786 36.5405 22.1394C36.787 22.3152 37.0335 22.0271 36.999 21.7927L36.7821 22.1735C36.8393 22.1556 36.8901 22.1218 36.9286 22.0762C36.9672 22.0306 36.9917 21.975 36.9995 21.9161C37.0073 21.8571 36.9979 21.7972 36.9725 21.7433C36.9471 21.6895 36.9067 21.6439 36.856 21.612C37.1814 21.8464 36.9497 21.8366 36.9793 21.695C36.9765 21.6007 36.9616 21.5072 36.9349 21.4167L36.7623 20.3424L36.2693 17.4517C36.156 16.7534 36.0623 16.0454 35.9292 15.3471C35.8602 14.9906 35.6679 14.8832 35.377 14.6732L31.1521 11.6018C30.8513 11.3821 30.5703 11.0647 30.1907 11.0793C29.618 11.1362 29.0486 11.2226 28.4849 11.3381L25.2361 11.8264L23.9888 12.0169C23.8641 12.0224 23.7402 12.0404 23.6191 12.0706C23.417 12.139 23.5156 11.9681 23.7275 12.1194C23.6794 12.0869 23.6231 12.0683 23.5649 12.0655C23.5067 12.0628 23.4489 12.0761 23.3978 12.1039C23.3468 12.1317 23.3045 12.1729 23.2757 12.2231C23.2469 12.2732 23.2326 12.3303 23.2345 12.388V18.2574C23.2345 18.339 23.2673 18.4172 23.3255 18.4749C23.3838 18.5326 23.4628 18.565 23.5451 18.565C23.6275 18.565 23.7065 18.5326 23.7648 18.4749C23.823 18.4172 23.8557 18.339 23.8557 18.2574H23.9001Z" fill="url(#paint7_linear_546_937)"/>
<path d="M16.964 12.5345C17.6474 12.5345 18.2014 11.9858 18.2014 11.3089C18.2014 10.632 17.6474 10.0833 16.964 10.0833C16.2806 10.0833 15.7266 10.632 15.7266 11.3089C15.7266 11.9858 16.2806 12.5345 16.964 12.5345Z" fill="url(#paint8_linear_546_937)"/>
<path d="M11.6149 16.0894C12.1622 16.0894 12.6059 15.65 12.6059 15.108C12.6059 14.5659 12.1622 14.1265 11.6149 14.1265C11.0677 14.1265 10.624 14.5659 10.624 15.108C10.624 15.65 11.0677 16.0894 11.6149 16.0894Z" fill="url(#paint9_linear_546_937)"/>
<path d="M23.6442 13.3255C24.1915 13.3255 24.6352 12.8861 24.6352 12.344C24.6352 11.802 24.1915 11.3625 23.6442 11.3625C23.097 11.3625 22.6533 11.802 22.6533 12.344C22.6533 12.8861 23.097 13.3255 23.6442 13.3255Z" fill="url(#paint10_linear_546_937)"/>
<path d="M30.2009 12.2904C30.7482 12.2904 31.1918 11.8509 31.1918 11.3089C31.1918 10.7668 30.7482 10.3274 30.2009 10.3274C29.6536 10.3274 29.21 10.7668 29.21 11.3089C29.21 11.8509 29.6536 12.2904 30.2009 12.2904Z" fill="url(#paint11_linear_546_937)"/>
<path d="M35.6579 16.0894C36.2052 16.0894 36.6488 15.65 36.6488 15.108C36.6488 14.5659 36.2052 14.1265 35.6579 14.1265C35.1106 14.1265 34.667 14.5659 34.667 15.108C34.667 15.65 35.1106 16.0894 35.6579 16.0894Z" fill="url(#paint12_linear_546_937)"/>
<path d="M36.7526 22.8133C37.2999 22.8133 37.7436 22.3739 37.7436 21.8318C37.7436 21.2898 37.2999 20.8503 36.7526 20.8503C36.2054 20.8503 35.7617 21.2898 35.7617 21.8318C35.7617 22.3739 36.2054 22.8133 36.7526 22.8133Z" fill="url(#paint13_linear_546_937)"/>
<path d="M10.5349 22.8133C11.0821 22.8133 11.5258 22.3739 11.5258 21.8318C11.5258 21.2898 11.0821 20.8503 10.5349 20.8503C9.9876 20.8503 9.54395 21.2898 9.54395 21.8318C9.54395 22.3739 9.9876 22.8133 10.5349 22.8133Z" fill="url(#paint14_linear_546_937)"/>
<path d="M39.9821 28.9805C40.5294 28.9805 40.9731 28.5411 40.9731 27.9991C40.9731 27.457 40.5294 27.0176 39.9821 27.0176C39.4349 27.0176 38.9912 27.457 38.9912 27.9991C38.9912 28.5411 39.4349 28.9805 39.9821 28.9805Z" fill="url(#paint15_linear_546_937)"/>
<path d="M7.49873 28.9805C8.046 28.9805 8.48965 28.5411 8.48965 27.9991C8.48965 27.457 8.046 27.0176 7.49873 27.0176C6.95146 27.0176 6.50781 27.457 6.50781 27.9991C6.50781 28.5411 6.95146 28.9805 7.49873 28.9805Z" fill="url(#paint16_linear_546_937)"/>
<path d="M37.9167 35.0697C38.464 35.0697 38.9076 34.6302 38.9076 34.0882C38.9076 33.5461 38.464 33.1067 37.9167 33.1067C37.3694 33.1067 36.9258 33.5461 36.9258 34.0882C36.9258 34.6302 37.3694 35.0697 37.9167 35.0697Z" fill="url(#paint17_linear_546_937)"/>
<path d="M9.59834 35.0697C10.1456 35.0697 10.5893 34.6302 10.5893 34.0882C10.5893 33.5461 10.1456 33.1067 9.59834 33.1067C9.05107 33.1067 8.60742 33.5461 8.60742 34.0882C8.60742 34.6302 9.05107 35.0697 9.59834 35.0697Z" fill="url(#paint18_linear_546_937)"/>
<path d="M23.6442 19.1998C24.1915 19.1998 24.6352 18.7604 24.6352 18.2183C24.6352 17.6762 24.1915 17.2368 23.6442 17.2368C23.097 17.2368 22.6533 17.6762 22.6533 18.2183C22.6533 18.7604 23.097 19.1998 23.6442 19.1998Z" fill="url(#paint19_linear_546_937)"/>
<path d="M31.1032 24.6151C31.6505 24.6151 32.0941 24.1756 32.0941 23.6336C32.0941 23.0915 31.6505 22.6521 31.1032 22.6521C30.556 22.6521 30.1123 23.0915 30.1123 23.6336C30.1123 24.1756 30.556 24.6151 31.1032 24.6151Z" fill="url(#paint20_linear_546_937)"/>
<path d="M28.3669 33.2484C28.9142 33.2484 29.3578 32.8089 29.3578 32.2669C29.3578 31.7248 28.9142 31.2854 28.3669 31.2854C27.8196 31.2854 27.376 31.7248 27.376 32.2669C27.376 32.8089 27.8196 33.2484 28.3669 33.2484Z" fill="url(#paint21_linear_546_937)"/>
<path d="M31.6853 38.0924C32.2325 38.0924 32.6762 37.6529 32.6762 37.1109C32.6762 36.5688 32.2325 36.1294 31.6853 36.1294C31.138 36.1294 30.6943 36.5688 30.6943 37.1109C30.6943 37.6529 31.138 38.0924 31.6853 38.0924Z" fill="url(#paint22_linear_546_937)"/>
<path d="M26.8835 42.8678C27.4308 42.8678 27.8744 42.4283 27.8744 41.8863C27.8744 41.3442 27.4308 40.9048 26.8835 40.9048C26.3362 40.9048 25.8926 41.3442 25.8926 41.8863C25.8926 42.4283 26.3362 42.8678 26.8835 42.8678Z" fill="url(#paint23_linear_546_937)"/>
<path d="M20.5974 42.8678C21.1446 42.8678 21.5883 42.4283 21.5883 41.8863C21.5883 41.3442 21.1446 40.9048 20.5974 40.9048C20.0501 40.9048 19.6064 41.3442 19.6064 41.8863C19.6064 42.4283 20.0501 42.8678 20.5974 42.8678Z" fill="url(#paint24_linear_546_937)"/>
<path d="M19.1081 33.2484C19.6554 33.2484 20.099 32.8089 20.099 32.2669C20.099 31.7248 19.6554 31.2854 19.1081 31.2854C18.5608 31.2854 18.1172 31.7248 18.1172 32.2669C18.1172 32.8089 18.5608 33.2484 19.1081 33.2484Z" fill="url(#paint25_linear_546_937)"/>
<path d="M15.529 38.0924C16.0763 38.0924 16.5199 37.6529 16.5199 37.1109C16.5199 36.5688 16.0763 36.1294 15.529 36.1294C14.9817 36.1294 14.5381 36.5688 14.5381 37.1109C14.5381 37.6529 14.9817 38.0924 15.529 38.0924Z" fill="url(#paint26_linear_546_937)"/>
<path d="M16.1901 24.6151C16.7374 24.6151 17.1811 24.1756 17.1811 23.6336C17.1811 23.0915 16.7374 22.6521 16.1901 22.6521C15.6429 22.6521 15.1992 23.0915 15.1992 23.6336C15.1992 24.1756 15.6429 24.6151 16.1901 24.6151Z" fill="url(#paint27_linear_546_937)"/>
<path d="M68.3537 27.2716H63.5322C61.5306 27.2716 60.5742 26.5098 60.5742 24.6787V16.0211C60.5742 14.19 61.5208 13.4282 63.5322 13.4282H68.3537V15.1715H62.8075C62.7776 15.1684 62.7474 15.172 62.7191 15.1819C62.6907 15.1919 62.665 15.208 62.6438 15.229C62.6225 15.2501 62.6063 15.2756 62.5962 15.3036C62.5862 15.3317 62.5825 15.3616 62.5856 15.3912V25.3086C62.5825 25.3382 62.5862 25.3681 62.5962 25.3962C62.6063 25.4242 62.6225 25.4497 62.6438 25.4707C62.665 25.4918 62.6907 25.5079 62.7191 25.5178C62.7474 25.5278 62.7776 25.5314 62.8075 25.5283H68.3537V27.2716Z" fill="white"/>
<path d="M79.8648 21.0799H74.1165V27.2716H72.1445V13.4282H74.1165V19.4001H79.8648V13.4282H81.8023V27.2716H79.8648V21.0799Z" fill="white"/>
<path d="M87.0137 27.2716V13.4282H88.9857V27.2716H87.0137Z" fill="white"/>
<path d="M101.296 27.2716H94.1621V13.4282H96.1341V25.5918H101.306L101.296 27.2716Z" fill="white"/>
<path d="M104.771 27.2716V13.4282H106.743V27.2716H104.771Z" fill="white"/>
<path d="M119.798 27.2716H112.428C111.304 27.2716 110.712 26.7491 110.712 25.6358L117.708 15.2838C117.821 15.1275 117.752 14.9957 117.555 14.9957H111.239V13.4282H118.215C119.448 13.4282 120 14.1021 120 15.2594L113.133 25.3916C113.019 25.543 113.063 25.7188 113.241 25.7188H119.822L119.798 27.2716Z" fill="white"/>
<path d="M68.3537 27.2716H63.5322C61.5306 27.2716 60.5742 26.5098 60.5742 24.6787V16.0211C60.5742 14.19 61.5208 13.4282 63.5322 13.4282H68.3537V15.1715H62.8075C62.7776 15.1684 62.7474 15.172 62.7191 15.1819C62.6907 15.1919 62.665 15.208 62.6438 15.229C62.6225 15.2501 62.6063 15.2756 62.5962 15.3036C62.5862 15.3317 62.5825 15.3616 62.5856 15.3912V25.3086C62.5825 25.3382 62.5862 25.3681 62.5962 25.3962C62.6063 25.4242 62.6225 25.4497 62.6438 25.4707C62.665 25.4918 62.6907 25.5079 62.7191 25.5178C62.7474 25.5278 62.7776 25.5314 62.8075 25.5283H68.3537V27.2716Z" fill="url(#paint28_linear_546_937)"/>
<path d="M79.8648 21.0799H74.1165V27.2716H72.1445V13.4282H74.1165V19.4001H79.8648V13.4282H81.8023V27.2716H79.8648V21.0799Z" fill="url(#paint29_linear_546_937)"/>
<path d="M87.0137 27.2716V13.4282H88.9857V27.2716H87.0137Z" fill="url(#paint30_linear_546_937)"/>
<path d="M101.296 27.2716H94.1621V13.4282H96.1341V25.5918H101.306L101.296 27.2716Z" fill="url(#paint31_linear_546_937)"/>
<path d="M104.771 27.2716V13.4282H106.743V27.2716H104.771Z" fill="url(#paint32_linear_546_937)"/>
<path d="M119.798 27.2716H112.428C111.304 27.2716 110.712 26.7491 110.712 25.6358L117.708 15.2838C117.821 15.1275 117.752 14.9957 117.555 14.9957H111.239V13.4282H118.215C119.448 13.4282 120 14.1021 120 15.2594L113.133 25.3916C113.019 25.543 113.063 25.7188 113.241 25.7188H119.822L119.798 27.2716Z" fill="url(#paint33_linear_546_937)"/>
<path d="M66.9931 32.4767V39.4594H65.9381V33.424L64.0351 37.0521H63.3942L61.5504 33.4484V39.4594H60.5645V31.7394H61.1659C61.3216 31.7215 61.4787 31.7574 61.6108 31.841C61.7428 31.9246 61.8417 32.0509 61.8906 32.1984L63.7689 35.8264L65.9282 31.7394H66.2585C66.7959 31.7394 66.9931 31.9493 66.9931 32.4767Z" fill="white"/>
<path d="M69.6602 39.4595V31.7395H74.0084V32.6673H70.7497V35.0648H73.7964V35.9926H70.7497V38.522H74.0675V39.4595H69.6602Z" fill="white"/>
<path d="M77.3613 39.4595V32.6673H75.4287V31.7395H80.3932V32.6673H78.4508V39.4595H77.3613Z" fill="white"/>
<path d="M86.2398 39.4594L85.7468 37.4623H82.6261L82.0986 39.4594H81.0781L82.9121 32.8869C83.1684 31.9396 83.3508 31.6954 84.322 31.7101H85.451L87.3342 39.435L86.2398 39.4594ZM82.8726 36.5296H85.5644L84.6277 32.6574H84.0164C83.9276 32.6574 83.903 32.6965 83.8931 32.7697L82.8726 36.5296Z" fill="white"/>
<path d="M97.3662 39.4594H93.2497C92.6236 39.4594 92.2637 39.1664 92.2637 38.5463L96.1731 32.7648C96.2323 32.6818 96.1978 32.6085 96.0844 32.6085H92.5841V31.7394H96.4788C96.6159 31.7242 96.7547 31.7406 96.8844 31.7872C97.0141 31.8338 97.1312 31.9094 97.2266 32.0082C97.3219 32.1069 97.3931 32.2261 97.4344 32.3565C97.4757 32.4868 97.4861 32.6249 97.4648 32.7599L93.6687 38.3998C93.6046 38.4877 93.6293 38.5854 93.7279 38.5854H97.4007L97.3662 39.4594Z" fill="white"/>
<path d="M99.501 33.097C99.501 32.0716 99.994 31.6321 101.133 31.6321H103.272C104.387 31.6321 104.919 32.0569 104.919 33.097V38.0874C104.919 39.108 104.387 39.5523 103.272 39.5523H101.133C100.014 39.5523 99.501 39.1275 99.501 38.0874V33.097ZM100.738 32.6087C100.722 32.6064 100.705 32.6078 100.69 32.6128C100.674 32.6178 100.66 32.6262 100.648 32.6375C100.636 32.6488 100.627 32.6627 100.621 32.678C100.616 32.6933 100.613 32.7096 100.615 32.7259V38.4488C100.613 38.4654 100.614 38.4823 100.619 38.4983C100.625 38.5142 100.634 38.5287 100.646 38.5405C100.658 38.5524 100.672 38.5613 100.688 38.5666C100.705 38.5719 100.722 38.5733 100.738 38.5708H103.662C103.679 38.5733 103.696 38.5719 103.712 38.5666C103.728 38.5613 103.743 38.5524 103.755 38.5405C103.767 38.5287 103.776 38.5142 103.781 38.4983C103.786 38.4823 103.788 38.4654 103.785 38.4488V32.7405C103.787 32.7243 103.785 32.7079 103.779 32.6926C103.773 32.6773 103.764 32.6635 103.752 32.6522C103.74 32.6409 103.726 32.6324 103.71 32.6274C103.695 32.6224 103.678 32.621 103.662 32.6233L100.738 32.6087Z" fill="white"/>
<path d="M108.429 33.7513V39.4595H107.473V31.7395H108.237L111.944 37.4575V31.7395H112.896V39.4595H112.131L108.429 33.7513Z" fill="white"/>
<path d="M115.588 39.4595V31.7395H119.936V32.6673H116.682V35.0648H119.729V35.9926H116.682V38.522H120V39.4595H115.588Z" fill="white"/>
<path d="M66.9931 32.4767V39.4594H65.9381V33.424L64.0351 37.0521H63.3942L61.5504 33.4484V39.4594H60.5645V31.7394H61.1659C61.3216 31.7215 61.4787 31.7574 61.6108 31.841C61.7428 31.9246 61.8417 32.0509 61.8906 32.1984L63.7689 35.8264L65.9282 31.7394H66.2585C66.7959 31.7394 66.9931 31.9493 66.9931 32.4767Z" fill="url(#paint34_linear_546_937)"/>
<path d="M69.6602 39.4595V31.7395H74.0084V32.6673H70.7497V35.0648H73.7964V35.9926H70.7497V38.522H74.0675V39.4595H69.6602Z" fill="url(#paint35_linear_546_937)"/>
<path d="M77.3613 39.4595V32.6673H75.4287V31.7395H80.3932V32.6673H78.4508V39.4595H77.3613Z" fill="url(#paint36_linear_546_937)"/>
<path d="M86.2398 39.4594L85.7468 37.4623H82.6261L82.0986 39.4594H81.0781L82.9121 32.8869C83.1684 31.9396 83.3508 31.6954 84.322 31.7101H85.451L87.3342 39.435L86.2398 39.4594ZM82.8726 36.5296H85.5644L84.6277 32.6574H84.0164C83.9276 32.6574 83.903 32.6965 83.8931 32.7697L82.8726 36.5296Z" fill="url(#paint37_linear_546_937)"/>
<path d="M97.3662 39.4594H93.2497C92.6236 39.4594 92.2637 39.1664 92.2637 38.5463L96.1731 32.7648C96.2323 32.6818 96.1978 32.6085 96.0844 32.6085H92.5841V31.7394H96.4788C96.6159 31.7242 96.7547 31.7406 96.8844 31.7872C97.0141 31.8338 97.1312 31.9094 97.2266 32.0082C97.3219 32.1069 97.3931 32.2261 97.4344 32.3565C97.4757 32.4868 97.4861 32.6249 97.4648 32.7599L93.6687 38.3998C93.6046 38.4877 93.6293 38.5854 93.7279 38.5854H97.4007L97.3662 39.4594Z" fill="url(#paint38_linear_546_937)"/>
<path d="M99.501 33.097C99.501 32.0716 99.994 31.6321 101.133 31.6321H103.272C104.387 31.6321 104.919 32.0569 104.919 33.097V38.0874C104.919 39.108 104.387 39.5523 103.272 39.5523H101.133C100.014 39.5523 99.501 39.1275 99.501 38.0874V33.097ZM100.738 32.6087C100.722 32.6064 100.705 32.6078 100.69 32.6128C100.674 32.6178 100.66 32.6262 100.648 32.6375C100.636 32.6488 100.627 32.6627 100.621 32.678C100.616 32.6933 100.613 32.7096 100.615 32.7259V38.4488C100.613 38.4654 100.614 38.4823 100.619 38.4983C100.625 38.5142 100.634 38.5287 100.646 38.5405C100.658 38.5524 100.672 38.5613 100.688 38.5666C100.705 38.5719 100.722 38.5733 100.738 38.5708H103.662C103.679 38.5733 103.696 38.5719 103.712 38.5666C103.728 38.5613 103.743 38.5524 103.755 38.5405C103.767 38.5287 103.776 38.5142 103.781 38.4983C103.786 38.4823 103.788 38.4654 103.785 38.4488V32.7405C103.787 32.7243 103.785 32.7079 103.779 32.6926C103.773 32.6773 103.764 32.6635 103.752 32.6522C103.74 32.6409 103.726 32.6324 103.71 32.6274C103.695 32.6224 103.678 32.621 103.662 32.6233L100.738 32.6087Z" fill="url(#paint39_linear_546_937)"/>
<path d="M108.429 33.7513V39.4595H107.473V31.7395H108.237L111.944 37.4575V31.7395H112.896V39.4595H112.131L108.429 33.7513Z" fill="url(#paint40_linear_546_937)"/>
<path d="M115.588 39.4595V31.7395H119.936V32.6673H116.682V35.0648H119.729V35.9926H116.682V38.522H120V39.4595H115.588Z" fill="url(#paint41_linear_546_937)"/>
</g>
<defs>
<linearGradient id="paint0_linear_546_937" x1="35.3033" y1="12.6274" x2="11.7617" y2="41.3654" gradientUnits="userSpaceOnUse">
<stop stop-color="#CE2836"/>
<stop offset="1" stop-color="#8F1010"/>
</linearGradient>
<linearGradient id="paint1_linear_546_937" x1="35.6584" y1="6.04017" x2="12.1673" y2="47.1105" gradientUnits="userSpaceOnUse">
<stop stop-color="#FF3641"/>
<stop offset="0.08" stop-color="#E02F39"/>
<stop offset="0.28" stop-color="#9D2128"/>
<stop offset="0.46" stop-color="#65151A"/>
<stop offset="0.63" stop-color="#390C0F"/>
<stop offset="0.78" stop-color="#1A0607"/>
<stop offset="0.91" stop-color="#070102"/>
<stop offset="1"/>
</linearGradient>
<linearGradient id="paint2_linear_546_937" x1="17.8561" y1="25.4061" x2="29.4366" y2="25.4061" gradientUnits="userSpaceOnUse">
<stop stop-color="white"/>
<stop offset="1" stop-color="white"/>
</linearGradient>
<linearGradient id="paint3_linear_546_937" x1="10.3928" y1="17.525" x2="23.6494" y2="17.525" gradientUnits="userSpaceOnUse">
<stop stop-color="white"/>
<stop offset="1" stop-color="white"/>
</linearGradient>
<linearGradient id="paint4_linear_546_937" x1="7.34042" y1="29.4834" x2="19.0836" y2="29.4834" gradientUnits="userSpaceOnUse">
<stop stop-color="white"/>
<stop offset="1" stop-color="white"/>
</linearGradient>
<linearGradient id="paint5_linear_546_937" x1="28.2041" y1="29.4493" x2="39.9472" y2="29.4493" gradientUnits="userSpaceOnUse">
<stop stop-color="white"/>
<stop offset="1" stop-color="white"/>
</linearGradient>
<linearGradient id="paint6_linear_546_937" x1="15.4064" y1="37.1206" x2="31.9118" y2="37.1206" gradientUnits="userSpaceOnUse">
<stop stop-color="white"/>
<stop offset="1" stop-color="white"/>
</linearGradient>
<linearGradient id="paint7_linear_546_937" x1="23.5254" y1="17.52" x2="36.7821" y2="17.52" gradientUnits="userSpaceOnUse">
<stop stop-color="white"/>
<stop offset="1" stop-color="white"/>
</linearGradient>
<linearGradient id="paint8_linear_546_937" x1="15.7266" y1="11.3089" x2="18.2014" y2="11.3089" gradientUnits="userSpaceOnUse">
<stop stop-color="white"/>
<stop offset="1" stop-color="white"/>
</linearGradient>
<linearGradient id="paint9_linear_546_937" x1="10.624" y1="15.108" x2="12.6059" y2="15.108" gradientUnits="userSpaceOnUse">
<stop stop-color="white"/>
<stop offset="1" stop-color="white"/>
</linearGradient>
<linearGradient id="paint10_linear_546_937" x1="22.6583" y1="12.344" x2="24.6352" y2="12.344" gradientUnits="userSpaceOnUse">
<stop stop-color="white"/>
<stop offset="1" stop-color="white"/>
</linearGradient>
<linearGradient id="paint11_linear_546_937" x1="29.21" y1="11.3089" x2="31.1918" y2="11.3089" gradientUnits="userSpaceOnUse">
<stop stop-color="white"/>
<stop offset="1" stop-color="white"/>
</linearGradient>
<linearGradient id="paint12_linear_546_937" x1="34.6719" y1="15.108" x2="36.6488" y2="15.108" gradientUnits="userSpaceOnUse">
<stop stop-color="white"/>
<stop offset="1" stop-color="white"/>
</linearGradient>
<linearGradient id="paint13_linear_546_937" x1="35.7666" y1="21.8318" x2="37.7436" y2="21.8318" gradientUnits="userSpaceOnUse">
<stop stop-color="white"/>
<stop offset="1" stop-color="white"/>
</linearGradient>
<linearGradient id="paint14_linear_546_937" x1="9.54888" y1="21.8318" x2="11.5258" y2="21.8318" gradientUnits="userSpaceOnUse">
<stop stop-color="white"/>
<stop offset="1" stop-color="white"/>
</linearGradient>
<linearGradient id="paint15_linear_546_937" x1="38.9912" y1="27.9991" x2="40.9731" y2="27.9991" gradientUnits="userSpaceOnUse">
<stop stop-color="white"/>
<stop offset="1" stop-color="white"/>
</linearGradient>
<linearGradient id="paint16_linear_546_937" x1="6.50781" y1="27.9991" x2="8.48472" y2="27.9991" gradientUnits="userSpaceOnUse">
<stop stop-color="white"/>
<stop offset="1" stop-color="white"/>
</linearGradient>
<linearGradient id="paint17_linear_546_937" x1="36.9258" y1="34.0882" x2="38.9076" y2="34.0882" gradientUnits="userSpaceOnUse">
<stop stop-color="white"/>
<stop offset="1" stop-color="white"/>
</linearGradient>
<linearGradient id="paint18_linear_546_937" x1="8.60742" y1="34.0882" x2="10.5893" y2="34.0882" gradientUnits="userSpaceOnUse">
<stop stop-color="white"/>
<stop offset="1" stop-color="white"/>
</linearGradient>
<linearGradient id="paint19_linear_546_937" x1="22.6583" y1="18.2183" x2="24.6352" y2="18.2183" gradientUnits="userSpaceOnUse">
<stop stop-color="white"/>
<stop offset="1" stop-color="white"/>
</linearGradient>
<linearGradient id="paint20_linear_546_937" x1="30.1123" y1="23.6336" x2="32.0941" y2="23.6336" gradientUnits="userSpaceOnUse">
<stop stop-color="white"/>
<stop offset="1" stop-color="white"/>
</linearGradient>
<linearGradient id="paint21_linear_546_937" x1="27.376" y1="32.2669" x2="29.3578" y2="32.2669" gradientUnits="userSpaceOnUse">
<stop stop-color="white"/>
<stop offset="1" stop-color="white"/>
</linearGradient>
<linearGradient id="paint22_linear_546_937" x1="30.6943" y1="37.1109" x2="32.6762" y2="37.1109" gradientUnits="userSpaceOnUse">
<stop stop-color="white"/>
<stop offset="1" stop-color="white"/>
</linearGradient>
<linearGradient id="paint23_linear_546_937" x1="25.8926" y1="41.8863" x2="27.8744" y2="41.8863" gradientUnits="userSpaceOnUse">
<stop stop-color="white"/>
<stop offset="1" stop-color="white"/>
</linearGradient>
<linearGradient id="paint24_linear_546_937" x1="19.6064" y1="41.8863" x2="21.5883" y2="41.8863" gradientUnits="userSpaceOnUse">
<stop stop-color="white"/>
<stop offset="1" stop-color="white"/>
</linearGradient>
<linearGradient id="paint25_linear_546_937" x1="18.1172" y1="32.2669" x2="20.099" y2="32.2669" gradientUnits="userSpaceOnUse">
<stop stop-color="white"/>
<stop offset="1" stop-color="white"/>
</linearGradient>
<linearGradient id="paint26_linear_546_937" x1="14.5381" y1="37.1109" x2="16.5199" y2="37.1109" gradientUnits="userSpaceOnUse">
<stop stop-color="white"/>
<stop offset="1" stop-color="white"/>
</linearGradient>
<linearGradient id="paint27_linear_546_937" x1="15.1992" y1="23.6336" x2="17.1761" y2="23.6336" gradientUnits="userSpaceOnUse">
<stop stop-color="white"/>
<stop offset="1" stop-color="white"/>
</linearGradient>
<linearGradient id="paint28_linear_546_937" x1="90.292" y1="15.401" x2="90.292" y2="30.1525" gradientUnits="userSpaceOnUse">
<stop stop-color="white"/>
<stop offset="0.15" stop-color="#F2F2F2"/>
<stop offset="0.44" stop-color="#CECED2"/>
<stop offset="0.82" stop-color="#95969D"/>
<stop offset="1" stop-color="#777881"/>
</linearGradient>
<linearGradient id="paint29_linear_546_937" x1="90.2917" y1="15.401" x2="90.2917" y2="30.1525" gradientUnits="userSpaceOnUse">
<stop stop-color="white"/>
<stop offset="0.15" stop-color="#F2F2F2"/>
<stop offset="0.44" stop-color="#CECED2"/>
<stop offset="0.82" stop-color="#95969D"/>
<stop offset="1" stop-color="#777881"/>
</linearGradient>
<linearGradient id="paint30_linear_546_937" x1="90.2921" y1="15.401" x2="90.2921" y2="30.1525" gradientUnits="userSpaceOnUse">
<stop stop-color="white"/>
<stop offset="0.15" stop-color="#F2F2F2"/>
<stop offset="0.44" stop-color="#CECED2"/>
<stop offset="0.82" stop-color="#95969D"/>
<stop offset="1" stop-color="#777881"/>
</linearGradient>
<linearGradient id="paint31_linear_546_937" x1="90.2921" y1="15.401" x2="90.2921" y2="30.1525" gradientUnits="userSpaceOnUse">
<stop stop-color="white"/>
<stop offset="0.15" stop-color="#F2F2F2"/>
<stop offset="0.44" stop-color="#CECED2"/>
<stop offset="0.82" stop-color="#95969D"/>
<stop offset="1" stop-color="#777881"/>
</linearGradient>
<linearGradient id="paint32_linear_546_937" x1="90.2922" y1="15.401" x2="90.2922" y2="30.1525" gradientUnits="userSpaceOnUse">
<stop stop-color="white"/>
<stop offset="0.15" stop-color="#F2F2F2"/>
<stop offset="0.44" stop-color="#CECED2"/>
<stop offset="0.82" stop-color="#95969D"/>
<stop offset="1" stop-color="#777881"/>
</linearGradient>
<linearGradient id="paint33_linear_546_937" x1="90.2921" y1="15.401" x2="90.2921" y2="30.1525" gradientUnits="userSpaceOnUse">
<stop stop-color="white"/>
<stop offset="0.15" stop-color="#F2F2F2"/>
<stop offset="0.44" stop-color="#CECED2"/>
<stop offset="0.82" stop-color="#95969D"/>
<stop offset="1" stop-color="#777881"/>
</linearGradient>
<linearGradient id="paint34_linear_546_937" x1="90.2921" y1="32.7794" x2="90.2921" y2="41.1831" gradientUnits="userSpaceOnUse">
<stop stop-color="white"/>
<stop offset="0.15" stop-color="#F2F2F2"/>
<stop offset="0.44" stop-color="#CECED2"/>
<stop offset="0.82" stop-color="#95969D"/>
<stop offset="1" stop-color="#777881"/>
</linearGradient>
<linearGradient id="paint35_linear_546_937" x1="90.292" y1="32.7796" x2="90.292" y2="41.1832" gradientUnits="userSpaceOnUse">
<stop stop-color="white"/>
<stop offset="0.15" stop-color="#F2F2F2"/>
<stop offset="0.44" stop-color="#CECED2"/>
<stop offset="0.82" stop-color="#95969D"/>
<stop offset="1" stop-color="#777881"/>
</linearGradient>
<linearGradient id="paint36_linear_546_937" x1="90.2925" y1="32.7796" x2="90.2925" y2="41.1832" gradientUnits="userSpaceOnUse">
<stop stop-color="white"/>
<stop offset="0.15" stop-color="#F2F2F2"/>
<stop offset="0.44" stop-color="#CECED2"/>
<stop offset="0.82" stop-color="#95969D"/>
<stop offset="1" stop-color="#777881"/>
</linearGradient>
<linearGradient id="paint37_linear_546_937" x1="90.2922" y1="32.7795" x2="90.2922" y2="41.1831" gradientUnits="userSpaceOnUse">
<stop stop-color="white"/>
<stop offset="0.15" stop-color="#F2F2F2"/>
<stop offset="0.44" stop-color="#CECED2"/>
<stop offset="0.82" stop-color="#95969D"/>
<stop offset="1" stop-color="#777881"/>
</linearGradient>
<linearGradient id="paint38_linear_546_937" x1="90.2917" y1="32.7795" x2="90.2917" y2="41.1831" gradientUnits="userSpaceOnUse">
<stop stop-color="white"/>
<stop offset="0.15" stop-color="#F2F2F2"/>
<stop offset="0.44" stop-color="#CECED2"/>
<stop offset="0.82" stop-color="#95969D"/>
<stop offset="1" stop-color="#777881"/>
</linearGradient>
<linearGradient id="paint39_linear_546_937" x1="90.2918" y1="32.7796" x2="90.2918" y2="41.1833" gradientUnits="userSpaceOnUse">
<stop stop-color="white"/>
<stop offset="0.15" stop-color="#F2F2F2"/>
<stop offset="0.44" stop-color="#CECED2"/>
<stop offset="0.82" stop-color="#95969D"/>
<stop offset="1" stop-color="#777881"/>
</linearGradient>
<linearGradient id="paint40_linear_546_937" x1="90.2918" y1="32.7796" x2="90.2918" y2="41.1832" gradientUnits="userSpaceOnUse">
<stop stop-color="white"/>
<stop offset="0.15" stop-color="#F2F2F2"/>
<stop offset="0.44" stop-color="#CECED2"/>
<stop offset="0.82" stop-color="#95969D"/>
<stop offset="1" stop-color="#777881"/>
</linearGradient>
<linearGradient id="paint41_linear_546_937" x1="90.2923" y1="32.7796" x2="90.2923" y2="41.1832" gradientUnits="userSpaceOnUse">
<stop stop-color="white"/>
<stop offset="0.15" stop-color="#F2F2F2"/>
<stop offset="0.44" stop-color="#CECED2"/>
<stop offset="0.82" stop-color="#95969D"/>
<stop offset="1" stop-color="#777881"/>
</linearGradient>
<clipPath id="clip0_546_937">
<rect width="120" height="52.8" fill="white"/>
</clipPath>
</defs>
</svg>
