<svg width="85" height="111" viewBox="0 0 85 111" fill="none" xmlns="http://www.w3.org/2000/svg">
<path d="M52.9776 100.989L53.0127 88.1662L32.3394 88.2197L32.3067 101.044L52.9776 100.989ZM15.9585 35.4568L16.0138 14.2091L7.25801 14.2324C6.66732 14.2346 6.22173 14.7745 6.34749 15.3532C7.46813 20.514 10.1451 29.5872 16.0193 37.2644C15.9789 36.6687 15.9561 36.0668 15.9585 35.4568ZM42.7341 13.7064L38.3903 24.1283L27.1816 25.0587L35.7004 32.3718L33.0632 43.3457L42.6718 37.4437L52.2503 43.2954L49.6714 32.3358L58.2271 24.9777L47.0244 24.1064L42.7341 13.7064ZM78.4226 15.1646C78.5506 14.5858 78.1085 14.0481 77.5183 14.0495L68.7642 14.0717L68.7086 35.3181C68.7066 35.9274 68.6808 36.5293 68.6381 37.1249C74.5539 29.4178 77.276 20.3294 78.4226 15.1646ZM84.7969 9.612L84.5797 11.5925C84.4733 12.5585 81.82 35.1442 65.583 47.9682C60.1056 58.9999 52.8015 64.839 46.3267 68.8304L46.3102 75.1397L59.712 75.052C62.5675 75.0443 64.7379 77.3585 64.7315 80.0864L64.7126 86.9069L71.5302 86.8897C72.0474 86.8896 72.4654 87.308 72.4641 87.8264L72.4058 109.822C72.4059 109.988 72.3617 110.145 72.2857 110.28L72.2735 110.301C72.1099 110.577 71.8097 110.762 71.467 110.763L13.6314 110.915C13.1138 110.915 12.6962 110.496 12.6975 109.978L12.7538 87.9824C12.7556 87.4632 13.1757 87.0422 13.6925 87.0408L20.5102 87.0236L20.5266 80.3385C20.5344 77.4735 22.8521 75.2841 25.5721 75.2775L38.1498 75.194L38.1657 68.8518C31.0396 64.895 24.4394 59.0904 19.018 48.0916C2.84705 35.3504 0.310756 12.778 0.211635 11.8129L0.00513978 9.83317C-0.0525076 9.27857 0.382136 8.79315 0.938795 8.79196L16.029 8.75265L16.0492 1.07372C16.0505 0.555337 16.4711 0.133492 16.9879 0.132121L67.8644 1.45788e-06C68.382 -0.0009021 68.7996 0.418311 68.7983 0.936694L68.7775 8.61305L83.8688 8.57549C84.04 8.57441 84.1987 8.61932 84.3355 8.69833C84.644 8.87643 84.839 9.22684 84.7969 9.612Z" fill="white"/>
</svg>
