<svg width="134" height="133" viewBox="0 0 134 133" fill="none" xmlns="http://www.w3.org/2000/svg">
<path d="M67.2099 132.106C103.601 132.106 133.008 102.605 132.891 66.2143C132.775 29.8234 103.18 0.322815 66.7893 0.322815C30.3982 0.322815 0.991613 29.8234 1.10776 66.2143C1.2239 102.605 30.8188 132.106 67.2099 132.106Z" fill="url(#paint0_linear_666_1518)"/>
<path d="M67.189 125.587C99.9798 125.587 126.477 99.005 126.373 66.2143C126.268 33.4237 99.6009 6.84158 66.81 6.84158C34.0192 6.84158 7.52185 33.4237 7.6265 66.2143C7.73115 99.005 34.3982 125.587 67.189 125.587Z" fill="url(#paint1_linear_666_1518)"/>
<path d="M125.172 66.2134C125.172 77.683 121.76 88.8951 115.367 98.4316C108.974 107.968 99.8882 115.401 89.2576 119.79C78.6271 124.179 66.9296 125.327 55.6445 123.089C44.3594 120.851 33.9936 115.327 25.8578 107.216C17.7221 99.1057 12.1819 88.7723 9.9379 77.5229C7.69388 66.2735 8.84683 54.6135 13.2509 44.0173C17.6551 33.4211 25.1125 24.3647 34.6802 17.9934C44.248 11.6221 55.4962 8.22208 67.0025 8.2233C82.4305 8.22493 97.2261 14.3353 108.135 25.2104C119.043 36.0855 125.172 50.8345 125.172 66.2134V66.2134Z" fill="url(#paint2_radial_666_1518)"/>
<path d="M24.668 105.985L66.9965 66.2134L11.2695 82.8542C13.8661 91.5 18.4544 99.421 24.668 105.985V105.985Z" fill="url(#paint3_linear_666_1518)"/>
<path d="M67.0026 124.197C71.5097 124.2 76.0018 123.681 80.3887 122.65L66.9965 66.2134L53.6104 122.65C57.9993 123.681 62.4935 124.2 67.0026 124.197V124.197Z" fill="url(#paint4_linear_666_1518)"/>
<path d="M122.73 82.8727L66.9966 66.2319L109.331 105.997C115.546 99.4366 120.135 91.5173 122.73 82.8727Z" fill="url(#paint5_linear_666_1518)"/>
<path d="M109.331 26.4419L66.9966 66.2134L122.73 49.5726C120.132 40.9274 115.544 33.0066 109.331 26.4419V26.4419Z" fill="url(#paint6_linear_666_1518)"/>
<path d="M11.2695 49.548L66.9965 66.1888L24.668 26.4419C18.4588 32.9996 13.8709 40.9115 11.2695 49.548V49.548Z" fill="url(#paint7_linear_666_1518)"/>
<path d="M67.0026 8.22328C62.4935 8.2205 57.9993 8.73964 53.6104 9.77026L66.9965 66.2134L80.3887 9.77026C76.0018 8.73995 71.5097 8.22081 67.0026 8.22328V8.22328Z" fill="url(#paint8_linear_666_1518)"/>
<path d="M65.4443 24.1183H69.4942V25.2647H66.3285V26.0104H65.4443V24.1183Z" fill="white"/>
<path d="M69.3274 22.6576C69.15 22.9299 68.8963 23.1442 68.5978 23.274C68.2431 23.4353 67.856 23.5133 67.4663 23.502C67.0767 23.512 66.6899 23.434 66.3348 23.274C66.0392 23.1422 65.788 22.9282 65.6114 22.6576C65.4435 22.3787 65.3578 22.0584 65.3641 21.7332C65.3576 21.4099 65.4434 21.0914 65.6114 20.8148C65.7864 20.5428 66.038 20.3284 66.3348 20.1985C66.6899 20.0384 67.0767 19.9605 67.4663 19.9705C67.856 19.9592 68.2431 20.0372 68.5978 20.1985C68.8975 20.3264 69.1517 20.5411 69.3274 20.8148C69.4927 21.0926 69.5782 21.4102 69.5747 21.7332C69.5781 22.058 69.4926 22.3776 69.3274 22.6576V22.6576ZM68.3567 21.2771C67.7876 21.0472 67.1512 21.0472 66.5822 21.2771C66.4961 21.3192 66.4235 21.3846 66.3728 21.4658C66.3221 21.5469 66.2952 21.6406 66.2952 21.7362C66.2952 21.8319 66.3221 21.9256 66.3728 22.0067C66.4235 22.0879 66.4961 22.1532 66.5822 22.1954C67.1512 22.4253 67.7876 22.4253 68.3567 22.1954C68.4409 22.1517 68.5115 22.0857 68.5608 22.0048C68.6101 21.9238 68.6361 21.8309 68.6361 21.7362C68.6361 21.6415 68.6101 21.5487 68.5608 21.4677C68.5115 21.3868 68.4409 21.3208 68.3567 21.2771Z" fill="white"/>
<path d="M69.0987 16.4944C69.3516 16.768 69.5079 17.1164 69.5439 17.4867H70.1622V18.1831H69.5439C69.5273 18.4592 69.4775 18.7324 69.3955 18.9967C69.3299 19.2154 69.2319 19.4231 69.1049 19.613L68.2579 19.237C68.3852 19.0473 68.4832 18.8395 68.5485 18.6207C68.6215 18.3936 68.659 18.1566 68.6597 17.9181C68.6597 17.4805 68.5485 17.2648 68.3259 17.2648C68.2696 17.2657 68.215 17.284 68.1696 17.3171C68.1242 17.3502 68.0903 17.3965 68.0724 17.4497C67.9932 17.649 67.9332 17.8554 67.8931 18.066C67.8417 18.3235 67.7714 18.5769 67.6828 18.8241C67.6092 19.0259 67.4859 19.206 67.3242 19.348C67.1354 19.5035 66.8949 19.5827 66.6503 19.5699C66.4909 19.5728 66.3327 19.5425 66.1858 19.481C66.0388 19.4194 65.9064 19.3279 65.797 19.2124C65.5413 18.9266 65.3871 18.5649 65.358 18.1831H64.7397V17.4867H65.358C65.3762 17.2783 65.4135 17.072 65.4693 16.8703C65.5245 16.6814 65.6012 16.4994 65.6981 16.328L66.5452 16.6793C66.3518 17.0224 66.2456 17.4075 66.236 17.801C66.222 17.9713 66.2563 18.1422 66.335 18.2941C66.3611 18.3418 66.3995 18.3817 66.4462 18.4099C66.4929 18.438 66.5463 18.4534 66.6008 18.4543C66.6552 18.4518 66.7074 18.4327 66.7505 18.3996C66.7937 18.3666 66.8256 18.3211 66.842 18.2694C66.9193 18.0704 66.9753 17.8638 67.0089 17.6531C67.0625 17.3941 67.1327 17.1388 67.2191 16.8888C67.2943 16.6878 67.4174 16.5081 67.5777 16.365C67.7646 16.2103 68.0029 16.1312 68.2455 16.1431C68.4043 16.1401 68.562 16.1697 68.7088 16.2302C68.8556 16.2906 68.9883 16.3806 69.0987 16.4944Z" fill="white"/>
<path d="M65.3889 108.518H64.48V105.375H65.1972L66.6193 106.885C66.7189 107.003 66.8381 107.103 66.9717 107.181C67.0635 107.228 67.1651 107.253 67.2685 107.255C67.3272 107.258 67.3859 107.248 67.4398 107.225C67.4936 107.201 67.5409 107.165 67.5776 107.119C67.6588 107.009 67.6983 106.873 67.6889 106.737C67.6902 106.592 67.654 106.45 67.5838 106.324C67.5159 106.197 67.4157 106.091 67.2932 106.016L67.7693 105.165C68.0325 105.327 68.2463 105.557 68.3876 105.831C68.5427 106.145 68.6191 106.492 68.6102 106.842C68.6153 107.12 68.5648 107.396 68.4618 107.655C68.3746 107.878 68.2242 108.071 68.029 108.21C67.8473 108.336 67.6319 108.404 67.4107 108.407C67.1967 108.405 66.9857 108.357 66.7924 108.265C66.5419 108.124 66.318 107.941 66.1308 107.723L65.426 106.959L65.3889 108.518Z" fill="white"/>
<path d="M64.6469 109.708C64.8249 109.436 65.0784 109.222 65.3765 109.091C65.7321 108.933 66.1186 108.855 66.508 108.863C66.8973 108.856 67.2835 108.934 67.6395 109.091C67.9368 109.226 68.1876 109.445 68.3603 109.722C68.5331 109.998 68.62 110.319 68.6102 110.644C68.6167 110.968 68.5309 111.286 68.3629 111.563C68.1858 111.833 67.9348 112.047 67.6395 112.179C67.2835 112.336 66.8973 112.414 66.508 112.407C66.1186 112.415 65.7321 112.337 65.3765 112.179C65.0784 112.049 64.8249 111.834 64.6469 111.563C64.4841 111.282 64.3984 110.963 64.3984 110.638C64.3984 110.314 64.4841 109.995 64.6469 109.714V109.708ZM65.6177 111.088C65.8954 111.218 66.2019 111.276 66.508 111.254C66.814 111.273 67.1199 111.216 67.3984 111.088C67.4824 111.043 67.5527 110.977 67.6017 110.895C67.6507 110.814 67.6766 110.721 67.6766 110.626C67.6766 110.531 67.6507 110.438 67.6017 110.356C67.5527 110.275 67.4824 110.208 67.3984 110.164C67.1205 110.034 66.8145 109.974 66.508 109.991C66.2013 109.971 65.8946 110.031 65.6177 110.164C65.5336 110.208 65.4633 110.275 65.4143 110.356C65.3653 110.438 65.3394 110.531 65.3394 110.626C65.3394 110.721 65.3653 110.814 65.4143 110.895C65.4633 110.977 65.5336 111.043 65.6177 111.088V111.088Z" fill="white"/>
<path d="M64.8755 115.871C64.6218 115.595 64.4654 115.245 64.4303 114.872H63.812V114.182H64.4303C64.4469 113.904 64.4967 113.629 64.5787 113.362C64.648 113.145 64.7457 112.938 64.8693 112.746L65.7164 113.122C65.589 113.312 65.491 113.519 65.4258 113.738C65.3536 113.966 65.3161 114.202 65.3145 114.441C65.3145 114.878 65.4258 115.1 65.6484 115.1C65.7054 115.099 65.7605 115.08 65.806 115.046C65.8515 115.011 65.885 114.964 65.9019 114.909C65.9807 114.71 66.0407 114.503 66.0812 114.293C66.1318 114.033 66.2021 113.778 66.2914 113.529C66.3666 113.328 66.4897 113.148 66.65 113.005C66.8388 112.849 67.0793 112.77 67.3239 112.783C67.4831 112.781 67.6409 112.812 67.7876 112.874C67.9343 112.935 68.0669 113.026 68.1772 113.14C68.4341 113.428 68.5885 113.792 68.6162 114.176H69.2345V114.866H68.6162C68.5928 115.074 68.5535 115.28 68.4987 115.482C68.4463 115.67 68.3694 115.851 68.2699 116.019L67.4229 115.667C67.617 115.325 67.7232 114.939 67.732 114.546C67.7447 114.375 67.7105 114.205 67.6331 114.053C67.6066 114.006 67.568 113.967 67.5212 113.939C67.4745 113.912 67.4213 113.898 67.3672 113.898C67.3129 113.901 67.2606 113.92 67.2175 113.953C67.1744 113.986 67.1425 114.032 67.1261 114.083C67.0492 114.283 66.9932 114.489 66.9591 114.7C66.9056 114.959 66.8354 115.214 66.7489 115.464C66.6737 115.665 66.5506 115.845 66.3903 115.988C66.2034 116.142 65.9651 116.222 65.7225 116.21C65.5657 116.213 65.4097 116.185 65.264 116.127C65.1184 116.069 64.9862 115.982 64.8755 115.871V115.871Z" fill="white"/>
<path d="M108.088 44.5434L108.54 45.3261L105.801 46.9224L105.448 46.3061L106.067 44.3277C106.111 44.1694 106.126 44.0043 106.11 43.8408C106.107 43.7372 106.079 43.6359 106.029 43.5449C106.004 43.4919 105.966 43.4457 105.918 43.4103C105.871 43.375 105.816 43.3514 105.757 43.3415C105.62 43.3303 105.483 43.365 105.368 43.4402C105.241 43.5105 105.134 43.6124 105.059 43.736C104.983 43.8563 104.94 43.9945 104.935 44.1366H103.964C103.971 43.8299 104.063 43.531 104.23 43.2737C104.436 42.9913 104.708 42.7629 105.022 42.6081C105.262 42.4645 105.529 42.3702 105.807 42.3308C106.044 42.2953 106.287 42.3296 106.506 42.4294C106.717 42.5248 106.891 42.6873 107 42.8916C107.111 43.0793 107.174 43.2906 107.186 43.5079C107.192 43.7958 107.143 44.0822 107.043 44.3523L106.734 45.3384L108.088 44.5434Z" fill="white"/>
<path d="M111.303 43.2922C111.2 43.6455 110.982 43.9551 110.685 44.1736L111.007 44.7283L110.388 45.0734L110.079 44.5372C109.83 44.6621 109.566 44.7553 109.294 44.8145C109.064 44.874 108.826 44.8969 108.589 44.8823L108.496 43.964C108.729 43.9761 108.962 43.9553 109.189 43.9024C109.422 43.8489 109.647 43.7639 109.857 43.6497C110.234 43.4278 110.37 43.2244 110.265 43.0334C110.234 42.9842 110.19 42.9455 110.137 42.9224C110.083 42.8993 110.025 42.8928 109.968 42.9039C109.759 42.9389 109.552 42.9883 109.35 43.0519C109.099 43.1285 108.842 43.1862 108.583 43.2244C108.376 43.2575 108.164 43.2406 107.965 43.1751C107.737 43.0871 107.549 42.918 107.439 42.7005C107.36 42.5637 107.309 42.4124 107.29 42.2557C107.271 42.099 107.284 41.9401 107.328 41.7884C107.448 41.4231 107.687 41.1084 108.008 40.8947L107.692 40.3462L108.311 40.001L108.62 40.5372C108.819 40.4494 109.026 40.3793 109.238 40.3277C109.428 40.2802 109.623 40.2553 109.819 40.2537L109.937 41.1659C109.542 41.163 109.152 41.2606 108.805 41.4494C108.653 41.5258 108.523 41.6405 108.428 41.7822C108.401 41.8291 108.387 41.8822 108.387 41.9363C108.387 41.9904 108.401 42.0435 108.428 42.0904C108.457 42.1357 108.499 42.1712 108.549 42.1921C108.599 42.2131 108.654 42.2184 108.706 42.2075C108.917 42.1789 109.124 42.1294 109.325 42.0596C109.574 41.9724 109.831 41.9064 110.091 41.8623C110.299 41.8292 110.511 41.8461 110.71 41.9117C110.939 41.995 111.127 42.1626 111.235 42.3801C111.311 42.5187 111.356 42.6716 111.367 42.8289C111.379 42.9861 111.357 43.144 111.303 43.2922V43.2922Z" fill="white"/>
<path d="M30.7707 88.6415L28.7612 85.1346L29.7505 84.5676L31.3272 87.3041L31.9764 86.9343L32.4215 87.6985L30.7707 88.6415Z" fill="white"/>
<path d="M26.9307 88.7401C26.7564 88.7063 26.5923 88.6332 26.4508 88.5264C26.3094 88.4195 26.1943 88.2818 26.1145 88.1238C25.9874 87.9041 25.9279 87.6521 25.9433 87.399C25.9587 87.1459 26.0483 86.9028 26.2011 86.7001C26.4058 86.4411 26.6655 86.2307 26.9616 86.0837C27.2089 85.9416 27.4725 85.8298 27.7468 85.7509C27.9971 85.6754 28.2583 85.6421 28.5197 85.6523L28.5939 86.6015C28.3865 86.5839 28.1776 86.6005 27.9756 86.6508C27.7802 86.694 27.5925 86.7668 27.4191 86.8665C27.2739 86.944 27.1522 87.059 27.0667 87.1993C27.0346 87.2534 27.0177 87.3152 27.0177 87.378C27.0177 87.4409 27.0346 87.5026 27.0667 87.5568C27.0949 87.6122 27.1384 87.6585 27.192 87.6901C27.2457 87.7218 27.3073 87.7375 27.3697 87.7355C27.5782 87.7122 27.7778 87.6381 27.9509 87.5198L28.903 86.9774L29.9047 89.1222L27.6664 90.4042L27.2274 89.6399L28.6804 88.8326L28.4331 88.2902L28.1982 88.4258C27.825 88.6738 27.3769 88.7849 26.9307 88.7401V88.7401Z" fill="white"/>
<path d="M22.708 89.0483C22.8142 88.6961 23.0309 88.3872 23.3263 88.1669L23.0047 87.6122L23.623 87.2671L23.9322 87.8033C24.1818 87.6782 24.4453 87.583 24.7174 87.5198C24.946 87.465 25.1814 87.4442 25.4161 87.4581L25.515 88.3703C25.2821 88.3603 25.049 88.3831 24.8225 88.4381C24.5871 88.4839 24.3613 88.5693 24.1548 88.6908C23.7714 88.9086 23.6354 89.114 23.7467 89.3071C23.776 89.3557 23.8196 89.3942 23.8716 89.4173C23.9236 89.4405 23.9814 89.4472 24.0373 89.4366C24.2478 89.4078 24.4549 89.3583 24.6556 89.2886C24.9066 89.2065 25.1627 89.1407 25.4223 89.0914C25.6299 89.0605 25.8419 89.0795 26.0406 89.1469C26.2669 89.2344 26.4537 89.4008 26.5661 89.6153C26.648 89.7521 26.7002 89.9045 26.7194 90.0627C26.7386 90.2209 26.7243 90.3813 26.6774 90.5336C26.5599 90.9003 26.3199 91.2157 25.9973 91.4273L26.3126 91.9758L25.6943 92.321L25.3852 91.7786C25.1864 91.8699 24.9794 91.9421 24.7669 91.9943C24.5768 92.0418 24.3817 92.0667 24.1857 92.0683L24.0682 91.1561C24.464 91.1571 24.8534 91.0574 25.1997 90.8664C25.3552 90.7919 25.4876 90.6769 25.583 90.5336C25.6102 90.4879 25.6246 90.4358 25.6246 90.3826C25.6246 90.3295 25.6102 90.2773 25.583 90.2316C25.5561 90.1842 25.5143 90.147 25.4639 90.1258C25.4136 90.1046 25.3576 90.1007 25.3048 90.1145C25.0941 90.1421 24.8868 90.1916 24.6865 90.2624C24.4332 90.3439 24.1751 90.4098 23.9136 90.4597C23.7065 90.4925 23.4946 90.4756 23.2953 90.4103C23.0678 90.3249 22.8804 90.1578 22.7698 89.9419C22.6312 89.664 22.6089 89.3426 22.708 89.0483Z" fill="white"/>
<path d="M107.612 88.1176L105.566 91.5998L104.577 91.0205L106.178 88.3025L105.529 87.9204L105.974 87.1623L107.612 88.1176Z" fill="white"/>
<path d="M108.948 93.1468C108.582 93.2298 108.199 93.1886 107.86 93.0297L107.538 93.5844L106.92 93.2331L107.229 92.7031C107.003 92.5462 106.796 92.3643 106.611 92.1607C106.445 91.9921 106.308 91.7987 106.203 91.5875L106.951 91.0452C107.055 91.2536 107.19 91.4448 107.353 91.6122C107.512 91.791 107.698 91.9447 107.903 92.0683C108.286 92.284 108.521 92.3025 108.639 92.1176C108.673 92.0711 108.691 92.015 108.691 91.9573C108.691 91.8997 108.673 91.8436 108.639 91.7971C108.509 91.6316 108.365 91.4789 108.206 91.341C108.009 91.165 107.826 90.9755 107.656 90.774C107.519 90.6082 107.425 90.4113 107.384 90.2008C107.345 89.9603 107.398 89.714 107.532 89.5105C107.611 89.3727 107.718 89.2524 107.846 89.1571C107.973 89.0617 108.119 88.9932 108.274 88.9558C108.651 88.8815 109.042 88.9335 109.387 89.1037L109.708 88.5552L110.327 88.9065L110.011 89.4427C110.188 89.5659 110.351 89.7062 110.5 89.8618C110.638 90.0013 110.757 90.1589 110.852 90.3302L110.116 90.8849C109.923 90.5409 109.644 90.2522 109.306 90.0467C109.165 89.9518 109.001 89.8964 108.83 89.8865C108.776 89.8851 108.722 89.898 108.674 89.924C108.627 89.95 108.587 89.988 108.558 90.0344C108.532 90.0822 108.521 90.1371 108.528 90.1914C108.534 90.2456 108.558 90.2964 108.595 90.3364C108.727 90.4958 108.872 90.6443 109.028 90.7801C109.225 90.9561 109.409 91.1456 109.579 91.3472C109.715 91.5129 109.809 91.7098 109.851 91.9203C109.894 92.1601 109.843 92.4075 109.708 92.6106C109.627 92.7484 109.517 92.8675 109.386 92.9599C109.255 93.0523 109.105 93.116 108.948 93.1468V93.1468Z" fill="white"/>
<path d="M26.4053 44.2414L28.458 40.7591L29.4473 41.3323L27.8459 44.0565L28.4642 44.4324L28.0128 45.1967L26.4053 44.2414Z" fill="white"/>
<path d="M25.0759 39.2368C25.4397 39.1571 25.8197 39.1982 26.1579 39.3539L26.4856 38.8054L27.1039 39.1505L26.7886 39.6867C27.016 39.8419 27.2236 40.024 27.4069 40.2291C27.5702 40.3993 27.7077 40.5924 27.8149 40.8023L27.0606 41.3385C26.846 40.9166 26.5159 40.564 26.1085 40.3215C25.7313 40.0996 25.4902 40.0812 25.3727 40.2722C25.3416 40.3188 25.325 40.3734 25.325 40.4294C25.325 40.4853 25.3416 40.54 25.3727 40.5865C25.5037 40.7505 25.6485 40.9031 25.8055 41.0426C26.0022 41.2204 26.188 41.4097 26.362 41.6096C26.4977 41.7784 26.591 41.977 26.634 42.189C26.6664 42.4301 26.6116 42.6748 26.4794 42.8793C26.4008 43.0171 26.2942 43.1371 26.1665 43.2315C26.0387 43.326 25.8926 43.3928 25.7375 43.4278C25.3605 43.5075 24.9674 43.4553 24.6245 43.2799L24.303 43.8284L23.6847 43.4771L24.0001 42.9409C23.8234 42.818 23.6598 42.6776 23.5116 42.5218C23.3759 42.3824 23.2575 42.2272 23.1592 42.0596L23.895 41.5049C24.0903 41.8458 24.3689 42.132 24.7049 42.3369C24.8471 42.4359 25.014 42.4936 25.1872 42.5033C25.2408 42.5049 25.2938 42.492 25.3406 42.4659C25.3874 42.4399 25.4263 42.4017 25.4531 42.3554C25.4796 42.3076 25.4904 42.2526 25.4837 42.1984C25.4771 42.1441 25.4533 42.0934 25.416 42.0534C25.2899 41.8908 25.1469 41.7421 24.9893 41.6096C24.7893 41.4332 24.6032 41.2416 24.4329 41.0365C24.2961 40.8707 24.2027 40.6738 24.1608 40.4633C24.1223 40.2247 24.1753 39.9805 24.3092 39.7792C24.3912 39.6398 24.5019 39.5193 24.6341 39.4258C24.7662 39.3323 24.9168 39.2679 25.0759 39.2368Z" fill="white"/>
<path d="M86.9737 34.9349L87.7589 35.3909L85.9411 38.5219L85.3228 38.1583L84.247 35.2122L83.233 36.9009L82.4663 36.4449L84.2099 33.4372L84.8282 33.7947L85.8979 36.7654L86.9737 34.9349Z" fill="url(#paint9_linear_666_1518)"/>
<path d="M88.8777 31.7115L89.6444 32.1491L88.0121 34.9533L84.5063 32.9318L86.1016 30.1891L86.8682 30.6329L85.8419 32.3956L86.4602 32.7346L87.3567 31.1876L88.0986 31.6129L87.1959 33.166L87.8142 33.5358L88.8777 31.7115Z" fill="url(#paint10_linear_666_1518)"/>
<path d="M89.9167 29.5359L89.6076 30.0782L90.535 30.6144L89.96 31.6005L86.4604 29.579L87.3879 27.9827C87.5393 27.6971 87.7501 27.4471 88.0062 27.2493C88.2263 27.0834 88.4911 26.9868 88.7667 26.9719C89.0476 26.961 89.3253 27.0339 89.5643 27.1815C89.8018 27.3082 89.9972 27.5009 90.1269 27.7362C90.2464 27.9723 90.2977 28.2369 90.2753 28.5004L91.8149 28.3833L91.1966 29.4434L89.9167 29.5359ZM88.5317 28.1121C88.3556 28.1865 88.2126 28.3223 88.1298 28.4943L87.8145 29.0428L88.8409 29.6591L89.1562 29.1106C89.265 28.9541 89.3133 28.7636 89.2922 28.5744C89.2754 28.4955 89.2411 28.4215 89.1919 28.3575C89.1427 28.2935 89.0798 28.2413 89.0078 28.2046C88.9406 28.1544 88.8629 28.1199 88.7804 28.1039C88.698 28.0879 88.613 28.0907 88.5317 28.1121V28.1121Z" fill="url(#paint11_linear_666_1518)"/>
<path d="M92.3897 27.052C92.069 27.2532 91.6991 27.3628 91.3202 27.3689C90.9414 27.375 90.5681 27.2774 90.241 27.0868C89.9139 26.8961 89.6456 26.6197 89.4652 26.2875C89.2848 25.9554 89.1992 25.5803 89.2178 25.2031C89.233 24.8024 89.35 24.4122 89.5579 24.069C89.7563 23.7217 90.0364 23.4277 90.3741 23.2123C90.6151 23.0663 90.8832 22.9701 91.1624 22.9295C91.4416 22.8889 91.7261 22.9047 91.999 22.976C92.2719 23.0473 92.5276 23.1727 92.7508 23.3446C92.9741 23.5165 93.1604 23.7314 93.2986 23.9766C93.4766 24.303 93.5621 24.6716 93.5459 25.0428C93.5266 25.4427 93.4099 25.832 93.2058 26.1768C93.0099 26.5309 92.7296 26.8314 92.3897 27.052ZM92.5381 25.1661C92.5335 24.9724 92.478 24.7833 92.3773 24.6175C92.2637 24.4405 92.1099 24.2925 91.9284 24.1855C91.7469 24.0784 91.5428 24.0153 91.3324 24.0012C91.1389 23.9948 90.9473 24.0421 90.7792 24.1379C90.6111 24.2336 90.4729 24.3741 90.3802 24.5436C90.2792 24.7111 90.2258 24.9028 90.2257 25.0983C90.2252 25.2899 90.2788 25.4779 90.3802 25.6406C90.4919 25.8184 90.6473 25.9647 90.8316 26.0659C91.0182 26.1789 91.2316 26.2405 91.4499 26.2446C91.6424 26.2512 91.8329 26.2042 92.0002 26.1091C92.1708 26.013 92.3119 25.8724 92.4082 25.7023C92.4964 25.5374 92.5411 25.3529 92.5381 25.1661V25.1661Z" fill="url(#paint12_linear_666_1518)"/>
<path d="M53.9442 83.7355C54.1421 83.5811 54.3762 83.4793 54.6243 83.4397L54.952 84.3519C54.8096 84.3561 54.6703 84.3941 54.5456 84.4627C54.4209 84.5313 54.3143 84.6285 54.2348 84.7463C54.1961 84.8023 54.1705 84.8663 54.1598 84.9335C54.1491 85.0007 54.1536 85.0694 54.173 85.1346C54.2329 85.2788 54.3425 85.3968 54.4821 85.4674L56.0279 86.3672L56.7327 85.1346L57.4994 85.5783L56.2257 87.7601L54.0122 86.4843C53.82 86.3915 53.6483 86.2613 53.5071 86.1015C53.3659 85.9417 53.2581 85.7555 53.1899 85.5537C53.1489 85.347 53.1496 85.1343 53.1921 84.9279C53.2345 84.7216 53.3179 84.5257 53.4372 84.3519C53.564 84.1153 53.7363 83.9059 53.9442 83.7355V83.7355Z" fill="url(#paint13_linear_666_1518)"/>
<path d="M51.6998 89.0729L52.553 87.5937L52.0336 86.9281L52.6519 85.9173L55.2611 89.4859L54.6923 90.4596L50.29 89.9789L50.9083 88.9558L51.6998 89.0729ZM52.5963 89.2023L53.9813 89.4057L53.1157 88.3087L52.5963 89.2023Z" fill="url(#paint14_linear_666_1518)"/>
<path d="M49.8449 91.0637C50.1569 90.8636 50.5189 90.7547 50.8899 90.7493C51.2666 90.7557 51.6352 90.8589 51.9602 91.049C52.2851 91.239 52.5554 91.5094 52.7448 91.8341C52.9277 92.1588 53.0155 92.5283 52.9983 92.9003C52.9734 93.2676 52.8701 93.6253 52.6952 93.9495C52.5203 94.2737 52.2779 94.5569 51.9842 94.7801C51.7309 94.9666 51.436 95.0892 51.1248 95.1376L50.9146 94.1823C51.2014 94.1421 51.4649 94.0029 51.6592 93.7889C51.8536 93.5749 51.9664 93.2997 51.9781 93.0112C51.9787 92.8176 51.9252 92.6277 51.8235 92.4627C51.711 92.2873 51.5557 92.1431 51.3721 92.0436C51.1848 91.9313 50.9722 91.8677 50.7538 91.8587C50.5586 91.8522 50.3656 91.9014 50.1974 92.0005C49.9535 92.1541 49.7711 92.3879 49.6819 92.6614C49.5927 92.9349 49.6023 93.2309 49.7089 93.4981L48.7753 93.794C48.6586 93.5028 48.6182 93.1867 48.6578 92.8757C48.7104 92.5054 48.844 92.1511 49.0491 91.838C49.2543 91.5249 49.5259 91.2605 49.8449 91.0637Z" fill="url(#paint15_linear_666_1518)"/>
<path d="M48.4414 95.9758L48.2621 95.3594L47.3718 94.8725L47.9406 93.8926L51.4464 95.9203L50.8775 96.8941L49.4183 96.0559L50.0923 98.25L49.474 99.3347L48.7568 97.0112L45.9312 97.3871L46.5927 96.2284L48.4414 95.9758Z" fill="url(#paint16_linear_666_1518)"/>
<path d="M47.7118 101.997C47.4885 102.163 47.2225 102.261 46.9451 102.281C46.6656 102.284 46.3903 102.212 46.1486 102.072C45.9069 101.932 45.7078 101.73 45.5725 101.486C45.4514 101.237 45.4042 100.959 45.4364 100.684C45.4802 100.362 45.5896 100.051 45.758 99.7723L46.1166 99.156L45.1953 98.626L45.7703 97.6398L49.2761 99.6614L48.3486 101.264C48.1906 101.55 47.9736 101.8 47.7118 101.997V101.997ZM46.4381 100.697C46.456 100.777 46.4913 100.852 46.5415 100.917C46.5917 100.982 46.6556 101.035 46.7287 101.073C46.7971 101.118 46.875 101.147 46.9565 101.158C47.0379 101.169 47.1207 101.161 47.1986 101.134C47.3744 101.063 47.5174 100.929 47.6005 100.758L47.922 100.21L46.8956 99.5936L46.5741 100.142C46.464 100.305 46.4158 100.502 46.4381 100.697V100.697Z" fill="url(#paint17_linear_666_1518)"/>
<path d="M43.3528 102.182C43.6693 101.982 44.0353 101.873 44.41 101.868C44.7907 101.863 45.1653 101.963 45.4921 102.158C45.8192 102.34 46.089 102.61 46.2714 102.936C46.4537 103.263 46.5414 103.633 46.5246 104.006C46.5084 104.407 46.3915 104.797 46.1846 105.141C45.9862 105.488 45.7061 105.782 45.3684 105.997C45.0487 106.197 44.6791 106.303 44.3018 106.303C43.9246 106.303 43.555 106.197 43.2353 105.997C42.9075 105.815 42.6368 105.546 42.4534 105.219C42.27 104.893 42.1811 104.522 42.1965 104.148C42.2168 103.75 42.3335 103.363 42.5366 103.02C42.7374 102.68 43.0173 102.392 43.3528 102.182V102.182ZM43.2044 104.068C43.2051 104.26 43.2609 104.449 43.3651 104.611C43.476 104.79 43.6314 104.939 43.8165 105.042C44.0031 105.155 44.2165 105.217 44.4348 105.221C44.6268 105.223 44.8163 105.177 44.9851 105.085C45.1511 104.985 45.2893 104.845 45.387 104.678C45.4879 104.511 45.5414 104.319 45.5415 104.124C45.542 103.932 45.4884 103.744 45.387 103.581C45.2752 103.404 45.1199 103.257 44.9356 103.156C44.7489 103.043 44.5356 102.981 44.3173 102.977C44.1247 102.97 43.934 103.017 43.767 103.113C43.5964 103.209 43.4553 103.349 43.3589 103.52C43.2601 103.686 43.2068 103.875 43.2044 104.068V104.068Z" fill="url(#paint18_linear_666_1518)"/>
<path d="M43.4951 107.809L44.1134 106.737L44.8986 107.193L43.0808 110.318L42.2956 109.868L42.9139 108.795L40.1934 107.23L40.7684 106.238L43.4951 107.809Z" fill="url(#paint19_linear_666_1518)"/>
<path d="M109.059 66.6448C109.192 66.7585 109.298 66.9006 109.369 67.0607C109.439 67.2207 109.473 67.3946 109.467 67.5693C109.465 67.813 109.397 68.0516 109.269 68.2596C109.119 68.4848 108.903 68.6589 108.651 68.7588C108.341 68.8915 108.005 68.9526 107.668 68.9376C107.382 68.9365 107.098 68.9013 106.821 68.8328C106.567 68.7705 106.325 68.6686 106.104 68.5308L106.518 67.6741C106.68 67.786 106.86 67.8713 107.05 67.9268C107.24 67.9845 107.438 68.0157 107.637 68.0192C107.803 68.0273 107.968 67.9888 108.113 67.9083C108.167 67.8762 108.212 67.8301 108.243 67.7748C108.273 67.7195 108.288 67.657 108.286 67.594C108.29 67.5321 108.277 67.4703 108.248 67.4157C108.218 67.3611 108.173 67.3161 108.119 67.2858C107.925 67.2013 107.712 67.1653 107.501 67.181H106.4L106.611 64.8205H109.195V65.708H107.563L107.507 66.3243H107.779C108.231 66.2712 108.686 66.3852 109.059 66.6448V66.6448Z" fill="url(#paint20_linear_666_1518)"/>
<path d="M110.648 68.728C110.376 68.5525 110.161 68.3019 110.03 68.0069C109.868 67.6513 109.792 67.263 109.807 66.8728C109.8 66.4867 109.878 66.1036 110.036 65.7511C110.166 65.4551 110.381 65.2041 110.654 65.03C110.931 64.8619 111.251 64.7764 111.575 64.7835C111.902 64.7752 112.225 64.8639 112.501 65.0384C112.777 65.2129 112.995 65.4652 113.127 65.7634C113.283 66.1188 113.359 66.5037 113.35 66.8913C113.359 67.2803 113.279 67.6661 113.115 68.0192C112.982 68.3135 112.768 68.5638 112.497 68.7403C112.22 68.9086 111.9 68.9921 111.575 68.9807C111.248 68.9878 110.926 68.9 110.648 68.728V68.728ZM112.039 67.7727C112.27 67.2055 112.27 66.571 112.039 66.0038C111.997 65.9185 111.932 65.8466 111.851 65.7965C111.77 65.7463 111.677 65.7199 111.582 65.7203C111.486 65.7199 111.391 65.7454 111.308 65.7942C111.226 65.8431 111.158 65.9134 111.112 65.9976C110.979 66.2718 110.92 66.5753 110.939 66.879C110.911 67.1845 110.969 67.4917 111.106 67.7665C111.15 67.8514 111.216 67.9227 111.298 67.9727C111.38 68.0227 111.473 68.0494 111.569 68.05C111.666 68.0526 111.761 68.0279 111.844 67.9788C111.927 67.9298 111.995 67.8583 112.039 67.7727Z" fill="url(#paint21_linear_666_1518)"/>
<path d="M116.837 68.5308C116.561 68.7841 116.209 68.94 115.836 68.9745V69.5908H115.137V68.9745C114.86 68.9579 114.586 68.9083 114.321 68.8266C114.101 68.7593 113.893 68.6595 113.703 68.5308L114.086 67.6926C114.278 67.8166 114.486 67.914 114.704 67.9822C114.932 68.0541 115.17 68.0915 115.409 68.0932C115.854 68.0932 116.071 67.9884 116.071 67.7665C116.071 67.7102 116.053 67.6554 116.019 67.61C115.986 67.5645 115.939 67.5309 115.885 67.5138C115.685 67.4353 115.478 67.3754 115.267 67.3351C115.007 67.28 114.751 67.2079 114.5 67.1194C114.297 67.0442 114.116 66.9192 113.975 66.7558C113.823 66.5655 113.746 66.3267 113.758 66.084C113.758 65.9259 113.791 65.7695 113.854 65.6244C113.916 65.4792 114.008 65.3483 114.123 65.2396C114.409 64.9807 114.776 64.8283 115.162 64.8082V64.1918H115.86V64.8082C116.07 64.8307 116.277 64.872 116.479 64.9314C116.668 64.9821 116.849 65.0589 117.017 65.1595L116.658 66.0038C116.317 65.8077 115.933 65.6977 115.539 65.6833C115.366 65.6731 115.194 65.707 115.038 65.782C114.991 65.8084 114.952 65.8469 114.925 65.8935C114.897 65.9401 114.883 65.9931 114.884 66.047C114.885 66.1006 114.903 66.1526 114.935 66.1956C114.967 66.2387 115.012 66.2707 115.063 66.2873C115.263 66.3641 115.47 66.4219 115.681 66.4599C115.942 66.5121 116.198 66.5843 116.448 66.6756C116.648 66.7508 116.826 66.8736 116.967 67.0331C117.122 67.2194 117.202 67.4569 117.19 67.6987C117.191 67.8541 117.161 68.0081 117.1 68.1512C117.04 68.2944 116.95 68.4235 116.837 68.5308Z" fill="url(#paint22_linear_666_1518)"/>
<path d="M28.7612 67.5385V63.5015H29.9113V66.6571H30.6779V67.5385H28.7612Z" fill="url(#paint23_linear_666_1518)"/>
<path d="M27.3079 63.6618C27.5825 63.837 27.7979 64.0904 27.9262 64.3891C28.0885 64.7423 28.1648 65.1288 28.1488 65.517C28.1557 65.905 28.0776 66.2899 27.92 66.6448C27.7852 66.9379 27.5711 67.1876 27.3017 67.3659C27.0203 67.5287 26.6996 67.6118 26.3743 67.6063C26.0494 67.6105 25.73 67.5229 25.453 67.3536C25.1784 67.1784 24.963 66.9251 24.8347 66.6263C24.6786 66.2711 24.6026 65.8861 24.6121 65.4985C24.6034 65.1096 24.6837 64.7238 24.8471 64.3706C24.9798 64.0763 25.1944 63.826 25.4654 63.6495C25.7446 63.4869 26.0633 63.4038 26.3866 63.4091C26.7116 63.4038 27.0313 63.4915 27.3079 63.6618ZM25.9229 64.6171C25.788 64.8928 25.7262 65.1984 25.7436 65.5046C25.7248 65.8097 25.7822 66.1146 25.9105 66.3921C25.9554 66.4759 26.0222 66.546 26.1039 66.5948C26.1855 66.6437 26.279 66.6695 26.3743 66.6695C26.4695 66.6695 26.563 66.6437 26.6447 66.5948C26.7263 66.546 26.7932 66.4759 26.838 66.3921C26.9705 66.118 27.0301 65.8145 27.0111 65.5108C27.0386 65.2053 26.9808 64.8981 26.8442 64.6233C26.7996 64.5388 26.7331 64.4678 26.6514 64.4179C26.5698 64.368 26.4762 64.341 26.3804 64.3398C26.286 64.3395 26.1932 64.3653 26.1125 64.4142C26.0318 64.4632 25.9662 64.5334 25.9229 64.6171V64.6171Z" fill="url(#paint24_linear_666_1518)"/>
<path d="M23.3449 63.6433C23.6195 63.8185 23.8349 64.0718 23.9632 64.3706C24.1256 64.7238 24.2018 65.1103 24.1858 65.4984C24.1935 65.8846 24.1153 66.2676 23.9571 66.6202C23.8258 66.9154 23.6109 67.166 23.3388 67.3413C23.059 67.5086 22.7376 67.5941 22.4113 67.5878C22.0864 67.592 21.767 67.5044 21.4901 67.3351C21.2155 67.1599 21.0001 66.9065 20.8718 66.6078C20.7163 66.2525 20.6403 65.8676 20.6492 65.48C20.6398 65.091 20.7202 64.7051 20.8841 64.3521C20.9939 64.1379 21.1466 63.9485 21.3327 63.7956C21.5189 63.6426 21.7346 63.5294 21.9665 63.463C22.1984 63.3965 22.4414 63.3782 22.6807 63.4093C22.9199 63.4403 23.1502 63.5199 23.3573 63.6433H23.3449ZM21.96 64.5986C21.8242 64.874 21.7625 65.1798 21.7807 65.4861C21.7619 65.7912 21.8192 66.0961 21.9476 66.3736C21.9909 66.4574 22.0565 66.5276 22.1372 66.5765C22.2179 66.6254 22.3106 66.6512 22.4051 66.651C22.5013 66.6514 22.5958 66.6259 22.6785 66.577C22.7613 66.5282 22.8292 66.4579 22.875 66.3736C23.0076 66.0995 23.0672 65.796 23.0482 65.4923C23.0756 65.1868 23.0179 64.8796 22.8812 64.6048C22.8372 64.5198 22.7708 64.4485 22.689 64.3986C22.6073 64.3486 22.5134 64.3219 22.4175 64.3213C22.323 64.321 22.2303 64.3468 22.1496 64.3957C22.0688 64.4447 22.0032 64.5149 21.96 64.5986V64.5986Z" fill="url(#paint25_linear_666_1518)"/>
<path d="M17.1615 63.8405C17.4376 63.5872 17.7896 63.4313 18.1632 63.3968V62.7805H18.8557V63.3968C19.1348 63.4128 19.4109 63.4625 19.678 63.5447C19.8973 63.6132 20.1055 63.7128 20.2963 63.8405L19.913 64.6787C19.721 64.5547 19.513 64.4573 19.2947 64.3891C19.0666 64.3172 18.829 64.2798 18.5898 64.2781C18.1446 64.2781 17.9282 64.3829 17.9282 64.6048C17.9282 64.6611 17.9462 64.7159 17.9795 64.7613C18.0129 64.8068 18.0599 64.8405 18.1137 64.8575C18.3138 64.936 18.5208 64.9959 18.732 65.0362C18.992 65.0913 19.2481 65.1634 19.4987 65.2519C19.7018 65.3271 19.8826 65.4522 20.0243 65.6156C20.176 65.8058 20.253 66.0446 20.2407 66.2873C20.2399 66.4462 20.2073 66.6033 20.1446 66.7494C20.0819 66.8955 19.9906 67.0276 19.8759 67.1379C19.5877 67.3924 19.2216 67.5423 18.8371 67.5631V68.1795H18.1385V67.5631C17.9291 67.5406 17.7221 67.4993 17.5202 67.4399C17.3311 67.3892 17.15 67.3124 16.9822 67.2118L17.3409 66.3675C17.6821 66.5636 18.0663 66.6736 18.46 66.688C18.6326 66.6982 18.805 66.6643 18.9608 66.5894C19.0079 66.5629 19.0471 66.5244 19.0743 66.4778C19.1015 66.4312 19.1157 66.3782 19.1154 66.3243C19.1128 66.2702 19.0937 66.2181 19.0605 66.1751C19.0273 66.1321 18.9817 66.1003 18.9299 66.084C18.7302 66.0056 18.523 65.9478 18.3116 65.9114C18.0509 65.8592 17.7945 65.787 17.5449 65.6957C17.3437 65.6233 17.1647 65.5001 17.0255 65.3382C16.8704 65.1519 16.791 64.9144 16.8029 64.6726C16.8022 64.5168 16.8336 64.3625 16.8953 64.2193C16.957 64.0762 17.0476 63.9472 17.1615 63.8405V63.8405Z" fill="url(#paint26_linear_666_1518)"/>
<path d="M89.416 106.256C89.3813 106.429 89.3075 106.591 89.2004 106.731C89.0933 106.871 88.9556 106.985 88.7977 107.063C88.5855 107.185 88.3435 107.244 88.0991 107.236C87.8349 107.222 87.581 107.129 87.3695 106.971C87.111 106.766 86.9001 106.507 86.7512 106.213C86.609 105.967 86.4989 105.704 86.4235 105.43C86.3477 105.181 86.3143 104.92 86.3246 104.66L87.2767 104.592C87.2593 104.799 87.276 105.007 87.3262 105.208C87.3665 105.401 87.4375 105.586 87.5364 105.757C87.6125 105.904 87.7281 106.028 87.8703 106.114C87.9246 106.146 87.9865 106.163 88.0496 106.163C88.1127 106.163 88.1746 106.146 88.2289 106.114C88.284 106.087 88.3302 106.045 88.362 105.993C88.3938 105.94 88.4098 105.88 88.4082 105.818C88.3912 105.608 88.3187 105.406 88.198 105.233L87.6601 104.278L89.8179 103.292L91.0854 105.529L90.3188 105.966L89.515 104.549L88.9771 104.795L89.1069 105.03C89.349 105.391 89.4582 105.824 89.416 106.256Z" fill="url(#paint27_linear_666_1518)"/>
<path d="M89.7187 110.466C89.3661 110.362 89.0576 110.145 88.8407 109.849L88.2781 110.164L87.938 109.547L88.4759 109.245C88.3549 108.993 88.2617 108.729 88.1977 108.456C88.1457 108.228 88.1249 107.994 88.1358 107.76L89.0571 107.667C89.045 107.899 89.0658 108.132 89.1189 108.358C89.1648 108.592 89.2506 108.817 89.3724 109.023C89.5888 109.405 89.7929 109.541 89.9907 109.436C90.0395 109.407 90.0781 109.364 90.1013 109.312C90.1245 109.26 90.1312 109.202 90.1206 109.147C90.0917 108.937 90.042 108.73 89.9722 108.53C89.8914 108.278 89.8274 108.021 89.7805 107.76C89.7498 107.553 89.7688 107.342 89.8362 107.144C89.9272 106.92 90.0962 106.736 90.3122 106.626C90.4501 106.546 90.6029 106.494 90.7614 106.475C90.9198 106.456 91.0805 106.47 91.2335 106.515C91.5977 106.639 91.9106 106.88 92.1239 107.199L92.6741 106.891L93.0204 107.507L92.4763 107.815C92.5669 108.013 92.6373 108.22 92.6865 108.432C92.7355 108.621 92.7583 108.816 92.7545 109.011L91.8456 109.122C91.8456 108.728 91.7479 108.341 91.5612 107.994C91.4883 107.838 91.3726 107.705 91.2273 107.612C91.1815 107.585 91.1291 107.571 91.0758 107.571C91.0225 107.571 90.9702 107.585 90.9244 107.612C90.8771 107.639 90.8397 107.681 90.8175 107.731C90.7953 107.78 90.7894 107.836 90.8007 107.889C90.8293 108.099 90.879 108.306 90.9491 108.506C91.0336 108.755 91.0998 109.011 91.1469 109.27C91.1752 109.477 91.1562 109.688 91.0913 109.886C91.0055 110.113 90.838 110.3 90.6214 110.41C90.4824 110.479 90.3308 110.52 90.1757 110.529C90.0206 110.539 89.8652 110.517 89.7187 110.466V110.466Z" fill="url(#paint28_linear_666_1518)"/>
<path d="M44.5459 26.1399C44.5793 25.9668 44.6526 25.8039 44.7598 25.6638C44.8671 25.5237 45.0055 25.4103 45.1642 25.3325C45.3745 25.2122 45.6143 25.1525 45.8567 25.1599C46.1204 25.1764 46.3737 25.2684 46.5862 25.4249C46.8572 25.6256 47.0792 25.8848 47.2355 26.183C47.3761 26.4319 47.4862 26.6968 47.5632 26.9719C47.6368 27.2219 47.6701 27.4819 47.6621 27.7423L46.7099 27.804C46.7208 27.6074 46.7042 27.4104 46.6604 27.2184C46.6182 27.0252 46.5451 26.8401 46.444 26.6699C46.3719 26.5216 46.258 26.3974 46.1163 26.3125C46.062 26.2805 46.0001 26.2636 45.937 26.2636C45.874 26.2636 45.812 26.2805 45.7577 26.3125C45.7019 26.3409 45.655 26.3841 45.6223 26.4374C45.5895 26.4907 45.5722 26.552 45.5722 26.6145C45.5966 26.8211 45.6685 27.0194 45.7825 27.1938L46.3266 28.1491L44.1687 29.1352L42.895 26.898L43.6617 26.4665L44.4655 27.8841L45.0034 27.6376L44.8674 27.4033C44.6145 27.033 44.5006 26.5856 44.5459 26.1399V26.1399Z" fill="url(#paint29_linear_666_1518)"/>
<path d="M44.2802 21.9304C44.6346 22.0339 44.9452 22.2504 45.1644 22.5467L45.7208 22.2324L46.0671 22.8487L45.523 23.1507C45.6484 23.4011 45.7419 23.6661 45.8012 23.9396C45.8592 24.1669 45.8801 24.4021 45.863 24.6361L44.8985 24.7347C44.9157 24.5031 44.8969 24.2703 44.8429 24.0444C44.7931 23.8109 44.7076 23.5864 44.5894 23.3788C44.3729 22.9966 44.1689 22.861 43.9711 22.9658C43.9223 22.9951 43.8837 23.0385 43.8605 23.0903C43.8373 23.1421 43.8305 23.1998 43.8412 23.2555C43.8704 23.4647 43.9179 23.6709 43.9834 23.8718C44.0664 24.1235 44.1305 24.381 44.1751 24.6422C44.2081 24.8487 44.1911 25.06 44.1256 25.2585C44.0366 25.4838 43.867 25.6682 43.6495 25.7763C43.5123 25.8579 43.3594 25.9099 43.2007 25.929C43.042 25.9481 42.8811 25.9339 42.7283 25.8872C42.3623 25.7664 42.0483 25.5251 41.8379 25.2031L41.2815 25.5112L40.9414 24.8949L41.4855 24.5868C41.3955 24.3886 41.3251 24.1822 41.2753 23.9704C41.2249 23.7689 41.2 23.5618 41.2011 23.3541L42.1162 23.2432C42.1066 23.6664 42.2135 24.0842 42.4253 24.4512C42.4982 24.6074 42.6139 24.7399 42.7592 24.8333C42.805 24.8604 42.8574 24.8747 42.9107 24.8747C42.964 24.8747 43.0163 24.8604 43.0622 24.8333C43.109 24.8057 43.1457 24.7639 43.1669 24.714C43.188 24.664 43.1925 24.6086 43.1796 24.5559C43.1507 24.3467 43.1031 24.1404 43.0374 23.9396C42.9529 23.69 42.8868 23.4346 42.8396 23.1754C42.8086 22.9684 42.8277 22.7571 42.8952 22.559C42.9788 22.3309 43.147 22.1434 43.3651 22.0352C43.502 21.9554 43.6541 21.9049 43.8116 21.8869C43.9692 21.8689 44.1287 21.8837 44.2802 21.9304Z" fill="url(#paint30_linear_666_1518)"/>
<path style="mix-blend-mode:multiply" opacity="0.7" d="M72.6785 67.5323C72.6822 68.8094 72.3057 70.0588 71.5966 71.1224C70.8875 72.186 69.8777 73.016 68.6952 73.5072C67.5126 73.9985 66.2104 74.1289 64.9535 73.882C63.6965 73.6351 62.5413 73.022 61.6341 72.1203C60.7269 71.2186 60.1085 70.0688 59.8572 68.8165C59.6059 67.5643 59.733 66.2659 60.2224 65.0857C60.7119 63.9055 61.5416 62.8966 62.6065 62.1867C63.6715 61.4768 64.9238 61.0979 66.205 61.0979C67.9187 61.0979 69.5624 61.7752 70.7759 62.9814C71.9894 64.1875 72.6736 65.8241 72.6785 67.5323V67.5323Z" fill="url(#paint31_radial_666_1518)"/>
<path d="M70.9227 66.2134C70.9227 66.9874 70.6924 67.7441 70.261 68.3877C69.8296 69.0313 69.2164 69.5329 68.499 69.8291C67.7816 70.1254 66.9921 70.2029 66.2305 70.0519C65.4689 69.9008 64.7693 69.5281 64.2203 68.9808C63.6712 68.4334 63.2972 67.7361 63.1458 66.9769C62.9943 66.2177 63.072 65.4308 63.3692 64.7157C63.6663 64.0006 64.1696 63.3893 64.8152 62.9593C65.4609 62.5292 66.22 62.2997 66.9965 62.2997C68.0378 62.2997 69.0364 62.712 69.7727 63.446C70.509 64.18 70.9227 65.1754 70.9227 66.2134Z" fill="url(#paint32_linear_666_1518)"/>
<defs>
<linearGradient id="paint0_linear_666_1518" x1="138.027" y1="66.211" x2="0.64253" y2="66.6495" gradientUnits="userSpaceOnUse">
<stop stop-color="#0E5DF8"/>
<stop offset="0.31" stop-color="#0F4EE0"/>
<stop offset="0.96" stop-color="#1026A3"/>
<stop offset="1" stop-color="#10249F"/>
</linearGradient>
<linearGradient id="paint1_linear_666_1518" x1="66.8074" y1="6.30535" x2="66.8074" y2="133.52" gradientUnits="userSpaceOnUse">
<stop stop-color="#FFFB90"/>
<stop offset="0.14" stop-color="#FBEA78"/>
<stop offset="0.24" stop-color="#F8DC65"/>
<stop offset="0.27" stop-color="#E6C758"/>
<stop offset="0.34" stop-color="#C5A041"/>
<stop offset="0.4" stop-color="#AD8330"/>
<stop offset="0.45" stop-color="#9E7226"/>
<stop offset="0.49" stop-color="#996C22"/>
<stop offset="0.52" stop-color="#9D7126"/>
<stop offset="0.56" stop-color="#AA8131"/>
<stop offset="0.6" stop-color="#BE9B42"/>
<stop offset="0.64" stop-color="#DABE5B"/>
<stop offset="0.69" stop-color="#FBE878"/>
<stop offset="0.77" stop-color="#FFFFAA"/>
<stop offset="0.83" stop-color="#FBE878"/>
<stop offset="1" stop-color="#A4631B"/>
</linearGradient>
<radialGradient id="paint2_radial_666_1518" cx="0" cy="0" r="1" gradientUnits="userSpaceOnUse" gradientTransform="translate(66.9963 66.2134) scale(61.978 61.7805)">
<stop offset="0.37" stop-color="#FDFDFD"/>
<stop offset="0.65" stop-color="#FBFBFB"/>
<stop offset="0.81" stop-color="#F2F2F2"/>
<stop offset="0.94" stop-color="#E4E4E4"/>
<stop offset="1" stop-color="#DBDBDB"/>
</radialGradient>
<linearGradient id="paint3_linear_666_1518" x1="100.545" y1="13.3265" x2="25.0396" y2="89.0735" gradientUnits="userSpaceOnUse">
<stop stop-color="#50DBFF"/>
<stop offset="0.52" stop-color="#2069FF"/>
<stop offset="0.76" stop-color="#915DC0"/>
<stop offset="1" stop-color="#FF5183"/>
</linearGradient>
<linearGradient id="paint4_linear_666_1518" x1="127.8" y1="40.5003" x2="52.3001" y2="116.241" gradientUnits="userSpaceOnUse">
<stop stop-color="#50DBFF"/>
<stop offset="0.52" stop-color="#2069FF"/>
<stop offset="0.76" stop-color="#915DC0"/>
<stop offset="1" stop-color="#FF5183"/>
</linearGradient>
<linearGradient id="paint5_linear_666_1518" x1="130.854" y1="43.5449" x2="55.3547" y2="119.286" gradientUnits="userSpaceOnUse">
<stop stop-color="#50DBFF"/>
<stop offset="0.52" stop-color="#2069FF"/>
<stop offset="0.76" stop-color="#915DC0"/>
<stop offset="1" stop-color="#FF5183"/>
</linearGradient>
<linearGradient id="paint6_linear_666_1518" x1="120.053" y1="32.7716" x2="44.5469" y2="108.519" gradientUnits="userSpaceOnUse">
<stop stop-color="#50DBFF"/>
<stop offset="0.52" stop-color="#2069FF"/>
<stop offset="0.76" stop-color="#915DC0"/>
<stop offset="1" stop-color="#FF5183"/>
</linearGradient>
<linearGradient id="paint7_linear_666_1518" x1="89.7437" y1="2.55927" x2="14.2379" y2="78.3063" gradientUnits="userSpaceOnUse">
<stop stop-color="#50DBFF"/>
<stop offset="0.52" stop-color="#2069FF"/>
<stop offset="0.76" stop-color="#915DC0"/>
<stop offset="1" stop-color="#FF5183"/>
</linearGradient>
<linearGradient id="paint8_linear_666_1518" x1="92.7979" y1="5.60389" x2="17.2922" y2="81.3509" gradientUnits="userSpaceOnUse">
<stop stop-color="#50DBFF"/>
<stop offset="0.52" stop-color="#2069FF"/>
<stop offset="0.76" stop-color="#915DC0"/>
<stop offset="1" stop-color="#FF5183"/>
</linearGradient>
<linearGradient id="paint9_linear_666_1518" x1="93.6575" y1="27.428" x2="26.6324" y2="94.6675" gradientUnits="userSpaceOnUse">
<stop stop-color="#50DBFF"/>
<stop offset="0.52" stop-color="#2069FF"/>
<stop offset="0.76" stop-color="#915DC0"/>
<stop offset="1" stop-color="#FF5183"/>
</linearGradient>
<linearGradient id="paint10_linear_666_1518" x1="92.9399" y1="26.7131" x2="25.9148" y2="93.9524" gradientUnits="userSpaceOnUse">
<stop stop-color="#50DBFF"/>
<stop offset="0.52" stop-color="#2069FF"/>
<stop offset="0.76" stop-color="#915DC0"/>
<stop offset="1" stop-color="#FF5183"/>
</linearGradient>
<linearGradient id="paint11_linear_666_1518" x1="92.3157" y1="26.0968" x2="25.2906" y2="93.3361" gradientUnits="userSpaceOnUse">
<stop stop-color="#50DBFF"/>
<stop offset="0.52" stop-color="#2069FF"/>
<stop offset="0.76" stop-color="#915DC0"/>
<stop offset="1" stop-color="#FF5183"/>
</linearGradient>
<linearGradient id="paint12_linear_666_1518" x1="91.3695" y1="25.1476" x2="24.3444" y2="92.3869" gradientUnits="userSpaceOnUse">
<stop stop-color="#50DBFF"/>
<stop offset="0.52" stop-color="#2069FF"/>
<stop offset="0.76" stop-color="#915DC0"/>
<stop offset="1" stop-color="#FF5183"/>
</linearGradient>
<linearGradient id="paint13_linear_666_1518" x1="103.612" y1="37.3509" x2="36.5869" y2="104.59" gradientUnits="userSpaceOnUse">
<stop stop-color="#50DBFF"/>
<stop offset="0.52" stop-color="#2069FF"/>
<stop offset="0.76" stop-color="#915DC0"/>
<stop offset="1" stop-color="#FF5183"/>
</linearGradient>
<linearGradient id="paint14_linear_666_1518" x1="104.113" y1="37.8501" x2="37.0877" y2="105.089" gradientUnits="userSpaceOnUse">
<stop stop-color="#50DBFF"/>
<stop offset="0.52" stop-color="#2069FF"/>
<stop offset="0.76" stop-color="#915DC0"/>
<stop offset="1" stop-color="#FF5183"/>
</linearGradient>
<linearGradient id="paint15_linear_666_1518" x1="105.121" y1="38.8547" x2="38.0955" y2="106.094" gradientUnits="userSpaceOnUse">
<stop stop-color="#50DBFF"/>
<stop offset="0.52" stop-color="#2069FF"/>
<stop offset="0.76" stop-color="#915DC0"/>
<stop offset="1" stop-color="#FF5183"/>
</linearGradient>
<linearGradient id="paint16_linear_666_1518" x1="105.887" y1="39.619" x2="38.8623" y2="106.858" gradientUnits="userSpaceOnUse">
<stop stop-color="#50DBFF"/>
<stop offset="0.52" stop-color="#2069FF"/>
<stop offset="0.76" stop-color="#915DC0"/>
<stop offset="1" stop-color="#FF5183"/>
</linearGradient>
<linearGradient id="paint17_linear_666_1518" x1="106.518" y1="40.2536" x2="39.4927" y2="107.493" gradientUnits="userSpaceOnUse">
<stop stop-color="#50DBFF"/>
<stop offset="0.52" stop-color="#2069FF"/>
<stop offset="0.76" stop-color="#915DC0"/>
<stop offset="1" stop-color="#FF5183"/>
</linearGradient>
<linearGradient id="paint18_linear_666_1518" x1="107.464" y1="41.1967" x2="40.4388" y2="108.436" gradientUnits="userSpaceOnUse">
<stop stop-color="#50DBFF"/>
<stop offset="0.52" stop-color="#2069FF"/>
<stop offset="0.76" stop-color="#915DC0"/>
<stop offset="1" stop-color="#FF5183"/>
</linearGradient>
<linearGradient id="paint19_linear_666_1518" x1="108.348" y1="42.072" x2="41.3231" y2="109.311" gradientUnits="userSpaceOnUse">
<stop stop-color="#50DBFF"/>
<stop offset="0.52" stop-color="#2069FF"/>
<stop offset="0.76" stop-color="#915DC0"/>
<stop offset="1" stop-color="#FF5183"/>
</linearGradient>
<linearGradient id="paint20_linear_666_1518" x1="120.448" y1="54.1334" x2="53.4228" y2="121.373" gradientUnits="userSpaceOnUse">
<stop stop-color="#50DBFF"/>
<stop offset="0.52" stop-color="#2069FF"/>
<stop offset="0.76" stop-color="#915DC0"/>
<stop offset="1" stop-color="#FF5183"/>
</linearGradient>
<linearGradient id="paint21_linear_666_1518" x1="122.408" y1="56.0933" x2="55.383" y2="123.333" gradientUnits="userSpaceOnUse">
<stop stop-color="#50DBFF"/>
<stop offset="0.52" stop-color="#2069FF"/>
<stop offset="0.76" stop-color="#915DC0"/>
<stop offset="1" stop-color="#FF5183"/>
</linearGradient>
<linearGradient id="paint22_linear_666_1518" x1="124.381" y1="58.0532" x2="57.3493" y2="125.293" gradientUnits="userSpaceOnUse">
<stop stop-color="#50DBFF"/>
<stop offset="0.52" stop-color="#2069FF"/>
<stop offset="0.76" stop-color="#915DC0"/>
<stop offset="1" stop-color="#FF5183"/>
</linearGradient>
<linearGradient id="paint23_linear_666_1518" x1="80.797" y1="14.6084" x2="13.772" y2="81.8477" gradientUnits="userSpaceOnUse">
<stop stop-color="#50DBFF"/>
<stop offset="0.52" stop-color="#2069FF"/>
<stop offset="0.76" stop-color="#915DC0"/>
<stop offset="1" stop-color="#FF5183"/>
</linearGradient>
<linearGradient id="paint24_linear_666_1518" x1="79.1211" y1="12.9382" x2="12.0898" y2="80.1776" gradientUnits="userSpaceOnUse">
<stop stop-color="#50DBFF"/>
<stop offset="0.52" stop-color="#2069FF"/>
<stop offset="0.76" stop-color="#915DC0"/>
<stop offset="1" stop-color="#FF5183"/>
</linearGradient>
<linearGradient id="paint25_linear_666_1518" x1="77.1243" y1="10.9536" x2="10.0993" y2="78.193" gradientUnits="userSpaceOnUse">
<stop stop-color="#50DBFF"/>
<stop offset="0.52" stop-color="#2069FF"/>
<stop offset="0.76" stop-color="#915DC0"/>
<stop offset="1" stop-color="#FF5183"/>
</linearGradient>
<linearGradient id="paint26_linear_666_1518" x1="75.1577" y1="8.98757" x2="8.13267" y2="76.2331" gradientUnits="userSpaceOnUse">
<stop stop-color="#50DBFF"/>
<stop offset="0.52" stop-color="#2069FF"/>
<stop offset="0.76" stop-color="#915DC0"/>
<stop offset="1" stop-color="#FF5183"/>
</linearGradient>
<linearGradient id="paint27_linear_666_1518" x1="130.131" y1="63.7851" x2="63.1058" y2="131.031" gradientUnits="userSpaceOnUse">
<stop stop-color="#50DBFF"/>
<stop offset="0.52" stop-color="#2069FF"/>
<stop offset="0.76" stop-color="#915DC0"/>
<stop offset="1" stop-color="#FF5183"/>
</linearGradient>
<linearGradient id="paint28_linear_666_1518" x1="132.641" y1="66.2874" x2="65.6158" y2="133.527" gradientUnits="userSpaceOnUse">
<stop stop-color="#50DBFF"/>
<stop offset="0.52" stop-color="#2069FF"/>
<stop offset="0.76" stop-color="#915DC0"/>
<stop offset="1" stop-color="#FF5183"/>
</linearGradient>
<linearGradient id="paint29_linear_666_1518" x1="69.4075" y1="3.2557" x2="2.38244" y2="70.495" gradientUnits="userSpaceOnUse">
<stop stop-color="#50DBFF"/>
<stop offset="0.52" stop-color="#2069FF"/>
<stop offset="0.76" stop-color="#915DC0"/>
<stop offset="1" stop-color="#FF5183"/>
</linearGradient>
<linearGradient id="paint30_linear_666_1518" x1="66.8975" y1="0.753433" x2="-0.127624" y2="67.9928" gradientUnits="userSpaceOnUse">
<stop stop-color="#50DBFF"/>
<stop offset="0.52" stop-color="#2069FF"/>
<stop offset="0.76" stop-color="#915DC0"/>
<stop offset="1" stop-color="#FF5183"/>
</linearGradient>
<radialGradient id="paint31_radial_666_1518" cx="0" cy="0" r="1" gradientUnits="userSpaceOnUse" gradientTransform="translate(66.205 67.5323) scale(6.47356 6.45293)">
<stop offset="0.34" stop-color="#400500"/>
<stop offset="0.37" stop-color="#4F1814"/>
<stop offset="0.47" stop-color="#7D5451"/>
<stop offset="0.57" stop-color="#A48886"/>
<stop offset="0.67" stop-color="#C5B3B2"/>
<stop offset="0.76" stop-color="#DED4D3"/>
<stop offset="0.85" stop-color="#F0ECEB"/>
<stop offset="0.93" stop-color="#FBFAFA"/>
<stop offset="1" stop-color="white"/>
</radialGradient>
<linearGradient id="paint32_linear_666_1518" x1="75.3435" y1="57.8991" x2="50.8077" y2="82.5072" gradientUnits="userSpaceOnUse">
<stop stop-color="#0E5DF8"/>
<stop offset="0.31" stop-color="#0F4EE0"/>
<stop offset="0.96" stop-color="#1026A3"/>
<stop offset="1" stop-color="#10249F"/>
</linearGradient>
</defs>
</svg>
