<svg width="39" height="137" viewBox="0 0 39 137" fill="none" xmlns="http://www.w3.org/2000/svg">
<path style="mix-blend-mode:screen" d="M25.75 55.48L11.5 78.22H5.16L0 55.48H6.59L9.84 70.26L19.13 55.48H25.75Z" fill="url(#paint0_linear_577_1677)"/>
<path style="mix-blend-mode:screen" d="M20.64 90.63C19.1797 90.2725 17.7879 89.678 16.52 88.87L19.05 84.07C20.1884 84.7971 21.424 85.3594 22.72 85.74C23.9861 86.1151 25.2995 86.3071 26.62 86.31C27.6059 86.3596 28.5895 86.1745 29.49 85.77C29.7819 85.6464 30.0317 85.4408 30.2092 85.1781C30.3866 84.9154 30.4842 84.607 30.49 84.29C30.4817 84.0117 30.3893 83.7424 30.2251 83.5175C30.0609 83.2927 29.8326 83.1227 29.57 83.03C28.6427 82.6092 27.6786 82.2744 26.69 82.03C25.4432 81.7136 24.2175 81.3195 23.02 80.85C22.0523 80.4444 21.1977 79.8095 20.53 79C19.7896 78.0875 19.4122 76.9337 19.47 75.76C19.4503 74.238 19.9162 72.7493 20.8 71.51C21.775 70.2254 23.0919 69.2412 24.6 68.67C26.4442 67.9673 28.4069 67.6277 30.38 67.67C31.9111 67.656 33.4385 67.8238 34.93 68.17C36.2105 68.4589 37.4384 68.9447 38.57 69.61L36.23 74.39C35.3192 73.8193 34.3283 73.3879 33.29 73.11C32.2154 72.8128 31.105 72.6647 29.99 72.67C28.9546 72.6177 27.9227 72.8275 26.99 73.28C26.6769 73.4181 26.4088 73.6413 26.2161 73.9241C26.0234 74.2069 25.9139 74.5381 25.9 74.88C25.9062 75.1598 25.9949 75.4315 26.1551 75.661C26.3152 75.8905 26.5396 76.0676 26.8 76.17C27.7445 76.591 28.7252 76.9257 29.73 77.17C30.971 77.4672 32.1905 77.8481 33.38 78.31C34.3378 78.6953 35.1885 79.3059 35.86 80.09C36.5712 80.9803 36.9274 82.1025 36.86 83.24C36.886 84.7614 36.4156 86.2499 35.52 87.48C34.5615 88.7428 33.2747 89.7183 31.8 90.3C29.9626 91.0022 28.0066 91.3418 26.04 91.3C24.2184 91.3145 22.4028 91.0892 20.64 90.63Z" fill="url(#paint1_linear_577_1677)"/>
<path style="mix-blend-mode:screen" d="M3.80005 137C6.014 125.428 8.54424 113.928 11.1614 102.452C12.4503 96.7101 13.8498 90.9998 15.1861 85.2736L19.3847 68.1426L23.7335 51.0434C25.2438 45.3569 26.6907 39.6546 28.2563 33.9839C29.8219 28.3133 31.3559 22.6348 32.9452 16.9721L37.8 0C37.381 2.92267 36.788 5.80562 36.2187 8.73623C35.6494 11.6668 35.0484 14.5101 34.4633 17.393L32.6447 25.9863C32.02 28.8613 31.3559 31.7681 30.6838 34.6034C30.0117 37.4387 29.387 40.3376 28.707 43.2046L26.7303 51.79L22.5317 68.9368L18.167 86.0281C16.6489 91.7146 15.1861 97.4169 13.6126 103.08C10.521 114.437 7.31865 125.762 3.80005 137Z" fill="url(#paint2_linear_577_1677)"/>
<defs>
<linearGradient id="paint0_linear_577_1677" x1="-14.08" y1="57.83" x2="19.2" y2="67.99" gradientUnits="userSpaceOnUse">
<stop stop-color="#747474"/>
<stop offset="0.15" stop-color="#4D4D4D"/>
<stop offset="0.43" stop-color="#D8D8D8"/>
<stop offset="0.63" stop-color="#D8D8D8"/>
<stop offset="0.93" stop-color="#4D4D4D"/>
<stop offset="0.95" stop-color="#5E5E5E"/>
<stop offset="1" stop-color="#7D7D7D"/>
</linearGradient>
<linearGradient id="paint1_linear_577_1677" x1="20.29" y1="77.36" x2="47.47" y2="84.73" gradientUnits="userSpaceOnUse">
<stop stop-color="#747474"/>
<stop offset="0.15" stop-color="#4D4D4D"/>
<stop offset="0.43" stop-color="#D8D8D8"/>
<stop offset="0.63" stop-color="#D8D8D8"/>
<stop offset="0.93" stop-color="#4D4D4D"/>
<stop offset="0.95" stop-color="#5E5E5E"/>
<stop offset="1" stop-color="#7D7D7D"/>
</linearGradient>
<linearGradient id="paint2_linear_577_1677" x1="20.808" y1="4.75728" x2="20.808" y2="135.42" gradientUnits="userSpaceOnUse">
<stop stop-color="#747474"/>
<stop offset="0.15" stop-color="#4D4D4D"/>
<stop offset="0.43" stop-color="#D8D8D8"/>
<stop offset="0.63" stop-color="#D8D8D8"/>
<stop offset="0.93" stop-color="#4D4D4D"/>
<stop offset="0.95" stop-color="#5E5E5E"/>
<stop offset="1" stop-color="#7D7D7D"/>
</linearGradient>
</defs>
</svg>
